<?xml version="1.0" encoding="UTF-8" standalone="yes"?>
<!DOCTYPE svg PUBLIC "-//W3C//DTD SVG 1.0//EN" "http://www.w3.org/TR/2001/REC-SVG-20010904/DTD/svg10.dtd">
<svg height="600" width="800" xmlns="http://www.w3.org/2000/svg" xmlns:svg="http://www.w3.org/2000/svg" xmlns:xlink="http://www.w3.org/1999/xlink">
	<line class="breakpoint" style="fill: white; stroke: black; stroke-width: 0.1" x1="347" x2="347" y1="100" y2="300" />
	<text class="breakpoint" style="font: 10px Verdana" transform="rotate(-90,4,90)" x="4" y="90">45,479</text>
	<line class="breakpoint" style="fill: white; stroke: black; stroke-width: 0.1" x1="401" x2="401" y1="100" y2="300" />
	<text class="breakpoint" style="font: 10px Verdana" transform="rotate(-90,351,90)" x="351" y="90">55,537</text>
	<line class="breakpoint" style="fill: white; stroke: black; stroke-width: 0.1" x1="417" x2="417" y1="100" y2="300" />
	<text class="breakpoint" style="font: 10px Verdana" transform="rotate(-90,405,90)" x="405" y="90">57,075</text>
	<line class="breakpoint" style="fill: white; stroke: black; stroke-width: 0.1" x1="519" x2="519" y1="100" y2="300" />
	<text class="breakpoint" style="font: 10px Verdana" transform="rotate(-90,421,90)" x="421" y="90">57,540</text>
	<line class="breakpoint" style="fill: white; stroke: black; stroke-width: 0.1" x1="720" x2="720" y1="100" y2="300" />
	<text class="breakpoint" style="font: 10px Verdana" transform="rotate(-90,523,90)" x="523" y="90">60,494</text>
	<line class="breakpoint" style="fill: white; stroke: black; stroke-width: 0.1" x1="755" x2="755" y1="100" y2="300" />
	<text class="breakpoint" style="font: 10px Verdana" transform="rotate(-90,724,90)" x="724" y="90">66,312</text>
	<line class="breakpoint" style="fill: white; stroke: black; stroke-width: 0.1" x1="800" x2="800" y1="100" y2="300" />
	<text class="breakpoint" style="font: 10px Verdana" transform="rotate(-90,759,90)" x="759" y="90">67,348</text>
	<polyline class="scale" points="0,294 0,306 0,300 3,300 3,298 3,302 3,300 7,300 7,298 7,302 7,300 10,300 10,298 10,302 10,300 14,300 14,298 14,302 14,300 17,300 17,298 17,302 17,300 21,300 21,298 21,302 21,300 24,300 24,298 24,302 24,300 28,300 28,298 28,302 28,300 31,300 31,298 31,302 31,300 35,300 35,294 35,306 35,300 38,300 38,298 38,302 38,300 41,300 41,298 41,302 41,300 45,300 45,298 45,302 45,300 48,300 48,298 48,302 48,300 52,300 52,298 52,302 52,300 55,300 55,298 55,302 55,300 59,300 59,298 59,302 59,300 62,300 62,298 62,302 62,300 66,300 66,298 66,302 66,300 69,300 69,294 69,306 69,300 73,300 73,298 73,302 73,300 76,300 76,298 76,302 76,300 79,300 79,298 79,302 79,300 83,300 83,298 83,302 83,300 86,300 86,298 86,302 86,300 90,300 90,298 90,302 90,300 93,300 93,298 93,302 93,300 97,300 97,298 97,302 97,300 100,300 100,298 100,302 100,300 104,300 104,294 104,306 104,300 107,300 107,298 107,302 107,300 111,300 111,298 111,302 111,300 114,300 114,298 114,302 114,300 117,300 117,298 117,302 117,300 121,300 121,298 121,302 121,300 124,300 124,298 124,302 124,300 128,300 128,298 128,302 128,300 131,300 131,298 131,302 131,300 135,300 135,298 135,302 135,300 138,300 138,294 138,306 138,300 142,300 142,298 142,302 142,300 145,300 145,298 145,302 145,300 149,300 149,298 149,302 149,300 152,300 152,298 152,302 152,300 155,300 155,298 155,302 155,300 159,300 159,298 159,302 159,300 162,300 162,298 162,302 162,300 166,300 166,298 166,302 166,300 169,300 169,298 169,302 169,300 173,300 173,294 173,306 173,300 176,300 176,298 176,302 176,300 180,300 180,298 180,302 180,300 183,300 183,298 183,302 183,300 187,300 187,298 187,302 187,300 190,300 190,298 190,302 190,300 193,300 193,298 193,302 193,300 197,300 197,298 197,302 197,300 200,300 200,298 200,302 200,300 204,300 204,298 204,302 204,300 207,300 207,294 207,306 207,300 211,300 211,298 211,302 211,300 214,300 214,298 214,302 214,300 218,300 218,298 218,302 218,300 221,300 221,298 221,302 221,300 225,300 225,298 225,302 225,300 228,300 228,298 228,302 228,300 231,300 231,298 231,302 231,300 235,300 235,298 235,302 235,300 238,300 238,298 238,302 238,300 242,300 242,294 242,306 242,300 245,300 245,298 245,302 245,300 249,300 249,298 249,302 249,300 252,300 252,298 252,302 252,300 256,300 256,298 256,302 256,300 259,300 259,298 259,302 259,300 263,300 263,298 263,302 263,300 266,300 266,298 266,302 266,300 269,300 269,298 269,302 269,300 273,300 273,298 273,302 273,300 276,300 276,294 276,306 276,300 280,300 280,298 280,302 280,300 283,300 283,298 283,302 283,300 287,300 287,298 287,302 287,300 290,300 290,298 290,302 290,300 294,300 294,298 294,302 294,300 297,300 297,298 297,302 297,300 301,300 301,298 301,302 301,300 304,300 304,298 304,302 304,300 307,300 307,298 307,302 307,300 311,300 311,294 311,306 311,300 314,300 314,298 314,302 314,300 318,300 318,298 318,302 318,300 321,300 321,298 321,302 321,300 325,300 325,298 325,302 325,300 328,300 328,298 328,302 328,300 332,300 332,298 332,302 332,300 335,300 335,298 335,302 335,300 339,300 339,298 339,302 339,300 342,300 342,298 342,302 342,300 345,300 345,294 345,306 345,300 349,300 349,298 349,302 349,300 352,300 352,298 352,302 352,300 356,300 356,298 356,302 356,300 359,300 359,298 359,302 359,300 363,300 363,298 363,302 363,300 366,300 366,298 366,302 366,300 370,300 370,298 370,302 370,300 373,300 373,298 373,302 373,300 376,300 376,298 376,302 376,300 380,300 380,294 380,306 380,300 383,300 383,298 383,302 383,300 387,300 387,298 387,302 387,300 390,300 390,298 390,302 390,300 394,300 394,298 394,302 394,300 397,300 397,298 397,302 397,300 401,300 401,298 401,302 401,300 404,300 404,298 404,302 404,300 408,300 408,298 408,302 408,300 411,300 411,298 411,302 411,300 414,300 414,294 414,306 414,300 418,300 418,298 418,302 418,300 421,300 421,298 421,302 421,300 425,300 425,298 425,302 425,300 428,300 428,298 428,302 428,300 432,300 432,298 432,302 432,300 435,300 435,298 435,302 435,300 439,300 439,298 439,302 439,300 442,300 442,298 442,302 442,300 446,300 446,298 446,302 446,300 449,300 449,294 449,306 449,300 452,300 452,298 452,302 452,300 456,300 456,298 456,302 456,300 459,300 459,298 459,302 459,300 463,300 463,298 463,302 463,300 466,300 466,298 466,302 466,300 470,300 470,298 470,302 470,300 473,300 473,298 473,302 473,300 477,300 477,298 477,302 477,300 480,300 480,298 480,302 480,300 484,300 484,294 484,306 484,300 487,300 487,298 487,302 487,300 490,300 490,298 490,302 490,300 494,300 494,298 494,302 494,300 497,300 497,298 497,302 497,300 501,300 501,298 501,302 501,300 504,300 504,298 504,302 504,300 508,300 508,298 508,302 508,300 511,300 511,298 511,302 511,300 515,300 515,298 515,302 515,300 518,300 518,294 518,306 518,300 522,300 522,298 522,302 522,300 525,300 525,298 525,302 525,300 528,300 528,298 528,302 528,300 532,300 532,298 532,302 532,300 535,300 535,298 535,302 535,300 539,300 539,298 539,302 539,300 542,300 542,298 542,302 542,300 546,300 546,298 546,302 546,300 549,300 549,298 549,302 549,300 553,300 553,294 553,306 553,300 556,300 556,298 556,302 556,300 560,300 560,298 560,302 560,300 563,300 563,298 563,302 563,300 566,300 566,298 566,302 566,300 570,300 570,298 570,302 570,300 573,300 573,298 573,302 573,300 577,300 577,298 577,302 577,300 580,300 580,298 580,302 580,300 584,300 584,298 584,302 584,300 587,300 587,294 587,306 587,300 591,300 591,298 591,302 591,300 594,300 594,298 594,302 594,300 598,300 598,298 598,302 598,300 601,300 601,298 601,302 601,300 604,300 604,298 604,302 604,300 608,300 608,298 608,302 608,300 611,300 611,298 611,302 611,300 615,300 615,298 615,302 615,300 618,300 618,298 618,302 618,300 622,300 622,294 622,306 622,300 625,300 625,298 625,302 625,300 629,300 629,298 629,302 629,300 632,300 632,298 632,302 632,300 636,300 636,298 636,302 636,300 639,300 639,298 639,302 639,300 642,300 642,298 642,302 642,300 646,300 646,298 646,302 646,300 649,300 649,298 649,302 649,300 653,300 653,298 653,302 653,300 656,300 656,294 656,306 656,300 660,300 660,298 660,302 660,300 663,300 663,298 663,302 663,300 667,300 667,298 667,302 667,300 670,300 670,298 670,302 670,300 674,300 674,298 674,302 674,300 677,300 677,298 677,302 677,300 680,300 680,298 680,302 680,300 684,300 684,298 684,302 684,300 687,300 687,298 687,302 687,300 691,300 691,294 691,306 691,300 694,300 694,298 694,302 694,300 698,300 698,298 698,302 698,300 701,300 701,298 701,302 701,300 705,300 705,298 705,302 705,300 708,300 708,298 708,302 708,300 712,300 712,298 712,302 712,300 715,300 715,298 715,302 715,300 718,300 718,298 718,302 718,300 722,300 722,298 722,302 722,300 725,300 725,294 725,306 725,300 729,300 729,298 729,302 729,300 732,300 732,298 732,302 732,300 736,300 736,298 736,302 736,300 739,300 739,298 739,302 739,300 743,300 743,298 743,302 743,300 746,300 746,298 746,302 746,300 750,300 750,298 750,302 750,300 753,300 753,298 753,302 753,300 756,300 756,298 756,302 756,300 760,300 760,294 760,306 760,300 763,300 763,298 763,302 763,300 767,300 767,298 767,302 767,300 770,300 770,298 770,302 770,300 774,300 774,298 774,302 774,300 777,300 777,298 777,302 777,300 781,300 781,298 781,302 781,300 784,300 784,298 784,302 784,300 788,300 788,298 788,302 788,300 791,300 791,298 791,302 791,300 794,300 794,294 794,306 794,300 798,300 798,298 798,302 798,300 800,300 " style="fill: none; stroke: black; stroke-width: 0.1" />
	<rect class="exon" height="50" style="fill: white; stroke: black" width="110" x="345" y="275" />
	<text class="exon" style="font: 10px Verdana" transform="rotate(-90,349,265)" x="349" y="265">55,478 .. 58,639</text>
	<line class="breakpoint" style="fill: white; stroke: black; stroke-width: 0.1" x1="347" x2="347" y1="100" y2="300" />
	<text class="breakpoint" style="font: 10px Verdana" transform="rotate(-90,4,90)" x="4" y="90">45,479</text>
	<line class="breakpoint" style="fill: white; stroke: black; stroke-width: 0.1" x1="401" x2="401" y1="100" y2="300" />
	<text class="breakpoint" style="font: 10px Verdana" transform="rotate(-90,351,90)" x="351" y="90">55,537</text>
	<line class="breakpoint" style="fill: white; stroke: black; stroke-width: 0.1" x1="417" x2="417" y1="100" y2="300" />
	<text class="breakpoint" style="font: 10px Verdana" transform="rotate(-90,405,90)" x="405" y="90">57,075</text>
	<line class="breakpoint" style="fill: white; stroke: black; stroke-width: 0.1" x1="519" x2="519" y1="100" y2="300" />
	<text class="breakpoint" style="font: 10px Verdana" transform="rotate(-90,421,90)" x="421" y="90">57,540</text>
	<line class="breakpoint" style="fill: white; stroke: black; stroke-width: 0.1" x1="720" x2="720" y1="100" y2="300" />
	<text class="breakpoint" style="font: 10px Verdana" transform="rotate(-90,523,90)" x="523" y="90">60,494</text>
	<line class="breakpoint" style="fill: white; stroke: black; stroke-width: 0.1" x1="755" x2="755" y1="100" y2="300" />
	<text class="breakpoint" style="font: 10px Verdana" transform="rotate(-90,724,90)" x="724" y="90">66,312</text>
	<line class="breakpoint" style="fill: white; stroke: black; stroke-width: 0.1" x1="800" x2="800" y1="100" y2="300" />
	<text class="breakpoint" style="font: 10px Verdana" transform="rotate(-90,759,90)" x="759" y="90">67,348</text>
	<line style="fill: none; stroke: gray; stroke-width: 0.1" x1="0" x2="800" y1="345" y2="345" />
	<text class="crossover RF_072" style="font: 10px Verdana" x="4" y="339">S. habrochaites</text>
	<line style="fill: none; stroke: gray; stroke-width: 0.1" x1="0" x2="800" y1="368" y2="368" />
	<text class="crossover RF_047" style="font: 10px Verdana" x="4" y="362">S. pimpinellifolium</text>
	<line style="fill: none; stroke: gray; stroke-width: 0.1" x1="0" x2="800" y1="391" y2="391" />
	<text class="crossover WAG0463703" style="font: 10px Verdana" x="4" y="385">S. peruvianum (1958)</text>
	<line style="fill: none; stroke: gray; stroke-width: 0.1" x1="0" x2="800" y1="414" y2="414" />
	<text class="crossover RF_074" style="font: 10px Verdana" x="4" y="408">S. pennellii</text>
	<line style="fill: none; stroke: gray; stroke-width: 0.1" x1="0" x2="800" y1="437" y2="437" />
	<text class="crossover RF_104" style="font: 10px Verdana" x="4" y="431">S. galapagense</text>
	<line style="fill: none; stroke: gray; stroke-width: 0.1" x1="0" x2="800" y1="460" y2="460" />
	<text class="crossover ITAG2_3" style="font: 10px Verdana" x="4" y="454">S. l. Heinz 1706</text>
	<line style="fill: none; stroke: rgb(255,0,0)" x1="5" x2="10" y1="480" y2="480" />
	<text class="crossover" style="font: 10px Verdana" x="15" y="485">S. l. var Momatero</text>
	<line style="fill: none; stroke: rgb(255,217,0)" x1="5" x2="10" y1="495" y2="495" />
	<text class="crossover" style="font: 10px Verdana" x="15" y="500">S. l. var Gardener&apos;s Delight	</text>
	<line style="fill: none; stroke: rgb(77,255,0)" x1="5" x2="10" y1="510" y2="510" />
	<text class="crossover" style="font: 10px Verdana" x="15" y="515">S. l. var Katinka Cherry</text>
	<line style="fill: none; stroke: rgb(0,255,140)" x1="5" x2="10" y1="525" y2="525" />
	<text class="crossover" style="font: 10px Verdana" x="15" y="530">S. l. (1891)</text>
	<line style="fill: none; stroke: rgb(0,153,255)" x1="5" x2="10" y1="540" y2="540" />
	<text class="crossover" style="font: 10px Verdana" x="15" y="545">S. l. (1830)</text>
	<line style="fill: none; stroke: rgb(64,0,255)" x1="5" x2="10" y1="555" y2="555" />
	<text class="crossover" style="font: 10px Verdana" x="15" y="560">S. l. var Moneymaker</text>
	<line style="fill: none; stroke: rgb(255,0,230)" x1="5" x2="10" y1="570" y2="570" />
	<text class="crossover" style="font: 10px Verdana" x="15" y="575">S. l. var Sonato</text>
	<line class="segment RF_015" stroke-linecap="round" style="fill: none; stroke: rgb(255,0,0)" transform="translate(0,0)" x1="0" x2="347" y1="368" y2="368" />
	<line class="segment RF_003" stroke-linecap="round" style="fill: none; stroke: rgb(255,217,0)" transform="translate(1,1)" x1="0" x2="347" y1="460" y2="460" />
	<line class="segment RF_007" stroke-linecap="round" style="fill: none; stroke: rgb(77,255,0)" transform="translate(2,2)" x1="0" x2="347" y1="460" y2="460" />
	<line class="segment U0015716" stroke-linecap="round" style="fill: none; stroke: rgb(0,255,140)" transform="translate(3,3)" x1="0" x2="347" y1="460" y2="460" />
	<line class="segment U0015717" stroke-linecap="round" style="fill: none; stroke: rgb(0,153,255)" transform="translate(4,4)" x1="0" x2="347" y1="460" y2="460" />
	<line class="segment RF_001" stroke-linecap="round" style="fill: none; stroke: rgb(64,0,255)" transform="translate(5,5)" x1="0" x2="347" y1="460" y2="460" />
	<line class="segment RF_012" stroke-linecap="round" style="fill: none; stroke: rgb(255,0,230)" transform="translate(6,6)" x1="0" x2="347" y1="460" y2="460" />
	<path class="segment RF_015" d="M347,368 C347,368 347,368 347,368" stroke-linecap="round" style="fill: none; stroke: rgb(255,0,0)" transform="translate(0,0)" />
	<line class="segment RF_015" stroke-linecap="round" style="fill: none; stroke: rgb(255,0,0)" transform="translate(0,0)" x1="347" x2="401" y1="368" y2="368" />
	<path class="segment RF_003" d="M347,460 C347,460 347,460 347,460" stroke-linecap="round" style="fill: none; stroke: rgb(255,217,0)" transform="translate(1,1)" />
	<line class="segment RF_003" stroke-linecap="round" style="fill: none; stroke: rgb(255,217,0)" transform="translate(1,1)" x1="347" x2="401" y1="460" y2="460" />
	<path class="segment RF_007" d="M347,460 C347,460 347,460 347,460" stroke-linecap="round" style="fill: none; stroke: rgb(77,255,0)" transform="translate(2,2)" />
	<line class="segment RF_007" stroke-linecap="round" style="fill: none; stroke: rgb(77,255,0)" transform="translate(2,2)" x1="347" x2="401" y1="460" y2="460" />
	<path class="segment U0015716" d="M347,460 C347,460 347,460 347,460" stroke-linecap="round" style="fill: none; stroke: rgb(0,255,140)" transform="translate(3,3)" />
	<line class="segment U0015716" stroke-linecap="round" style="fill: none; stroke: rgb(0,255,140)" transform="translate(3,3)" x1="347" x2="401" y1="460" y2="460" />
	<path class="segment U0015717" d="M347,460 C347,460 347,460 347,460" stroke-linecap="round" style="fill: none; stroke: rgb(0,153,255)" transform="translate(4,4)" />
	<line class="segment U0015717" stroke-linecap="round" style="fill: none; stroke: rgb(0,153,255)" transform="translate(4,4)" x1="347" x2="401" y1="460" y2="460" />
	<path class="segment RF_001" d="M347,460 C347,460 347,460 347,460" stroke-linecap="round" style="fill: none; stroke: rgb(64,0,255)" transform="translate(5,5)" />
	<line class="segment RF_001" stroke-linecap="round" style="fill: none; stroke: rgb(64,0,255)" transform="translate(5,5)" x1="347" x2="401" y1="460" y2="460" />
	<path class="segment RF_012" d="M347,460 C347,460 347,460 347,460" stroke-linecap="round" style="fill: none; stroke: rgb(255,0,230)" transform="translate(6,6)" />
	<line class="segment RF_012" stroke-linecap="round" style="fill: none; stroke: rgb(255,0,230)" transform="translate(6,6)" x1="347" x2="401" y1="460" y2="460" />
	<path class="segment RF_015" d="M401,368 C401,368 401,391 401,391" stroke-linecap="round" style="fill: none; stroke: rgb(255,0,0)" transform="translate(0,0)" />
	<line class="segment RF_015" stroke-linecap="round" style="fill: none; stroke: rgb(255,0,0)" transform="translate(0,0)" x1="401" x2="417" y1="391" y2="391" />
	<path class="segment RF_003" d="M401,460 C401,460 401,391 401,391" stroke-linecap="round" style="fill: none; stroke: rgb(255,217,0)" transform="translate(1,1)" />
	<line class="segment RF_003" stroke-linecap="round" style="fill: none; stroke: rgb(255,217,0)" transform="translate(1,1)" x1="401" x2="417" y1="391" y2="391" />
	<path class="segment RF_007" d="M401,460 C401,460 401,391 401,391" stroke-linecap="round" style="fill: none; stroke: rgb(77,255,0)" transform="translate(2,2)" />
	<line class="segment RF_007" stroke-linecap="round" style="fill: none; stroke: rgb(77,255,0)" transform="translate(2,2)" x1="401" x2="417" y1="391" y2="391" />
	<path class="segment U0015716" d="M401,460 C401,460 401,391 401,391" stroke-linecap="round" style="fill: none; stroke: rgb(0,255,140)" transform="translate(3,3)" />
	<line class="segment U0015716" stroke-linecap="round" style="fill: none; stroke: rgb(0,255,140)" transform="translate(3,3)" x1="401" x2="417" y1="391" y2="391" />
	<path class="segment U0015717" d="M401,460 C401,460 401,391 401,391" stroke-linecap="round" style="fill: none; stroke: rgb(0,153,255)" transform="translate(4,4)" />
	<line class="segment U0015717" stroke-linecap="round" style="fill: none; stroke: rgb(0,153,255)" transform="translate(4,4)" x1="401" x2="417" y1="391" y2="391" />
	<path class="segment RF_001" d="M401,460 C401,460 401,391 401,391" stroke-linecap="round" style="fill: none; stroke: rgb(64,0,255)" transform="translate(5,5)" />
	<line class="segment RF_001" stroke-linecap="round" style="fill: none; stroke: rgb(64,0,255)" transform="translate(5,5)" x1="401" x2="417" y1="391" y2="391" />
	<path class="segment RF_012" d="M401,460 C401,460 401,391 401,391" stroke-linecap="round" style="fill: none; stroke: rgb(255,0,230)" transform="translate(6,6)" />
	<line class="segment RF_012" stroke-linecap="round" style="fill: none; stroke: rgb(255,0,230)" transform="translate(6,6)" x1="401" x2="417" y1="391" y2="391" />
	<path class="segment RF_015" d="M417,391 C417,391 417,460 417,460" stroke-linecap="round" style="fill: none; stroke: rgb(255,0,0)" transform="translate(0,0)" />
	<line class="segment RF_015" stroke-linecap="round" style="fill: none; stroke: rgb(255,0,0)" transform="translate(0,0)" x1="417" x2="519" y1="460" y2="460" />
	<path class="segment RF_003" d="M417,391 C417,391 417,460 417,460" stroke-linecap="round" style="fill: none; stroke: rgb(255,217,0)" transform="translate(1,1)" />
	<line class="segment RF_003" stroke-linecap="round" style="fill: none; stroke: rgb(255,217,0)" transform="translate(1,1)" x1="417" x2="519" y1="460" y2="460" />
	<path class="segment RF_007" d="M417,391 C417,391 417,460 417,460" stroke-linecap="round" style="fill: none; stroke: rgb(77,255,0)" transform="translate(2,2)" />
	<line class="segment RF_007" stroke-linecap="round" style="fill: none; stroke: rgb(77,255,0)" transform="translate(2,2)" x1="417" x2="519" y1="460" y2="460" />
	<path class="segment U0015716" d="M417,391 C417,391 417,460 417,460" stroke-linecap="round" style="fill: none; stroke: rgb(0,255,140)" transform="translate(3,3)" />
	<line class="segment U0015716" stroke-linecap="round" style="fill: none; stroke: rgb(0,255,140)" transform="translate(3,3)" x1="417" x2="519" y1="460" y2="460" />
	<path class="segment U0015717" d="M417,391 C417,391 417,460 417,460" stroke-linecap="round" style="fill: none; stroke: rgb(0,153,255)" transform="translate(4,4)" />
	<line class="segment U0015717" stroke-linecap="round" style="fill: none; stroke: rgb(0,153,255)" transform="translate(4,4)" x1="417" x2="519" y1="460" y2="460" />
	<path class="segment RF_001" d="M417,391 C417,391 417,460 417,460" stroke-linecap="round" style="fill: none; stroke: rgb(64,0,255)" transform="translate(5,5)" />
	<line class="segment RF_001" stroke-linecap="round" style="fill: none; stroke: rgb(64,0,255)" transform="translate(5,5)" x1="417" x2="519" y1="460" y2="460" />
	<path class="segment RF_012" d="M417,391 C417,391 417,460 417,460" stroke-linecap="round" style="fill: none; stroke: rgb(255,0,230)" transform="translate(6,6)" />
	<line class="segment RF_012" stroke-linecap="round" style="fill: none; stroke: rgb(255,0,230)" transform="translate(6,6)" x1="417" x2="519" y1="460" y2="460" />
	<path class="segment RF_015" d="M519,460 C519,460 519,460 519,460" stroke-linecap="round" style="fill: none; stroke: rgb(255,0,0)" transform="translate(0,0)" />
	<line class="segment RF_015" stroke-linecap="round" style="fill: none; stroke: rgb(255,0,0)" transform="translate(0,0)" x1="519" x2="720" y1="460" y2="460" />
	<path class="segment RF_003" d="M519,460 C519,460 519,460 519,460" stroke-linecap="round" style="fill: none; stroke: rgb(255,217,0)" transform="translate(1,1)" />
	<line class="segment RF_003" stroke-linecap="round" style="fill: none; stroke: rgb(255,217,0)" transform="translate(1,1)" x1="519" x2="720" y1="460" y2="460" />
	<path class="segment RF_007" d="M519,460 C519,460 519,460 519,460" stroke-linecap="round" style="fill: none; stroke: rgb(77,255,0)" transform="translate(2,2)" />
	<line class="segment RF_007" stroke-linecap="round" style="fill: none; stroke: rgb(77,255,0)" transform="translate(2,2)" x1="519" x2="720" y1="460" y2="460" />
	<path class="segment U0015716" d="M519,460 C519,460 519,460 519,460" stroke-linecap="round" style="fill: none; stroke: rgb(0,255,140)" transform="translate(3,3)" />
	<line class="segment U0015716" stroke-linecap="round" style="fill: none; stroke: rgb(0,255,140)" transform="translate(3,3)" x1="519" x2="720" y1="460" y2="460" />
	<path class="segment U0015717" d="M519,460 C519,460 519,460 519,460" stroke-linecap="round" style="fill: none; stroke: rgb(0,153,255)" transform="translate(4,4)" />
	<line class="segment U0015717" stroke-linecap="round" style="fill: none; stroke: rgb(0,153,255)" transform="translate(4,4)" x1="519" x2="720" y1="460" y2="460" />
	<path class="segment RF_001" d="M519,460 C519,460 519,460 519,460" stroke-linecap="round" style="fill: none; stroke: rgb(64,0,255)" transform="translate(5,5)" />
	<line class="segment RF_001" stroke-linecap="round" style="fill: none; stroke: rgb(64,0,255)" transform="translate(5,5)" x1="519" x2="720" y1="460" y2="460" />
	<path class="segment RF_012" d="M519,460 C519,460 519,460 519,460" stroke-linecap="round" style="fill: none; stroke: rgb(255,0,230)" transform="translate(6,6)" />
	<line class="segment RF_012" stroke-linecap="round" style="fill: none; stroke: rgb(255,0,230)" transform="translate(6,6)" x1="519" x2="720" y1="460" y2="460" />
	<path class="segment RF_015" d="M720,460 C720,460 720,414 720,414" stroke-linecap="round" style="fill: none; stroke: rgb(255,0,0)" transform="translate(0,0)" />
	<line class="segment RF_015" stroke-linecap="round" style="fill: none; stroke: rgb(255,0,0)" transform="translate(0,0)" x1="720" x2="755" y1="414" y2="414" />
	<path class="segment RF_003" d="M720,460 C720,460 720,368 720,368" stroke-linecap="round" style="fill: none; stroke: rgb(255,217,0)" transform="translate(1,1)" />
	<line class="segment RF_003" stroke-linecap="round" style="fill: none; stroke: rgb(255,217,0)" transform="translate(1,1)" x1="720" x2="755" y1="368" y2="368" />
	<path class="segment RF_007" d="M720,460 C720,460 720,368 720,368" stroke-linecap="round" style="fill: none; stroke: rgb(77,255,0)" transform="translate(2,2)" />
	<line class="segment RF_007" stroke-linecap="round" style="fill: none; stroke: rgb(77,255,0)" transform="translate(2,2)" x1="720" x2="755" y1="368" y2="368" />
	<path class="segment U0015716" d="M720,460 C720,460 720,368 720,368" stroke-linecap="round" style="fill: none; stroke: rgb(0,255,140)" transform="translate(3,3)" />
	<line class="segment U0015716" stroke-linecap="round" style="fill: none; stroke: rgb(0,255,140)" transform="translate(3,3)" x1="720" x2="755" y1="368" y2="368" />
	<path class="segment U0015717" d="M720,460 C720,460 720,368 720,368" stroke-linecap="round" style="fill: none; stroke: rgb(0,153,255)" transform="translate(4,4)" />
	<line class="segment U0015717" stroke-linecap="round" style="fill: none; stroke: rgb(0,153,255)" transform="translate(4,4)" x1="720" x2="755" y1="368" y2="368" />
	<path class="segment RF_001" d="M720,460 C720,460 720,437 720,437" stroke-linecap="round" style="fill: none; stroke: rgb(64,0,255)" transform="translate(5,5)" />
	<line class="segment RF_001" stroke-linecap="round" style="fill: none; stroke: rgb(64,0,255)" transform="translate(5,5)" x1="720" x2="755" y1="437" y2="437" />
	<path class="segment RF_012" d="M720,460 C720,460 720,368 720,368" stroke-linecap="round" style="fill: none; stroke: rgb(255,0,230)" transform="translate(6,6)" />
	<line class="segment RF_012" stroke-linecap="round" style="fill: none; stroke: rgb(255,0,230)" transform="translate(6,6)" x1="720" x2="755" y1="368" y2="368" />
	<path class="segment RF_015" d="M755,414 C755,414 755,368 755,368" stroke-linecap="round" style="fill: none; stroke: rgb(255,0,0)" transform="translate(0,0)" />
	<line class="segment RF_015" stroke-linecap="round" style="fill: none; stroke: rgb(255,0,0)" transform="translate(0,0)" x1="755" x2="800" y1="368" y2="368" />
	<path class="segment RF_003" d="M755,368 C755,368 755,345 755,345" stroke-linecap="round" style="fill: none; stroke: rgb(255,217,0)" transform="translate(1,1)" />
	<line class="segment RF_003" stroke-linecap="round" style="fill: none; stroke: rgb(255,217,0)" transform="translate(1,1)" x1="755" x2="800" y1="345" y2="345" />
	<path class="segment RF_007" d="M755,368 C755,368 755,345 755,345" stroke-linecap="round" style="fill: none; stroke: rgb(77,255,0)" transform="translate(2,2)" />
	<line class="segment RF_007" stroke-linecap="round" style="fill: none; stroke: rgb(77,255,0)" transform="translate(2,2)" x1="755" x2="800" y1="345" y2="345" />
	<path class="segment U0015716" d="M755,368 C755,368 755,345 755,345" stroke-linecap="round" style="fill: none; stroke: rgb(0,255,140)" transform="translate(3,3)" />
	<line class="segment U0015716" stroke-linecap="round" style="fill: none; stroke: rgb(0,255,140)" transform="translate(3,3)" x1="755" x2="800" y1="345" y2="345" />
	<path class="segment U0015717" d="M755,368 C755,368 755,345 755,345" stroke-linecap="round" style="fill: none; stroke: rgb(0,153,255)" transform="translate(4,4)" />
	<line class="segment U0015717" stroke-linecap="round" style="fill: none; stroke: rgb(0,153,255)" transform="translate(4,4)" x1="755" x2="800" y1="345" y2="345" />
	<path class="segment RF_001" d="M755,437 C755,437 755,345 755,345" stroke-linecap="round" style="fill: none; stroke: rgb(64,0,255)" transform="translate(5,5)" />
	<line class="segment RF_001" stroke-linecap="round" style="fill: none; stroke: rgb(64,0,255)" transform="translate(5,5)" x1="755" x2="800" y1="345" y2="345" />
	<path class="segment RF_012" d="M755,368 C755,368 755,345 755,345" stroke-linecap="round" style="fill: none; stroke: rgb(255,0,230)" transform="translate(6,6)" />
	<line class="segment RF_012" stroke-linecap="round" style="fill: none; stroke: rgb(255,0,230)" transform="translate(6,6)" x1="755" x2="800" y1="345" y2="345" />
	<polygon class="arrow" points="345,337.5 345,332.5 445,332.5 445,330 455,335 445,340 445,337.5 345,337.5 " style="fill: white; stroke: black" />
	<!-- 
	Generated using the Perl SVG Module V2.59
	by Ronan Oger
	Info: http://www.roitsystems.com/
 -->
</svg>