<?xml version="1.0" encoding="UTF-8" standalone="yes"?>
<!DOCTYPE svg PUBLIC "-//W3C//DTD SVG 1.0//EN" "http://www.w3.org/TR/2001/REC-SVG-20010904/DTD/svg10.dtd">
<svg height="600" width="800" xmlns="http://www.w3.org/2000/svg" xmlns:svg="http://www.w3.org/2000/svg" xmlns:xlink="http://www.w3.org/1999/xlink">
	<line class="breakpoint" style="fill: white; stroke: black; stroke-width: 0.1" x1="110" x2="110" y1="100" y2="300" />
	<text class="breakpoint" style="font: 10px Verdana" transform="rotate(-90,4,90)" x="4" y="90">5,215,204</text>
	<line class="breakpoint" style="fill: white; stroke: black; stroke-width: 0.1" x1="162" x2="162" y1="100" y2="300" />
	<text class="breakpoint" style="font: 10px Verdana" transform="rotate(-90,114,90)" x="114" y="90">5,218,751</text>
	<line class="breakpoint" style="fill: white; stroke: black; stroke-width: 0.1" x1="285" x2="285" y1="100" y2="300" />
	<text class="breakpoint" style="font: 10px Verdana" transform="rotate(-90,166,90)" x="166" y="90">5,220,413</text>
	<line class="breakpoint" style="fill: white; stroke: black; stroke-width: 0.1" x1="330" x2="330" y1="100" y2="300" />
	<text class="breakpoint" style="font: 10px Verdana" transform="rotate(-90,289,90)" x="289" y="90">5,224,372</text>
	<line class="breakpoint" style="fill: white; stroke: black; stroke-width: 0.1" x1="411" x2="411" y1="100" y2="300" />
	<text class="breakpoint" style="font: 10px Verdana" transform="rotate(-90,334,90)" x="334" y="90">5,225,845</text>
	<line class="breakpoint" style="fill: white; stroke: black; stroke-width: 0.1" x1="800" x2="800" y1="100" y2="300" />
	<text class="breakpoint" style="font: 10px Verdana" transform="rotate(-90,415,90)" x="415" y="90">5,228,448</text>
	<polyline class="scale" points="0,294 0,306 0,300 3,300 3,298 3,302 3,300 6,300 6,298 6,302 6,300 9,300 9,298 9,302 9,300 12,300 12,298 12,302 12,300 16,300 16,298 16,302 16,300 19,300 19,298 19,302 19,300 22,300 22,298 22,302 22,300 25,300 25,298 25,302 25,300 28,300 28,298 28,302 28,300 31,300 31,294 31,306 31,300 34,300 34,298 34,302 34,300 37,300 37,298 37,302 37,300 40,300 40,298 40,302 40,300 43,300 43,298 43,302 43,300 47,300 47,298 47,302 47,300 50,300 50,298 50,302 50,300 53,300 53,298 53,302 53,300 56,300 56,298 56,302 56,300 59,300 59,298 59,302 59,300 62,300 62,294 62,306 62,300 65,300 65,298 65,302 65,300 68,300 68,298 68,302 68,300 71,300 71,298 71,302 71,300 75,300 75,298 75,302 75,300 78,300 78,298 78,302 78,300 81,300 81,298 81,302 81,300 84,300 84,298 84,302 84,300 87,300 87,298 87,302 87,300 90,300 90,298 90,302 90,300 93,300 93,294 93,306 93,300 96,300 96,298 96,302 96,300 99,300 99,298 99,302 99,300 102,300 102,298 102,302 102,300 106,300 106,298 106,302 106,300 109,300 109,298 109,302 109,300 112,300 112,298 112,302 112,300 115,300 115,298 115,302 115,300 118,300 118,298 118,302 118,300 121,300 121,298 121,302 121,300 124,300 124,294 124,306 124,300 127,300 127,298 127,302 127,300 130,300 130,298 130,302 130,300 134,300 134,298 134,302 134,300 137,300 137,298 137,302 137,300 140,300 140,298 140,302 140,300 143,300 143,298 143,302 143,300 146,300 146,298 146,302 146,300 149,300 149,298 149,302 149,300 152,300 152,298 152,302 152,300 155,300 155,294 155,306 155,300 158,300 158,298 158,302 158,300 161,300 161,298 161,302 161,300 165,300 165,298 165,302 165,300 168,300 168,298 168,302 168,300 171,300 171,298 171,302 171,300 174,300 174,298 174,302 174,300 177,300 177,298 177,302 177,300 180,300 180,298 180,302 180,300 183,300 183,298 183,302 183,300 186,300 186,294 186,306 186,300 189,300 189,298 189,302 189,300 193,300 193,298 193,302 193,300 196,300 196,298 196,302 196,300 199,300 199,298 199,302 199,300 202,300 202,298 202,302 202,300 205,300 205,298 205,302 205,300 208,300 208,298 208,302 208,300 211,300 211,298 211,302 211,300 214,300 214,298 214,302 214,300 217,300 217,294 217,306 217,300 221,300 221,298 221,302 221,300 224,300 224,298 224,302 224,300 227,300 227,298 227,302 227,300 230,300 230,298 230,302 230,300 233,300 233,298 233,302 233,300 236,300 236,298 236,302 236,300 239,300 239,298 239,302 239,300 242,300 242,298 242,302 242,300 245,300 245,298 245,302 245,300 248,300 248,294 248,306 248,300 252,300 252,298 252,302 252,300 255,300 255,298 255,302 255,300 258,300 258,298 258,302 258,300 261,300 261,298 261,302 261,300 264,300 264,298 264,302 264,300 267,300 267,298 267,302 267,300 270,300 270,298 270,302 270,300 273,300 273,298 273,302 273,300 276,300 276,298 276,302 276,300 280,300 280,294 280,306 280,300 283,300 283,298 283,302 283,300 286,300 286,298 286,302 286,300 289,300 289,298 289,302 289,300 292,300 292,298 292,302 292,300 295,300 295,298 295,302 295,300 298,300 298,298 298,302 298,300 301,300 301,298 301,302 301,300 304,300 304,298 304,302 304,300 307,300 307,298 307,302 307,300 311,300 311,294 311,306 311,300 314,300 314,298 314,302 314,300 317,300 317,298 317,302 317,300 320,300 320,298 320,302 320,300 323,300 323,298 323,302 323,300 326,300 326,298 326,302 326,300 329,300 329,298 329,302 329,300 332,300 332,298 332,302 332,300 335,300 335,298 335,302 335,300 339,300 339,298 339,302 339,300 342,300 342,294 342,306 342,300 345,300 345,298 345,302 345,300 348,300 348,298 348,302 348,300 351,300 351,298 351,302 351,300 354,300 354,298 354,302 354,300 357,300 357,298 357,302 357,300 360,300 360,298 360,302 360,300 363,300 363,298 363,302 363,300 366,300 366,298 366,302 366,300 370,300 370,298 370,302 370,300 373,300 373,294 373,306 373,300 376,300 376,298 376,302 376,300 379,300 379,298 379,302 379,300 382,300 382,298 382,302 382,300 385,300 385,298 385,302 385,300 388,300 388,298 388,302 388,300 391,300 391,298 391,302 391,300 394,300 394,298 394,302 394,300 398,300 398,298 398,302 398,300 401,300 401,298 401,302 401,300 404,300 404,294 404,306 404,300 407,300 407,298 407,302 407,300 410,300 410,298 410,302 410,300 413,300 413,298 413,302 413,300 416,300 416,298 416,302 416,300 419,300 419,298 419,302 419,300 422,300 422,298 422,302 422,300 425,300 425,298 425,302 425,300 429,300 429,298 429,302 429,300 432,300 432,298 432,302 432,300 435,300 435,294 435,306 435,300 438,300 438,298 438,302 438,300 441,300 441,298 441,302 441,300 444,300 444,298 444,302 444,300 447,300 447,298 447,302 447,300 450,300 450,298 450,302 450,300 453,300 453,298 453,302 453,300 457,300 457,298 457,302 457,300 460,300 460,298 460,302 460,300 463,300 463,298 463,302 463,300 466,300 466,294 466,306 466,300 469,300 469,298 469,302 469,300 472,300 472,298 472,302 472,300 475,300 475,298 475,302 475,300 478,300 478,298 478,302 478,300 481,300 481,298 481,302 481,300 484,300 484,298 484,302 484,300 488,300 488,298 488,302 488,300 491,300 491,298 491,302 491,300 494,300 494,298 494,302 494,300 497,300 497,294 497,306 497,300 500,300 500,298 500,302 500,300 503,300 503,298 503,302 503,300 506,300 506,298 506,302 506,300 509,300 509,298 509,302 509,300 512,300 512,298 512,302 512,300 516,300 516,298 516,302 516,300 519,300 519,298 519,302 519,300 522,300 522,298 522,302 522,300 525,300 525,298 525,302 525,300 528,300 528,294 528,306 528,300 531,300 531,298 531,302 531,300 534,300 534,298 534,302 534,300 537,300 537,298 537,302 537,300 540,300 540,298 540,302 540,300 543,300 543,298 543,302 543,300 547,300 547,298 547,302 547,300 550,300 550,298 550,302 550,300 553,300 553,298 553,302 553,300 556,300 556,298 556,302 556,300 559,300 559,294 559,306 559,300 562,300 562,298 562,302 562,300 565,300 565,298 565,302 565,300 568,300 568,298 568,302 568,300 571,300 571,298 571,302 571,300 575,300 575,298 575,302 575,300 578,300 578,298 578,302 578,300 581,300 581,298 581,302 581,300 584,300 584,298 584,302 584,300 587,300 587,298 587,302 587,300 590,300 590,294 590,306 590,300 593,300 593,298 593,302 593,300 596,300 596,298 596,302 596,300 599,300 599,298 599,302 599,300 603,300 603,298 603,302 603,300 606,300 606,298 606,302 606,300 609,300 609,298 609,302 609,300 612,300 612,298 612,302 612,300 615,300 615,298 615,302 615,300 618,300 618,298 618,302 618,300 621,300 621,294 621,306 621,300 624,300 624,298 624,302 624,300 627,300 627,298 627,302 627,300 630,300 630,298 630,302 630,300 634,300 634,298 634,302 634,300 637,300 637,298 637,302 637,300 640,300 640,298 640,302 640,300 643,300 643,298 643,302 643,300 646,300 646,298 646,302 646,300 649,300 649,298 649,302 649,300 652,300 652,294 652,306 652,300 655,300 655,298 655,302 655,300 658,300 658,298 658,302 658,300 662,300 662,298 662,302 662,300 665,300 665,298 665,302 665,300 668,300 668,298 668,302 668,300 671,300 671,298 671,302 671,300 674,300 674,298 674,302 674,300 677,300 677,298 677,302 677,300 680,300 680,298 680,302 680,300 683,300 683,294 683,306 683,300 686,300 686,298 686,302 686,300 689,300 689,298 689,302 689,300 693,300 693,298 693,302 693,300 696,300 696,298 696,302 696,300 699,300 699,298 699,302 699,300 702,300 702,298 702,302 702,300 705,300 705,298 705,302 705,300 708,300 708,298 708,302 708,300 711,300 711,298 711,302 711,300 714,300 714,294 714,306 714,300 717,300 717,298 717,302 717,300 721,300 721,298 721,302 721,300 724,300 724,298 724,302 724,300 727,300 727,298 727,302 727,300 730,300 730,298 730,302 730,300 733,300 733,298 733,302 733,300 736,300 736,298 736,302 736,300 739,300 739,298 739,302 739,300 742,300 742,298 742,302 742,300 745,300 745,294 745,306 745,300 748,300 748,298 748,302 748,300 752,300 752,298 752,302 752,300 755,300 755,298 755,302 755,300 758,300 758,298 758,302 758,300 761,300 761,298 761,302 761,300 764,300 764,298 764,302 764,300 767,300 767,298 767,302 767,300 770,300 770,298 770,302 770,300 773,300 773,298 773,302 773,300 776,300 776,294 776,306 776,300 780,300 780,298 780,302 780,300 783,300 783,298 783,302 783,300 786,300 786,298 786,302 786,300 789,300 789,298 789,302 789,300 792,300 792,298 792,302 792,300 795,300 795,298 795,302 795,300 798,300 798,298 798,302 798,300 800,300 " style="fill: none; stroke: black; stroke-width: 0.1" />
	<rect class="exon" height="50" style="fill: white; stroke: black" width="3" x="317" y="275" />
	<text class="exon" style="font: 10px Verdana" transform="rotate(-90,321,265)" x="321" y="265">5,225,422 .. 5,225,507</text>
	<line class="intron" style="fill: white; stroke: black" x1="320" x2="333" y1="300" y2="300" />
	<rect class="exon" height="50" style="fill: white; stroke: black" width="4" x="333" y="275" />
	<text class="exon" style="font: 10px Verdana" transform="rotate(-90,337,265)" x="337" y="265">5,225,922 .. 5,226,055</text>
	<line class="intron" style="fill: white; stroke: black" x1="337" x2="346" y1="300" y2="300" />
	<rect class="exon" height="50" style="fill: white; stroke: black" width="1" x="346" y="275" />
	<text class="exon" style="font: 10px Verdana" transform="rotate(-90,350,265)" x="350" y="265">5,226,345 .. 5,226,386</text>
	<line class="intron" style="fill: white; stroke: black" x1="347" x2="350" y1="300" y2="300" />
	<rect class="exon" height="50" style="fill: white; stroke: black" width="2" x="350" y="275" />
	<text class="exon" style="font: 10px Verdana" transform="rotate(-90,354,265)" x="354" y="265">5,226,486 .. 5,226,527</text>
	<line class="intron" style="fill: white; stroke: black" x1="352" x2="356" y1="300" y2="300" />
	<rect class="exon" height="50" style="fill: white; stroke: black" width="3" x="356" y="275" />
	<text class="exon" style="font: 10px Verdana" transform="rotate(-90,360,265)" x="360" y="265">5,226,669 .. 5,226,768</text>
	<line class="intron" style="fill: white; stroke: black" x1="359" x2="366" y1="300" y2="300" />
	<rect class="exon" height="50" style="fill: white; stroke: black" width="2" x="366" y="275" />
	<text class="exon" style="font: 10px Verdana" transform="rotate(-90,370,265)" x="370" y="265">5,226,995 .. 5,227,056</text>
	<line class="intron" style="fill: white; stroke: black" x1="368" x2="384" y1="300" y2="300" />
	<rect class="exon" height="50" style="fill: white; stroke: black" width="3" x="384" y="275" />
	<text class="exon" style="font: 10px Verdana" transform="rotate(-90,388,265)" x="388" y="265">5,227,571 .. 5,227,649</text>
	<line class="intron" style="fill: white; stroke: black" x1="387" x2="476" y1="300" y2="300" />
	<rect class="exon" height="50" style="fill: white; stroke: black" width="6" x="476" y="275" />
	<text class="exon" style="font: 10px Verdana" transform="rotate(-90,480,265)" x="480" y="265">5,230,524 .. 5,230,709</text>
	<line class="breakpoint" style="fill: white; stroke: black; stroke-width: 0.1" x1="110" x2="110" y1="100" y2="300" />
	<text class="breakpoint" style="font: 10px Verdana" transform="rotate(-90,4,90)" x="4" y="90">5,215,204</text>
	<line class="breakpoint" style="fill: white; stroke: black; stroke-width: 0.1" x1="162" x2="162" y1="100" y2="300" />
	<text class="breakpoint" style="font: 10px Verdana" transform="rotate(-90,114,90)" x="114" y="90">5,218,751</text>
	<line class="breakpoint" style="fill: white; stroke: black; stroke-width: 0.1" x1="285" x2="285" y1="100" y2="300" />
	<text class="breakpoint" style="font: 10px Verdana" transform="rotate(-90,166,90)" x="166" y="90">5,220,413</text>
	<line class="breakpoint" style="fill: white; stroke: black; stroke-width: 0.1" x1="330" x2="330" y1="100" y2="300" />
	<text class="breakpoint" style="font: 10px Verdana" transform="rotate(-90,289,90)" x="289" y="90">5,224,372</text>
	<line class="breakpoint" style="fill: white; stroke: black; stroke-width: 0.1" x1="411" x2="411" y1="100" y2="300" />
	<text class="breakpoint" style="font: 10px Verdana" transform="rotate(-90,334,90)" x="334" y="90">5,225,845</text>
	<line class="breakpoint" style="fill: white; stroke: black; stroke-width: 0.1" x1="800" x2="800" y1="100" y2="300" />
	<text class="breakpoint" style="font: 10px Verdana" transform="rotate(-90,415,90)" x="415" y="90">5,228,448</text>
	<line style="fill: none; stroke: gray; stroke-width: 0.1" x1="0" x2="800" y1="345" y2="345" />
	<text class="crossover RF_047" style="font: 10px Verdana" x="4" y="339">S. pimpinellifolium</text>
	<line style="fill: none; stroke: gray; stroke-width: 0.1" x1="0" x2="800" y1="390" y2="390" />
	<text class="crossover RF_104" style="font: 10px Verdana" x="4" y="384">S. galapagense</text>
	<line style="fill: none; stroke: gray; stroke-width: 0.1" x1="0" x2="800" y1="435" y2="435" />
	<text class="crossover ITAG2_3" style="font: 10px Verdana" x="4" y="429">S. l. Heinz 1706</text>
	<line style="fill: none; stroke: rgb(255,0,0)" x1="5" x2="10" y1="480" y2="480" />
	<text class="crossover" style="font: 10px Verdana" x="15" y="485">S. l. var Momatero</text>
	<line style="fill: none; stroke: rgb(255,217,0)" x1="5" x2="10" y1="495" y2="495" />
	<text class="crossover" style="font: 10px Verdana" x="15" y="500">S. l. var Gardener&apos;s Delight	</text>
	<line style="fill: none; stroke: rgb(77,255,0)" x1="5" x2="10" y1="510" y2="510" />
	<text class="crossover" style="font: 10px Verdana" x="15" y="515">S. l. var Katinka Cherry</text>
	<line style="fill: none; stroke: rgb(0,255,140)" x1="5" x2="10" y1="525" y2="525" />
	<text class="crossover" style="font: 10px Verdana" x="15" y="530">S. l. (1891)</text>
	<line style="fill: none; stroke: rgb(0,153,255)" x1="5" x2="10" y1="540" y2="540" />
	<text class="crossover" style="font: 10px Verdana" x="15" y="545">S. l. (1830)</text>
	<line style="fill: none; stroke: rgb(64,0,255)" x1="5" x2="10" y1="555" y2="555" />
	<text class="crossover" style="font: 10px Verdana" x="15" y="560">S. l. var Moneymaker</text>
	<line style="fill: none; stroke: rgb(255,0,230)" x1="5" x2="10" y1="570" y2="570" />
	<text class="crossover" style="font: 10px Verdana" x="15" y="575">S. l. var Sonato</text>
	<line class="segment RF_015" stroke-linecap="round" style="fill: none; stroke: rgb(255,0,0)" transform="translate(0,0)" x1="0" x2="110" y1="435" y2="435" />
	<line class="segment RF_003" stroke-linecap="round" style="fill: none; stroke: rgb(255,217,0)" transform="translate(1,1)" x1="0" x2="110" y1="435" y2="435" />
	<line class="segment RF_007" stroke-linecap="round" style="fill: none; stroke: rgb(77,255,0)" transform="translate(2,2)" x1="0" x2="110" y1="390" y2="390" />
	<line class="segment U0015716" stroke-linecap="round" style="fill: none; stroke: rgb(0,255,140)" transform="translate(3,3)" x1="0" x2="110" y1="435" y2="435" />
	<line class="segment U0015717" stroke-linecap="round" style="fill: none; stroke: rgb(0,153,255)" transform="translate(4,4)" x1="0" x2="110" y1="435" y2="435" />
	<line class="segment RF_001" stroke-linecap="round" style="fill: none; stroke: rgb(64,0,255)" transform="translate(5,5)" x1="0" x2="110" y1="435" y2="435" />
	<line class="segment RF_012" stroke-linecap="round" style="fill: none; stroke: rgb(255,0,230)" transform="translate(6,6)" x1="0" x2="110" y1="435" y2="435" />
	<path class="segment RF_015" d="M110,435 C110,435 110,435 110,435" stroke-linecap="round" style="fill: none; stroke: rgb(255,0,0)" transform="translate(0,0)" />
	<line class="segment RF_015" stroke-linecap="round" style="fill: none; stroke: rgb(255,0,0)" transform="translate(0,0)" x1="110" x2="162" y1="435" y2="435" />
	<path class="segment RF_003" d="M110,435 C110,435 110,435 110,435" stroke-linecap="round" style="fill: none; stroke: rgb(255,217,0)" transform="translate(1,1)" />
	<line class="segment RF_003" stroke-linecap="round" style="fill: none; stroke: rgb(255,217,0)" transform="translate(1,1)" x1="110" x2="162" y1="435" y2="435" />
	<path class="segment RF_007" d="M110,390 C110,390 110,345 110,345" stroke-linecap="round" style="fill: none; stroke: rgb(77,255,0)" transform="translate(2,2)" />
	<line class="segment RF_007" stroke-linecap="round" style="fill: none; stroke: rgb(77,255,0)" transform="translate(2,2)" x1="110" x2="162" y1="345" y2="345" />
	<path class="segment U0015716" d="M110,435 C110,435 110,435 110,435" stroke-linecap="round" style="fill: none; stroke: rgb(0,255,140)" transform="translate(3,3)" />
	<line class="segment U0015716" stroke-linecap="round" style="fill: none; stroke: rgb(0,255,140)" transform="translate(3,3)" x1="110" x2="162" y1="435" y2="435" />
	<path class="segment U0015717" d="M110,435 C110,435 110,435 110,435" stroke-linecap="round" style="fill: none; stroke: rgb(0,153,255)" transform="translate(4,4)" />
	<line class="segment U0015717" stroke-linecap="round" style="fill: none; stroke: rgb(0,153,255)" transform="translate(4,4)" x1="110" x2="162" y1="435" y2="435" />
	<path class="segment RF_001" d="M110,435 C110,435 110,435 110,435" stroke-linecap="round" style="fill: none; stroke: rgb(64,0,255)" transform="translate(5,5)" />
	<line class="segment RF_001" stroke-linecap="round" style="fill: none; stroke: rgb(64,0,255)" transform="translate(5,5)" x1="110" x2="162" y1="435" y2="435" />
	<path class="segment RF_012" d="M110,435 C110,435 110,435 110,435" stroke-linecap="round" style="fill: none; stroke: rgb(255,0,230)" transform="translate(6,6)" />
	<line class="segment RF_012" stroke-linecap="round" style="fill: none; stroke: rgb(255,0,230)" transform="translate(6,6)" x1="110" x2="162" y1="435" y2="435" />
	<path class="segment RF_015" d="M162,435 C162,435 162,435 162,435" stroke-linecap="round" style="fill: none; stroke: rgb(255,0,0)" transform="translate(0,0)" />
	<line class="segment RF_015" stroke-linecap="round" style="fill: none; stroke: rgb(255,0,0)" transform="translate(0,0)" x1="162" x2="285" y1="435" y2="435" />
	<path class="segment RF_003" d="M162,435 C162,435 162,435 162,435" stroke-linecap="round" style="fill: none; stroke: rgb(255,217,0)" transform="translate(1,1)" />
	<line class="segment RF_003" stroke-linecap="round" style="fill: none; stroke: rgb(255,217,0)" transform="translate(1,1)" x1="162" x2="285" y1="435" y2="435" />
	<path class="segment RF_007" d="M162,345 C162,345 162,345 162,345" stroke-linecap="round" style="fill: none; stroke: rgb(77,255,0)" transform="translate(2,2)" />
	<line class="segment RF_007" stroke-linecap="round" style="fill: none; stroke: rgb(77,255,0)" transform="translate(2,2)" x1="162" x2="285" y1="345" y2="345" />
	<path class="segment U0015716" d="M162,435 C162,435 162,435 162,435" stroke-linecap="round" style="fill: none; stroke: rgb(0,255,140)" transform="translate(3,3)" />
	<line class="segment U0015716" stroke-linecap="round" style="fill: none; stroke: rgb(0,255,140)" transform="translate(3,3)" x1="162" x2="285" y1="435" y2="435" />
	<path class="segment U0015717" d="M162,435 C162,435 162,435 162,435" stroke-linecap="round" style="fill: none; stroke: rgb(0,153,255)" transform="translate(4,4)" />
	<line class="segment U0015717" stroke-linecap="round" style="fill: none; stroke: rgb(0,153,255)" transform="translate(4,4)" x1="162" x2="285" y1="435" y2="435" />
	<path class="segment RF_001" d="M162,435 C162,435 162,435 162,435" stroke-linecap="round" style="fill: none; stroke: rgb(64,0,255)" transform="translate(5,5)" />
	<line class="segment RF_001" stroke-linecap="round" style="fill: none; stroke: rgb(64,0,255)" transform="translate(5,5)" x1="162" x2="285" y1="435" y2="435" />
	<path class="segment RF_012" d="M162,435 C162,435 162,435 162,435" stroke-linecap="round" style="fill: none; stroke: rgb(255,0,230)" transform="translate(6,6)" />
	<line class="segment RF_012" stroke-linecap="round" style="fill: none; stroke: rgb(255,0,230)" transform="translate(6,6)" x1="162" x2="285" y1="435" y2="435" />
	<path class="segment RF_015" d="M285,435 C285,435 285,435 285,435" stroke-linecap="round" style="fill: none; stroke: rgb(255,0,0)" transform="translate(0,0)" />
	<line class="segment RF_015" stroke-linecap="round" style="fill: none; stroke: rgb(255,0,0)" transform="translate(0,0)" x1="285" x2="330" y1="435" y2="435" />
	<path class="segment RF_003" d="M285,435 C285,435 285,435 285,435" stroke-linecap="round" style="fill: none; stroke: rgb(255,217,0)" transform="translate(1,1)" />
	<line class="segment RF_003" stroke-linecap="round" style="fill: none; stroke: rgb(255,217,0)" transform="translate(1,1)" x1="285" x2="330" y1="435" y2="435" />
	<path class="segment RF_007" d="M285,345 C285,345 285,435 285,435" stroke-linecap="round" style="fill: none; stroke: rgb(77,255,0)" transform="translate(2,2)" />
	<line class="segment RF_007" stroke-linecap="round" style="fill: none; stroke: rgb(77,255,0)" transform="translate(2,2)" x1="285" x2="330" y1="435" y2="435" />
	<path class="segment U0015716" d="M285,435 C285,435 285,435 285,435" stroke-linecap="round" style="fill: none; stroke: rgb(0,255,140)" transform="translate(3,3)" />
	<line class="segment U0015716" stroke-linecap="round" style="fill: none; stroke: rgb(0,255,140)" transform="translate(3,3)" x1="285" x2="330" y1="435" y2="435" />
	<path class="segment U0015717" d="M285,435 C285,435 285,435 285,435" stroke-linecap="round" style="fill: none; stroke: rgb(0,153,255)" transform="translate(4,4)" />
	<line class="segment U0015717" stroke-linecap="round" style="fill: none; stroke: rgb(0,153,255)" transform="translate(4,4)" x1="285" x2="330" y1="435" y2="435" />
	<path class="segment RF_001" d="M285,435 C285,435 285,435 285,435" stroke-linecap="round" style="fill: none; stroke: rgb(64,0,255)" transform="translate(5,5)" />
	<line class="segment RF_001" stroke-linecap="round" style="fill: none; stroke: rgb(64,0,255)" transform="translate(5,5)" x1="285" x2="330" y1="435" y2="435" />
	<path class="segment RF_012" d="M285,435 C285,435 285,435 285,435" stroke-linecap="round" style="fill: none; stroke: rgb(255,0,230)" transform="translate(6,6)" />
	<line class="segment RF_012" stroke-linecap="round" style="fill: none; stroke: rgb(255,0,230)" transform="translate(6,6)" x1="285" x2="330" y1="435" y2="435" />
	<path class="segment RF_015" d="M330,435 C330,435 330,435 330,435" stroke-linecap="round" style="fill: none; stroke: rgb(255,0,0)" transform="translate(0,0)" />
	<line class="segment RF_015" stroke-linecap="round" style="fill: none; stroke: rgb(255,0,0)" transform="translate(0,0)" x1="330" x2="411" y1="435" y2="435" />
	<path class="segment RF_003" d="M330,435 C330,435 330,435 330,435" stroke-linecap="round" style="fill: none; stroke: rgb(255,217,0)" transform="translate(1,1)" />
	<line class="segment RF_003" stroke-linecap="round" style="fill: none; stroke: rgb(255,217,0)" transform="translate(1,1)" x1="330" x2="411" y1="435" y2="435" />
	<path class="segment RF_007" d="M330,435 C330,435 330,435 330,435" stroke-linecap="round" style="fill: none; stroke: rgb(77,255,0)" transform="translate(2,2)" />
	<line class="segment RF_007" stroke-linecap="round" style="fill: none; stroke: rgb(77,255,0)" transform="translate(2,2)" x1="330" x2="411" y1="435" y2="435" />
	<path class="segment U0015716" d="M330,435 C330,435 330,435 330,435" stroke-linecap="round" style="fill: none; stroke: rgb(0,255,140)" transform="translate(3,3)" />
	<line class="segment U0015716" stroke-linecap="round" style="fill: none; stroke: rgb(0,255,140)" transform="translate(3,3)" x1="330" x2="411" y1="435" y2="435" />
	<path class="segment U0015717" d="M330,435 C330,435 330,435 330,435" stroke-linecap="round" style="fill: none; stroke: rgb(0,153,255)" transform="translate(4,4)" />
	<line class="segment U0015717" stroke-linecap="round" style="fill: none; stroke: rgb(0,153,255)" transform="translate(4,4)" x1="330" x2="411" y1="435" y2="435" />
	<path class="segment RF_001" d="M330,435 C330,435 330,435 330,435" stroke-linecap="round" style="fill: none; stroke: rgb(64,0,255)" transform="translate(5,5)" />
	<line class="segment RF_001" stroke-linecap="round" style="fill: none; stroke: rgb(64,0,255)" transform="translate(5,5)" x1="330" x2="411" y1="435" y2="435" />
	<path class="segment RF_012" d="M330,435 C330,435 330,435 330,435" stroke-linecap="round" style="fill: none; stroke: rgb(255,0,230)" transform="translate(6,6)" />
	<line class="segment RF_012" stroke-linecap="round" style="fill: none; stroke: rgb(255,0,230)" transform="translate(6,6)" x1="330" x2="411" y1="435" y2="435" />
	<path class="segment RF_015" d="M411,435 C411,435 411,435 411,435" stroke-linecap="round" style="fill: none; stroke: rgb(255,0,0)" transform="translate(0,0)" />
	<line class="segment RF_015" stroke-linecap="round" style="fill: none; stroke: rgb(255,0,0)" transform="translate(0,0)" x1="411" x2="800" y1="435" y2="435" />
	<path class="segment RF_003" d="M411,435 C411,435 411,435 411,435" stroke-linecap="round" style="fill: none; stroke: rgb(255,217,0)" transform="translate(1,1)" />
	<line class="segment RF_003" stroke-linecap="round" style="fill: none; stroke: rgb(255,217,0)" transform="translate(1,1)" x1="411" x2="800" y1="435" y2="435" />
	<path class="segment RF_007" d="M411,435 C411,435 411,345 411,345" stroke-linecap="round" style="fill: none; stroke: rgb(77,255,0)" transform="translate(2,2)" />
	<line class="segment RF_007" stroke-linecap="round" style="fill: none; stroke: rgb(77,255,0)" transform="translate(2,2)" x1="411" x2="800" y1="345" y2="345" />
	<path class="segment U0015716" d="M411,435 C411,435 411,435 411,435" stroke-linecap="round" style="fill: none; stroke: rgb(0,255,140)" transform="translate(3,3)" />
	<line class="segment U0015716" stroke-linecap="round" style="fill: none; stroke: rgb(0,255,140)" transform="translate(3,3)" x1="411" x2="800" y1="435" y2="435" />
	<path class="segment U0015717" d="M411,435 C411,435 411,435 411,435" stroke-linecap="round" style="fill: none; stroke: rgb(0,153,255)" transform="translate(4,4)" />
	<line class="segment U0015717" stroke-linecap="round" style="fill: none; stroke: rgb(0,153,255)" transform="translate(4,4)" x1="411" x2="800" y1="435" y2="435" />
	<path class="segment RF_001" d="M411,435 C411,435 411,435 411,435" stroke-linecap="round" style="fill: none; stroke: rgb(64,0,255)" transform="translate(5,5)" />
	<line class="segment RF_001" stroke-linecap="round" style="fill: none; stroke: rgb(64,0,255)" transform="translate(5,5)" x1="411" x2="800" y1="435" y2="435" />
	<path class="segment RF_012" d="M411,435 C411,435 411,435 411,435" stroke-linecap="round" style="fill: none; stroke: rgb(255,0,230)" transform="translate(6,6)" />
	<line class="segment RF_012" stroke-linecap="round" style="fill: none; stroke: rgb(255,0,230)" transform="translate(6,6)" x1="411" x2="800" y1="435" y2="435" />
	<polygon class="arrow" points="321,337.5 321,340 311,335 321,330 321,332.5 489,332.5 489,337.5 321,337.5 " style="fill: white; stroke: black" />
	<rect class="three_prime_UTR" height="50" style="fill: silver; stroke: black" width="6" x="311" y="275" />
	<text class="three_prime_UTR" style="font: 10px Verdana" transform="rotate(-90,315,265)" x="315" y="265">5,225,203 .. 5,225,422</text>
	<rect class="five_prime_UTR" height="50" style="fill: silver; stroke: black" width="7" x="482" y="275" />
	<text class="five_prime_UTR" style="font: 10px Verdana" transform="rotate(-90,486,265)" x="486" y="265">5,230,709 .. 5,230,962</text>
	<!-- 
	Generated using the Perl SVG Module V2.59
	by Ronan Oger
	Info: http://www.roitsystems.com/
 -->
</svg>