<?xml version="1.0" encoding="UTF-8" standalone="yes"?>
<!DOCTYPE svg PUBLIC "-//W3C//DTD SVG 1.0//EN" "http://www.w3.org/TR/2001/REC-SVG-20010904/DTD/svg10.dtd">
<svg height="600" width="800" xmlns="http://www.w3.org/2000/svg" xmlns:svg="http://www.w3.org/2000/svg" xmlns:xlink="http://www.w3.org/1999/xlink">
	<line class="breakpoint" style="fill: white; stroke: black; stroke-width: 0.1" x1="800" x2="800" y1="100" y2="300" />
	<text class="breakpoint" style="font: 10px Verdana" transform="rotate(-90,4,90)" x="4" y="90">64,948,149</text>
	<polyline class="scale" points="0,294 0,306 0,300 4,300 4,298 4,302 4,300 8,300 8,298 8,302 8,300 11,300 11,298 11,302 11,300 15,300 15,298 15,302 15,300 19,300 19,298 19,302 19,300 23,300 23,298 23,302 23,300 26,300 26,298 26,302 26,300 30,300 30,298 30,302 30,300 34,300 34,298 34,302 34,300 38,300 38,294 38,306 38,300 41,300 41,298 41,302 41,300 45,300 45,298 45,302 45,300 49,300 49,298 49,302 49,300 53,300 53,298 53,302 53,300 56,300 56,298 56,302 56,300 60,300 60,298 60,302 60,300 64,300 64,298 64,302 64,300 68,300 68,298 68,302 68,300 71,300 71,298 71,302 71,300 75,300 75,294 75,306 75,300 79,300 79,298 79,302 79,300 83,300 83,298 83,302 83,300 86,300 86,298 86,302 86,300 90,300 90,298 90,302 90,300 94,300 94,298 94,302 94,300 98,300 98,298 98,302 98,300 101,300 101,298 101,302 101,300 105,300 105,298 105,302 105,300 109,300 109,298 109,302 109,300 113,300 113,294 113,306 113,300 117,300 117,298 117,302 117,300 120,300 120,298 120,302 120,300 124,300 124,298 124,302 124,300 128,300 128,298 128,302 128,300 132,300 132,298 132,302 132,300 135,300 135,298 135,302 135,300 139,300 139,298 139,302 139,300 143,300 143,298 143,302 143,300 147,300 147,298 147,302 147,300 150,300 150,294 150,306 150,300 154,300 154,298 154,302 154,300 158,300 158,298 158,302 158,300 162,300 162,298 162,302 162,300 165,300 165,298 165,302 165,300 169,300 169,298 169,302 169,300 173,300 173,298 173,302 173,300 177,300 177,298 177,302 177,300 180,300 180,298 180,302 180,300 184,300 184,298 184,302 184,300 188,300 188,294 188,306 188,300 192,300 192,298 192,302 192,300 195,300 195,298 195,302 195,300 199,300 199,298 199,302 199,300 203,300 203,298 203,302 203,300 207,300 207,298 207,302 207,300 210,300 210,298 210,302 210,300 214,300 214,298 214,302 214,300 218,300 218,298 218,302 218,300 222,300 222,298 222,302 222,300 226,300 226,294 226,306 226,300 229,300 229,298 229,302 229,300 233,300 233,298 233,302 233,300 237,300 237,298 237,302 237,300 241,300 241,298 241,302 241,300 244,300 244,298 244,302 244,300 248,300 248,298 248,302 248,300 252,300 252,298 252,302 252,300 256,300 256,298 256,302 256,300 259,300 259,298 259,302 259,300 263,300 263,294 263,306 263,300 267,300 267,298 267,302 267,300 271,300 271,298 271,302 271,300 274,300 274,298 274,302 274,300 278,300 278,298 278,302 278,300 282,300 282,298 282,302 282,300 286,300 286,298 286,302 286,300 289,300 289,298 289,302 289,300 293,300 293,298 293,302 293,300 297,300 297,298 297,302 297,300 301,300 301,294 301,306 301,300 304,300 304,298 304,302 304,300 308,300 308,298 308,302 308,300 312,300 312,298 312,302 312,300 316,300 316,298 316,302 316,300 319,300 319,298 319,302 319,300 323,300 323,298 323,302 323,300 327,300 327,298 327,302 327,300 331,300 331,298 331,302 331,300 334,300 334,298 334,302 334,300 338,300 338,294 338,306 338,300 342,300 342,298 342,302 342,300 346,300 346,298 346,302 346,300 350,300 350,298 350,302 350,300 353,300 353,298 353,302 353,300 357,300 357,298 357,302 357,300 361,300 361,298 361,302 361,300 365,300 365,298 365,302 365,300 368,300 368,298 368,302 368,300 372,300 372,298 372,302 372,300 376,300 376,294 376,306 376,300 380,300 380,298 380,302 380,300 383,300 383,298 383,302 383,300 387,300 387,298 387,302 387,300 391,300 391,298 391,302 391,300 395,300 395,298 395,302 395,300 398,300 398,298 398,302 398,300 402,300 402,298 402,302 402,300 406,300 406,298 406,302 406,300 410,300 410,298 410,302 410,300 413,300 413,294 413,306 413,300 417,300 417,298 417,302 417,300 421,300 421,298 421,302 421,300 425,300 425,298 425,302 425,300 428,300 428,298 428,302 428,300 432,300 432,298 432,302 432,300 436,300 436,298 436,302 436,300 440,300 440,298 440,302 440,300 443,300 443,298 443,302 443,300 447,300 447,298 447,302 447,300 451,300 451,294 451,306 451,300 455,300 455,298 455,302 455,300 459,300 459,298 459,302 459,300 462,300 462,298 462,302 462,300 466,300 466,298 466,302 466,300 470,300 470,298 470,302 470,300 474,300 474,298 474,302 474,300 477,300 477,298 477,302 477,300 481,300 481,298 481,302 481,300 485,300 485,298 485,302 485,300 489,300 489,294 489,306 489,300 492,300 492,298 492,302 492,300 496,300 496,298 496,302 496,300 500,300 500,298 500,302 500,300 504,300 504,298 504,302 504,300 507,300 507,298 507,302 507,300 511,300 511,298 511,302 511,300 515,300 515,298 515,302 515,300 519,300 519,298 519,302 519,300 522,300 522,298 522,302 522,300 526,300 526,294 526,306 526,300 530,300 530,298 530,302 530,300 534,300 534,298 534,302 534,300 537,300 537,298 537,302 537,300 541,300 541,298 541,302 541,300 545,300 545,298 545,302 545,300 549,300 549,298 549,302 549,300 552,300 552,298 552,302 552,300 556,300 556,298 556,302 556,300 560,300 560,298 560,302 560,300 564,300 564,294 564,306 564,300 568,300 568,298 568,302 568,300 571,300 571,298 571,302 571,300 575,300 575,298 575,302 575,300 579,300 579,298 579,302 579,300 583,300 583,298 583,302 583,300 586,300 586,298 586,302 586,300 590,300 590,298 590,302 590,300 594,300 594,298 594,302 594,300 598,300 598,298 598,302 598,300 601,300 601,294 601,306 601,300 605,300 605,298 605,302 605,300 609,300 609,298 609,302 609,300 613,300 613,298 613,302 613,300 616,300 616,298 616,302 616,300 620,300 620,298 620,302 620,300 624,300 624,298 624,302 624,300 628,300 628,298 628,302 628,300 631,300 631,298 631,302 631,300 635,300 635,298 635,302 635,300 639,300 639,294 639,306 639,300 643,300 643,298 643,302 643,300 646,300 646,298 646,302 646,300 650,300 650,298 650,302 650,300 654,300 654,298 654,302 654,300 658,300 658,298 658,302 658,300 661,300 661,298 661,302 661,300 665,300 665,298 665,302 665,300 669,300 669,298 669,302 669,300 673,300 673,298 673,302 673,300 677,300 677,294 677,306 677,300 680,300 680,298 680,302 680,300 684,300 684,298 684,302 684,300 688,300 688,298 688,302 688,300 692,300 692,298 692,302 692,300 695,300 695,298 695,302 695,300 699,300 699,298 699,302 699,300 703,300 703,298 703,302 703,300 707,300 707,298 707,302 707,300 710,300 710,298 710,302 710,300 714,300 714,294 714,306 714,300 718,300 718,298 718,302 718,300 722,300 722,298 722,302 722,300 725,300 725,298 725,302 725,300 729,300 729,298 729,302 729,300 733,300 733,298 733,302 733,300 737,300 737,298 737,302 737,300 740,300 740,298 740,302 740,300 744,300 744,298 744,302 744,300 748,300 748,298 748,302 748,300 752,300 752,294 752,306 752,300 755,300 755,298 755,302 755,300 759,300 759,298 759,302 759,300 763,300 763,298 763,302 763,300 767,300 767,298 767,302 767,300 770,300 770,298 770,302 770,300 774,300 774,298 774,302 774,300 778,300 778,298 778,302 778,300 782,300 782,298 782,302 782,300 785,300 785,298 785,302 785,300 789,300 789,294 789,306 789,300 793,300 793,298 793,302 793,300 797,300 797,298 797,302 797,300 800,300 " style="fill: none; stroke: black; stroke-width: 0.1" />
	<rect class="exon" height="50" style="fill: white; stroke: black" width="48" x="376" y="275" />
	<text class="exon" style="font: 10px Verdana" transform="rotate(-90,380,265)" x="380" y="265">64,958,148 .. 64,959,434</text>
	<line class="breakpoint" style="fill: white; stroke: black; stroke-width: 0.1" x1="800" x2="800" y1="100" y2="300" />
	<text class="breakpoint" style="font: 10px Verdana" transform="rotate(-90,4,90)" x="4" y="90">64,948,149</text>
	<line style="fill: none; stroke: gray; stroke-width: 0.1" x1="0" x2="800" y1="345" y2="345" />
	<text class="crossover ITAG2_3" style="font: 10px Verdana" x="4" y="339">S. l. Heinz 1706</text>
	<line style="fill: none; stroke: rgb(255,0,0)" x1="5" x2="10" y1="480" y2="480" />
	<text class="crossover" style="font: 10px Verdana" x="15" y="485">S. l. var Momatero</text>
	<line style="fill: none; stroke: rgb(255,217,0)" x1="5" x2="10" y1="495" y2="495" />
	<text class="crossover" style="font: 10px Verdana" x="15" y="500">S. l. var Gardener&apos;s Delight	</text>
	<line style="fill: none; stroke: rgb(77,255,0)" x1="5" x2="10" y1="510" y2="510" />
	<text class="crossover" style="font: 10px Verdana" x="15" y="515">S. l. var Katinka Cherry</text>
	<line style="fill: none; stroke: rgb(0,255,140)" x1="5" x2="10" y1="525" y2="525" />
	<text class="crossover" style="font: 10px Verdana" x="15" y="530">S. l. (1891)</text>
	<line style="fill: none; stroke: rgb(0,153,255)" x1="5" x2="10" y1="540" y2="540" />
	<text class="crossover" style="font: 10px Verdana" x="15" y="545">S. l. (1830)</text>
	<line style="fill: none; stroke: rgb(64,0,255)" x1="5" x2="10" y1="555" y2="555" />
	<text class="crossover" style="font: 10px Verdana" x="15" y="560">S. l. var Moneymaker</text>
	<line style="fill: none; stroke: rgb(255,0,230)" x1="5" x2="10" y1="570" y2="570" />
	<text class="crossover" style="font: 10px Verdana" x="15" y="575">S. l. var Sonato</text>
	<line class="segment RF_015" stroke-linecap="round" style="fill: none; stroke: rgb(255,0,0)" transform="translate(0,0)" x1="0" x2="800" y1="345" y2="345" />
	<line class="segment RF_003" stroke-linecap="round" style="fill: none; stroke: rgb(255,217,0)" transform="translate(1,1)" x1="0" x2="800" y1="345" y2="345" />
	<line class="segment RF_007" stroke-linecap="round" style="fill: none; stroke: rgb(77,255,0)" transform="translate(2,2)" x1="0" x2="800" y1="345" y2="345" />
	<line class="segment U0015716" stroke-linecap="round" style="fill: none; stroke: rgb(0,255,140)" transform="translate(3,3)" x1="0" x2="800" y1="345" y2="345" />
	<line class="segment U0015717" stroke-linecap="round" style="fill: none; stroke: rgb(0,153,255)" transform="translate(4,4)" x1="0" x2="800" y1="345" y2="345" />
	<line class="segment RF_001" stroke-linecap="round" style="fill: none; stroke: rgb(64,0,255)" transform="translate(5,5)" x1="0" x2="800" y1="345" y2="345" />
	<line class="segment RF_012" stroke-linecap="round" style="fill: none; stroke: rgb(255,0,230)" transform="translate(6,6)" x1="0" x2="800" y1="345" y2="345" />
	<polygon class="arrow" points="376,337.5 376,332.5 414,332.5 414,330 424,335 414,340 414,337.5 376,337.5 " style="fill: white; stroke: black" />
	<!-- 
	Generated using the Perl SVG Module V2.59
	by Ronan Oger
	Info: http://www.roitsystems.com/
 -->
</svg>