<?xml version="1.0" encoding="UTF-8" standalone="yes"?>
<!DOCTYPE svg PUBLIC "-//W3C//DTD SVG 1.0//EN" "http://www.w3.org/TR/2001/REC-SVG-20010904/DTD/svg10.dtd">
<svg height="600" width="800" xmlns="http://www.w3.org/2000/svg" xmlns:svg="http://www.w3.org/2000/svg" xmlns:xlink="http://www.w3.org/1999/xlink">
	<line class="breakpoint" style="fill: white; stroke: black; stroke-width: 0.1" x1="48" x2="48" y1="100" y2="300" />
	<text class="breakpoint" style="font: 10px Verdana" transform="rotate(-90,4,90)" x="4" y="90">62,437,633</text>
	<line class="breakpoint" style="fill: white; stroke: black; stroke-width: 0.1" x1="800" x2="800" y1="100" y2="300" />
	<text class="breakpoint" style="font: 10px Verdana" transform="rotate(-90,52,90)" x="52" y="90">62,439,080</text>
	<polyline class="scale" points="0,294 0,306 0,300 3,300 3,298 3,302 3,300 7,300 7,298 7,302 7,300 10,300 10,298 10,302 10,300 13,300 13,298 13,302 13,300 17,300 17,298 17,302 17,300 20,300 20,298 20,302 20,300 23,300 23,298 23,302 23,300 26,300 26,298 26,302 26,300 30,300 30,298 30,302 30,300 33,300 33,294 33,306 33,300 36,300 36,298 36,302 36,300 40,300 40,298 40,302 40,300 43,300 43,298 43,302 43,300 46,300 46,298 46,302 46,300 50,300 50,298 50,302 50,300 53,300 53,298 53,302 53,300 56,300 56,298 56,302 56,300 60,300 60,298 60,302 60,300 63,300 63,298 63,302 63,300 66,300 66,294 66,306 66,300 69,300 69,298 69,302 69,300 73,300 73,298 73,302 73,300 76,300 76,298 76,302 76,300 79,300 79,298 79,302 79,300 83,300 83,298 83,302 83,300 86,300 86,298 86,302 86,300 89,300 89,298 89,302 89,300 93,300 93,298 93,302 93,300 96,300 96,298 96,302 96,300 99,300 99,294 99,306 99,300 103,300 103,298 103,302 103,300 106,300 106,298 106,302 106,300 109,300 109,298 109,302 109,300 112,300 112,298 112,302 112,300 116,300 116,298 116,302 116,300 119,300 119,298 119,302 119,300 122,300 122,298 122,302 122,300 126,300 126,298 126,302 126,300 129,300 129,298 129,302 129,300 132,300 132,294 132,306 132,300 136,300 136,298 136,302 136,300 139,300 139,298 139,302 139,300 142,300 142,298 142,302 142,300 145,300 145,298 145,302 145,300 149,300 149,298 149,302 149,300 152,300 152,298 152,302 152,300 155,300 155,298 155,302 155,300 159,300 159,298 159,302 159,300 162,300 162,298 162,302 162,300 165,300 165,294 165,306 165,300 169,300 169,298 169,302 169,300 172,300 172,298 172,302 172,300 175,300 175,298 175,302 175,300 179,300 179,298 179,302 179,300 182,300 182,298 182,302 182,300 185,300 185,298 185,302 185,300 188,300 188,298 188,302 188,300 192,300 192,298 192,302 192,300 195,300 195,298 195,302 195,300 198,300 198,294 198,306 198,300 202,300 202,298 202,302 202,300 205,300 205,298 205,302 205,300 208,300 208,298 208,302 208,300 212,300 212,298 212,302 212,300 215,300 215,298 215,302 215,300 218,300 218,298 218,302 218,300 222,300 222,298 222,302 222,300 225,300 225,298 225,302 225,300 228,300 228,298 228,302 228,300 231,300 231,294 231,306 231,300 235,300 235,298 235,302 235,300 238,300 238,298 238,302 238,300 241,300 241,298 241,302 241,300 245,300 245,298 245,302 245,300 248,300 248,298 248,302 248,300 251,300 251,298 251,302 251,300 255,300 255,298 255,302 255,300 258,300 258,298 258,302 258,300 261,300 261,298 261,302 261,300 265,300 265,294 265,306 265,300 268,300 268,298 268,302 268,300 271,300 271,298 271,302 271,300 274,300 274,298 274,302 274,300 278,300 278,298 278,302 278,300 281,300 281,298 281,302 281,300 284,300 284,298 284,302 284,300 288,300 288,298 288,302 288,300 291,300 291,298 291,302 291,300 294,300 294,298 294,302 294,300 298,300 298,294 298,306 298,300 301,300 301,298 301,302 301,300 304,300 304,298 304,302 304,300 308,300 308,298 308,302 308,300 311,300 311,298 311,302 311,300 314,300 314,298 314,302 314,300 317,300 317,298 317,302 317,300 321,300 321,298 321,302 321,300 324,300 324,298 324,302 324,300 327,300 327,298 327,302 327,300 331,300 331,294 331,306 331,300 334,300 334,298 334,302 334,300 337,300 337,298 337,302 337,300 341,300 341,298 341,302 341,300 344,300 344,298 344,302 344,300 347,300 347,298 347,302 347,300 351,300 351,298 351,302 351,300 354,300 354,298 354,302 354,300 357,300 357,298 357,302 357,300 360,300 360,298 360,302 360,300 364,300 364,294 364,306 364,300 367,300 367,298 367,302 367,300 370,300 370,298 370,302 370,300 374,300 374,298 374,302 374,300 377,300 377,298 377,302 377,300 380,300 380,298 380,302 380,300 384,300 384,298 384,302 384,300 387,300 387,298 387,302 387,300 390,300 390,298 390,302 390,300 394,300 394,298 394,302 394,300 397,300 397,294 397,306 397,300 400,300 400,298 400,302 400,300 403,300 403,298 403,302 403,300 407,300 407,298 407,302 407,300 410,300 410,298 410,302 410,300 413,300 413,298 413,302 413,300 417,300 417,298 417,302 417,300 420,300 420,298 420,302 420,300 423,300 423,298 423,302 423,300 427,300 427,298 427,302 427,300 430,300 430,294 430,306 430,300 433,300 433,298 433,302 433,300 436,300 436,298 436,302 436,300 440,300 440,298 440,302 440,300 443,300 443,298 443,302 443,300 446,300 446,298 446,302 446,300 450,300 450,298 450,302 450,300 453,300 453,298 453,302 453,300 456,300 456,298 456,302 456,300 460,300 460,298 460,302 460,300 463,300 463,294 463,306 463,300 466,300 466,298 466,302 466,300 470,300 470,298 470,302 470,300 473,300 473,298 473,302 473,300 476,300 476,298 476,302 476,300 479,300 479,298 479,302 479,300 483,300 483,298 483,302 483,300 486,300 486,298 486,302 486,300 489,300 489,298 489,302 489,300 493,300 493,298 493,302 493,300 496,300 496,294 496,306 496,300 499,300 499,298 499,302 499,300 503,300 503,298 503,302 503,300 506,300 506,298 506,302 506,300 509,300 509,298 509,302 509,300 513,300 513,298 513,302 513,300 516,300 516,298 516,302 516,300 519,300 519,298 519,302 519,300 522,300 522,298 522,302 522,300 526,300 526,298 526,302 526,300 529,300 529,294 529,306 529,300 532,300 532,298 532,302 532,300 536,300 536,298 536,302 536,300 539,300 539,298 539,302 539,300 542,300 542,298 542,302 542,300 546,300 546,298 546,302 546,300 549,300 549,298 549,302 549,300 552,300 552,298 552,302 552,300 556,300 556,298 556,302 556,300 559,300 559,298 559,302 559,300 562,300 562,294 562,306 562,300 565,300 565,298 565,302 565,300 569,300 569,298 569,302 569,300 572,300 572,298 572,302 572,300 575,300 575,298 575,302 575,300 579,300 579,298 579,302 579,300 582,300 582,298 582,302 582,300 585,300 585,298 585,302 585,300 589,300 589,298 589,302 589,300 592,300 592,298 592,302 592,300 595,300 595,294 595,306 595,300 599,300 599,298 599,302 599,300 602,300 602,298 602,302 602,300 605,300 605,298 605,302 605,300 608,300 608,298 608,302 608,300 612,300 612,298 612,302 612,300 615,300 615,298 615,302 615,300 618,300 618,298 618,302 618,300 622,300 622,298 622,302 622,300 625,300 625,298 625,302 625,300 628,300 628,294 628,306 628,300 632,300 632,298 632,302 632,300 635,300 635,298 635,302 635,300 638,300 638,298 638,302 638,300 642,300 642,298 642,302 642,300 645,300 645,298 645,302 645,300 648,300 648,298 648,302 648,300 651,300 651,298 651,302 651,300 655,300 655,298 655,302 655,300 658,300 658,298 658,302 658,300 661,300 661,294 661,306 661,300 665,300 665,298 665,302 665,300 668,300 668,298 668,302 668,300 671,300 671,298 671,302 671,300 675,300 675,298 675,302 675,300 678,300 678,298 678,302 678,300 681,300 681,298 681,302 681,300 684,300 684,298 684,302 684,300 688,300 688,298 688,302 688,300 691,300 691,298 691,302 691,300 694,300 694,294 694,306 694,300 698,300 698,298 698,302 698,300 701,300 701,298 701,302 701,300 704,300 704,298 704,302 704,300 708,300 708,298 708,302 708,300 711,300 711,298 711,302 711,300 714,300 714,298 714,302 714,300 718,300 718,298 718,302 718,300 721,300 721,298 721,302 721,300 724,300 724,298 724,302 724,300 727,300 727,294 727,306 727,300 731,300 731,298 731,302 731,300 734,300 734,298 734,302 734,300 737,300 737,298 737,302 737,300 741,300 741,298 741,302 741,300 744,300 744,298 744,302 744,300 747,300 747,298 747,302 747,300 751,300 751,298 751,302 751,300 754,300 754,298 754,302 754,300 757,300 757,298 757,302 757,300 761,300 761,294 761,306 761,300 764,300 764,298 764,302 764,300 767,300 767,298 767,302 767,300 770,300 770,298 770,302 770,300 774,300 774,298 774,302 774,300 777,300 777,298 777,302 777,300 780,300 780,298 780,302 780,300 784,300 784,298 784,302 784,300 787,300 787,298 787,302 787,300 790,300 790,298 790,302 790,300 794,300 794,294 794,306 794,300 797,300 797,298 797,302 797,300 800,300 " style="fill: none; stroke: black; stroke-width: 0.1" />
	<rect class="exon" height="50" style="fill: white; stroke: black" width="6" x="331" y="275" />
	<text class="exon" style="font: 10px Verdana" transform="rotate(-90,335,265)" x="335" y="265">62,447,632 .. 62,447,835</text>
	<line class="intron" style="fill: white; stroke: black" x1="337" x2="341" y1="300" y2="300" />
	<rect class="exon" height="50" style="fill: white; stroke: black" width="3" x="341" y="275" />
	<text class="exon" style="font: 10px Verdana" transform="rotate(-90,345,265)" x="345" y="265">62,447,949 .. 62,448,045</text>
	<line class="intron" style="fill: white; stroke: black" x1="344" x2="352" y1="300" y2="300" />
	<rect class="exon" height="50" style="fill: white; stroke: black" width="8" x="352" y="275" />
	<text class="exon" style="font: 10px Verdana" transform="rotate(-90,356,265)" x="356" y="265">62,448,282 .. 62,448,526</text>
	<line class="intron" style="fill: white; stroke: black" x1="360" x2="363" y1="300" y2="300" />
	<rect class="exon" height="50" style="fill: white; stroke: black" width="34" x="363" y="275" />
	<text class="exon" style="font: 10px Verdana" transform="rotate(-90,367,265)" x="367" y="265">62,448,622 .. 62,449,640</text>
	<line class="intron" style="fill: white; stroke: black" x1="397" x2="401" y1="300" y2="300" />
	<rect class="exon" height="50" style="fill: white; stroke: black" width="1" x="401" y="275" />
	<text class="exon" style="font: 10px Verdana" transform="rotate(-90,405,265)" x="405" y="265">62,449,752 .. 62,449,760</text>
	<line class="intron" style="fill: white; stroke: black" x1="401" x2="463" y1="300" y2="300" />
	<rect class="exon" height="50" style="fill: white; stroke: black" width="6" x="463" y="275" />
	<text class="exon" style="font: 10px Verdana" transform="rotate(-90,467,265)" x="467" y="265">62,451,630 .. 62,451,825</text>
	<line class="breakpoint" style="fill: white; stroke: black; stroke-width: 0.1" x1="48" x2="48" y1="100" y2="300" />
	<text class="breakpoint" style="font: 10px Verdana" transform="rotate(-90,4,90)" x="4" y="90">62,437,633</text>
	<line class="breakpoint" style="fill: white; stroke: black; stroke-width: 0.1" x1="800" x2="800" y1="100" y2="300" />
	<text class="breakpoint" style="font: 10px Verdana" transform="rotate(-90,52,90)" x="52" y="90">62,439,080</text>
	<line style="fill: none; stroke: gray; stroke-width: 0.1" x1="0" x2="800" y1="345" y2="345" />
	<text class="crossover RF_047" style="font: 10px Verdana" x="4" y="339">S. pimpinellifolium</text>
	<line style="fill: none; stroke: gray; stroke-width: 0.1" x1="0" x2="800" y1="413" y2="413" />
	<text class="crossover ITAG2_3" style="font: 10px Verdana" x="4" y="407">S. l. Heinz 1706</text>
	<line style="fill: none; stroke: rgb(255,0,0)" x1="5" x2="10" y1="480" y2="480" />
	<text class="crossover" style="font: 10px Verdana" x="15" y="485">S. l. var Momatero</text>
	<line style="fill: none; stroke: rgb(255,217,0)" x1="5" x2="10" y1="495" y2="495" />
	<text class="crossover" style="font: 10px Verdana" x="15" y="500">S. l. var Gardener&apos;s Delight	</text>
	<line style="fill: none; stroke: rgb(77,255,0)" x1="5" x2="10" y1="510" y2="510" />
	<text class="crossover" style="font: 10px Verdana" x="15" y="515">S. l. var Katinka Cherry</text>
	<line style="fill: none; stroke: rgb(0,255,140)" x1="5" x2="10" y1="525" y2="525" />
	<text class="crossover" style="font: 10px Verdana" x="15" y="530">S. l. (1891)</text>
	<line style="fill: none; stroke: rgb(0,153,255)" x1="5" x2="10" y1="540" y2="540" />
	<text class="crossover" style="font: 10px Verdana" x="15" y="545">S. l. (1830)</text>
	<line style="fill: none; stroke: rgb(64,0,255)" x1="5" x2="10" y1="555" y2="555" />
	<text class="crossover" style="font: 10px Verdana" x="15" y="560">S. l. var Moneymaker</text>
	<line style="fill: none; stroke: rgb(255,0,230)" x1="5" x2="10" y1="570" y2="570" />
	<text class="crossover" style="font: 10px Verdana" x="15" y="575">S. l. var Sonato</text>
	<line class="segment RF_015" stroke-linecap="round" style="fill: none; stroke: rgb(255,0,0)" transform="translate(0,0)" x1="0" x2="48" y1="413" y2="413" />
	<line class="segment RF_003" stroke-linecap="round" style="fill: none; stroke: rgb(255,217,0)" transform="translate(1,1)" x1="0" x2="48" y1="345" y2="345" />
	<line class="segment RF_007" stroke-linecap="round" style="fill: none; stroke: rgb(77,255,0)" transform="translate(2,2)" x1="0" x2="48" y1="413" y2="413" />
	<line class="segment U0015716" stroke-linecap="round" style="fill: none; stroke: rgb(0,255,140)" transform="translate(3,3)" x1="0" x2="48" y1="413" y2="413" />
	<line class="segment U0015717" stroke-linecap="round" style="fill: none; stroke: rgb(0,153,255)" transform="translate(4,4)" x1="0" x2="48" y1="413" y2="413" />
	<line class="segment RF_001" stroke-linecap="round" style="fill: none; stroke: rgb(64,0,255)" transform="translate(5,5)" x1="0" x2="48" y1="413" y2="413" />
	<line class="segment RF_012" stroke-linecap="round" style="fill: none; stroke: rgb(255,0,230)" transform="translate(6,6)" x1="0" x2="48" y1="413" y2="413" />
	<path class="segment RF_015" d="M48,413 C48,413 48,413 48,413" stroke-linecap="round" style="fill: none; stroke: rgb(255,0,0)" transform="translate(0,0)" />
	<line class="segment RF_015" stroke-linecap="round" style="fill: none; stroke: rgb(255,0,0)" transform="translate(0,0)" x1="48" x2="800" y1="413" y2="413" />
	<path class="segment RF_003" d="M48,345 C48,345 48,345 48,345" stroke-linecap="round" style="fill: none; stroke: rgb(255,217,0)" transform="translate(1,1)" />
	<line class="segment RF_003" stroke-linecap="round" style="fill: none; stroke: rgb(255,217,0)" transform="translate(1,1)" x1="48" x2="800" y1="345" y2="345" />
	<path class="segment RF_007" d="M48,413 C48,413 48,413 48,413" stroke-linecap="round" style="fill: none; stroke: rgb(77,255,0)" transform="translate(2,2)" />
	<line class="segment RF_007" stroke-linecap="round" style="fill: none; stroke: rgb(77,255,0)" transform="translate(2,2)" x1="48" x2="800" y1="413" y2="413" />
	<path class="segment U0015716" d="M48,413 C48,413 48,413 48,413" stroke-linecap="round" style="fill: none; stroke: rgb(0,255,140)" transform="translate(3,3)" />
	<line class="segment U0015716" stroke-linecap="round" style="fill: none; stroke: rgb(0,255,140)" transform="translate(3,3)" x1="48" x2="800" y1="413" y2="413" />
	<path class="segment U0015717" d="M48,413 C48,413 48,413 48,413" stroke-linecap="round" style="fill: none; stroke: rgb(0,153,255)" transform="translate(4,4)" />
	<line class="segment U0015717" stroke-linecap="round" style="fill: none; stroke: rgb(0,153,255)" transform="translate(4,4)" x1="48" x2="800" y1="413" y2="413" />
	<path class="segment RF_001" d="M48,413 C48,413 48,413 48,413" stroke-linecap="round" style="fill: none; stroke: rgb(64,0,255)" transform="translate(5,5)" />
	<line class="segment RF_001" stroke-linecap="round" style="fill: none; stroke: rgb(64,0,255)" transform="translate(5,5)" x1="48" x2="800" y1="413" y2="413" />
	<path class="segment RF_012" d="M48,413 C48,413 48,413 48,413" stroke-linecap="round" style="fill: none; stroke: rgb(255,0,230)" transform="translate(6,6)" />
	<line class="segment RF_012" stroke-linecap="round" style="fill: none; stroke: rgb(255,0,230)" transform="translate(6,6)" x1="48" x2="800" y1="413" y2="413" />
	<polygon class="arrow" points="341,337.5 341,340 331,335 341,330 341,332.5 469,332.5 469,337.5 341,337.5 " style="fill: white; stroke: black" />
	<!-- 
	Generated using the Perl SVG Module V2.59
	by Ronan Oger
	Info: http://www.roitsystems.com/
 -->
</svg>