<?xml version="1.0" encoding="UTF-8" standalone="yes"?>
<!DOCTYPE svg PUBLIC "-//W3C//DTD SVG 1.0//EN" "http://www.w3.org/TR/2001/REC-SVG-20010904/DTD/svg10.dtd">
<svg height="600" width="800" xmlns="http://www.w3.org/2000/svg" xmlns:svg="http://www.w3.org/2000/svg" xmlns:xlink="http://www.w3.org/1999/xlink">
	<line class="breakpoint" style="fill: white; stroke: black; stroke-width: 0.1" x1="90" x2="90" y1="100" y2="300" />
	<text class="breakpoint" style="font: 10px Verdana" transform="rotate(-90,4,90)" x="4" y="90">1,114,418</text>
	<line class="breakpoint" style="fill: white; stroke: black; stroke-width: 0.1" x1="152" x2="152" y1="100" y2="300" />
	<text class="breakpoint" style="font: 10px Verdana" transform="rotate(-90,95,90)" x="95" y="90">1,116,986</text>
	<line class="breakpoint" style="fill: white; stroke: black; stroke-width: 0.1" x1="259" x2="259" y1="100" y2="300" />
	<text class="breakpoint" style="font: 10px Verdana" transform="rotate(-90,156,90)" x="156" y="90">1,118,723</text>
	<line class="breakpoint" style="fill: white; stroke: black; stroke-width: 0.1" x1="294" x2="294" y1="100" y2="300" />
	<text class="breakpoint" style="font: 10px Verdana" transform="rotate(-90,263,90)" x="263" y="90">1,121,775</text>
	<line class="breakpoint" style="fill: white; stroke: black; stroke-width: 0.1" x1="312" x2="312" y1="100" y2="300" />
	<text class="breakpoint" style="font: 10px Verdana" transform="rotate(-90,298,90)" x="298" y="90">1,122,772</text>
	<line class="breakpoint" style="fill: white; stroke: black; stroke-width: 0.1" x1="353" x2="353" y1="100" y2="300" />
	<text class="breakpoint" style="font: 10px Verdana" transform="rotate(-90,316,90)" x="316" y="90">1,123,257</text>
	<line class="breakpoint" style="fill: white; stroke: black; stroke-width: 0.1" x1="404" x2="404" y1="100" y2="300" />
	<text class="breakpoint" style="font: 10px Verdana" transform="rotate(-90,357,90)" x="357" y="90">1,124,422</text>
	<line class="breakpoint" style="fill: white; stroke: black; stroke-width: 0.1" x1="422" x2="422" y1="100" y2="300" />
	<text class="breakpoint" style="font: 10px Verdana" transform="rotate(-90,408,90)" x="408" y="90">1,125,891</text>
	<line class="breakpoint" style="fill: white; stroke: black; stroke-width: 0.1" x1="433" x2="433" y1="100" y2="300" />
	<text class="breakpoint" style="font: 10px Verdana" transform="rotate(-90,426,90)" x="426" y="90">1,126,378</text>
	<line class="breakpoint" style="fill: white; stroke: black; stroke-width: 0.1" x1="444" x2="444" y1="100" y2="300" />
	<text class="breakpoint" style="font: 10px Verdana" transform="rotate(-90,437,90)" x="437" y="90">1,126,714</text>
	<line class="breakpoint" style="fill: white; stroke: black; stroke-width: 0.1" x1="502" x2="502" y1="100" y2="300" />
	<text class="breakpoint" style="font: 10px Verdana" transform="rotate(-90,448,90)" x="448" y="90">1,127,024</text>
	<line class="breakpoint" style="fill: white; stroke: black; stroke-width: 0.1" x1="579" x2="579" y1="100" y2="300" />
	<text class="breakpoint" style="font: 10px Verdana" transform="rotate(-90,506,90)" x="506" y="90">1,128,669</text>
	<line class="breakpoint" style="fill: white; stroke: black; stroke-width: 0.1" x1="800" x2="800" y1="100" y2="300" />
	<text class="breakpoint" style="font: 10px Verdana" transform="rotate(-90,583,90)" x="583" y="90">1,130,845</text>
	<polyline class="scale" points="0,294 0,306 0,300 4,300 4,298 4,302 4,300 7,300 7,298 7,302 7,300 11,300 11,298 11,302 11,300 14,300 14,298 14,302 14,300 18,300 18,298 18,302 18,300 21,300 21,298 21,302 21,300 25,300 25,298 25,302 25,300 28,300 28,298 28,302 28,300 32,300 32,298 32,302 32,300 35,300 35,294 35,306 35,300 39,300 39,298 39,302 39,300 42,300 42,298 42,302 42,300 46,300 46,298 46,302 46,300 49,300 49,298 49,302 49,300 53,300 53,298 53,302 53,300 56,300 56,298 56,302 56,300 60,300 60,298 60,302 60,300 63,300 63,298 63,302 63,300 67,300 67,298 67,302 67,300 70,300 70,294 70,306 70,300 74,300 74,298 74,302 74,300 78,300 78,298 78,302 78,300 81,300 81,298 81,302 81,300 85,300 85,298 85,302 85,300 88,300 88,298 88,302 88,300 92,300 92,298 92,302 92,300 95,300 95,298 95,302 95,300 99,300 99,298 99,302 99,300 102,300 102,298 102,302 102,300 106,300 106,294 106,306 106,300 109,300 109,298 109,302 109,300 113,300 113,298 113,302 113,300 116,300 116,298 116,302 116,300 120,300 120,298 120,302 120,300 123,300 123,298 123,302 123,300 127,300 127,298 127,302 127,300 130,300 130,298 130,302 130,300 134,300 134,298 134,302 134,300 137,300 137,298 137,302 137,300 141,300 141,294 141,306 141,300 145,300 145,298 145,302 145,300 148,300 148,298 148,302 148,300 152,300 152,298 152,302 152,300 155,300 155,298 155,302 155,300 159,300 159,298 159,302 159,300 162,300 162,298 162,302 162,300 166,300 166,298 166,302 166,300 169,300 169,298 169,302 169,300 173,300 173,298 173,302 173,300 176,300 176,294 176,306 176,300 180,300 180,298 180,302 180,300 183,300 183,298 183,302 183,300 187,300 187,298 187,302 187,300 190,300 190,298 190,302 190,300 194,300 194,298 194,302 194,300 197,300 197,298 197,302 197,300 201,300 201,298 201,302 201,300 204,300 204,298 204,302 204,300 208,300 208,298 208,302 208,300 211,300 211,294 211,306 211,300 215,300 215,298 215,302 215,300 219,300 219,298 219,302 219,300 222,300 222,298 222,302 222,300 226,300 226,298 226,302 226,300 229,300 229,298 229,302 229,300 233,300 233,298 233,302 233,300 236,300 236,298 236,302 236,300 240,300 240,298 240,302 240,300 243,300 243,298 243,302 243,300 247,300 247,294 247,306 247,300 250,300 250,298 250,302 250,300 254,300 254,298 254,302 254,300 257,300 257,298 257,302 257,300 261,300 261,298 261,302 261,300 264,300 264,298 264,302 264,300 268,300 268,298 268,302 268,300 271,300 271,298 271,302 271,300 275,300 275,298 275,302 275,300 278,300 278,298 278,302 278,300 282,300 282,294 282,306 282,300 286,300 286,298 286,302 286,300 289,300 289,298 289,302 289,300 293,300 293,298 293,302 293,300 296,300 296,298 296,302 296,300 300,300 300,298 300,302 300,300 303,300 303,298 303,302 303,300 307,300 307,298 307,302 307,300 310,300 310,298 310,302 310,300 314,300 314,298 314,302 314,300 317,300 317,294 317,306 317,300 321,300 321,298 321,302 321,300 324,300 324,298 324,302 324,300 328,300 328,298 328,302 328,300 331,300 331,298 331,302 331,300 335,300 335,298 335,302 335,300 338,300 338,298 338,302 338,300 342,300 342,298 342,302 342,300 345,300 345,298 345,302 345,300 349,300 349,298 349,302 349,300 352,300 352,294 352,306 352,300 356,300 356,298 356,302 356,300 360,300 360,298 360,302 360,300 363,300 363,298 363,302 363,300 367,300 367,298 367,302 367,300 370,300 370,298 370,302 370,300 374,300 374,298 374,302 374,300 377,300 377,298 377,302 377,300 381,300 381,298 381,302 381,300 384,300 384,298 384,302 384,300 388,300 388,294 388,306 388,300 391,300 391,298 391,302 391,300 395,300 395,298 395,302 395,300 398,300 398,298 398,302 398,300 402,300 402,298 402,302 402,300 405,300 405,298 405,302 405,300 409,300 409,298 409,302 409,300 412,300 412,298 412,302 412,300 416,300 416,298 416,302 416,300 419,300 419,298 419,302 419,300 423,300 423,294 423,306 423,300 426,300 426,298 426,302 426,300 430,300 430,298 430,302 430,300 434,300 434,298 434,302 434,300 437,300 437,298 437,302 437,300 441,300 441,298 441,302 441,300 444,300 444,298 444,302 444,300 448,300 448,298 448,302 448,300 451,300 451,298 451,302 451,300 455,300 455,298 455,302 455,300 458,300 458,294 458,306 458,300 462,300 462,298 462,302 462,300 465,300 465,298 465,302 465,300 469,300 469,298 469,302 469,300 472,300 472,298 472,302 472,300 476,300 476,298 476,302 476,300 479,300 479,298 479,302 479,300 483,300 483,298 483,302 483,300 486,300 486,298 486,302 486,300 490,300 490,298 490,302 490,300 493,300 493,294 493,306 493,300 497,300 497,298 497,302 497,300 501,300 501,298 501,302 501,300 504,300 504,298 504,302 504,300 508,300 508,298 508,302 508,300 511,300 511,298 511,302 511,300 515,300 515,298 515,302 515,300 518,300 518,298 518,302 518,300 522,300 522,298 522,302 522,300 525,300 525,298 525,302 525,300 529,300 529,294 529,306 529,300 532,300 532,298 532,302 532,300 536,300 536,298 536,302 536,300 539,300 539,298 539,302 539,300 543,300 543,298 543,302 543,300 546,300 546,298 546,302 546,300 550,300 550,298 550,302 550,300 553,300 553,298 553,302 553,300 557,300 557,298 557,302 557,300 560,300 560,298 560,302 560,300 564,300 564,294 564,306 564,300 567,300 567,298 567,302 567,300 571,300 571,298 571,302 571,300 575,300 575,298 575,302 575,300 578,300 578,298 578,302 578,300 582,300 582,298 582,302 582,300 585,300 585,298 585,302 585,300 589,300 589,298 589,302 589,300 592,300 592,298 592,302 592,300 596,300 596,298 596,302 596,300 599,300 599,294 599,306 599,300 603,300 603,298 603,302 603,300 606,300 606,298 606,302 606,300 610,300 610,298 610,302 610,300 613,300 613,298 613,302 613,300 617,300 617,298 617,302 617,300 620,300 620,298 620,302 620,300 624,300 624,298 624,302 624,300 627,300 627,298 627,302 627,300 631,300 631,298 631,302 631,300 634,300 634,294 634,306 634,300 638,300 638,298 638,302 638,300 641,300 641,298 641,302 641,300 645,300 645,298 645,302 645,300 649,300 649,298 649,302 649,300 652,300 652,298 652,302 652,300 656,300 656,298 656,302 656,300 659,300 659,298 659,302 659,300 663,300 663,298 663,302 663,300 666,300 666,298 666,302 666,300 670,300 670,294 670,306 670,300 673,300 673,298 673,302 673,300 677,300 677,298 677,302 677,300 680,300 680,298 680,302 680,300 684,300 684,298 684,302 684,300 687,300 687,298 687,302 687,300 691,300 691,298 691,302 691,300 694,300 694,298 694,302 694,300 698,300 698,298 698,302 698,300 701,300 701,298 701,302 701,300 705,300 705,294 705,306 705,300 708,300 708,298 708,302 708,300 712,300 712,298 712,302 712,300 716,300 716,298 716,302 716,300 719,300 719,298 719,302 719,300 723,300 723,298 723,302 723,300 726,300 726,298 726,302 726,300 730,300 730,298 730,302 730,300 733,300 733,298 733,302 733,300 737,300 737,298 737,302 737,300 740,300 740,294 740,306 740,300 744,300 744,298 744,302 744,300 747,300 747,298 747,302 747,300 751,300 751,298 751,302 751,300 754,300 754,298 754,302 754,300 758,300 758,298 758,302 758,300 761,300 761,298 761,302 761,300 765,300 765,298 765,302 765,300 768,300 768,298 768,302 768,300 772,300 772,298 772,302 772,300 775,300 775,294 775,306 775,300 779,300 779,298 779,302 779,300 782,300 782,298 782,302 782,300 786,300 786,298 786,302 786,300 790,300 790,298 790,302 790,300 793,300 793,298 793,302 793,300 797,300 797,298 797,302 797,300 800,300 " style="fill: none; stroke: black; stroke-width: 0.1" />
	<rect class="exon" height="50" style="fill: white; stroke: black" width="1" x="352" y="275" />
	<text class="exon" style="font: 10px Verdana" transform="rotate(-90,356,265)" x="356" y="265">1,124,417 .. 1,124,423</text>
	<line class="intron" style="fill: white; stroke: black" x1="353" x2="356" y1="300" y2="300" />
	<rect class="exon" height="50" style="fill: white; stroke: black" width="90" x="356" y="275" />
	<text class="exon" style="font: 10px Verdana" transform="rotate(-90,360,265)" x="360" y="265">1,124,529 .. 1,127,066</text>
	<line class="breakpoint" style="fill: white; stroke: black; stroke-width: 0.1" x1="90" x2="90" y1="100" y2="300" />
	<text class="breakpoint" style="font: 10px Verdana" transform="rotate(-90,4,90)" x="4" y="90">1,114,418</text>
	<line class="breakpoint" style="fill: white; stroke: black; stroke-width: 0.1" x1="152" x2="152" y1="100" y2="300" />
	<text class="breakpoint" style="font: 10px Verdana" transform="rotate(-90,95,90)" x="95" y="90">1,116,986</text>
	<line class="breakpoint" style="fill: white; stroke: black; stroke-width: 0.1" x1="259" x2="259" y1="100" y2="300" />
	<text class="breakpoint" style="font: 10px Verdana" transform="rotate(-90,156,90)" x="156" y="90">1,118,723</text>
	<line class="breakpoint" style="fill: white; stroke: black; stroke-width: 0.1" x1="294" x2="294" y1="100" y2="300" />
	<text class="breakpoint" style="font: 10px Verdana" transform="rotate(-90,263,90)" x="263" y="90">1,121,775</text>
	<line class="breakpoint" style="fill: white; stroke: black; stroke-width: 0.1" x1="312" x2="312" y1="100" y2="300" />
	<text class="breakpoint" style="font: 10px Verdana" transform="rotate(-90,298,90)" x="298" y="90">1,122,772</text>
	<line class="breakpoint" style="fill: white; stroke: black; stroke-width: 0.1" x1="353" x2="353" y1="100" y2="300" />
	<text class="breakpoint" style="font: 10px Verdana" transform="rotate(-90,316,90)" x="316" y="90">1,123,257</text>
	<line class="breakpoint" style="fill: white; stroke: black; stroke-width: 0.1" x1="404" x2="404" y1="100" y2="300" />
	<text class="breakpoint" style="font: 10px Verdana" transform="rotate(-90,357,90)" x="357" y="90">1,124,422</text>
	<line class="breakpoint" style="fill: white; stroke: black; stroke-width: 0.1" x1="422" x2="422" y1="100" y2="300" />
	<text class="breakpoint" style="font: 10px Verdana" transform="rotate(-90,408,90)" x="408" y="90">1,125,891</text>
	<line class="breakpoint" style="fill: white; stroke: black; stroke-width: 0.1" x1="433" x2="433" y1="100" y2="300" />
	<text class="breakpoint" style="font: 10px Verdana" transform="rotate(-90,426,90)" x="426" y="90">1,126,378</text>
	<line class="breakpoint" style="fill: white; stroke: black; stroke-width: 0.1" x1="444" x2="444" y1="100" y2="300" />
	<text class="breakpoint" style="font: 10px Verdana" transform="rotate(-90,437,90)" x="437" y="90">1,126,714</text>
	<line class="breakpoint" style="fill: white; stroke: black; stroke-width: 0.1" x1="502" x2="502" y1="100" y2="300" />
	<text class="breakpoint" style="font: 10px Verdana" transform="rotate(-90,448,90)" x="448" y="90">1,127,024</text>
	<line class="breakpoint" style="fill: white; stroke: black; stroke-width: 0.1" x1="579" x2="579" y1="100" y2="300" />
	<text class="breakpoint" style="font: 10px Verdana" transform="rotate(-90,506,90)" x="506" y="90">1,128,669</text>
	<line class="breakpoint" style="fill: white; stroke: black; stroke-width: 0.1" x1="800" x2="800" y1="100" y2="300" />
	<text class="breakpoint" style="font: 10px Verdana" transform="rotate(-90,583,90)" x="583" y="90">1,130,845</text>
	<line style="fill: none; stroke: gray; stroke-width: 0.1" x1="0" x2="800" y1="345" y2="345" />
	<text class="crossover RF_047" style="font: 10px Verdana" x="4" y="339">S. pimpinellifolium</text>
	<line style="fill: none; stroke: gray; stroke-width: 0.1" x1="0" x2="800" y1="379" y2="379" />
	<text class="crossover RF_058" style="font: 10px Verdana" x="4" y="373">S. Arcanum</text>
	<line style="fill: none; stroke: gray; stroke-width: 0.1" x1="0" x2="800" y1="413" y2="413" />
	<text class="crossover RF_104" style="font: 10px Verdana" x="4" y="407">S. galapagense</text>
	<line style="fill: none; stroke: gray; stroke-width: 0.1" x1="0" x2="800" y1="447" y2="447" />
	<text class="crossover ITAG2_3" style="font: 10px Verdana" x="4" y="441">S. l. Heinz 1706</text>
	<line style="fill: none; stroke: rgb(255,0,0)" x1="5" x2="10" y1="480" y2="480" />
	<text class="crossover" style="font: 10px Verdana" x="15" y="485">S. l. var Momatero</text>
	<line style="fill: none; stroke: rgb(255,217,0)" x1="5" x2="10" y1="495" y2="495" />
	<text class="crossover" style="font: 10px Verdana" x="15" y="500">S. l. var Gardener&apos;s Delight	</text>
	<line style="fill: none; stroke: rgb(77,255,0)" x1="5" x2="10" y1="510" y2="510" />
	<text class="crossover" style="font: 10px Verdana" x="15" y="515">S. l. var Katinka Cherry</text>
	<line style="fill: none; stroke: rgb(0,255,140)" x1="5" x2="10" y1="525" y2="525" />
	<text class="crossover" style="font: 10px Verdana" x="15" y="530">S. l. (1891)</text>
	<line style="fill: none; stroke: rgb(0,153,255)" x1="5" x2="10" y1="540" y2="540" />
	<text class="crossover" style="font: 10px Verdana" x="15" y="545">S. l. (1830)</text>
	<line style="fill: none; stroke: rgb(64,0,255)" x1="5" x2="10" y1="555" y2="555" />
	<text class="crossover" style="font: 10px Verdana" x="15" y="560">S. l. var Moneymaker</text>
	<line style="fill: none; stroke: rgb(255,0,230)" x1="5" x2="10" y1="570" y2="570" />
	<text class="crossover" style="font: 10px Verdana" x="15" y="575">S. l. var Sonato</text>
	<line class="segment RF_015" stroke-linecap="round" style="fill: none; stroke: rgb(255,0,0)" transform="translate(0,0)" x1="0" x2="90" y1="345" y2="345" />
	<line class="segment RF_003" stroke-linecap="round" style="fill: none; stroke: rgb(255,217,0)" transform="translate(1,1)" x1="0" x2="90" y1="345" y2="345" />
	<line class="segment RF_007" stroke-linecap="round" style="fill: none; stroke: rgb(77,255,0)" transform="translate(2,2)" x1="0" x2="90" y1="345" y2="345" />
	<line class="segment U0015716" stroke-linecap="round" style="fill: none; stroke: rgb(0,255,140)" transform="translate(3,3)" x1="0" x2="90" y1="447" y2="447" />
	<line class="segment U0015717" stroke-linecap="round" style="fill: none; stroke: rgb(0,153,255)" transform="translate(4,4)" x1="0" x2="90" y1="447" y2="447" />
	<line class="segment RF_001" stroke-linecap="round" style="fill: none; stroke: rgb(64,0,255)" transform="translate(5,5)" x1="0" x2="90" y1="447" y2="447" />
	<line class="segment RF_012" stroke-linecap="round" style="fill: none; stroke: rgb(255,0,230)" transform="translate(6,6)" x1="0" x2="90" y1="447" y2="447" />
	<path class="segment RF_015" d="M90,345 C90.3333333333333,345 90.6666666666667,345 91,345" stroke-linecap="round" style="fill: none; stroke: rgb(255,0,0)" transform="translate(0,0)" />
	<line class="segment RF_015" stroke-linecap="round" style="fill: none; stroke: rgb(255,0,0)" transform="translate(0,0)" x1="91" x2="152" y1="345" y2="345" />
	<path class="segment RF_003" d="M90,345 C90.3333333333333,345 90.6666666666667,345 91,345" stroke-linecap="round" style="fill: none; stroke: rgb(255,217,0)" transform="translate(1,1)" />
	<line class="segment RF_003" stroke-linecap="round" style="fill: none; stroke: rgb(255,217,0)" transform="translate(1,1)" x1="91" x2="152" y1="345" y2="345" />
	<path class="segment RF_007" d="M90,345 C90.3333333333333,345 90.6666666666667,345 91,345" stroke-linecap="round" style="fill: none; stroke: rgb(77,255,0)" transform="translate(2,2)" />
	<line class="segment RF_007" stroke-linecap="round" style="fill: none; stroke: rgb(77,255,0)" transform="translate(2,2)" x1="91" x2="152" y1="345" y2="345" />
	<path class="segment U0015716" d="M90,447 C90.3333333333333,447 90.6666666666667,447 91,447" stroke-linecap="round" style="fill: none; stroke: rgb(0,255,140)" transform="translate(3,3)" />
	<line class="segment U0015716" stroke-linecap="round" style="fill: none; stroke: rgb(0,255,140)" transform="translate(3,3)" x1="91" x2="152" y1="447" y2="447" />
	<path class="segment U0015717" d="M90,447 C90.3333333333333,447 90.6666666666667,447 91,447" stroke-linecap="round" style="fill: none; stroke: rgb(0,153,255)" transform="translate(4,4)" />
	<line class="segment U0015717" stroke-linecap="round" style="fill: none; stroke: rgb(0,153,255)" transform="translate(4,4)" x1="91" x2="152" y1="447" y2="447" />
	<path class="segment RF_001" d="M90,447 C90.3333333333333,447 90.6666666666667,447 91,447" stroke-linecap="round" style="fill: none; stroke: rgb(64,0,255)" transform="translate(5,5)" />
	<line class="segment RF_001" stroke-linecap="round" style="fill: none; stroke: rgb(64,0,255)" transform="translate(5,5)" x1="91" x2="152" y1="447" y2="447" />
	<path class="segment RF_012" d="M90,447 C90.3333333333333,447 90.6666666666667,447 91,447" stroke-linecap="round" style="fill: none; stroke: rgb(255,0,230)" transform="translate(6,6)" />
	<line class="segment RF_012" stroke-linecap="round" style="fill: none; stroke: rgb(255,0,230)" transform="translate(6,6)" x1="91" x2="152" y1="447" y2="447" />
	<path class="segment RF_015" d="M152,345 C152,345 152,345 152,345" stroke-linecap="round" style="fill: none; stroke: rgb(255,0,0)" transform="translate(0,0)" />
	<line class="segment RF_015" stroke-linecap="round" style="fill: none; stroke: rgb(255,0,0)" transform="translate(0,0)" x1="152" x2="259" y1="345" y2="345" />
	<path class="segment RF_003" d="M152,345 C152,345 152,447 152,447" stroke-linecap="round" style="fill: none; stroke: rgb(255,217,0)" transform="translate(1,1)" />
	<line class="segment RF_003" stroke-linecap="round" style="fill: none; stroke: rgb(255,217,0)" transform="translate(1,1)" x1="152" x2="259" y1="447" y2="447" />
	<path class="segment RF_007" d="M152,345 C152,345 152,447 152,447" stroke-linecap="round" style="fill: none; stroke: rgb(77,255,0)" transform="translate(2,2)" />
	<line class="segment RF_007" stroke-linecap="round" style="fill: none; stroke: rgb(77,255,0)" transform="translate(2,2)" x1="152" x2="259" y1="447" y2="447" />
	<path class="segment U0015716" d="M152,447 C152,447 152,447 152,447" stroke-linecap="round" style="fill: none; stroke: rgb(0,255,140)" transform="translate(3,3)" />
	<line class="segment U0015716" stroke-linecap="round" style="fill: none; stroke: rgb(0,255,140)" transform="translate(3,3)" x1="152" x2="259" y1="447" y2="447" />
	<path class="segment U0015717" d="M152,447 C152,447 152,447 152,447" stroke-linecap="round" style="fill: none; stroke: rgb(0,153,255)" transform="translate(4,4)" />
	<line class="segment U0015717" stroke-linecap="round" style="fill: none; stroke: rgb(0,153,255)" transform="translate(4,4)" x1="152" x2="259" y1="447" y2="447" />
	<path class="segment RF_001" d="M152,447 C152,447 152,447 152,447" stroke-linecap="round" style="fill: none; stroke: rgb(64,0,255)" transform="translate(5,5)" />
	<line class="segment RF_001" stroke-linecap="round" style="fill: none; stroke: rgb(64,0,255)" transform="translate(5,5)" x1="152" x2="259" y1="447" y2="447" />
	<path class="segment RF_012" d="M152,447 C152,447 152,447 152,447" stroke-linecap="round" style="fill: none; stroke: rgb(255,0,230)" transform="translate(6,6)" />
	<line class="segment RF_012" stroke-linecap="round" style="fill: none; stroke: rgb(255,0,230)" transform="translate(6,6)" x1="152" x2="259" y1="447" y2="447" />
	<path class="segment RF_015" d="M259,345 C259,345 259,345 259,345" stroke-linecap="round" style="fill: none; stroke: rgb(255,0,0)" transform="translate(0,0)" />
	<line class="segment RF_015" stroke-linecap="round" style="fill: none; stroke: rgb(255,0,0)" transform="translate(0,0)" x1="259" x2="294" y1="345" y2="345" />
	<path class="segment RF_003" d="M259,447 C259,447 259,345 259,345" stroke-linecap="round" style="fill: none; stroke: rgb(255,217,0)" transform="translate(1,1)" />
	<line class="segment RF_003" stroke-linecap="round" style="fill: none; stroke: rgb(255,217,0)" transform="translate(1,1)" x1="259" x2="294" y1="345" y2="345" />
	<path class="segment RF_007" d="M259,447 C259,447 259,345 259,345" stroke-linecap="round" style="fill: none; stroke: rgb(77,255,0)" transform="translate(2,2)" />
	<line class="segment RF_007" stroke-linecap="round" style="fill: none; stroke: rgb(77,255,0)" transform="translate(2,2)" x1="259" x2="294" y1="345" y2="345" />
	<path class="segment U0015716" d="M259,447 C259,447 259,447 259,447" stroke-linecap="round" style="fill: none; stroke: rgb(0,255,140)" transform="translate(3,3)" />
	<line class="segment U0015716" stroke-linecap="round" style="fill: none; stroke: rgb(0,255,140)" transform="translate(3,3)" x1="259" x2="294" y1="447" y2="447" />
	<path class="segment U0015717" d="M259,447 C259,447 259,447 259,447" stroke-linecap="round" style="fill: none; stroke: rgb(0,153,255)" transform="translate(4,4)" />
	<line class="segment U0015717" stroke-linecap="round" style="fill: none; stroke: rgb(0,153,255)" transform="translate(4,4)" x1="259" x2="294" y1="447" y2="447" />
	<path class="segment RF_001" d="M259,447 C259,447 259,447 259,447" stroke-linecap="round" style="fill: none; stroke: rgb(64,0,255)" transform="translate(5,5)" />
	<line class="segment RF_001" stroke-linecap="round" style="fill: none; stroke: rgb(64,0,255)" transform="translate(5,5)" x1="259" x2="294" y1="447" y2="447" />
	<path class="segment RF_012" d="M259,447 C259,447 259,447 259,447" stroke-linecap="round" style="fill: none; stroke: rgb(255,0,230)" transform="translate(6,6)" />
	<line class="segment RF_012" stroke-linecap="round" style="fill: none; stroke: rgb(255,0,230)" transform="translate(6,6)" x1="259" x2="294" y1="447" y2="447" />
	<path class="segment RF_015" d="M294,345 C294,345 294,345 294,345" stroke-linecap="round" style="fill: none; stroke: rgb(255,0,0)" transform="translate(0,0)" />
	<line class="segment RF_015" stroke-linecap="round" style="fill: none; stroke: rgb(255,0,0)" transform="translate(0,0)" x1="294" x2="312" y1="345" y2="345" />
	<path class="segment RF_003" d="M294,345 C294,345 294,447 294,447" stroke-linecap="round" style="fill: none; stroke: rgb(255,217,0)" transform="translate(1,1)" />
	<line class="segment RF_003" stroke-linecap="round" style="fill: none; stroke: rgb(255,217,0)" transform="translate(1,1)" x1="294" x2="312" y1="447" y2="447" />
	<path class="segment RF_007" d="M294,345 C294,345 294,447 294,447" stroke-linecap="round" style="fill: none; stroke: rgb(77,255,0)" transform="translate(2,2)" />
	<line class="segment RF_007" stroke-linecap="round" style="fill: none; stroke: rgb(77,255,0)" transform="translate(2,2)" x1="294" x2="312" y1="447" y2="447" />
	<path class="segment U0015716" d="M294,447 C294,447 294,447 294,447" stroke-linecap="round" style="fill: none; stroke: rgb(0,255,140)" transform="translate(3,3)" />
	<line class="segment U0015716" stroke-linecap="round" style="fill: none; stroke: rgb(0,255,140)" transform="translate(3,3)" x1="294" x2="312" y1="447" y2="447" />
	<path class="segment U0015717" d="M294,447 C294,447 294,447 294,447" stroke-linecap="round" style="fill: none; stroke: rgb(0,153,255)" transform="translate(4,4)" />
	<line class="segment U0015717" stroke-linecap="round" style="fill: none; stroke: rgb(0,153,255)" transform="translate(4,4)" x1="294" x2="312" y1="447" y2="447" />
	<path class="segment RF_001" d="M294,447 C294,447 294,447 294,447" stroke-linecap="round" style="fill: none; stroke: rgb(64,0,255)" transform="translate(5,5)" />
	<line class="segment RF_001" stroke-linecap="round" style="fill: none; stroke: rgb(64,0,255)" transform="translate(5,5)" x1="294" x2="312" y1="447" y2="447" />
	<path class="segment RF_012" d="M294,447 C294,447 294,447 294,447" stroke-linecap="round" style="fill: none; stroke: rgb(255,0,230)" transform="translate(6,6)" />
	<line class="segment RF_012" stroke-linecap="round" style="fill: none; stroke: rgb(255,0,230)" transform="translate(6,6)" x1="294" x2="312" y1="447" y2="447" />
	<path class="segment RF_015" d="M312,345 C312,345 312,413 312,413" stroke-linecap="round" style="fill: none; stroke: rgb(255,0,0)" transform="translate(0,0)" />
	<line class="segment RF_015" stroke-linecap="round" style="fill: none; stroke: rgb(255,0,0)" transform="translate(0,0)" x1="312" x2="353" y1="413" y2="413" />
	<path class="segment RF_003" d="M312,447 C312,447 312,447 312,447" stroke-linecap="round" style="fill: none; stroke: rgb(255,217,0)" transform="translate(1,1)" />
	<line class="segment RF_003" stroke-linecap="round" style="fill: none; stroke: rgb(255,217,0)" transform="translate(1,1)" x1="312" x2="353" y1="447" y2="447" />
	<path class="segment RF_007" d="M312,447 C312,447 312,447 312,447" stroke-linecap="round" style="fill: none; stroke: rgb(77,255,0)" transform="translate(2,2)" />
	<line class="segment RF_007" stroke-linecap="round" style="fill: none; stroke: rgb(77,255,0)" transform="translate(2,2)" x1="312" x2="353" y1="447" y2="447" />
	<path class="segment U0015716" d="M312,447 C312,447 312,447 312,447" stroke-linecap="round" style="fill: none; stroke: rgb(0,255,140)" transform="translate(3,3)" />
	<line class="segment U0015716" stroke-linecap="round" style="fill: none; stroke: rgb(0,255,140)" transform="translate(3,3)" x1="312" x2="353" y1="447" y2="447" />
	<path class="segment U0015717" d="M312,447 C312,447 312,447 312,447" stroke-linecap="round" style="fill: none; stroke: rgb(0,153,255)" transform="translate(4,4)" />
	<line class="segment U0015717" stroke-linecap="round" style="fill: none; stroke: rgb(0,153,255)" transform="translate(4,4)" x1="312" x2="353" y1="447" y2="447" />
	<path class="segment RF_001" d="M312,447 C312,447 312,447 312,447" stroke-linecap="round" style="fill: none; stroke: rgb(64,0,255)" transform="translate(5,5)" />
	<line class="segment RF_001" stroke-linecap="round" style="fill: none; stroke: rgb(64,0,255)" transform="translate(5,5)" x1="312" x2="353" y1="447" y2="447" />
	<path class="segment RF_012" d="M312,447 C312,447 312,447 312,447" stroke-linecap="round" style="fill: none; stroke: rgb(255,0,230)" transform="translate(6,6)" />
	<line class="segment RF_012" stroke-linecap="round" style="fill: none; stroke: rgb(255,0,230)" transform="translate(6,6)" x1="312" x2="353" y1="447" y2="447" />
	<path class="segment RF_015" d="M353,413 C353,413 353,345 353,345" stroke-linecap="round" style="fill: none; stroke: rgb(255,0,0)" transform="translate(0,0)" />
	<line class="segment RF_015" stroke-linecap="round" style="fill: none; stroke: rgb(255,0,0)" transform="translate(0,0)" x1="353" x2="404" y1="345" y2="345" />
	<path class="segment RF_003" d="M353,447 C353,447 353,447 353,447" stroke-linecap="round" style="fill: none; stroke: rgb(255,217,0)" transform="translate(1,1)" />
	<line class="segment RF_003" stroke-linecap="round" style="fill: none; stroke: rgb(255,217,0)" transform="translate(1,1)" x1="353" x2="404" y1="447" y2="447" />
	<path class="segment RF_007" d="M353,447 C353,447 353,447 353,447" stroke-linecap="round" style="fill: none; stroke: rgb(77,255,0)" transform="translate(2,2)" />
	<line class="segment RF_007" stroke-linecap="round" style="fill: none; stroke: rgb(77,255,0)" transform="translate(2,2)" x1="353" x2="404" y1="447" y2="447" />
	<path class="segment U0015716" d="M353,447 C353,447 353,447 353,447" stroke-linecap="round" style="fill: none; stroke: rgb(0,255,140)" transform="translate(3,3)" />
	<line class="segment U0015716" stroke-linecap="round" style="fill: none; stroke: rgb(0,255,140)" transform="translate(3,3)" x1="353" x2="404" y1="447" y2="447" />
	<path class="segment U0015717" d="M353,447 C353,447 353,447 353,447" stroke-linecap="round" style="fill: none; stroke: rgb(0,153,255)" transform="translate(4,4)" />
	<line class="segment U0015717" stroke-linecap="round" style="fill: none; stroke: rgb(0,153,255)" transform="translate(4,4)" x1="353" x2="404" y1="447" y2="447" />
	<path class="segment RF_001" d="M353,447 C353,447 353,447 353,447" stroke-linecap="round" style="fill: none; stroke: rgb(64,0,255)" transform="translate(5,5)" />
	<line class="segment RF_001" stroke-linecap="round" style="fill: none; stroke: rgb(64,0,255)" transform="translate(5,5)" x1="353" x2="404" y1="447" y2="447" />
	<path class="segment RF_012" d="M353,447 C353,447 353,447 353,447" stroke-linecap="round" style="fill: none; stroke: rgb(255,0,230)" transform="translate(6,6)" />
	<line class="segment RF_012" stroke-linecap="round" style="fill: none; stroke: rgb(255,0,230)" transform="translate(6,6)" x1="353" x2="404" y1="447" y2="447" />
	<path class="segment RF_015" d="M404,345 C404,345 404,447 404,447" stroke-linecap="round" style="fill: none; stroke: rgb(255,0,0)" transform="translate(0,0)" />
	<line class="segment RF_015" stroke-linecap="round" style="fill: none; stroke: rgb(255,0,0)" transform="translate(0,0)" x1="404" x2="422" y1="447" y2="447" />
	<path class="segment RF_003" d="M404,447 C404,447 404,447 404,447" stroke-linecap="round" style="fill: none; stroke: rgb(255,217,0)" transform="translate(1,1)" />
	<line class="segment RF_003" stroke-linecap="round" style="fill: none; stroke: rgb(255,217,0)" transform="translate(1,1)" x1="404" x2="422" y1="447" y2="447" />
	<path class="segment RF_007" d="M404,447 C404,447 404,447 404,447" stroke-linecap="round" style="fill: none; stroke: rgb(77,255,0)" transform="translate(2,2)" />
	<line class="segment RF_007" stroke-linecap="round" style="fill: none; stroke: rgb(77,255,0)" transform="translate(2,2)" x1="404" x2="422" y1="447" y2="447" />
	<path class="segment U0015716" d="M404,447 C404,447 404,447 404,447" stroke-linecap="round" style="fill: none; stroke: rgb(0,255,140)" transform="translate(3,3)" />
	<line class="segment U0015716" stroke-linecap="round" style="fill: none; stroke: rgb(0,255,140)" transform="translate(3,3)" x1="404" x2="422" y1="447" y2="447" />
	<path class="segment U0015717" d="M404,447 C404,447 404,447 404,447" stroke-linecap="round" style="fill: none; stroke: rgb(0,153,255)" transform="translate(4,4)" />
	<line class="segment U0015717" stroke-linecap="round" style="fill: none; stroke: rgb(0,153,255)" transform="translate(4,4)" x1="404" x2="422" y1="447" y2="447" />
	<path class="segment RF_001" d="M404,447 C404,447 404,447 404,447" stroke-linecap="round" style="fill: none; stroke: rgb(64,0,255)" transform="translate(5,5)" />
	<line class="segment RF_001" stroke-linecap="round" style="fill: none; stroke: rgb(64,0,255)" transform="translate(5,5)" x1="404" x2="422" y1="447" y2="447" />
	<path class="segment RF_012" d="M404,447 C404,447 404,447 404,447" stroke-linecap="round" style="fill: none; stroke: rgb(255,0,230)" transform="translate(6,6)" />
	<line class="segment RF_012" stroke-linecap="round" style="fill: none; stroke: rgb(255,0,230)" transform="translate(6,6)" x1="404" x2="422" y1="447" y2="447" />
	<path class="segment RF_015" d="M422,447 C422,447 422,379 422,379" stroke-linecap="round" style="fill: none; stroke: rgb(255,0,0)" transform="translate(0,0)" />
	<line class="segment RF_015" stroke-linecap="round" style="fill: none; stroke: rgb(255,0,0)" transform="translate(0,0)" x1="422" x2="433" y1="379" y2="379" />
	<path class="segment RF_003" d="M422,447 C422,447 422,447 422,447" stroke-linecap="round" style="fill: none; stroke: rgb(255,217,0)" transform="translate(1,1)" />
	<line class="segment RF_003" stroke-linecap="round" style="fill: none; stroke: rgb(255,217,0)" transform="translate(1,1)" x1="422" x2="433" y1="447" y2="447" />
	<path class="segment RF_007" d="M422,447 C422,447 422,447 422,447" stroke-linecap="round" style="fill: none; stroke: rgb(77,255,0)" transform="translate(2,2)" />
	<line class="segment RF_007" stroke-linecap="round" style="fill: none; stroke: rgb(77,255,0)" transform="translate(2,2)" x1="422" x2="433" y1="447" y2="447" />
	<path class="segment U0015716" d="M422,447 C422,447 422,447 422,447" stroke-linecap="round" style="fill: none; stroke: rgb(0,255,140)" transform="translate(3,3)" />
	<line class="segment U0015716" stroke-linecap="round" style="fill: none; stroke: rgb(0,255,140)" transform="translate(3,3)" x1="422" x2="433" y1="447" y2="447" />
	<path class="segment U0015717" d="M422,447 C422,447 422,447 422,447" stroke-linecap="round" style="fill: none; stroke: rgb(0,153,255)" transform="translate(4,4)" />
	<line class="segment U0015717" stroke-linecap="round" style="fill: none; stroke: rgb(0,153,255)" transform="translate(4,4)" x1="422" x2="433" y1="447" y2="447" />
	<path class="segment RF_001" d="M422,447 C422,447 422,447 422,447" stroke-linecap="round" style="fill: none; stroke: rgb(64,0,255)" transform="translate(5,5)" />
	<line class="segment RF_001" stroke-linecap="round" style="fill: none; stroke: rgb(64,0,255)" transform="translate(5,5)" x1="422" x2="433" y1="447" y2="447" />
	<path class="segment RF_012" d="M422,447 C422,447 422,447 422,447" stroke-linecap="round" style="fill: none; stroke: rgb(255,0,230)" transform="translate(6,6)" />
	<line class="segment RF_012" stroke-linecap="round" style="fill: none; stroke: rgb(255,0,230)" transform="translate(6,6)" x1="422" x2="433" y1="447" y2="447" />
	<path class="segment RF_015" d="M433,379 C433,379 433,345 433,345" stroke-linecap="round" style="fill: none; stroke: rgb(255,0,0)" transform="translate(0,0)" />
	<line class="segment RF_015" stroke-linecap="round" style="fill: none; stroke: rgb(255,0,0)" transform="translate(0,0)" x1="433" x2="444" y1="345" y2="345" />
	<path class="segment RF_003" d="M433,447 C433,447 433,447 433,447" stroke-linecap="round" style="fill: none; stroke: rgb(255,217,0)" transform="translate(1,1)" />
	<line class="segment RF_003" stroke-linecap="round" style="fill: none; stroke: rgb(255,217,0)" transform="translate(1,1)" x1="433" x2="444" y1="447" y2="447" />
	<path class="segment RF_007" d="M433,447 C433,447 433,447 433,447" stroke-linecap="round" style="fill: none; stroke: rgb(77,255,0)" transform="translate(2,2)" />
	<line class="segment RF_007" stroke-linecap="round" style="fill: none; stroke: rgb(77,255,0)" transform="translate(2,2)" x1="433" x2="444" y1="447" y2="447" />
	<path class="segment U0015716" d="M433,447 C433,447 433,447 433,447" stroke-linecap="round" style="fill: none; stroke: rgb(0,255,140)" transform="translate(3,3)" />
	<line class="segment U0015716" stroke-linecap="round" style="fill: none; stroke: rgb(0,255,140)" transform="translate(3,3)" x1="433" x2="444" y1="447" y2="447" />
	<path class="segment U0015717" d="M433,447 C433,447 433,447 433,447" stroke-linecap="round" style="fill: none; stroke: rgb(0,153,255)" transform="translate(4,4)" />
	<line class="segment U0015717" stroke-linecap="round" style="fill: none; stroke: rgb(0,153,255)" transform="translate(4,4)" x1="433" x2="444" y1="447" y2="447" />
	<path class="segment RF_001" d="M433,447 C433,447 433,447 433,447" stroke-linecap="round" style="fill: none; stroke: rgb(64,0,255)" transform="translate(5,5)" />
	<line class="segment RF_001" stroke-linecap="round" style="fill: none; stroke: rgb(64,0,255)" transform="translate(5,5)" x1="433" x2="444" y1="447" y2="447" />
	<path class="segment RF_012" d="M433,447 C433,447 433,447 433,447" stroke-linecap="round" style="fill: none; stroke: rgb(255,0,230)" transform="translate(6,6)" />
	<line class="segment RF_012" stroke-linecap="round" style="fill: none; stroke: rgb(255,0,230)" transform="translate(6,6)" x1="433" x2="444" y1="447" y2="447" />
	<path class="segment RF_015" d="M444,345 C444,345 444,447 444,447" stroke-linecap="round" style="fill: none; stroke: rgb(255,0,0)" transform="translate(0,0)" />
	<line class="segment RF_015" stroke-linecap="round" style="fill: none; stroke: rgb(255,0,0)" transform="translate(0,0)" x1="444" x2="502" y1="447" y2="447" />
	<path class="segment RF_003" d="M444,447 C444,447 444,447 444,447" stroke-linecap="round" style="fill: none; stroke: rgb(255,217,0)" transform="translate(1,1)" />
	<line class="segment RF_003" stroke-linecap="round" style="fill: none; stroke: rgb(255,217,0)" transform="translate(1,1)" x1="444" x2="502" y1="447" y2="447" />
	<path class="segment RF_007" d="M444,447 C444,447 444,447 444,447" stroke-linecap="round" style="fill: none; stroke: rgb(77,255,0)" transform="translate(2,2)" />
	<line class="segment RF_007" stroke-linecap="round" style="fill: none; stroke: rgb(77,255,0)" transform="translate(2,2)" x1="444" x2="502" y1="447" y2="447" />
	<path class="segment U0015716" d="M444,447 C444,447 444,447 444,447" stroke-linecap="round" style="fill: none; stroke: rgb(0,255,140)" transform="translate(3,3)" />
	<line class="segment U0015716" stroke-linecap="round" style="fill: none; stroke: rgb(0,255,140)" transform="translate(3,3)" x1="444" x2="502" y1="447" y2="447" />
	<path class="segment U0015717" d="M444,447 C444,447 444,447 444,447" stroke-linecap="round" style="fill: none; stroke: rgb(0,153,255)" transform="translate(4,4)" />
	<line class="segment U0015717" stroke-linecap="round" style="fill: none; stroke: rgb(0,153,255)" transform="translate(4,4)" x1="444" x2="502" y1="447" y2="447" />
	<path class="segment RF_001" d="M444,447 C444,447 444,447 444,447" stroke-linecap="round" style="fill: none; stroke: rgb(64,0,255)" transform="translate(5,5)" />
	<line class="segment RF_001" stroke-linecap="round" style="fill: none; stroke: rgb(64,0,255)" transform="translate(5,5)" x1="444" x2="502" y1="447" y2="447" />
	<path class="segment RF_012" d="M444,447 C444,447 444,447 444,447" stroke-linecap="round" style="fill: none; stroke: rgb(255,0,230)" transform="translate(6,6)" />
	<line class="segment RF_012" stroke-linecap="round" style="fill: none; stroke: rgb(255,0,230)" transform="translate(6,6)" x1="444" x2="502" y1="447" y2="447" />
	<path class="segment RF_015" d="M502,447 C502,447 502,447 502,447" stroke-linecap="round" style="fill: none; stroke: rgb(255,0,0)" transform="translate(0,0)" />
	<line class="segment RF_015" stroke-linecap="round" style="fill: none; stroke: rgb(255,0,0)" transform="translate(0,0)" x1="502" x2="579" y1="447" y2="447" />
	<path class="segment RF_003" d="M502,447 C502,447 502,447 502,447" stroke-linecap="round" style="fill: none; stroke: rgb(255,217,0)" transform="translate(1,1)" />
	<line class="segment RF_003" stroke-linecap="round" style="fill: none; stroke: rgb(255,217,0)" transform="translate(1,1)" x1="502" x2="579" y1="447" y2="447" />
	<path class="segment RF_007" d="M502,447 C502,447 502,447 502,447" stroke-linecap="round" style="fill: none; stroke: rgb(77,255,0)" transform="translate(2,2)" />
	<line class="segment RF_007" stroke-linecap="round" style="fill: none; stroke: rgb(77,255,0)" transform="translate(2,2)" x1="502" x2="579" y1="447" y2="447" />
	<path class="segment U0015716" d="M502,447 C502,447 502,447 502,447" stroke-linecap="round" style="fill: none; stroke: rgb(0,255,140)" transform="translate(3,3)" />
	<line class="segment U0015716" stroke-linecap="round" style="fill: none; stroke: rgb(0,255,140)" transform="translate(3,3)" x1="502" x2="579" y1="447" y2="447" />
	<path class="segment U0015717" d="M502,447 C502,447 502,447 502,447" stroke-linecap="round" style="fill: none; stroke: rgb(0,153,255)" transform="translate(4,4)" />
	<line class="segment U0015717" stroke-linecap="round" style="fill: none; stroke: rgb(0,153,255)" transform="translate(4,4)" x1="502" x2="579" y1="447" y2="447" />
	<path class="segment RF_001" d="M502,447 C502,447 502,447 502,447" stroke-linecap="round" style="fill: none; stroke: rgb(64,0,255)" transform="translate(5,5)" />
	<line class="segment RF_001" stroke-linecap="round" style="fill: none; stroke: rgb(64,0,255)" transform="translate(5,5)" x1="502" x2="579" y1="447" y2="447" />
	<path class="segment RF_012" d="M502,447 C502,447 502,447 502,447" stroke-linecap="round" style="fill: none; stroke: rgb(255,0,230)" transform="translate(6,6)" />
	<line class="segment RF_012" stroke-linecap="round" style="fill: none; stroke: rgb(255,0,230)" transform="translate(6,6)" x1="502" x2="579" y1="447" y2="447" />
	<path class="segment RF_015" d="M579,447 C579,447 579,447 579,447" stroke-linecap="round" style="fill: none; stroke: rgb(255,0,0)" transform="translate(0,0)" />
	<line class="segment RF_015" stroke-linecap="round" style="fill: none; stroke: rgb(255,0,0)" transform="translate(0,0)" x1="579" x2="800" y1="447" y2="447" />
	<path class="segment RF_003" d="M579,447 C579,447 579,413 579,413" stroke-linecap="round" style="fill: none; stroke: rgb(255,217,0)" transform="translate(1,1)" />
	<line class="segment RF_003" stroke-linecap="round" style="fill: none; stroke: rgb(255,217,0)" transform="translate(1,1)" x1="579" x2="800" y1="413" y2="413" />
	<path class="segment RF_007" d="M579,447 C579,447 579,413 579,413" stroke-linecap="round" style="fill: none; stroke: rgb(77,255,0)" transform="translate(2,2)" />
	<line class="segment RF_007" stroke-linecap="round" style="fill: none; stroke: rgb(77,255,0)" transform="translate(2,2)" x1="579" x2="800" y1="413" y2="413" />
	<path class="segment U0015716" d="M579,447 C579,447 579,447 579,447" stroke-linecap="round" style="fill: none; stroke: rgb(0,255,140)" transform="translate(3,3)" />
	<line class="segment U0015716" stroke-linecap="round" style="fill: none; stroke: rgb(0,255,140)" transform="translate(3,3)" x1="579" x2="800" y1="447" y2="447" />
	<path class="segment U0015717" d="M579,447 C579,447 579,447 579,447" stroke-linecap="round" style="fill: none; stroke: rgb(0,153,255)" transform="translate(4,4)" />
	<line class="segment U0015717" stroke-linecap="round" style="fill: none; stroke: rgb(0,153,255)" transform="translate(4,4)" x1="579" x2="800" y1="447" y2="447" />
	<path class="segment RF_001" d="M579,447 C579,447 579,447 579,447" stroke-linecap="round" style="fill: none; stroke: rgb(64,0,255)" transform="translate(5,5)" />
	<line class="segment RF_001" stroke-linecap="round" style="fill: none; stroke: rgb(64,0,255)" transform="translate(5,5)" x1="579" x2="800" y1="447" y2="447" />
	<path class="segment RF_012" d="M579,447 C579,447 579,447 579,447" stroke-linecap="round" style="fill: none; stroke: rgb(255,0,230)" transform="translate(6,6)" />
	<line class="segment RF_012" stroke-linecap="round" style="fill: none; stroke: rgb(255,0,230)" transform="translate(6,6)" x1="579" x2="800" y1="447" y2="447" />
	<polygon class="arrow" points="362,337.5 362,340 352,335 362,330 362,332.5 447,332.5 447,337.5 362,337.5 " style="fill: white; stroke: black" />
	<rect class="five_prime_UTR" height="50" style="fill: silver; stroke: black" width="1" x="446" y="275" />
	<text class="five_prime_UTR" style="font: 10px Verdana" transform="rotate(-90,450,265)" x="450" y="265">1,127,066 .. 1,127,114</text>
	<!-- 
	Generated using the Perl SVG Module V2.59
	by Ronan Oger
	Info: http://www.roitsystems.com/
 -->
</svg>