<?xml version="1.0" encoding="UTF-8" standalone="yes"?>
<!DOCTYPE svg PUBLIC "-//W3C//DTD SVG 1.0//EN" "http://www.w3.org/TR/2001/REC-SVG-20010904/DTD/svg10.dtd">
<svg height="600" width="800" xmlns="http://www.w3.org/2000/svg" xmlns:svg="http://www.w3.org/2000/svg" xmlns:xlink="http://www.w3.org/1999/xlink">
	<line class="breakpoint" style="fill: white; stroke: black; stroke-width: 0.1" x1="77" x2="77" y1="100" y2="300" />
	<text class="breakpoint" style="font: 10px Verdana" transform="rotate(-90,4,90)" x="4" y="90">6,390,974</text>
	<line class="breakpoint" style="fill: white; stroke: black; stroke-width: 0.1" x1="262" x2="262" y1="100" y2="300" />
	<text class="breakpoint" style="font: 10px Verdana" transform="rotate(-90,81,90)" x="81" y="90">6,392,987</text>
	<line class="breakpoint" style="fill: white; stroke: black; stroke-width: 0.1" x1="279" x2="279" y1="100" y2="300" />
	<text class="breakpoint" style="font: 10px Verdana" transform="rotate(-90,266,90)" x="266" y="90">6,397,830</text>
	<line class="breakpoint" style="fill: white; stroke: black; stroke-width: 0.1" x1="363" x2="363" y1="100" y2="300" />
	<text class="breakpoint" style="font: 10px Verdana" transform="rotate(-90,283,90)" x="283" y="90">6,398,279</text>
	<line class="breakpoint" style="fill: white; stroke: black; stroke-width: 0.1" x1="434" x2="434" y1="100" y2="300" />
	<text class="breakpoint" style="font: 10px Verdana" transform="rotate(-90,367,90)" x="367" y="90">6,400,478</text>
	<line class="breakpoint" style="fill: white; stroke: black; stroke-width: 0.1" x1="549" x2="549" y1="100" y2="300" />
	<text class="breakpoint" style="font: 10px Verdana" transform="rotate(-90,438,90)" x="438" y="90">6,402,349</text>
	<line class="breakpoint" style="fill: white; stroke: black; stroke-width: 0.1" x1="598" x2="598" y1="100" y2="300" />
	<text class="breakpoint" style="font: 10px Verdana" transform="rotate(-90,553,90)" x="553" y="90">6,405,366</text>
	<line class="breakpoint" style="fill: white; stroke: black; stroke-width: 0.1" x1="730" x2="730" y1="100" y2="300" />
	<text class="breakpoint" style="font: 10px Verdana" transform="rotate(-90,602,90)" x="602" y="90">6,406,641</text>
	<line class="breakpoint" style="fill: white; stroke: black; stroke-width: 0.1" x1="800" x2="800" y1="100" y2="300" />
	<text class="breakpoint" style="font: 10px Verdana" transform="rotate(-90,734,90)" x="734" y="90">6,410,101</text>
	<polyline class="scale" points="0,294 0,306 0,300 4,300 4,298 4,302 4,300 8,300 8,298 8,302 8,300 11,300 11,298 11,302 11,300 15,300 15,298 15,302 15,300 19,300 19,298 19,302 19,300 23,300 23,298 23,302 23,300 27,300 27,298 27,302 27,300 31,300 31,298 31,302 31,300 34,300 34,298 34,302 34,300 38,300 38,294 38,306 38,300 42,300 42,298 42,302 42,300 46,300 46,298 46,302 46,300 50,300 50,298 50,302 50,300 53,300 53,298 53,302 53,300 57,300 57,298 57,302 57,300 61,300 61,298 61,302 61,300 65,300 65,298 65,302 65,300 69,300 69,298 69,302 69,300 72,300 72,298 72,302 72,300 76,300 76,294 76,306 76,300 80,300 80,298 80,302 80,300 84,300 84,298 84,302 84,300 88,300 88,298 88,302 88,300 92,300 92,298 92,302 92,300 95,300 95,298 95,302 95,300 99,300 99,298 99,302 99,300 103,300 103,298 103,302 103,300 107,300 107,298 107,302 107,300 111,300 111,298 111,302 111,300 114,300 114,294 114,306 114,300 118,300 118,298 118,302 118,300 122,300 122,298 122,302 122,300 126,300 126,298 126,302 126,300 130,300 130,298 130,302 130,300 134,300 134,298 134,302 134,300 137,300 137,298 137,302 137,300 141,300 141,298 141,302 141,300 145,300 145,298 145,302 145,300 149,300 149,298 149,302 149,300 153,300 153,294 153,306 153,300 156,300 156,298 156,302 156,300 160,300 160,298 160,302 160,300 164,300 164,298 164,302 164,300 168,300 168,298 168,302 168,300 172,300 172,298 172,302 172,300 175,300 175,298 175,302 175,300 179,300 179,298 179,302 179,300 183,300 183,298 183,302 183,300 187,300 187,298 187,302 187,300 191,300 191,294 191,306 191,300 195,300 195,298 195,302 195,300 198,300 198,298 198,302 198,300 202,300 202,298 202,302 202,300 206,300 206,298 206,302 206,300 210,300 210,298 210,302 210,300 214,300 214,298 214,302 214,300 217,300 217,298 217,302 217,300 221,300 221,298 221,302 221,300 225,300 225,298 225,302 225,300 229,300 229,294 229,306 229,300 233,300 233,298 233,302 233,300 237,300 237,298 237,302 237,300 240,300 240,298 240,302 240,300 244,300 244,298 244,302 244,300 248,300 248,298 248,302 248,300 252,300 252,298 252,302 252,300 256,300 256,298 256,302 256,300 259,300 259,298 259,302 259,300 263,300 263,298 263,302 263,300 267,300 267,294 267,306 267,300 271,300 271,298 271,302 271,300 275,300 275,298 275,302 275,300 278,300 278,298 278,302 278,300 282,300 282,298 282,302 282,300 286,300 286,298 286,302 286,300 290,300 290,298 290,302 290,300 294,300 294,298 294,302 294,300 298,300 298,298 298,302 298,300 301,300 301,298 301,302 301,300 305,300 305,294 305,306 305,300 309,300 309,298 309,302 309,300 313,300 313,298 313,302 313,300 317,300 317,298 317,302 317,300 320,300 320,298 320,302 320,300 324,300 324,298 324,302 324,300 328,300 328,298 328,302 328,300 332,300 332,298 332,302 332,300 336,300 336,298 336,302 336,300 340,300 340,298 340,302 340,300 343,300 343,294 343,306 343,300 347,300 347,298 347,302 347,300 351,300 351,298 351,302 351,300 355,300 355,298 355,302 355,300 359,300 359,298 359,302 359,300 362,300 362,298 362,302 362,300 366,300 366,298 366,302 366,300 370,300 370,298 370,302 370,300 374,300 374,298 374,302 374,300 378,300 378,298 378,302 378,300 381,300 381,294 381,306 381,300 385,300 385,298 385,302 385,300 389,300 389,298 389,302 389,300 393,300 393,298 393,302 393,300 397,300 397,298 397,302 397,300 401,300 401,298 401,302 401,300 404,300 404,298 404,302 404,300 408,300 408,298 408,302 408,300 412,300 412,298 412,302 412,300 416,300 416,298 416,302 416,300 420,300 420,294 420,306 420,300 423,300 423,298 423,302 423,300 427,300 427,298 427,302 427,300 431,300 431,298 431,302 431,300 435,300 435,298 435,302 435,300 439,300 439,298 439,302 439,300 443,300 443,298 443,302 443,300 446,300 446,298 446,302 446,300 450,300 450,298 450,302 450,300 454,300 454,298 454,302 454,300 458,300 458,294 458,306 458,300 462,300 462,298 462,302 462,300 465,300 465,298 465,302 465,300 469,300 469,298 469,302 469,300 473,300 473,298 473,302 473,300 477,300 477,298 477,302 477,300 481,300 481,298 481,302 481,300 484,300 484,298 484,302 484,300 488,300 488,298 488,302 488,300 492,300 492,298 492,302 492,300 496,300 496,294 496,306 496,300 500,300 500,298 500,302 500,300 504,300 504,298 504,302 504,300 507,300 507,298 507,302 507,300 511,300 511,298 511,302 511,300 515,300 515,298 515,302 515,300 519,300 519,298 519,302 519,300 523,300 523,298 523,302 523,300 526,300 526,298 526,302 526,300 530,300 530,298 530,302 530,300 534,300 534,294 534,306 534,300 538,300 538,298 538,302 538,300 542,300 542,298 542,302 542,300 546,300 546,298 546,302 546,300 549,300 549,298 549,302 549,300 553,300 553,298 553,302 553,300 557,300 557,298 557,302 557,300 561,300 561,298 561,302 561,300 565,300 565,298 565,302 565,300 568,300 568,298 568,302 568,300 572,300 572,294 572,306 572,300 576,300 576,298 576,302 576,300 580,300 580,298 580,302 580,300 584,300 584,298 584,302 584,300 587,300 587,298 587,302 587,300 591,300 591,298 591,302 591,300 595,300 595,298 595,302 595,300 599,300 599,298 599,302 599,300 603,300 603,298 603,302 603,300 607,300 607,298 607,302 607,300 610,300 610,294 610,306 610,300 614,300 614,298 614,302 614,300 618,300 618,298 618,302 618,300 622,300 622,298 622,302 622,300 626,300 626,298 626,302 626,300 629,300 629,298 629,302 629,300 633,300 633,298 633,302 633,300 637,300 637,298 637,302 637,300 641,300 641,298 641,302 641,300 645,300 645,298 645,302 645,300 649,300 649,294 649,306 649,300 652,300 652,298 652,302 652,300 656,300 656,298 656,302 656,300 660,300 660,298 660,302 660,300 664,300 664,298 664,302 664,300 668,300 668,298 668,302 668,300 671,300 671,298 671,302 671,300 675,300 675,298 675,302 675,300 679,300 679,298 679,302 679,300 683,300 683,298 683,302 683,300 687,300 687,294 687,306 687,300 690,300 690,298 690,302 690,300 694,300 694,298 694,302 694,300 698,300 698,298 698,302 698,300 702,300 702,298 702,302 702,300 706,300 706,298 706,302 706,300 710,300 710,298 710,302 710,300 713,300 713,298 713,302 713,300 717,300 717,298 717,302 717,300 721,300 721,298 721,302 721,300 725,300 725,294 725,306 725,300 729,300 729,298 729,302 729,300 732,300 732,298 732,302 732,300 736,300 736,298 736,302 736,300 740,300 740,298 740,302 740,300 744,300 744,298 744,302 744,300 748,300 748,298 748,302 748,300 752,300 752,298 752,302 752,300 755,300 755,298 755,302 755,300 759,300 759,298 759,302 759,300 763,300 763,294 763,306 763,300 767,300 767,298 767,302 767,300 771,300 771,298 771,302 771,300 774,300 774,298 774,302 774,300 778,300 778,298 778,302 778,300 782,300 782,298 782,302 782,300 786,300 786,298 786,302 786,300 790,300 790,298 790,302 790,300 793,300 793,298 793,302 793,300 797,300 797,298 797,302 797,300 800,300 " style="fill: none; stroke: black; stroke-width: 0.1" />
	<rect class="exon" height="50" style="fill: white; stroke: black" width="37" x="381" y="275" />
	<text class="exon" style="font: 10px Verdana" transform="rotate(-90,385,265)" x="385" y="265">6,400,973 .. 6,401,944</text>
	<line class="breakpoint" style="fill: white; stroke: black; stroke-width: 0.1" x1="77" x2="77" y1="100" y2="300" />
	<text class="breakpoint" style="font: 10px Verdana" transform="rotate(-90,4,90)" x="4" y="90">6,390,974</text>
	<line class="breakpoint" style="fill: white; stroke: black; stroke-width: 0.1" x1="262" x2="262" y1="100" y2="300" />
	<text class="breakpoint" style="font: 10px Verdana" transform="rotate(-90,81,90)" x="81" y="90">6,392,987</text>
	<line class="breakpoint" style="fill: white; stroke: black; stroke-width: 0.1" x1="279" x2="279" y1="100" y2="300" />
	<text class="breakpoint" style="font: 10px Verdana" transform="rotate(-90,266,90)" x="266" y="90">6,397,830</text>
	<line class="breakpoint" style="fill: white; stroke: black; stroke-width: 0.1" x1="363" x2="363" y1="100" y2="300" />
	<text class="breakpoint" style="font: 10px Verdana" transform="rotate(-90,283,90)" x="283" y="90">6,398,279</text>
	<line class="breakpoint" style="fill: white; stroke: black; stroke-width: 0.1" x1="434" x2="434" y1="100" y2="300" />
	<text class="breakpoint" style="font: 10px Verdana" transform="rotate(-90,367,90)" x="367" y="90">6,400,478</text>
	<line class="breakpoint" style="fill: white; stroke: black; stroke-width: 0.1" x1="549" x2="549" y1="100" y2="300" />
	<text class="breakpoint" style="font: 10px Verdana" transform="rotate(-90,438,90)" x="438" y="90">6,402,349</text>
	<line class="breakpoint" style="fill: white; stroke: black; stroke-width: 0.1" x1="598" x2="598" y1="100" y2="300" />
	<text class="breakpoint" style="font: 10px Verdana" transform="rotate(-90,553,90)" x="553" y="90">6,405,366</text>
	<line class="breakpoint" style="fill: white; stroke: black; stroke-width: 0.1" x1="730" x2="730" y1="100" y2="300" />
	<text class="breakpoint" style="font: 10px Verdana" transform="rotate(-90,602,90)" x="602" y="90">6,406,641</text>
	<line class="breakpoint" style="fill: white; stroke: black; stroke-width: 0.1" x1="800" x2="800" y1="100" y2="300" />
	<text class="breakpoint" style="font: 10px Verdana" transform="rotate(-90,734,90)" x="734" y="90">6,410,101</text>
	<line style="fill: none; stroke: gray; stroke-width: 0.1" x1="0" x2="800" y1="345" y2="345" />
	<text class="crossover RF_047" style="font: 10px Verdana" x="4" y="339">S. pimpinellifolium</text>
	<line style="fill: none; stroke: gray; stroke-width: 0.1" x1="0" x2="800" y1="372" y2="372" />
	<text class="crossover RF_072" style="font: 10px Verdana" x="4" y="366">S. habrochaites</text>
	<line style="fill: none; stroke: gray; stroke-width: 0.1" x1="0" x2="800" y1="399" y2="399" />
	<text class="crossover WAG0463703" style="font: 10px Verdana" x="4" y="393">S. peruvianum (1958)</text>
	<line style="fill: none; stroke: gray; stroke-width: 0.1" x1="0" x2="800" y1="426" y2="426" />
	<text class="crossover RF_051" style="font: 10px Verdana" x="4" y="420">S. chiemliewskii</text>
	<line style="fill: none; stroke: gray; stroke-width: 0.1" x1="0" x2="800" y1="453" y2="453" />
	<text class="crossover ITAG2_3" style="font: 10px Verdana" x="4" y="447">S. l. Heinz 1706</text>
	<line style="fill: none; stroke: rgb(255,0,0)" x1="5" x2="10" y1="480" y2="480" />
	<text class="crossover" style="font: 10px Verdana" x="15" y="485">S. l. var Momatero</text>
	<line style="fill: none; stroke: rgb(255,217,0)" x1="5" x2="10" y1="495" y2="495" />
	<text class="crossover" style="font: 10px Verdana" x="15" y="500">S. l. var Gardener&apos;s Delight	</text>
	<line style="fill: none; stroke: rgb(77,255,0)" x1="5" x2="10" y1="510" y2="510" />
	<text class="crossover" style="font: 10px Verdana" x="15" y="515">S. l. var Katinka Cherry</text>
	<line style="fill: none; stroke: rgb(0,255,140)" x1="5" x2="10" y1="525" y2="525" />
	<text class="crossover" style="font: 10px Verdana" x="15" y="530">S. l. (1891)</text>
	<line style="fill: none; stroke: rgb(0,153,255)" x1="5" x2="10" y1="540" y2="540" />
	<text class="crossover" style="font: 10px Verdana" x="15" y="545">S. l. (1830)</text>
	<line style="fill: none; stroke: rgb(64,0,255)" x1="5" x2="10" y1="555" y2="555" />
	<text class="crossover" style="font: 10px Verdana" x="15" y="560">S. l. var Moneymaker</text>
	<line style="fill: none; stroke: rgb(255,0,230)" x1="5" x2="10" y1="570" y2="570" />
	<text class="crossover" style="font: 10px Verdana" x="15" y="575">S. l. var Sonato</text>
	<line class="segment RF_015" stroke-linecap="round" style="fill: none; stroke: rgb(255,0,0)" transform="translate(0,0)" x1="0" x2="77" y1="453" y2="453" />
	<line class="segment RF_003" stroke-linecap="round" style="fill: none; stroke: rgb(255,217,0)" transform="translate(1,1)" x1="0" x2="77" y1="453" y2="453" />
	<line class="segment RF_007" stroke-linecap="round" style="fill: none; stroke: rgb(77,255,0)" transform="translate(2,2)" x1="0" x2="77" y1="426" y2="426" />
	<line class="segment U0015716" stroke-linecap="round" style="fill: none; stroke: rgb(0,255,140)" transform="translate(3,3)" x1="0" x2="77" y1="453" y2="453" />
	<line class="segment U0015717" stroke-linecap="round" style="fill: none; stroke: rgb(0,153,255)" transform="translate(4,4)" x1="0" x2="77" y1="453" y2="453" />
	<line class="segment RF_001" stroke-linecap="round" style="fill: none; stroke: rgb(64,0,255)" transform="translate(5,5)" x1="0" x2="77" y1="453" y2="453" />
	<line class="segment RF_012" stroke-linecap="round" style="fill: none; stroke: rgb(255,0,230)" transform="translate(6,6)" x1="0" x2="77" y1="453" y2="453" />
	<path class="segment RF_015" d="M77,453 C77,453 77,372 77,372" stroke-linecap="round" style="fill: none; stroke: rgb(255,0,0)" transform="translate(0,0)" />
	<line class="segment RF_015" stroke-linecap="round" style="fill: none; stroke: rgb(255,0,0)" transform="translate(0,0)" x1="77" x2="262" y1="372" y2="372" />
	<path class="segment RF_003" d="M77,453 C77,453 77,372 77,372" stroke-linecap="round" style="fill: none; stroke: rgb(255,217,0)" transform="translate(1,1)" />
	<line class="segment RF_003" stroke-linecap="round" style="fill: none; stroke: rgb(255,217,0)" transform="translate(1,1)" x1="77" x2="262" y1="372" y2="372" />
	<path class="segment RF_007" d="M77,426 C77,426 77,345 77,345" stroke-linecap="round" style="fill: none; stroke: rgb(77,255,0)" transform="translate(2,2)" />
	<line class="segment RF_007" stroke-linecap="round" style="fill: none; stroke: rgb(77,255,0)" transform="translate(2,2)" x1="77" x2="262" y1="345" y2="345" />
	<path class="segment U0015716" d="M77,453 C77,453 77,372 77,372" stroke-linecap="round" style="fill: none; stroke: rgb(0,255,140)" transform="translate(3,3)" />
	<line class="segment U0015716" stroke-linecap="round" style="fill: none; stroke: rgb(0,255,140)" transform="translate(3,3)" x1="77" x2="262" y1="372" y2="372" />
	<path class="segment U0015717" d="M77,453 C77,453 77,372 77,372" stroke-linecap="round" style="fill: none; stroke: rgb(0,153,255)" transform="translate(4,4)" />
	<line class="segment U0015717" stroke-linecap="round" style="fill: none; stroke: rgb(0,153,255)" transform="translate(4,4)" x1="77" x2="262" y1="372" y2="372" />
	<path class="segment RF_001" d="M77,453 C77,453 77,372 77,372" stroke-linecap="round" style="fill: none; stroke: rgb(64,0,255)" transform="translate(5,5)" />
	<line class="segment RF_001" stroke-linecap="round" style="fill: none; stroke: rgb(64,0,255)" transform="translate(5,5)" x1="77" x2="262" y1="372" y2="372" />
	<path class="segment RF_012" d="M77,453 C77,453 77,372 77,372" stroke-linecap="round" style="fill: none; stroke: rgb(255,0,230)" transform="translate(6,6)" />
	<line class="segment RF_012" stroke-linecap="round" style="fill: none; stroke: rgb(255,0,230)" transform="translate(6,6)" x1="77" x2="262" y1="372" y2="372" />
	<path class="segment RF_015" d="M262,372 C262,372 262,453 262,453" stroke-linecap="round" style="fill: none; stroke: rgb(255,0,0)" transform="translate(0,0)" />
	<line class="segment RF_015" stroke-linecap="round" style="fill: none; stroke: rgb(255,0,0)" transform="translate(0,0)" x1="262" x2="279" y1="453" y2="453" />
	<path class="segment RF_003" d="M262,372 C262,372 262,453 262,453" stroke-linecap="round" style="fill: none; stroke: rgb(255,217,0)" transform="translate(1,1)" />
	<line class="segment RF_003" stroke-linecap="round" style="fill: none; stroke: rgb(255,217,0)" transform="translate(1,1)" x1="262" x2="279" y1="453" y2="453" />
	<path class="segment RF_007" d="M262,345 C262,345 262,345 262,345" stroke-linecap="round" style="fill: none; stroke: rgb(77,255,0)" transform="translate(2,2)" />
	<line class="segment RF_007" stroke-linecap="round" style="fill: none; stroke: rgb(77,255,0)" transform="translate(2,2)" x1="262" x2="279" y1="345" y2="345" />
	<path class="segment U0015716" d="M262,372 C262,372 262,453 262,453" stroke-linecap="round" style="fill: none; stroke: rgb(0,255,140)" transform="translate(3,3)" />
	<line class="segment U0015716" stroke-linecap="round" style="fill: none; stroke: rgb(0,255,140)" transform="translate(3,3)" x1="262" x2="279" y1="453" y2="453" />
	<path class="segment U0015717" d="M262,372 C262,372 262,453 262,453" stroke-linecap="round" style="fill: none; stroke: rgb(0,153,255)" transform="translate(4,4)" />
	<line class="segment U0015717" stroke-linecap="round" style="fill: none; stroke: rgb(0,153,255)" transform="translate(4,4)" x1="262" x2="279" y1="453" y2="453" />
	<path class="segment RF_001" d="M262,372 C262,372 262,453 262,453" stroke-linecap="round" style="fill: none; stroke: rgb(64,0,255)" transform="translate(5,5)" />
	<line class="segment RF_001" stroke-linecap="round" style="fill: none; stroke: rgb(64,0,255)" transform="translate(5,5)" x1="262" x2="279" y1="453" y2="453" />
	<path class="segment RF_012" d="M262,372 C262,372 262,453 262,453" stroke-linecap="round" style="fill: none; stroke: rgb(255,0,230)" transform="translate(6,6)" />
	<line class="segment RF_012" stroke-linecap="round" style="fill: none; stroke: rgb(255,0,230)" transform="translate(6,6)" x1="262" x2="279" y1="453" y2="453" />
	<path class="segment RF_015" d="M279,453 C279,453 279,453 279,453" stroke-linecap="round" style="fill: none; stroke: rgb(255,0,0)" transform="translate(0,0)" />
	<line class="segment RF_015" stroke-linecap="round" style="fill: none; stroke: rgb(255,0,0)" transform="translate(0,0)" x1="279" x2="363" y1="453" y2="453" />
	<path class="segment RF_003" d="M279,453 C279,453 279,453 279,453" stroke-linecap="round" style="fill: none; stroke: rgb(255,217,0)" transform="translate(1,1)" />
	<line class="segment RF_003" stroke-linecap="round" style="fill: none; stroke: rgb(255,217,0)" transform="translate(1,1)" x1="279" x2="363" y1="453" y2="453" />
	<path class="segment RF_007" d="M279,345 C279,345 279,345 279,345" stroke-linecap="round" style="fill: none; stroke: rgb(77,255,0)" transform="translate(2,2)" />
	<line class="segment RF_007" stroke-linecap="round" style="fill: none; stroke: rgb(77,255,0)" transform="translate(2,2)" x1="279" x2="363" y1="345" y2="345" />
	<path class="segment U0015716" d="M279,453 C279,453 279,453 279,453" stroke-linecap="round" style="fill: none; stroke: rgb(0,255,140)" transform="translate(3,3)" />
	<line class="segment U0015716" stroke-linecap="round" style="fill: none; stroke: rgb(0,255,140)" transform="translate(3,3)" x1="279" x2="363" y1="453" y2="453" />
	<path class="segment U0015717" d="M279,453 C279,453 279,453 279,453" stroke-linecap="round" style="fill: none; stroke: rgb(0,153,255)" transform="translate(4,4)" />
	<line class="segment U0015717" stroke-linecap="round" style="fill: none; stroke: rgb(0,153,255)" transform="translate(4,4)" x1="279" x2="363" y1="453" y2="453" />
	<path class="segment RF_001" d="M279,453 C279,453 279,453 279,453" stroke-linecap="round" style="fill: none; stroke: rgb(64,0,255)" transform="translate(5,5)" />
	<line class="segment RF_001" stroke-linecap="round" style="fill: none; stroke: rgb(64,0,255)" transform="translate(5,5)" x1="279" x2="363" y1="453" y2="453" />
	<path class="segment RF_012" d="M279,453 C279,453 279,453 279,453" stroke-linecap="round" style="fill: none; stroke: rgb(255,0,230)" transform="translate(6,6)" />
	<line class="segment RF_012" stroke-linecap="round" style="fill: none; stroke: rgb(255,0,230)" transform="translate(6,6)" x1="279" x2="363" y1="453" y2="453" />
	<path class="segment RF_015" d="M363,453 C363,453 363,453 363,453" stroke-linecap="round" style="fill: none; stroke: rgb(255,0,0)" transform="translate(0,0)" />
	<line class="segment RF_015" stroke-linecap="round" style="fill: none; stroke: rgb(255,0,0)" transform="translate(0,0)" x1="363" x2="434" y1="453" y2="453" />
	<path class="segment RF_003" d="M363,453 C363,453 363,453 363,453" stroke-linecap="round" style="fill: none; stroke: rgb(255,217,0)" transform="translate(1,1)" />
	<line class="segment RF_003" stroke-linecap="round" style="fill: none; stroke: rgb(255,217,0)" transform="translate(1,1)" x1="363" x2="434" y1="453" y2="453" />
	<path class="segment RF_007" d="M363,345 C363,345 363,345 363,345" stroke-linecap="round" style="fill: none; stroke: rgb(77,255,0)" transform="translate(2,2)" />
	<line class="segment RF_007" stroke-linecap="round" style="fill: none; stroke: rgb(77,255,0)" transform="translate(2,2)" x1="363" x2="434" y1="345" y2="345" />
	<path class="segment U0015716" d="M363,453 C363,453 363,453 363,453" stroke-linecap="round" style="fill: none; stroke: rgb(0,255,140)" transform="translate(3,3)" />
	<line class="segment U0015716" stroke-linecap="round" style="fill: none; stroke: rgb(0,255,140)" transform="translate(3,3)" x1="363" x2="434" y1="453" y2="453" />
	<path class="segment U0015717" d="M363,453 C363,453 363,453 363,453" stroke-linecap="round" style="fill: none; stroke: rgb(0,153,255)" transform="translate(4,4)" />
	<line class="segment U0015717" stroke-linecap="round" style="fill: none; stroke: rgb(0,153,255)" transform="translate(4,4)" x1="363" x2="434" y1="453" y2="453" />
	<path class="segment RF_001" d="M363,453 C363,453 363,453 363,453" stroke-linecap="round" style="fill: none; stroke: rgb(64,0,255)" transform="translate(5,5)" />
	<line class="segment RF_001" stroke-linecap="round" style="fill: none; stroke: rgb(64,0,255)" transform="translate(5,5)" x1="363" x2="434" y1="453" y2="453" />
	<path class="segment RF_012" d="M363,453 C363,453 363,453 363,453" stroke-linecap="round" style="fill: none; stroke: rgb(255,0,230)" transform="translate(6,6)" />
	<line class="segment RF_012" stroke-linecap="round" style="fill: none; stroke: rgb(255,0,230)" transform="translate(6,6)" x1="363" x2="434" y1="453" y2="453" />
	<path class="segment RF_015" d="M434,453 C434,453 434,453 434,453" stroke-linecap="round" style="fill: none; stroke: rgb(255,0,0)" transform="translate(0,0)" />
	<line class="segment RF_015" stroke-linecap="round" style="fill: none; stroke: rgb(255,0,0)" transform="translate(0,0)" x1="434" x2="549" y1="453" y2="453" />
	<path class="segment RF_003" d="M434,453 C434,453 434,453 434,453" stroke-linecap="round" style="fill: none; stroke: rgb(255,217,0)" transform="translate(1,1)" />
	<line class="segment RF_003" stroke-linecap="round" style="fill: none; stroke: rgb(255,217,0)" transform="translate(1,1)" x1="434" x2="549" y1="453" y2="453" />
	<path class="segment RF_007" d="M434,345 C434,345 434,345 434,345" stroke-linecap="round" style="fill: none; stroke: rgb(77,255,0)" transform="translate(2,2)" />
	<line class="segment RF_007" stroke-linecap="round" style="fill: none; stroke: rgb(77,255,0)" transform="translate(2,2)" x1="434" x2="549" y1="345" y2="345" />
	<path class="segment U0015716" d="M434,453 C434,453 434,453 434,453" stroke-linecap="round" style="fill: none; stroke: rgb(0,255,140)" transform="translate(3,3)" />
	<line class="segment U0015716" stroke-linecap="round" style="fill: none; stroke: rgb(0,255,140)" transform="translate(3,3)" x1="434" x2="549" y1="453" y2="453" />
	<path class="segment U0015717" d="M434,453 C434,453 434,453 434,453" stroke-linecap="round" style="fill: none; stroke: rgb(0,153,255)" transform="translate(4,4)" />
	<line class="segment U0015717" stroke-linecap="round" style="fill: none; stroke: rgb(0,153,255)" transform="translate(4,4)" x1="434" x2="549" y1="453" y2="453" />
	<path class="segment RF_001" d="M434,453 C434,453 434,453 434,453" stroke-linecap="round" style="fill: none; stroke: rgb(64,0,255)" transform="translate(5,5)" />
	<line class="segment RF_001" stroke-linecap="round" style="fill: none; stroke: rgb(64,0,255)" transform="translate(5,5)" x1="434" x2="549" y1="453" y2="453" />
	<path class="segment RF_012" d="M434,453 C434,453 434,453 434,453" stroke-linecap="round" style="fill: none; stroke: rgb(255,0,230)" transform="translate(6,6)" />
	<line class="segment RF_012" stroke-linecap="round" style="fill: none; stroke: rgb(255,0,230)" transform="translate(6,6)" x1="434" x2="549" y1="453" y2="453" />
	<path class="segment RF_015" d="M549,453 C549,453 549,399 549,399" stroke-linecap="round" style="fill: none; stroke: rgb(255,0,0)" transform="translate(0,0)" />
	<line class="segment RF_015" stroke-linecap="round" style="fill: none; stroke: rgb(255,0,0)" transform="translate(0,0)" x1="549" x2="598" y1="399" y2="399" />
	<path class="segment RF_003" d="M549,453 C549,453 549,399 549,399" stroke-linecap="round" style="fill: none; stroke: rgb(255,217,0)" transform="translate(1,1)" />
	<line class="segment RF_003" stroke-linecap="round" style="fill: none; stroke: rgb(255,217,0)" transform="translate(1,1)" x1="549" x2="598" y1="399" y2="399" />
	<path class="segment RF_007" d="M549,345 C549,345 549,345 549,345" stroke-linecap="round" style="fill: none; stroke: rgb(77,255,0)" transform="translate(2,2)" />
	<line class="segment RF_007" stroke-linecap="round" style="fill: none; stroke: rgb(77,255,0)" transform="translate(2,2)" x1="549" x2="598" y1="345" y2="345" />
	<path class="segment U0015716" d="M549,453 C549,453 549,399 549,399" stroke-linecap="round" style="fill: none; stroke: rgb(0,255,140)" transform="translate(3,3)" />
	<line class="segment U0015716" stroke-linecap="round" style="fill: none; stroke: rgb(0,255,140)" transform="translate(3,3)" x1="549" x2="598" y1="399" y2="399" />
	<path class="segment U0015717" d="M549,453 C549,453 549,399 549,399" stroke-linecap="round" style="fill: none; stroke: rgb(0,153,255)" transform="translate(4,4)" />
	<line class="segment U0015717" stroke-linecap="round" style="fill: none; stroke: rgb(0,153,255)" transform="translate(4,4)" x1="549" x2="598" y1="399" y2="399" />
	<path class="segment RF_001" d="M549,453 C549,453 549,399 549,399" stroke-linecap="round" style="fill: none; stroke: rgb(64,0,255)" transform="translate(5,5)" />
	<line class="segment RF_001" stroke-linecap="round" style="fill: none; stroke: rgb(64,0,255)" transform="translate(5,5)" x1="549" x2="598" y1="399" y2="399" />
	<path class="segment RF_012" d="M549,453 C549,453 549,399 549,399" stroke-linecap="round" style="fill: none; stroke: rgb(255,0,230)" transform="translate(6,6)" />
	<line class="segment RF_012" stroke-linecap="round" style="fill: none; stroke: rgb(255,0,230)" transform="translate(6,6)" x1="549" x2="598" y1="399" y2="399" />
	<path class="segment RF_015" d="M598,399 C598,399 598,399 598,399" stroke-linecap="round" style="fill: none; stroke: rgb(255,0,0)" transform="translate(0,0)" />
	<line class="segment RF_015" stroke-linecap="round" style="fill: none; stroke: rgb(255,0,0)" transform="translate(0,0)" x1="598" x2="730" y1="399" y2="399" />
	<path class="segment RF_003" d="M598,399 C598,399 598,399 598,399" stroke-linecap="round" style="fill: none; stroke: rgb(255,217,0)" transform="translate(1,1)" />
	<line class="segment RF_003" stroke-linecap="round" style="fill: none; stroke: rgb(255,217,0)" transform="translate(1,1)" x1="598" x2="730" y1="399" y2="399" />
	<path class="segment RF_007" d="M598,345 C598,345 598,345 598,345" stroke-linecap="round" style="fill: none; stroke: rgb(77,255,0)" transform="translate(2,2)" />
	<line class="segment RF_007" stroke-linecap="round" style="fill: none; stroke: rgb(77,255,0)" transform="translate(2,2)" x1="598" x2="730" y1="345" y2="345" />
	<path class="segment U0015716" d="M598,399 C598,399 598,399 598,399" stroke-linecap="round" style="fill: none; stroke: rgb(0,255,140)" transform="translate(3,3)" />
	<line class="segment U0015716" stroke-linecap="round" style="fill: none; stroke: rgb(0,255,140)" transform="translate(3,3)" x1="598" x2="730" y1="399" y2="399" />
	<path class="segment U0015717" d="M598,399 C598,399 598,399 598,399" stroke-linecap="round" style="fill: none; stroke: rgb(0,153,255)" transform="translate(4,4)" />
	<line class="segment U0015717" stroke-linecap="round" style="fill: none; stroke: rgb(0,153,255)" transform="translate(4,4)" x1="598" x2="730" y1="399" y2="399" />
	<path class="segment RF_001" d="M598,399 C598,399 598,399 598,399" stroke-linecap="round" style="fill: none; stroke: rgb(64,0,255)" transform="translate(5,5)" />
	<line class="segment RF_001" stroke-linecap="round" style="fill: none; stroke: rgb(64,0,255)" transform="translate(5,5)" x1="598" x2="730" y1="399" y2="399" />
	<path class="segment RF_012" d="M598,399 C598,399 598,399 598,399" stroke-linecap="round" style="fill: none; stroke: rgb(255,0,230)" transform="translate(6,6)" />
	<line class="segment RF_012" stroke-linecap="round" style="fill: none; stroke: rgb(255,0,230)" transform="translate(6,6)" x1="598" x2="730" y1="399" y2="399" />
	<path class="segment RF_015" d="M730,399 C730,399 730,453 730,453" stroke-linecap="round" style="fill: none; stroke: rgb(255,0,0)" transform="translate(0,0)" />
	<line class="segment RF_015" stroke-linecap="round" style="fill: none; stroke: rgb(255,0,0)" transform="translate(0,0)" x1="730" x2="800" y1="453" y2="453" />
	<path class="segment RF_003" d="M730,399 C730,399 730,453 730,453" stroke-linecap="round" style="fill: none; stroke: rgb(255,217,0)" transform="translate(1,1)" />
	<line class="segment RF_003" stroke-linecap="round" style="fill: none; stroke: rgb(255,217,0)" transform="translate(1,1)" x1="730" x2="800" y1="453" y2="453" />
	<path class="segment RF_007" d="M730,345 C730,345 730,345 730,345" stroke-linecap="round" style="fill: none; stroke: rgb(77,255,0)" transform="translate(2,2)" />
	<line class="segment RF_007" stroke-linecap="round" style="fill: none; stroke: rgb(77,255,0)" transform="translate(2,2)" x1="730" x2="800" y1="345" y2="345" />
	<path class="segment U0015716" d="M730,399 C730,399 730,453 730,453" stroke-linecap="round" style="fill: none; stroke: rgb(0,255,140)" transform="translate(3,3)" />
	<line class="segment U0015716" stroke-linecap="round" style="fill: none; stroke: rgb(0,255,140)" transform="translate(3,3)" x1="730" x2="800" y1="453" y2="453" />
	<path class="segment U0015717" d="M730,399 C730,399 730,453 730,453" stroke-linecap="round" style="fill: none; stroke: rgb(0,153,255)" transform="translate(4,4)" />
	<line class="segment U0015717" stroke-linecap="round" style="fill: none; stroke: rgb(0,153,255)" transform="translate(4,4)" x1="730" x2="800" y1="453" y2="453" />
	<path class="segment RF_001" d="M730,399 C730,399 730,453 730,453" stroke-linecap="round" style="fill: none; stroke: rgb(64,0,255)" transform="translate(5,5)" />
	<line class="segment RF_001" stroke-linecap="round" style="fill: none; stroke: rgb(64,0,255)" transform="translate(5,5)" x1="730" x2="800" y1="453" y2="453" />
	<path class="segment RF_012" d="M730,399 C730,399 730,453 730,453" stroke-linecap="round" style="fill: none; stroke: rgb(255,0,230)" transform="translate(6,6)" />
	<line class="segment RF_012" stroke-linecap="round" style="fill: none; stroke: rgb(255,0,230)" transform="translate(6,6)" x1="730" x2="800" y1="453" y2="453" />
	<polygon class="arrow" points="391,337.5 391,340 381,335 391,330 391,332.5 418,332.5 418,337.5 391,337.5 " style="fill: white; stroke: black" />
	<!-- 
	Generated using the Perl SVG Module V2.59
	by Ronan Oger
	Info: http://www.roitsystems.com/
 -->
</svg>