<?xml version="1.0" encoding="UTF-8" standalone="yes"?>
<!DOCTYPE svg PUBLIC "-//W3C//DTD SVG 1.0//EN" "http://www.w3.org/TR/2001/REC-SVG-20010904/DTD/svg10.dtd">
<svg height="600" width="800" xmlns="http://www.w3.org/2000/svg" xmlns:svg="http://www.w3.org/2000/svg" xmlns:xlink="http://www.w3.org/1999/xlink">
	<line class="breakpoint" style="fill: white; stroke: black; stroke-width: 0.1" x1="360" x2="360" y1="100" y2="300" />
	<text class="breakpoint" style="font: 10px Verdana" transform="rotate(-90,4,90)" x="4" y="90">46,180,397</text>
	<line class="breakpoint" style="fill: white; stroke: black; stroke-width: 0.1" x1="800" x2="800" y1="100" y2="300" />
	<text class="breakpoint" style="font: 10px Verdana" transform="rotate(-90,364,90)" x="364" y="90">46,191,109</text>
	<polyline class="scale" points="0,294 0,306 0,300 3,300 3,298 3,302 3,300 7,300 7,298 7,302 7,300 10,300 10,298 10,302 10,300 13,300 13,298 13,302 13,300 17,300 17,298 17,302 17,300 20,300 20,298 20,302 20,300 24,300 24,298 24,302 24,300 27,300 27,298 27,302 27,300 30,300 30,298 30,302 30,300 34,300 34,294 34,306 34,300 37,300 37,298 37,302 37,300 40,300 40,298 40,302 40,300 44,300 44,298 44,302 44,300 47,300 47,298 47,302 47,300 50,300 50,298 50,302 50,300 54,300 54,298 54,302 54,300 57,300 57,298 57,302 57,300 61,300 61,298 61,302 61,300 64,300 64,298 64,302 64,300 67,300 67,294 67,306 67,300 71,300 71,298 71,302 71,300 74,300 74,298 74,302 74,300 77,300 77,298 77,302 77,300 81,300 81,298 81,302 81,300 84,300 84,298 84,302 84,300 87,300 87,298 87,302 87,300 91,300 91,298 91,302 91,300 94,300 94,298 94,302 94,300 97,300 97,298 97,302 97,300 101,300 101,294 101,306 101,300 104,300 104,298 104,302 104,300 108,300 108,298 108,302 108,300 111,300 111,298 111,302 111,300 114,300 114,298 114,302 114,300 118,300 118,298 118,302 118,300 121,300 121,298 121,302 121,300 124,300 124,298 124,302 124,300 128,300 128,298 128,302 128,300 131,300 131,298 131,302 131,300 134,300 134,294 134,306 134,300 138,300 138,298 138,302 138,300 141,300 141,298 141,302 141,300 145,300 145,298 145,302 145,300 148,300 148,298 148,302 148,300 151,300 151,298 151,302 151,300 155,300 155,298 155,302 155,300 158,300 158,298 158,302 158,300 161,300 161,298 161,302 161,300 165,300 165,298 165,302 165,300 168,300 168,294 168,306 168,300 171,300 171,298 171,302 171,300 175,300 175,298 175,302 175,300 178,300 178,298 178,302 178,300 182,300 182,298 182,302 182,300 185,300 185,298 185,302 185,300 188,300 188,298 188,302 188,300 192,300 192,298 192,302 192,300 195,300 195,298 195,302 195,300 198,300 198,298 198,302 198,300 202,300 202,294 202,306 202,300 205,300 205,298 205,302 205,300 208,300 208,298 208,302 208,300 212,300 212,298 212,302 212,300 215,300 215,298 215,302 215,300 219,300 219,298 219,302 219,300 222,300 222,298 222,302 222,300 225,300 225,298 225,302 225,300 229,300 229,298 229,302 229,300 232,300 232,298 232,302 232,300 235,300 235,294 235,306 235,300 239,300 239,298 239,302 239,300 242,300 242,298 242,302 242,300 245,300 245,298 245,302 245,300 249,300 249,298 249,302 249,300 252,300 252,298 252,302 252,300 255,300 255,298 255,302 255,300 259,300 259,298 259,302 259,300 262,300 262,298 262,302 262,300 266,300 266,298 266,302 266,300 269,300 269,294 269,306 269,300 272,300 272,298 272,302 272,300 276,300 276,298 276,302 276,300 279,300 279,298 279,302 279,300 282,300 282,298 282,302 282,300 286,300 286,298 286,302 286,300 289,300 289,298 289,302 289,300 292,300 292,298 292,302 292,300 296,300 296,298 296,302 296,300 299,300 299,298 299,302 299,300 303,300 303,294 303,306 303,300 306,300 306,298 306,302 306,300 309,300 309,298 309,302 309,300 313,300 313,298 313,302 313,300 316,300 316,298 316,302 316,300 319,300 319,298 319,302 319,300 323,300 323,298 323,302 323,300 326,300 326,298 326,302 326,300 329,300 329,298 329,302 329,300 333,300 333,298 333,302 333,300 336,300 336,294 336,306 336,300 340,300 340,298 340,302 340,300 343,300 343,298 343,302 343,300 346,300 346,298 346,302 346,300 350,300 350,298 350,302 350,300 353,300 353,298 353,302 353,300 356,300 356,298 356,302 356,300 360,300 360,298 360,302 360,300 363,300 363,298 363,302 363,300 366,300 366,298 366,302 366,300 370,300 370,294 370,306 370,300 373,300 373,298 373,302 373,300 377,300 377,298 377,302 377,300 380,300 380,298 380,302 380,300 383,300 383,298 383,302 383,300 387,300 387,298 387,302 387,300 390,300 390,298 390,302 390,300 393,300 393,298 393,302 393,300 397,300 397,298 397,302 397,300 400,300 400,298 400,302 400,300 403,300 403,294 403,306 403,300 407,300 407,298 407,302 407,300 410,300 410,298 410,302 410,300 413,300 413,298 413,302 413,300 417,300 417,298 417,302 417,300 420,300 420,298 420,302 420,300 424,300 424,298 424,302 424,300 427,300 427,298 427,302 427,300 430,300 430,298 430,302 430,300 434,300 434,298 434,302 434,300 437,300 437,294 437,306 437,300 440,300 440,298 440,302 440,300 444,300 444,298 444,302 444,300 447,300 447,298 447,302 447,300 450,300 450,298 450,302 450,300 454,300 454,298 454,302 454,300 457,300 457,298 457,302 457,300 461,300 461,298 461,302 461,300 464,300 464,298 464,302 464,300 467,300 467,298 467,302 467,300 471,300 471,294 471,306 471,300 474,300 474,298 474,302 474,300 477,300 477,298 477,302 477,300 481,300 481,298 481,302 481,300 484,300 484,298 484,302 484,300 487,300 487,298 487,302 487,300 491,300 491,298 491,302 491,300 494,300 494,298 494,302 494,300 498,300 498,298 498,302 498,300 501,300 501,298 501,302 501,300 504,300 504,294 504,306 504,300 508,300 508,298 508,302 508,300 511,300 511,298 511,302 511,300 514,300 514,298 514,302 514,300 518,300 518,298 518,302 518,300 521,300 521,298 521,302 521,300 524,300 524,298 524,302 524,300 528,300 528,298 528,302 528,300 531,300 531,298 531,302 531,300 535,300 535,298 535,302 535,300 538,300 538,294 538,306 538,300 541,300 541,298 541,302 541,300 545,300 545,298 545,302 545,300 548,300 548,298 548,302 548,300 551,300 551,298 551,302 551,300 555,300 555,298 555,302 555,300 558,300 558,298 558,302 558,300 561,300 561,298 561,302 561,300 565,300 565,298 565,302 565,300 568,300 568,298 568,302 568,300 572,300 572,294 572,306 572,300 575,300 575,298 575,302 575,300 578,300 578,298 578,302 578,300 582,300 582,298 582,302 582,300 585,300 585,298 585,302 585,300 588,300 588,298 588,302 588,300 592,300 592,298 592,302 592,300 595,300 595,298 595,302 595,300 598,300 598,298 598,302 598,300 602,300 602,298 602,302 602,300 605,300 605,294 605,306 605,300 608,300 608,298 608,302 608,300 612,300 612,298 612,302 612,300 615,300 615,298 615,302 615,300 619,300 619,298 619,302 619,300 622,300 622,298 622,302 622,300 625,300 625,298 625,302 625,300 629,300 629,298 629,302 629,300 632,300 632,298 632,302 632,300 635,300 635,298 635,302 635,300 639,300 639,294 639,306 639,300 642,300 642,298 642,302 642,300 645,300 645,298 645,302 645,300 649,300 649,298 649,302 649,300 652,300 652,298 652,302 652,300 656,300 656,298 656,302 656,300 659,300 659,298 659,302 659,300 662,300 662,298 662,302 662,300 666,300 666,298 666,302 666,300 669,300 669,298 669,302 669,300 672,300 672,294 672,306 672,300 676,300 676,298 676,302 676,300 679,300 679,298 679,302 679,300 682,300 682,298 682,302 682,300 686,300 686,298 686,302 686,300 689,300 689,298 689,302 689,300 693,300 693,298 693,302 693,300 696,300 696,298 696,302 696,300 699,300 699,298 699,302 699,300 703,300 703,298 703,302 703,300 706,300 706,294 706,306 706,300 709,300 709,298 709,302 709,300 713,300 713,298 713,302 713,300 716,300 716,298 716,302 716,300 719,300 719,298 719,302 719,300 723,300 723,298 723,302 723,300 726,300 726,298 726,302 726,300 730,300 730,298 730,302 730,300 733,300 733,298 733,302 733,300 736,300 736,298 736,302 736,300 740,300 740,294 740,306 740,300 743,300 743,298 743,302 743,300 746,300 746,298 746,302 746,300 750,300 750,298 750,302 750,300 753,300 753,298 753,302 753,300 756,300 756,298 756,302 756,300 760,300 760,298 760,302 760,300 763,300 763,298 763,302 763,300 766,300 766,298 766,302 766,300 770,300 770,298 770,302 770,300 773,300 773,294 773,306 773,300 777,300 777,298 777,302 777,300 780,300 780,298 780,302 780,300 783,300 783,298 783,302 783,300 787,300 787,298 787,302 787,300 790,300 790,298 790,302 790,300 793,300 793,298 793,302 793,300 797,300 797,298 797,302 797,300 800,300 " style="fill: none; stroke: black; stroke-width: 0.1" />
	<rect class="exon" height="50" style="fill: white; stroke: black" width="4" x="336" y="275" />
	<text class="exon" style="font: 10px Verdana" transform="rotate(-90,340,265)" x="340" y="265">46,190,396 .. 46,190,497</text>
	<line class="intron" style="fill: white; stroke: black" x1="340" x2="342" y1="300" y2="300" />
	<rect class="exon" height="50" style="fill: white; stroke: black" width="19" x="342" y="275" />
	<text class="exon" style="font: 10px Verdana" transform="rotate(-90,346,265)" x="346" y="265">46,190,560 .. 46,191,146</text>
	<line class="intron" style="fill: white; stroke: black" x1="361" x2="364" y1="300" y2="300" />
	<rect class="exon" height="50" style="fill: white; stroke: black" width="45" x="364" y="275" />
	<text class="exon" style="font: 10px Verdana" transform="rotate(-90,368,265)" x="368" y="265">46,191,224 .. 46,192,569</text>
	<line class="intron" style="fill: white; stroke: black" x1="409" x2="415" y1="300" y2="300" />
	<rect class="exon" height="50" style="fill: white; stroke: black" width="9" x="415" y="275" />
	<text class="exon" style="font: 10px Verdana" transform="rotate(-90,419,265)" x="419" y="265">46,192,732 .. 46,193,009</text>
	<line class="intron" style="fill: white; stroke: black" x1="424" x2="463" y1="300" y2="300" />
	<rect class="exon" height="50" style="fill: white; stroke: black" width="1" x="463" y="275" />
	<text class="exon" style="font: 10px Verdana" transform="rotate(-90,467,265)" x="467" y="265">46,194,161 .. 46,194,193</text>
	<line class="breakpoint" style="fill: white; stroke: black; stroke-width: 0.1" x1="360" x2="360" y1="100" y2="300" />
	<text class="breakpoint" style="font: 10px Verdana" transform="rotate(-90,4,90)" x="4" y="90">46,180,397</text>
	<line class="breakpoint" style="fill: white; stroke: black; stroke-width: 0.1" x1="800" x2="800" y1="100" y2="300" />
	<text class="breakpoint" style="font: 10px Verdana" transform="rotate(-90,364,90)" x="364" y="90">46,191,109</text>
	<line style="fill: none; stroke: gray; stroke-width: 0.1" x1="0" x2="800" y1="345" y2="345" />
	<text class="crossover RF_047" style="font: 10px Verdana" x="4" y="339">S. pimpinellifolium</text>
	<line style="fill: none; stroke: gray; stroke-width: 0.1" x1="0" x2="800" y1="413" y2="413" />
	<text class="crossover ITAG2_3" style="font: 10px Verdana" x="4" y="407">S. l. Heinz 1706</text>
	<line style="fill: none; stroke: rgb(255,0,0)" x1="5" x2="10" y1="480" y2="480" />
	<text class="crossover" style="font: 10px Verdana" x="15" y="485">S. l. var Momatero</text>
	<line style="fill: none; stroke: rgb(255,217,0)" x1="5" x2="10" y1="495" y2="495" />
	<text class="crossover" style="font: 10px Verdana" x="15" y="500">S. l. var Gardener&apos;s Delight	</text>
	<line style="fill: none; stroke: rgb(77,255,0)" x1="5" x2="10" y1="510" y2="510" />
	<text class="crossover" style="font: 10px Verdana" x="15" y="515">S. l. var Katinka Cherry</text>
	<line style="fill: none; stroke: rgb(0,255,140)" x1="5" x2="10" y1="525" y2="525" />
	<text class="crossover" style="font: 10px Verdana" x="15" y="530">S. l. (1891)</text>
	<line style="fill: none; stroke: rgb(0,153,255)" x1="5" x2="10" y1="540" y2="540" />
	<text class="crossover" style="font: 10px Verdana" x="15" y="545">S. l. (1830)</text>
	<line style="fill: none; stroke: rgb(64,0,255)" x1="5" x2="10" y1="555" y2="555" />
	<text class="crossover" style="font: 10px Verdana" x="15" y="560">S. l. var Moneymaker</text>
	<line style="fill: none; stroke: rgb(255,0,230)" x1="5" x2="10" y1="570" y2="570" />
	<text class="crossover" style="font: 10px Verdana" x="15" y="575">S. l. var Sonato</text>
	<line class="segment RF_015" stroke-linecap="round" style="fill: none; stroke: rgb(255,0,0)" transform="translate(0,0)" x1="0" x2="360" y1="413" y2="413" />
	<line class="segment RF_003" stroke-linecap="round" style="fill: none; stroke: rgb(255,217,0)" transform="translate(1,1)" x1="0" x2="360" y1="413" y2="413" />
	<line class="segment RF_007" stroke-linecap="round" style="fill: none; stroke: rgb(77,255,0)" transform="translate(2,2)" x1="0" x2="360" y1="413" y2="413" />
	<line class="segment U0015716" stroke-linecap="round" style="fill: none; stroke: rgb(0,255,140)" transform="translate(3,3)" x1="0" x2="360" y1="413" y2="413" />
	<line class="segment U0015717" stroke-linecap="round" style="fill: none; stroke: rgb(0,153,255)" transform="translate(4,4)" x1="0" x2="360" y1="413" y2="413" />
	<line class="segment RF_001" stroke-linecap="round" style="fill: none; stroke: rgb(64,0,255)" transform="translate(5,5)" x1="0" x2="360" y1="413" y2="413" />
	<line class="segment RF_012" stroke-linecap="round" style="fill: none; stroke: rgb(255,0,230)" transform="translate(6,6)" x1="0" x2="360" y1="413" y2="413" />
	<path class="segment RF_015" d="M360,413 C360,413 360,345 360,345" stroke-linecap="round" style="fill: none; stroke: rgb(255,0,0)" transform="translate(0,0)" />
	<line class="segment RF_015" stroke-linecap="round" style="fill: none; stroke: rgb(255,0,0)" transform="translate(0,0)" x1="360" x2="800" y1="345" y2="345" />
	<path class="segment RF_003" d="M360,413 C360,413 360,413 360,413" stroke-linecap="round" style="fill: none; stroke: rgb(255,217,0)" transform="translate(1,1)" />
	<line class="segment RF_003" stroke-linecap="round" style="fill: none; stroke: rgb(255,217,0)" transform="translate(1,1)" x1="360" x2="800" y1="413" y2="413" />
	<path class="segment RF_007" d="M360,413 C360,413 360,413 360,413" stroke-linecap="round" style="fill: none; stroke: rgb(77,255,0)" transform="translate(2,2)" />
	<line class="segment RF_007" stroke-linecap="round" style="fill: none; stroke: rgb(77,255,0)" transform="translate(2,2)" x1="360" x2="800" y1="413" y2="413" />
	<path class="segment U0015716" d="M360,413 C360,413 360,413 360,413" stroke-linecap="round" style="fill: none; stroke: rgb(0,255,140)" transform="translate(3,3)" />
	<line class="segment U0015716" stroke-linecap="round" style="fill: none; stroke: rgb(0,255,140)" transform="translate(3,3)" x1="360" x2="800" y1="413" y2="413" />
	<path class="segment U0015717" d="M360,413 C360,413 360,413 360,413" stroke-linecap="round" style="fill: none; stroke: rgb(0,153,255)" transform="translate(4,4)" />
	<line class="segment U0015717" stroke-linecap="round" style="fill: none; stroke: rgb(0,153,255)" transform="translate(4,4)" x1="360" x2="800" y1="413" y2="413" />
	<path class="segment RF_001" d="M360,413 C360,413 360,413 360,413" stroke-linecap="round" style="fill: none; stroke: rgb(64,0,255)" transform="translate(5,5)" />
	<line class="segment RF_001" stroke-linecap="round" style="fill: none; stroke: rgb(64,0,255)" transform="translate(5,5)" x1="360" x2="800" y1="413" y2="413" />
	<path class="segment RF_012" d="M360,413 C360,413 360,413 360,413" stroke-linecap="round" style="fill: none; stroke: rgb(255,0,230)" transform="translate(6,6)" />
	<line class="segment RF_012" stroke-linecap="round" style="fill: none; stroke: rgb(255,0,230)" transform="translate(6,6)" x1="360" x2="800" y1="413" y2="413" />
	<polygon class="arrow" points="336,337.5 336,332.5 454,332.5 454,330 464,335 454,340 454,337.5 336,337.5 " style="fill: white; stroke: black" />
	<!-- 
	Generated using the Perl SVG Module V2.59
	by Ronan Oger
	Info: http://www.roitsystems.com/
 -->
</svg>