<?xml version="1.0" encoding="UTF-8" standalone="yes"?>
<!DOCTYPE svg PUBLIC "-//W3C//DTD SVG 1.0//EN" "http://www.w3.org/TR/2001/REC-SVG-20010904/DTD/svg10.dtd">
<svg height="600" width="800" xmlns="http://www.w3.org/2000/svg" xmlns:svg="http://www.w3.org/2000/svg" xmlns:xlink="http://www.w3.org/1999/xlink">
	<line class="breakpoint" style="fill: white; stroke: black; stroke-width: 0.1" x1="114" x2="114" y1="100" y2="300" />
	<text class="breakpoint" style="font: 10px Verdana" transform="rotate(-90,4,90)" x="4" y="90">3,962,617</text>
	<line class="breakpoint" style="fill: white; stroke: black; stroke-width: 0.1" x1="277" x2="277" y1="100" y2="300" />
	<text class="breakpoint" style="font: 10px Verdana" transform="rotate(-90,118,90)" x="118" y="90">3,965,842</text>
	<line class="breakpoint" style="fill: white; stroke: black; stroke-width: 0.1" x1="355" x2="355" y1="100" y2="300" />
	<text class="breakpoint" style="font: 10px Verdana" transform="rotate(-90,281,90)" x="281" y="90">3,970,446</text>
	<line class="breakpoint" style="fill: white; stroke: black; stroke-width: 0.1" x1="423" x2="423" y1="100" y2="300" />
	<text class="breakpoint" style="font: 10px Verdana" transform="rotate(-90,359,90)" x="359" y="90">3,972,656</text>
	<line class="breakpoint" style="fill: white; stroke: black; stroke-width: 0.1" x1="494" x2="494" y1="100" y2="300" />
	<text class="breakpoint" style="font: 10px Verdana" transform="rotate(-90,427,90)" x="427" y="90">3,974,568</text>
	<line class="breakpoint" style="fill: white; stroke: black; stroke-width: 0.1" x1="554" x2="554" y1="100" y2="300" />
	<text class="breakpoint" style="font: 10px Verdana" transform="rotate(-90,498,90)" x="498" y="90">3,976,577</text>
	<line class="breakpoint" style="fill: white; stroke: black; stroke-width: 0.1" x1="599" x2="599" y1="100" y2="300" />
	<text class="breakpoint" style="font: 10px Verdana" transform="rotate(-90,558,90)" x="558" y="90">3,978,270</text>
	<line class="breakpoint" style="fill: white; stroke: black; stroke-width: 0.1" x1="703" x2="703" y1="100" y2="300" />
	<text class="breakpoint" style="font: 10px Verdana" transform="rotate(-90,603,90)" x="603" y="90">3,979,536</text>
	<line class="breakpoint" style="fill: white; stroke: black; stroke-width: 0.1" x1="800" x2="800" y1="100" y2="300" />
	<text class="breakpoint" style="font: 10px Verdana" transform="rotate(-90,707,90)" x="707" y="90">3,982,481</text>
	<polyline class="scale" points="0,294 0,306 0,300 4,300 4,298 4,302 4,300 7,300 7,298 7,302 7,300 11,300 11,298 11,302 11,300 14,300 14,298 14,302 14,300 18,300 18,298 18,302 18,300 21,300 21,298 21,302 21,300 25,300 25,298 25,302 25,300 28,300 28,298 28,302 28,300 32,300 32,298 32,302 32,300 35,300 35,294 35,306 35,300 39,300 39,298 39,302 39,300 42,300 42,298 42,302 42,300 46,300 46,298 46,302 46,300 50,300 50,298 50,302 50,300 53,300 53,298 53,302 53,300 57,300 57,298 57,302 57,300 60,300 60,298 60,302 60,300 64,300 64,298 64,302 64,300 67,300 67,298 67,302 67,300 71,300 71,294 71,306 71,300 74,300 74,298 74,302 74,300 78,300 78,298 78,302 78,300 81,300 81,298 81,302 81,300 85,300 85,298 85,302 85,300 89,300 89,298 89,302 89,300 92,300 92,298 92,302 92,300 96,300 96,298 96,302 96,300 99,300 99,298 99,302 99,300 103,300 103,298 103,302 103,300 106,300 106,294 106,306 106,300 110,300 110,298 110,302 110,300 113,300 113,298 113,302 113,300 117,300 117,298 117,302 117,300 120,300 120,298 120,302 120,300 124,300 124,298 124,302 124,300 127,300 127,298 127,302 127,300 131,300 131,298 131,302 131,300 135,300 135,298 135,302 135,300 138,300 138,298 138,302 138,300 142,300 142,294 142,306 142,300 145,300 145,298 145,302 145,300 149,300 149,298 149,302 149,300 152,300 152,298 152,302 152,300 156,300 156,298 156,302 156,300 159,300 159,298 159,302 159,300 163,300 163,298 163,302 163,300 166,300 166,298 166,302 166,300 170,300 170,298 170,302 170,300 173,300 173,298 173,302 173,300 177,300 177,294 177,306 177,300 181,300 181,298 181,302 181,300 184,300 184,298 184,302 184,300 188,300 188,298 188,302 188,300 191,300 191,298 191,302 191,300 195,300 195,298 195,302 195,300 198,300 198,298 198,302 198,300 202,300 202,298 202,302 202,300 205,300 205,298 205,302 205,300 209,300 209,298 209,302 209,300 212,300 212,294 212,306 212,300 216,300 216,298 216,302 216,300 219,300 219,298 219,302 219,300 223,300 223,298 223,302 223,300 227,300 227,298 227,302 227,300 230,300 230,298 230,302 230,300 234,300 234,298 234,302 234,300 237,300 237,298 237,302 237,300 241,300 241,298 241,302 241,300 244,300 244,298 244,302 244,300 248,300 248,294 248,306 248,300 251,300 251,298 251,302 251,300 255,300 255,298 255,302 255,300 258,300 258,298 258,302 258,300 262,300 262,298 262,302 262,300 266,300 266,298 266,302 266,300 269,300 269,298 269,302 269,300 273,300 273,298 273,302 273,300 276,300 276,298 276,302 276,300 280,300 280,298 280,302 280,300 283,300 283,294 283,306 283,300 287,300 287,298 287,302 287,300 290,300 290,298 290,302 290,300 294,300 294,298 294,302 294,300 297,300 297,298 297,302 297,300 301,300 301,298 301,302 301,300 304,300 304,298 304,302 304,300 308,300 308,298 308,302 308,300 312,300 312,298 312,302 312,300 315,300 315,298 315,302 315,300 319,300 319,294 319,306 319,300 322,300 322,298 322,302 322,300 326,300 326,298 326,302 326,300 329,300 329,298 329,302 329,300 333,300 333,298 333,302 333,300 336,300 336,298 336,302 336,300 340,300 340,298 340,302 340,300 343,300 343,298 343,302 343,300 347,300 347,298 347,302 347,300 350,300 350,298 350,302 350,300 354,300 354,294 354,306 354,300 358,300 358,298 358,302 358,300 361,300 361,298 361,302 361,300 365,300 365,298 365,302 365,300 368,300 368,298 368,302 368,300 372,300 372,298 372,302 372,300 375,300 375,298 375,302 375,300 379,300 379,298 379,302 379,300 382,300 382,298 382,302 382,300 386,300 386,298 386,302 386,300 389,300 389,294 389,306 389,300 393,300 393,298 393,302 393,300 397,300 397,298 397,302 397,300 400,300 400,298 400,302 400,300 404,300 404,298 404,302 404,300 407,300 407,298 407,302 407,300 411,300 411,298 411,302 411,300 414,300 414,298 414,302 414,300 418,300 418,298 418,302 418,300 421,300 421,298 421,302 421,300 425,300 425,294 425,306 425,300 428,300 428,298 428,302 428,300 432,300 432,298 432,302 432,300 435,300 435,298 435,302 435,300 439,300 439,298 439,302 439,300 443,300 443,298 443,302 443,300 446,300 446,298 446,302 446,300 450,300 450,298 450,302 450,300 453,300 453,298 453,302 453,300 457,300 457,298 457,302 457,300 460,300 460,294 460,306 460,300 464,300 464,298 464,302 464,300 467,300 467,298 467,302 467,300 471,300 471,298 471,302 471,300 474,300 474,298 474,302 474,300 478,300 478,298 478,302 478,300 481,300 481,298 481,302 481,300 485,300 485,298 485,302 485,300 489,300 489,298 489,302 489,300 492,300 492,298 492,302 492,300 496,300 496,294 496,306 496,300 499,300 499,298 499,302 499,300 503,300 503,298 503,302 503,300 506,300 506,298 506,302 506,300 510,300 510,298 510,302 510,300 513,300 513,298 513,302 513,300 517,300 517,298 517,302 517,300 520,300 520,298 520,302 520,300 524,300 524,298 524,302 524,300 528,300 528,298 528,302 528,300 531,300 531,294 531,306 531,300 535,300 535,298 535,302 535,300 538,300 538,298 538,302 538,300 542,300 542,298 542,302 542,300 545,300 545,298 545,302 545,300 549,300 549,298 549,302 549,300 552,300 552,298 552,302 552,300 556,300 556,298 556,302 556,300 559,300 559,298 559,302 559,300 563,300 563,298 563,302 563,300 566,300 566,294 566,306 566,300 570,300 570,298 570,302 570,300 574,300 574,298 574,302 574,300 577,300 577,298 577,302 577,300 581,300 581,298 581,302 581,300 584,300 584,298 584,302 584,300 588,300 588,298 588,302 588,300 591,300 591,298 591,302 591,300 595,300 595,298 595,302 595,300 598,300 598,298 598,302 598,300 602,300 602,294 602,306 602,300 605,300 605,298 605,302 605,300 609,300 609,298 609,302 609,300 612,300 612,298 612,302 612,300 616,300 616,298 616,302 616,300 620,300 620,298 620,302 620,300 623,300 623,298 623,302 623,300 627,300 627,298 627,302 627,300 630,300 630,298 630,302 630,300 634,300 634,298 634,302 634,300 637,300 637,294 637,306 637,300 641,300 641,298 641,302 641,300 644,300 644,298 644,302 644,300 648,300 648,298 648,302 648,300 651,300 651,298 651,302 651,300 655,300 655,298 655,302 655,300 658,300 658,298 658,302 658,300 662,300 662,298 662,302 662,300 666,300 666,298 666,302 666,300 669,300 669,298 669,302 669,300 673,300 673,294 673,306 673,300 676,300 676,298 676,302 676,300 680,300 680,298 680,302 680,300 683,300 683,298 683,302 683,300 687,300 687,298 687,302 687,300 690,300 690,298 690,302 690,300 694,300 694,298 694,302 694,300 697,300 697,298 697,302 697,300 701,300 701,298 701,302 701,300 705,300 705,298 705,302 705,300 708,300 708,294 708,306 708,300 712,300 712,298 712,302 712,300 715,300 715,298 715,302 715,300 719,300 719,298 719,302 719,300 722,300 722,298 722,302 722,300 726,300 726,298 726,302 726,300 729,300 729,298 729,302 729,300 733,300 733,298 733,302 733,300 736,300 736,298 736,302 736,300 740,300 740,298 740,302 740,300 743,300 743,294 743,306 743,300 747,300 747,298 747,302 747,300 751,300 751,298 751,302 751,300 754,300 754,298 754,302 754,300 758,300 758,298 758,302 758,300 761,300 761,298 761,302 761,300 765,300 765,298 765,302 765,300 768,300 768,298 768,302 768,300 772,300 772,298 772,302 772,300 775,300 775,298 775,302 775,300 779,300 779,294 779,306 779,300 782,300 782,298 782,302 782,300 786,300 786,298 786,302 786,300 789,300 789,298 789,302 789,300 793,300 793,298 793,302 793,300 797,300 797,298 797,302 797,300 800,300 " style="fill: none; stroke: black; stroke-width: 0.1" />
	<rect class="exon" height="50" style="fill: white; stroke: black" width="92" x="354" y="275" />
	<text class="exon" style="font: 10px Verdana" transform="rotate(-90,358,265)" x="358" y="265">3,972,616 .. 3,975,213</text>
	<line class="breakpoint" style="fill: white; stroke: black; stroke-width: 0.1" x1="114" x2="114" y1="100" y2="300" />
	<text class="breakpoint" style="font: 10px Verdana" transform="rotate(-90,4,90)" x="4" y="90">3,962,617</text>
	<line class="breakpoint" style="fill: white; stroke: black; stroke-width: 0.1" x1="277" x2="277" y1="100" y2="300" />
	<text class="breakpoint" style="font: 10px Verdana" transform="rotate(-90,118,90)" x="118" y="90">3,965,842</text>
	<line class="breakpoint" style="fill: white; stroke: black; stroke-width: 0.1" x1="355" x2="355" y1="100" y2="300" />
	<text class="breakpoint" style="font: 10px Verdana" transform="rotate(-90,281,90)" x="281" y="90">3,970,446</text>
	<line class="breakpoint" style="fill: white; stroke: black; stroke-width: 0.1" x1="423" x2="423" y1="100" y2="300" />
	<text class="breakpoint" style="font: 10px Verdana" transform="rotate(-90,359,90)" x="359" y="90">3,972,656</text>
	<line class="breakpoint" style="fill: white; stroke: black; stroke-width: 0.1" x1="494" x2="494" y1="100" y2="300" />
	<text class="breakpoint" style="font: 10px Verdana" transform="rotate(-90,427,90)" x="427" y="90">3,974,568</text>
	<line class="breakpoint" style="fill: white; stroke: black; stroke-width: 0.1" x1="554" x2="554" y1="100" y2="300" />
	<text class="breakpoint" style="font: 10px Verdana" transform="rotate(-90,498,90)" x="498" y="90">3,976,577</text>
	<line class="breakpoint" style="fill: white; stroke: black; stroke-width: 0.1" x1="599" x2="599" y1="100" y2="300" />
	<text class="breakpoint" style="font: 10px Verdana" transform="rotate(-90,558,90)" x="558" y="90">3,978,270</text>
	<line class="breakpoint" style="fill: white; stroke: black; stroke-width: 0.1" x1="703" x2="703" y1="100" y2="300" />
	<text class="breakpoint" style="font: 10px Verdana" transform="rotate(-90,603,90)" x="603" y="90">3,979,536</text>
	<line class="breakpoint" style="fill: white; stroke: black; stroke-width: 0.1" x1="800" x2="800" y1="100" y2="300" />
	<text class="breakpoint" style="font: 10px Verdana" transform="rotate(-90,707,90)" x="707" y="90">3,982,481</text>
	<line style="fill: none; stroke: gray; stroke-width: 0.1" x1="0" x2="800" y1="345" y2="345" />
	<text class="crossover RF_072" style="font: 10px Verdana" x="4" y="339">S. habrochaites</text>
	<line style="fill: none; stroke: gray; stroke-width: 0.1" x1="0" x2="800" y1="368" y2="368" />
	<text class="crossover RF_047" style="font: 10px Verdana" x="4" y="362">S. pimpinellifolium</text>
	<line style="fill: none; stroke: gray; stroke-width: 0.1" x1="0" x2="800" y1="391" y2="391" />
	<text class="crossover RF_058" style="font: 10px Verdana" x="4" y="385">S. Arcanum</text>
	<line style="fill: none; stroke: gray; stroke-width: 0.1" x1="0" x2="800" y1="414" y2="414" />
	<text class="crossover RF_104" style="font: 10px Verdana" x="4" y="408">S. galapagense</text>
	<line style="fill: none; stroke: gray; stroke-width: 0.1" x1="0" x2="800" y1="437" y2="437" />
	<text class="crossover RF_051" style="font: 10px Verdana" x="4" y="431">S. chiemliewskii</text>
	<line style="fill: none; stroke: gray; stroke-width: 0.1" x1="0" x2="800" y1="460" y2="460" />
	<text class="crossover ITAG2_3" style="font: 10px Verdana" x="4" y="454">S. l. Heinz 1706</text>
	<line style="fill: none; stroke: rgb(255,0,0)" x1="5" x2="10" y1="480" y2="480" />
	<text class="crossover" style="font: 10px Verdana" x="15" y="485">S. l. var Momatero</text>
	<line style="fill: none; stroke: rgb(255,217,0)" x1="5" x2="10" y1="495" y2="495" />
	<text class="crossover" style="font: 10px Verdana" x="15" y="500">S. l. var Gardener&apos;s Delight	</text>
	<line style="fill: none; stroke: rgb(77,255,0)" x1="5" x2="10" y1="510" y2="510" />
	<text class="crossover" style="font: 10px Verdana" x="15" y="515">S. l. var Katinka Cherry</text>
	<line style="fill: none; stroke: rgb(0,255,140)" x1="5" x2="10" y1="525" y2="525" />
	<text class="crossover" style="font: 10px Verdana" x="15" y="530">S. l. (1891)</text>
	<line style="fill: none; stroke: rgb(0,153,255)" x1="5" x2="10" y1="540" y2="540" />
	<text class="crossover" style="font: 10px Verdana" x="15" y="545">S. l. (1830)</text>
	<line style="fill: none; stroke: rgb(64,0,255)" x1="5" x2="10" y1="555" y2="555" />
	<text class="crossover" style="font: 10px Verdana" x="15" y="560">S. l. var Moneymaker</text>
	<line style="fill: none; stroke: rgb(255,0,230)" x1="5" x2="10" y1="570" y2="570" />
	<text class="crossover" style="font: 10px Verdana" x="15" y="575">S. l. var Sonato</text>
	<line class="segment RF_015" stroke-linecap="round" style="fill: none; stroke: rgb(255,0,0)" transform="translate(0,0)" x1="0" x2="114" y1="460" y2="460" />
	<line class="segment RF_003" stroke-linecap="round" style="fill: none; stroke: rgb(255,217,0)" transform="translate(1,1)" x1="0" x2="114" y1="368" y2="368" />
	<line class="segment RF_007" stroke-linecap="round" style="fill: none; stroke: rgb(77,255,0)" transform="translate(2,2)" x1="0" x2="114" y1="368" y2="368" />
	<line class="segment U0015716" stroke-linecap="round" style="fill: none; stroke: rgb(0,255,140)" transform="translate(3,3)" x1="0" x2="114" y1="460" y2="460" />
	<line class="segment U0015717" stroke-linecap="round" style="fill: none; stroke: rgb(0,153,255)" transform="translate(4,4)" x1="0" x2="114" y1="460" y2="460" />
	<line class="segment RF_001" stroke-linecap="round" style="fill: none; stroke: rgb(64,0,255)" transform="translate(5,5)" x1="0" x2="114" y1="460" y2="460" />
	<line class="segment RF_012" stroke-linecap="round" style="fill: none; stroke: rgb(255,0,230)" transform="translate(6,6)" x1="0" x2="114" y1="460" y2="460" />
	<path class="segment RF_015" d="M114,460 C114,460 114,460 114,460" stroke-linecap="round" style="fill: none; stroke: rgb(255,0,0)" transform="translate(0,0)" />
	<line class="segment RF_015" stroke-linecap="round" style="fill: none; stroke: rgb(255,0,0)" transform="translate(0,0)" x1="114" x2="277" y1="460" y2="460" />
	<path class="segment RF_003" d="M114,368 C114,368 114,368 114,368" stroke-linecap="round" style="fill: none; stroke: rgb(255,217,0)" transform="translate(1,1)" />
	<line class="segment RF_003" stroke-linecap="round" style="fill: none; stroke: rgb(255,217,0)" transform="translate(1,1)" x1="114" x2="277" y1="368" y2="368" />
	<path class="segment RF_007" d="M114,368 C114,368 114,368 114,368" stroke-linecap="round" style="fill: none; stroke: rgb(77,255,0)" transform="translate(2,2)" />
	<line class="segment RF_007" stroke-linecap="round" style="fill: none; stroke: rgb(77,255,0)" transform="translate(2,2)" x1="114" x2="277" y1="368" y2="368" />
	<path class="segment U0015716" d="M114,460 C114,460 114,460 114,460" stroke-linecap="round" style="fill: none; stroke: rgb(0,255,140)" transform="translate(3,3)" />
	<line class="segment U0015716" stroke-linecap="round" style="fill: none; stroke: rgb(0,255,140)" transform="translate(3,3)" x1="114" x2="277" y1="460" y2="460" />
	<path class="segment U0015717" d="M114,460 C114,460 114,460 114,460" stroke-linecap="round" style="fill: none; stroke: rgb(0,153,255)" transform="translate(4,4)" />
	<line class="segment U0015717" stroke-linecap="round" style="fill: none; stroke: rgb(0,153,255)" transform="translate(4,4)" x1="114" x2="277" y1="460" y2="460" />
	<path class="segment RF_001" d="M114,460 C114,460 114,460 114,460" stroke-linecap="round" style="fill: none; stroke: rgb(64,0,255)" transform="translate(5,5)" />
	<line class="segment RF_001" stroke-linecap="round" style="fill: none; stroke: rgb(64,0,255)" transform="translate(5,5)" x1="114" x2="277" y1="460" y2="460" />
	<path class="segment RF_012" d="M114,460 C114,460 114,460 114,460" stroke-linecap="round" style="fill: none; stroke: rgb(255,0,230)" transform="translate(6,6)" />
	<line class="segment RF_012" stroke-linecap="round" style="fill: none; stroke: rgb(255,0,230)" transform="translate(6,6)" x1="114" x2="277" y1="460" y2="460" />
	<path class="segment RF_015" d="M277,460 C277,460 277,368 277,368" stroke-linecap="round" style="fill: none; stroke: rgb(255,0,0)" transform="translate(0,0)" />
	<line class="segment RF_015" stroke-linecap="round" style="fill: none; stroke: rgb(255,0,0)" transform="translate(0,0)" x1="277" x2="355" y1="368" y2="368" />
	<path class="segment RF_003" d="M277,368 C277,368 277,460 277,460" stroke-linecap="round" style="fill: none; stroke: rgb(255,217,0)" transform="translate(1,1)" />
	<line class="segment RF_003" stroke-linecap="round" style="fill: none; stroke: rgb(255,217,0)" transform="translate(1,1)" x1="277" x2="355" y1="460" y2="460" />
	<path class="segment RF_007" d="M277,368 C277,368 277,460 277,460" stroke-linecap="round" style="fill: none; stroke: rgb(77,255,0)" transform="translate(2,2)" />
	<line class="segment RF_007" stroke-linecap="round" style="fill: none; stroke: rgb(77,255,0)" transform="translate(2,2)" x1="277" x2="355" y1="460" y2="460" />
	<path class="segment U0015716" d="M277,460 C277,460 277,460 277,460" stroke-linecap="round" style="fill: none; stroke: rgb(0,255,140)" transform="translate(3,3)" />
	<line class="segment U0015716" stroke-linecap="round" style="fill: none; stroke: rgb(0,255,140)" transform="translate(3,3)" x1="277" x2="355" y1="460" y2="460" />
	<path class="segment U0015717" d="M277,460 C277,460 277,460 277,460" stroke-linecap="round" style="fill: none; stroke: rgb(0,153,255)" transform="translate(4,4)" />
	<line class="segment U0015717" stroke-linecap="round" style="fill: none; stroke: rgb(0,153,255)" transform="translate(4,4)" x1="277" x2="355" y1="460" y2="460" />
	<path class="segment RF_001" d="M277,460 C277,460 277,460 277,460" stroke-linecap="round" style="fill: none; stroke: rgb(64,0,255)" transform="translate(5,5)" />
	<line class="segment RF_001" stroke-linecap="round" style="fill: none; stroke: rgb(64,0,255)" transform="translate(5,5)" x1="277" x2="355" y1="460" y2="460" />
	<path class="segment RF_012" d="M277,460 C277,460 277,460 277,460" stroke-linecap="round" style="fill: none; stroke: rgb(255,0,230)" transform="translate(6,6)" />
	<line class="segment RF_012" stroke-linecap="round" style="fill: none; stroke: rgb(255,0,230)" transform="translate(6,6)" x1="277" x2="355" y1="460" y2="460" />
	<path class="segment RF_015" d="M355,368 C355,368 355,460 355,460" stroke-linecap="round" style="fill: none; stroke: rgb(255,0,0)" transform="translate(0,0)" />
	<line class="segment RF_015" stroke-linecap="round" style="fill: none; stroke: rgb(255,0,0)" transform="translate(0,0)" x1="355" x2="423" y1="460" y2="460" />
	<path class="segment RF_003" d="M355,460 C355,460 355,460 355,460" stroke-linecap="round" style="fill: none; stroke: rgb(255,217,0)" transform="translate(1,1)" />
	<line class="segment RF_003" stroke-linecap="round" style="fill: none; stroke: rgb(255,217,0)" transform="translate(1,1)" x1="355" x2="423" y1="460" y2="460" />
	<path class="segment RF_007" d="M355,460 C355,460 355,460 355,460" stroke-linecap="round" style="fill: none; stroke: rgb(77,255,0)" transform="translate(2,2)" />
	<line class="segment RF_007" stroke-linecap="round" style="fill: none; stroke: rgb(77,255,0)" transform="translate(2,2)" x1="355" x2="423" y1="460" y2="460" />
	<path class="segment U0015716" d="M355,460 C355,460 355,460 355,460" stroke-linecap="round" style="fill: none; stroke: rgb(0,255,140)" transform="translate(3,3)" />
	<line class="segment U0015716" stroke-linecap="round" style="fill: none; stroke: rgb(0,255,140)" transform="translate(3,3)" x1="355" x2="423" y1="460" y2="460" />
	<path class="segment U0015717" d="M355,460 C355,460 355,460 355,460" stroke-linecap="round" style="fill: none; stroke: rgb(0,153,255)" transform="translate(4,4)" />
	<line class="segment U0015717" stroke-linecap="round" style="fill: none; stroke: rgb(0,153,255)" transform="translate(4,4)" x1="355" x2="423" y1="460" y2="460" />
	<path class="segment RF_001" d="M355,460 C355,460 355,460 355,460" stroke-linecap="round" style="fill: none; stroke: rgb(64,0,255)" transform="translate(5,5)" />
	<line class="segment RF_001" stroke-linecap="round" style="fill: none; stroke: rgb(64,0,255)" transform="translate(5,5)" x1="355" x2="423" y1="460" y2="460" />
	<path class="segment RF_012" d="M355,460 C355,460 355,460 355,460" stroke-linecap="round" style="fill: none; stroke: rgb(255,0,230)" transform="translate(6,6)" />
	<line class="segment RF_012" stroke-linecap="round" style="fill: none; stroke: rgb(255,0,230)" transform="translate(6,6)" x1="355" x2="423" y1="460" y2="460" />
	<path class="segment RF_015" d="M423,460 C423,460 423,368 423,368" stroke-linecap="round" style="fill: none; stroke: rgb(255,0,0)" transform="translate(0,0)" />
	<line class="segment RF_015" stroke-linecap="round" style="fill: none; stroke: rgb(255,0,0)" transform="translate(0,0)" x1="423" x2="494" y1="368" y2="368" />
	<path class="segment RF_003" d="M423,460 C423,460 423,460 423,460" stroke-linecap="round" style="fill: none; stroke: rgb(255,217,0)" transform="translate(1,1)" />
	<line class="segment RF_003" stroke-linecap="round" style="fill: none; stroke: rgb(255,217,0)" transform="translate(1,1)" x1="423" x2="494" y1="460" y2="460" />
	<path class="segment RF_007" d="M423,460 C423,460 423,460 423,460" stroke-linecap="round" style="fill: none; stroke: rgb(77,255,0)" transform="translate(2,2)" />
	<line class="segment RF_007" stroke-linecap="round" style="fill: none; stroke: rgb(77,255,0)" transform="translate(2,2)" x1="423" x2="494" y1="460" y2="460" />
	<path class="segment U0015716" d="M423,460 C423,460 423,460 423,460" stroke-linecap="round" style="fill: none; stroke: rgb(0,255,140)" transform="translate(3,3)" />
	<line class="segment U0015716" stroke-linecap="round" style="fill: none; stroke: rgb(0,255,140)" transform="translate(3,3)" x1="423" x2="494" y1="460" y2="460" />
	<path class="segment U0015717" d="M423,460 C423,460 423,460 423,460" stroke-linecap="round" style="fill: none; stroke: rgb(0,153,255)" transform="translate(4,4)" />
	<line class="segment U0015717" stroke-linecap="round" style="fill: none; stroke: rgb(0,153,255)" transform="translate(4,4)" x1="423" x2="494" y1="460" y2="460" />
	<path class="segment RF_001" d="M423,460 C423,460 423,460 423,460" stroke-linecap="round" style="fill: none; stroke: rgb(64,0,255)" transform="translate(5,5)" />
	<line class="segment RF_001" stroke-linecap="round" style="fill: none; stroke: rgb(64,0,255)" transform="translate(5,5)" x1="423" x2="494" y1="460" y2="460" />
	<path class="segment RF_012" d="M423,460 C423,460 423,460 423,460" stroke-linecap="round" style="fill: none; stroke: rgb(255,0,230)" transform="translate(6,6)" />
	<line class="segment RF_012" stroke-linecap="round" style="fill: none; stroke: rgb(255,0,230)" transform="translate(6,6)" x1="423" x2="494" y1="460" y2="460" />
	<path class="segment RF_015" d="M494,368 C494,368 494,437 494,437" stroke-linecap="round" style="fill: none; stroke: rgb(255,0,0)" transform="translate(0,0)" />
	<line class="segment RF_015" stroke-linecap="round" style="fill: none; stroke: rgb(255,0,0)" transform="translate(0,0)" x1="494" x2="554" y1="437" y2="437" />
	<path class="segment RF_003" d="M494,460 C494,460 494,368 494,368" stroke-linecap="round" style="fill: none; stroke: rgb(255,217,0)" transform="translate(1,1)" />
	<line class="segment RF_003" stroke-linecap="round" style="fill: none; stroke: rgb(255,217,0)" transform="translate(1,1)" x1="494" x2="554" y1="368" y2="368" />
	<path class="segment RF_007" d="M494,460 C494,460 494,368 494,368" stroke-linecap="round" style="fill: none; stroke: rgb(77,255,0)" transform="translate(2,2)" />
	<line class="segment RF_007" stroke-linecap="round" style="fill: none; stroke: rgb(77,255,0)" transform="translate(2,2)" x1="494" x2="554" y1="368" y2="368" />
	<path class="segment U0015716" d="M494,460 C494,460 494,460 494,460" stroke-linecap="round" style="fill: none; stroke: rgb(0,255,140)" transform="translate(3,3)" />
	<line class="segment U0015716" stroke-linecap="round" style="fill: none; stroke: rgb(0,255,140)" transform="translate(3,3)" x1="494" x2="554" y1="460" y2="460" />
	<path class="segment U0015717" d="M494,460 C494,460 494,460 494,460" stroke-linecap="round" style="fill: none; stroke: rgb(0,153,255)" transform="translate(4,4)" />
	<line class="segment U0015717" stroke-linecap="round" style="fill: none; stroke: rgb(0,153,255)" transform="translate(4,4)" x1="494" x2="554" y1="460" y2="460" />
	<path class="segment RF_001" d="M494,460 C494,460 494,460 494,460" stroke-linecap="round" style="fill: none; stroke: rgb(64,0,255)" transform="translate(5,5)" />
	<line class="segment RF_001" stroke-linecap="round" style="fill: none; stroke: rgb(64,0,255)" transform="translate(5,5)" x1="494" x2="554" y1="460" y2="460" />
	<path class="segment RF_012" d="M494,460 C494,460 494,460 494,460" stroke-linecap="round" style="fill: none; stroke: rgb(255,0,230)" transform="translate(6,6)" />
	<line class="segment RF_012" stroke-linecap="round" style="fill: none; stroke: rgb(255,0,230)" transform="translate(6,6)" x1="494" x2="554" y1="460" y2="460" />
	<path class="segment RF_015" d="M554,437 C554,437 554,345 554,345" stroke-linecap="round" style="fill: none; stroke: rgb(255,0,0)" transform="translate(0,0)" />
	<line class="segment RF_015" stroke-linecap="round" style="fill: none; stroke: rgb(255,0,0)" transform="translate(0,0)" x1="554" x2="599" y1="345" y2="345" />
	<path class="segment RF_003" d="M554,368 C554,368 554,368 554,368" stroke-linecap="round" style="fill: none; stroke: rgb(255,217,0)" transform="translate(1,1)" />
	<line class="segment RF_003" stroke-linecap="round" style="fill: none; stroke: rgb(255,217,0)" transform="translate(1,1)" x1="554" x2="599" y1="368" y2="368" />
	<path class="segment RF_007" d="M554,368 C554,368 554,368 554,368" stroke-linecap="round" style="fill: none; stroke: rgb(77,255,0)" transform="translate(2,2)" />
	<line class="segment RF_007" stroke-linecap="round" style="fill: none; stroke: rgb(77,255,0)" transform="translate(2,2)" x1="554" x2="599" y1="368" y2="368" />
	<path class="segment U0015716" d="M554,460 C554,460 554,460 554,460" stroke-linecap="round" style="fill: none; stroke: rgb(0,255,140)" transform="translate(3,3)" />
	<line class="segment U0015716" stroke-linecap="round" style="fill: none; stroke: rgb(0,255,140)" transform="translate(3,3)" x1="554" x2="599" y1="460" y2="460" />
	<path class="segment U0015717" d="M554,460 C554,460 554,460 554,460" stroke-linecap="round" style="fill: none; stroke: rgb(0,153,255)" transform="translate(4,4)" />
	<line class="segment U0015717" stroke-linecap="round" style="fill: none; stroke: rgb(0,153,255)" transform="translate(4,4)" x1="554" x2="599" y1="460" y2="460" />
	<path class="segment RF_001" d="M554,460 C554,460 554,460 554,460" stroke-linecap="round" style="fill: none; stroke: rgb(64,0,255)" transform="translate(5,5)" />
	<line class="segment RF_001" stroke-linecap="round" style="fill: none; stroke: rgb(64,0,255)" transform="translate(5,5)" x1="554" x2="599" y1="460" y2="460" />
	<path class="segment RF_012" d="M554,460 C554,460 554,460 554,460" stroke-linecap="round" style="fill: none; stroke: rgb(255,0,230)" transform="translate(6,6)" />
	<line class="segment RF_012" stroke-linecap="round" style="fill: none; stroke: rgb(255,0,230)" transform="translate(6,6)" x1="554" x2="599" y1="460" y2="460" />
	<path class="segment RF_015" d="M599,345 C599,345 599,460 599,460" stroke-linecap="round" style="fill: none; stroke: rgb(255,0,0)" transform="translate(0,0)" />
	<line class="segment RF_015" stroke-linecap="round" style="fill: none; stroke: rgb(255,0,0)" transform="translate(0,0)" x1="599" x2="703" y1="460" y2="460" />
	<path class="segment RF_003" d="M599,368 C599,368 599,414 599,414" stroke-linecap="round" style="fill: none; stroke: rgb(255,217,0)" transform="translate(1,1)" />
	<line class="segment RF_003" stroke-linecap="round" style="fill: none; stroke: rgb(255,217,0)" transform="translate(1,1)" x1="599" x2="703" y1="414" y2="414" />
	<path class="segment RF_007" d="M599,368 C599,368 599,414 599,414" stroke-linecap="round" style="fill: none; stroke: rgb(77,255,0)" transform="translate(2,2)" />
	<line class="segment RF_007" stroke-linecap="round" style="fill: none; stroke: rgb(77,255,0)" transform="translate(2,2)" x1="599" x2="703" y1="414" y2="414" />
	<path class="segment U0015716" d="M599,460 C599,460 599,460 599,460" stroke-linecap="round" style="fill: none; stroke: rgb(0,255,140)" transform="translate(3,3)" />
	<line class="segment U0015716" stroke-linecap="round" style="fill: none; stroke: rgb(0,255,140)" transform="translate(3,3)" x1="599" x2="703" y1="460" y2="460" />
	<path class="segment U0015717" d="M599,460 C599,460 599,460 599,460" stroke-linecap="round" style="fill: none; stroke: rgb(0,153,255)" transform="translate(4,4)" />
	<line class="segment U0015717" stroke-linecap="round" style="fill: none; stroke: rgb(0,153,255)" transform="translate(4,4)" x1="599" x2="703" y1="460" y2="460" />
	<path class="segment RF_001" d="M599,460 C599,460 599,460 599,460" stroke-linecap="round" style="fill: none; stroke: rgb(64,0,255)" transform="translate(5,5)" />
	<line class="segment RF_001" stroke-linecap="round" style="fill: none; stroke: rgb(64,0,255)" transform="translate(5,5)" x1="599" x2="703" y1="460" y2="460" />
	<path class="segment RF_012" d="M599,460 C599,460 599,460 599,460" stroke-linecap="round" style="fill: none; stroke: rgb(255,0,230)" transform="translate(6,6)" />
	<line class="segment RF_012" stroke-linecap="round" style="fill: none; stroke: rgb(255,0,230)" transform="translate(6,6)" x1="599" x2="703" y1="460" y2="460" />
	<path class="segment RF_015" d="M703,460 C703,460 703,391 703,391" stroke-linecap="round" style="fill: none; stroke: rgb(255,0,0)" transform="translate(0,0)" />
	<line class="segment RF_015" stroke-linecap="round" style="fill: none; stroke: rgb(255,0,0)" transform="translate(0,0)" x1="703" x2="800" y1="391" y2="391" />
	<path class="segment RF_003" d="M703,414 C703,414 703,391 703,391" stroke-linecap="round" style="fill: none; stroke: rgb(255,217,0)" transform="translate(1,1)" />
	<line class="segment RF_003" stroke-linecap="round" style="fill: none; stroke: rgb(255,217,0)" transform="translate(1,1)" x1="703" x2="800" y1="391" y2="391" />
	<path class="segment RF_007" d="M703,414 C703,414 703,391 703,391" stroke-linecap="round" style="fill: none; stroke: rgb(77,255,0)" transform="translate(2,2)" />
	<line class="segment RF_007" stroke-linecap="round" style="fill: none; stroke: rgb(77,255,0)" transform="translate(2,2)" x1="703" x2="800" y1="391" y2="391" />
	<path class="segment U0015716" d="M703,460 C703,460 703,391 703,391" stroke-linecap="round" style="fill: none; stroke: rgb(0,255,140)" transform="translate(3,3)" />
	<line class="segment U0015716" stroke-linecap="round" style="fill: none; stroke: rgb(0,255,140)" transform="translate(3,3)" x1="703" x2="800" y1="391" y2="391" />
	<path class="segment U0015717" d="M703,460 C703,460 703,391 703,391" stroke-linecap="round" style="fill: none; stroke: rgb(0,153,255)" transform="translate(4,4)" />
	<line class="segment U0015717" stroke-linecap="round" style="fill: none; stroke: rgb(0,153,255)" transform="translate(4,4)" x1="703" x2="800" y1="391" y2="391" />
	<path class="segment RF_001" d="M703,460 C703,460 703,391 703,391" stroke-linecap="round" style="fill: none; stroke: rgb(64,0,255)" transform="translate(5,5)" />
	<line class="segment RF_001" stroke-linecap="round" style="fill: none; stroke: rgb(64,0,255)" transform="translate(5,5)" x1="703" x2="800" y1="391" y2="391" />
	<path class="segment RF_012" d="M703,460 C703,460 703,391 703,391" stroke-linecap="round" style="fill: none; stroke: rgb(255,0,230)" transform="translate(6,6)" />
	<line class="segment RF_012" stroke-linecap="round" style="fill: none; stroke: rgb(255,0,230)" transform="translate(6,6)" x1="703" x2="800" y1="391" y2="391" />
	<polygon class="arrow" points="354,337.5 354,332.5 436,332.5 436,330 446,335 436,340 436,337.5 354,337.5 " style="fill: white; stroke: black" />
	<!-- 
	Generated using the Perl SVG Module V2.59
	by Ronan Oger
	Info: http://www.roitsystems.com/
 -->
</svg>