<?xml version="1.0" encoding="UTF-8" standalone="yes"?>
<!DOCTYPE svg PUBLIC "-//W3C//DTD SVG 1.0//EN" "http://www.w3.org/TR/2001/REC-SVG-20010904/DTD/svg10.dtd">
<svg height="600" width="800" xmlns="http://www.w3.org/2000/svg" xmlns:svg="http://www.w3.org/2000/svg" xmlns:xlink="http://www.w3.org/1999/xlink">
	<line class="breakpoint" style="fill: white; stroke: black; stroke-width: 0.1" x1="434" x2="434" y1="100" y2="300" />
	<text class="breakpoint" style="font: 10px Verdana" transform="rotate(-90,4,90)" x="4" y="90">42,935,332</text>
	<line class="breakpoint" style="fill: white; stroke: black; stroke-width: 0.1" x1="800" x2="800" y1="100" y2="300" />
	<text class="breakpoint" style="font: 10px Verdana" transform="rotate(-90,438,90)" x="438" y="90">42,947,114</text>
	<polyline class="scale" points="0,294 0,306 0,300 4,300 4,298 4,302 4,300 7,300 7,298 7,302 7,300 11,300 11,298 11,302 11,300 15,300 15,298 15,302 15,300 18,300 18,298 18,302 18,300 22,300 22,298 22,302 22,300 26,300 26,298 26,302 26,300 29,300 29,298 29,302 29,300 33,300 33,298 33,302 33,300 37,300 37,294 37,306 37,300 40,300 40,298 40,302 40,300 44,300 44,298 44,302 44,300 48,300 48,298 48,302 48,300 52,300 52,298 52,302 52,300 55,300 55,298 55,302 55,300 59,300 59,298 59,302 59,300 63,300 63,298 63,302 63,300 66,300 66,298 66,302 66,300 70,300 70,298 70,302 70,300 74,300 74,294 74,306 74,300 77,300 77,298 77,302 77,300 81,300 81,298 81,302 81,300 85,300 85,298 85,302 85,300 88,300 88,298 88,302 88,300 92,300 92,298 92,302 92,300 96,300 96,298 96,302 96,300 99,300 99,298 99,302 99,300 103,300 103,298 103,302 103,300 107,300 107,298 107,302 107,300 110,300 110,294 110,306 110,300 114,300 114,298 114,302 114,300 118,300 118,298 118,302 118,300 121,300 121,298 121,302 121,300 125,300 125,298 125,302 125,300 129,300 129,298 129,302 129,300 133,300 133,298 133,302 133,300 136,300 136,298 136,302 136,300 140,300 140,298 140,302 140,300 144,300 144,298 144,302 144,300 147,300 147,294 147,306 147,300 151,300 151,298 151,302 151,300 155,300 155,298 155,302 155,300 158,300 158,298 158,302 158,300 162,300 162,298 162,302 162,300 166,300 166,298 166,302 166,300 169,300 169,298 169,302 169,300 173,300 173,298 173,302 173,300 177,300 177,298 177,302 177,300 180,300 180,298 180,302 180,300 184,300 184,294 184,306 184,300 188,300 188,298 188,302 188,300 191,300 191,298 191,302 191,300 195,300 195,298 195,302 195,300 199,300 199,298 199,302 199,300 202,300 202,298 202,302 202,300 206,300 206,298 206,302 206,300 210,300 210,298 210,302 210,300 213,300 213,298 213,302 213,300 217,300 217,298 217,302 217,300 221,300 221,294 221,306 221,300 225,300 225,298 225,302 225,300 228,300 228,298 228,302 228,300 232,300 232,298 232,302 232,300 236,300 236,298 236,302 236,300 239,300 239,298 239,302 239,300 243,300 243,298 243,302 243,300 247,300 247,298 247,302 247,300 250,300 250,298 250,302 250,300 254,300 254,298 254,302 254,300 258,300 258,294 258,306 258,300 261,300 261,298 261,302 261,300 265,300 265,298 265,302 265,300 269,300 269,298 269,302 269,300 272,300 272,298 272,302 272,300 276,300 276,298 276,302 276,300 280,300 280,298 280,302 280,300 283,300 283,298 283,302 283,300 287,300 287,298 287,302 287,300 291,300 291,298 291,302 291,300 294,300 294,294 294,306 294,300 298,300 298,298 298,302 298,300 302,300 302,298 302,302 302,300 306,300 306,298 306,302 306,300 309,300 309,298 309,302 309,300 313,300 313,298 313,302 313,300 317,300 317,298 317,302 317,300 320,300 320,298 320,302 320,300 324,300 324,298 324,302 324,300 328,300 328,298 328,302 328,300 331,300 331,294 331,306 331,300 335,300 335,298 335,302 335,300 339,300 339,298 339,302 339,300 342,300 342,298 342,302 342,300 346,300 346,298 346,302 346,300 350,300 350,298 350,302 350,300 353,300 353,298 353,302 353,300 357,300 357,298 357,302 357,300 361,300 361,298 361,302 361,300 364,300 364,298 364,302 364,300 368,300 368,294 368,306 368,300 372,300 372,298 372,302 372,300 375,300 375,298 375,302 375,300 379,300 379,298 379,302 379,300 383,300 383,298 383,302 383,300 386,300 386,298 386,302 386,300 390,300 390,298 390,302 390,300 394,300 394,298 394,302 394,300 398,300 398,298 398,302 398,300 401,300 401,298 401,302 401,300 405,300 405,294 405,306 405,300 409,300 409,298 409,302 409,300 412,300 412,298 412,302 412,300 416,300 416,298 416,302 416,300 420,300 420,298 420,302 420,300 423,300 423,298 423,302 423,300 427,300 427,298 427,302 427,300 431,300 431,298 431,302 431,300 434,300 434,298 434,302 434,300 438,300 438,298 438,302 438,300 442,300 442,294 442,306 442,300 445,300 445,298 445,302 445,300 449,300 449,298 449,302 449,300 453,300 453,298 453,302 453,300 456,300 456,298 456,302 456,300 460,300 460,298 460,302 460,300 464,300 464,298 464,302 464,300 467,300 467,298 467,302 467,300 471,300 471,298 471,302 471,300 475,300 475,298 475,302 475,300 479,300 479,294 479,306 479,300 482,300 482,298 482,302 482,300 486,300 486,298 486,302 486,300 490,300 490,298 490,302 490,300 493,300 493,298 493,302 493,300 497,300 497,298 497,302 497,300 501,300 501,298 501,302 501,300 504,300 504,298 504,302 504,300 508,300 508,298 508,302 508,300 512,300 512,298 512,302 512,300 515,300 515,294 515,306 515,300 519,300 519,298 519,302 519,300 523,300 523,298 523,302 523,300 526,300 526,298 526,302 526,300 530,300 530,298 530,302 530,300 534,300 534,298 534,302 534,300 537,300 537,298 537,302 537,300 541,300 541,298 541,302 541,300 545,300 545,298 545,302 545,300 548,300 548,298 548,302 548,300 552,300 552,294 552,306 552,300 556,300 556,298 556,302 556,300 559,300 559,298 559,302 559,300 563,300 563,298 563,302 563,300 567,300 567,298 567,302 567,300 571,300 571,298 571,302 571,300 574,300 574,298 574,302 574,300 578,300 578,298 578,302 578,300 582,300 582,298 582,302 582,300 585,300 585,298 585,302 585,300 589,300 589,294 589,306 589,300 593,300 593,298 593,302 593,300 596,300 596,298 596,302 596,300 600,300 600,298 600,302 600,300 604,300 604,298 604,302 604,300 607,300 607,298 607,302 607,300 611,300 611,298 611,302 611,300 615,300 615,298 615,302 615,300 618,300 618,298 618,302 618,300 622,300 622,298 622,302 622,300 626,300 626,294 626,306 626,300 629,300 629,298 629,302 629,300 633,300 633,298 633,302 633,300 637,300 637,298 637,302 637,300 640,300 640,298 640,302 640,300 644,300 644,298 644,302 644,300 648,300 648,298 648,302 648,300 652,300 652,298 652,302 652,300 655,300 655,298 655,302 655,300 659,300 659,298 659,302 659,300 663,300 663,294 663,306 663,300 666,300 666,298 666,302 666,300 670,300 670,298 670,302 670,300 674,300 674,298 674,302 674,300 677,300 677,298 677,302 677,300 681,300 681,298 681,302 681,300 685,300 685,298 685,302 685,300 688,300 688,298 688,302 688,300 692,300 692,298 692,302 692,300 696,300 696,298 696,302 696,300 699,300 699,294 699,306 699,300 703,300 703,298 703,302 703,300 707,300 707,298 707,302 707,300 710,300 710,298 710,302 710,300 714,300 714,298 714,302 714,300 718,300 718,298 718,302 718,300 721,300 721,298 721,302 721,300 725,300 725,298 725,302 725,300 729,300 729,298 729,302 729,300 732,300 732,298 732,302 732,300 736,300 736,294 736,306 736,300 740,300 740,298 740,302 740,300 744,300 744,298 744,302 744,300 747,300 747,298 747,302 747,300 751,300 751,298 751,302 751,300 755,300 755,298 755,302 755,300 758,300 758,298 758,302 758,300 762,300 762,298 762,302 762,300 766,300 766,298 766,302 766,300 769,300 769,298 769,302 769,300 773,300 773,294 773,306 773,300 777,300 777,298 777,302 777,300 780,300 780,298 780,302 780,300 784,300 784,298 784,302 784,300 788,300 788,298 788,302 788,300 791,300 791,298 791,302 791,300 795,300 795,298 795,302 795,300 799,300 799,298 799,302 799,300 800,300 " style="fill: none; stroke: black; stroke-width: 0.1" />
	<rect class="exon" height="50" style="fill: white; stroke: black" width="25" x="369" y="275" />
	<text class="exon" style="font: 10px Verdana" transform="rotate(-90,373,265)" x="373" y="265">42,945,353 .. 42,946,047</text>
	<line class="intron" style="fill: white; stroke: black" x1="394" x2="415" y1="300" y2="300" />
	<rect class="exon" height="50" style="fill: white; stroke: black" width="5" x="415" y="275" />
	<text class="exon" style="font: 10px Verdana" transform="rotate(-90,419,265)" x="419" y="265">42,946,595 .. 42,946,738</text>
	<line class="breakpoint" style="fill: white; stroke: black; stroke-width: 0.1" x1="434" x2="434" y1="100" y2="300" />
	<text class="breakpoint" style="font: 10px Verdana" transform="rotate(-90,4,90)" x="4" y="90">42,935,332</text>
	<line class="breakpoint" style="fill: white; stroke: black; stroke-width: 0.1" x1="800" x2="800" y1="100" y2="300" />
	<text class="breakpoint" style="font: 10px Verdana" transform="rotate(-90,438,90)" x="438" y="90">42,947,114</text>
	<line style="fill: none; stroke: gray; stroke-width: 0.1" x1="0" x2="800" y1="345" y2="345" />
	<text class="crossover RF_047" style="font: 10px Verdana" x="4" y="339">S. pimpinellifolium</text>
	<line style="fill: none; stroke: gray; stroke-width: 0.1" x1="0" x2="800" y1="413" y2="413" />
	<text class="crossover ITAG2_3" style="font: 10px Verdana" x="4" y="407">S. l. Heinz 1706</text>
	<line style="fill: none; stroke: rgb(255,0,0)" x1="5" x2="10" y1="480" y2="480" />
	<text class="crossover" style="font: 10px Verdana" x="15" y="485">S. l. var Momatero</text>
	<line style="fill: none; stroke: rgb(255,217,0)" x1="5" x2="10" y1="495" y2="495" />
	<text class="crossover" style="font: 10px Verdana" x="15" y="500">S. l. var Gardener&apos;s Delight	</text>
	<line style="fill: none; stroke: rgb(77,255,0)" x1="5" x2="10" y1="510" y2="510" />
	<text class="crossover" style="font: 10px Verdana" x="15" y="515">S. l. var Katinka Cherry</text>
	<line style="fill: none; stroke: rgb(0,255,140)" x1="5" x2="10" y1="525" y2="525" />
	<text class="crossover" style="font: 10px Verdana" x="15" y="530">S. l. (1891)</text>
	<line style="fill: none; stroke: rgb(0,153,255)" x1="5" x2="10" y1="540" y2="540" />
	<text class="crossover" style="font: 10px Verdana" x="15" y="545">S. l. (1830)</text>
	<line style="fill: none; stroke: rgb(64,0,255)" x1="5" x2="10" y1="555" y2="555" />
	<text class="crossover" style="font: 10px Verdana" x="15" y="560">S. l. var Moneymaker</text>
	<line style="fill: none; stroke: rgb(255,0,230)" x1="5" x2="10" y1="570" y2="570" />
	<text class="crossover" style="font: 10px Verdana" x="15" y="575">S. l. var Sonato</text>
	<line class="segment RF_015" stroke-linecap="round" style="fill: none; stroke: rgb(255,0,0)" transform="translate(0,0)" x1="0" x2="434" y1="413" y2="413" />
	<line class="segment RF_003" stroke-linecap="round" style="fill: none; stroke: rgb(255,217,0)" transform="translate(1,1)" x1="0" x2="434" y1="413" y2="413" />
	<line class="segment RF_007" stroke-linecap="round" style="fill: none; stroke: rgb(77,255,0)" transform="translate(2,2)" x1="0" x2="434" y1="345" y2="345" />
	<line class="segment U0015716" stroke-linecap="round" style="fill: none; stroke: rgb(0,255,140)" transform="translate(3,3)" x1="0" x2="434" y1="413" y2="413" />
	<line class="segment U0015717" stroke-linecap="round" style="fill: none; stroke: rgb(0,153,255)" transform="translate(4,4)" x1="0" x2="434" y1="413" y2="413" />
	<line class="segment RF_001" stroke-linecap="round" style="fill: none; stroke: rgb(64,0,255)" transform="translate(5,5)" x1="0" x2="434" y1="413" y2="413" />
	<line class="segment RF_012" stroke-linecap="round" style="fill: none; stroke: rgb(255,0,230)" transform="translate(6,6)" x1="0" x2="434" y1="413" y2="413" />
	<path class="segment RF_015" d="M434,413 C434,413 434,413 434,413" stroke-linecap="round" style="fill: none; stroke: rgb(255,0,0)" transform="translate(0,0)" />
	<line class="segment RF_015" stroke-linecap="round" style="fill: none; stroke: rgb(255,0,0)" transform="translate(0,0)" x1="434" x2="800" y1="413" y2="413" />
	<path class="segment RF_003" d="M434,413 C434,413 434,413 434,413" stroke-linecap="round" style="fill: none; stroke: rgb(255,217,0)" transform="translate(1,1)" />
	<line class="segment RF_003" stroke-linecap="round" style="fill: none; stroke: rgb(255,217,0)" transform="translate(1,1)" x1="434" x2="800" y1="413" y2="413" />
	<path class="segment RF_007" d="M434,345 C434,345 434,413 434,413" stroke-linecap="round" style="fill: none; stroke: rgb(77,255,0)" transform="translate(2,2)" />
	<line class="segment RF_007" stroke-linecap="round" style="fill: none; stroke: rgb(77,255,0)" transform="translate(2,2)" x1="434" x2="800" y1="413" y2="413" />
	<path class="segment U0015716" d="M434,413 C434,413 434,413 434,413" stroke-linecap="round" style="fill: none; stroke: rgb(0,255,140)" transform="translate(3,3)" />
	<line class="segment U0015716" stroke-linecap="round" style="fill: none; stroke: rgb(0,255,140)" transform="translate(3,3)" x1="434" x2="800" y1="413" y2="413" />
	<path class="segment U0015717" d="M434,413 C434,413 434,413 434,413" stroke-linecap="round" style="fill: none; stroke: rgb(0,153,255)" transform="translate(4,4)" />
	<line class="segment U0015717" stroke-linecap="round" style="fill: none; stroke: rgb(0,153,255)" transform="translate(4,4)" x1="434" x2="800" y1="413" y2="413" />
	<path class="segment RF_001" d="M434,413 C434,413 434,413 434,413" stroke-linecap="round" style="fill: none; stroke: rgb(64,0,255)" transform="translate(5,5)" />
	<line class="segment RF_001" stroke-linecap="round" style="fill: none; stroke: rgb(64,0,255)" transform="translate(5,5)" x1="434" x2="800" y1="413" y2="413" />
	<path class="segment RF_012" d="M434,413 C434,413 434,413 434,413" stroke-linecap="round" style="fill: none; stroke: rgb(255,0,230)" transform="translate(6,6)" />
	<line class="segment RF_012" stroke-linecap="round" style="fill: none; stroke: rgb(255,0,230)" transform="translate(6,6)" x1="434" x2="800" y1="413" y2="413" />
	<polygon class="arrow" points="368,337.5 368,332.5 422,332.5 422,330 432,335 422,340 422,337.5 368,337.5 " style="fill: white; stroke: black" />
	<rect class="five_prime_UTR" height="50" style="fill: silver; stroke: black" width="1" x="368" y="275" />
	<text class="five_prime_UTR" style="font: 10px Verdana" transform="rotate(-90,372,265)" x="372" y="265">42,945,331 .. 42,945,353</text>
	<rect class="three_prime_UTR" height="50" style="fill: silver; stroke: black" width="12" x="420" y="275" />
	<text class="three_prime_UTR" style="font: 10px Verdana" transform="rotate(-90,424,265)" x="424" y="265">42,946,738 .. 42,947,065</text>
	<!-- 
	Generated using the Perl SVG Module V2.59
	by Ronan Oger
	Info: http://www.roitsystems.com/
 -->
</svg>