<?xml version="1.0" encoding="UTF-8" standalone="yes"?>
<!DOCTYPE svg PUBLIC "-//W3C//DTD SVG 1.0//EN" "http://www.w3.org/TR/2001/REC-SVG-20010904/DTD/svg10.dtd">
<svg height="600" width="800" xmlns="http://www.w3.org/2000/svg" xmlns:svg="http://www.w3.org/2000/svg" xmlns:xlink="http://www.w3.org/1999/xlink">
	<line class="breakpoint" style="fill: white; stroke: black; stroke-width: 0.1" x1="505" x2="505" y1="100" y2="300" />
	<text class="breakpoint" style="font: 10px Verdana" transform="rotate(-90,4,90)" x="4" y="90">3,470,546</text>
	<line class="breakpoint" style="fill: white; stroke: black; stroke-width: 0.1" x1="526" x2="526" y1="100" y2="300" />
	<text class="breakpoint" style="font: 10px Verdana" transform="rotate(-90,509,90)" x="509" y="90">3,485,454</text>
	<line class="breakpoint" style="fill: white; stroke: black; stroke-width: 0.1" x1="594" x2="594" y1="100" y2="300" />
	<text class="breakpoint" style="font: 10px Verdana" transform="rotate(-90,530,90)" x="530" y="90">3,486,078</text>
	<line class="breakpoint" style="fill: white; stroke: black; stroke-width: 0.1" x1="608" x2="608" y1="100" y2="300" />
	<text class="breakpoint" style="font: 10px Verdana" transform="rotate(-90,598,90)" x="598" y="90">3,488,091</text>
	<line class="breakpoint" style="fill: white; stroke: black; stroke-width: 0.1" x1="671" x2="671" y1="100" y2="300" />
	<text class="breakpoint" style="font: 10px Verdana" transform="rotate(-90,612,90)" x="612" y="90">3,488,495</text>
	<line class="breakpoint" style="fill: white; stroke: black; stroke-width: 0.1" x1="800" x2="800" y1="100" y2="300" />
	<text class="breakpoint" style="font: 10px Verdana" transform="rotate(-90,675,90)" x="675" y="90">3,490,350</text>
	<polyline class="scale" points="0,294 0,306 0,300 3,300 3,298 3,302 3,300 7,300 7,298 7,302 7,300 10,300 10,298 10,302 10,300 14,300 14,298 14,302 14,300 17,300 17,298 17,302 17,300 20,300 20,298 20,302 20,300 24,300 24,298 24,302 24,300 27,300 27,298 27,302 27,300 30,300 30,298 30,302 30,300 34,300 34,294 34,306 34,300 37,300 37,298 37,302 37,300 41,300 41,298 41,302 41,300 44,300 44,298 44,302 44,300 47,300 47,298 47,302 47,300 51,300 51,298 51,302 51,300 54,300 54,298 54,302 54,300 58,300 58,298 58,302 58,300 61,300 61,298 61,302 61,300 64,300 64,298 64,302 64,300 68,300 68,294 68,306 68,300 71,300 71,298 71,302 71,300 75,300 75,298 75,302 75,300 78,300 78,298 78,302 78,300 81,300 81,298 81,302 81,300 85,300 85,298 85,302 85,300 88,300 88,298 88,302 88,300 91,300 91,298 91,302 91,300 95,300 95,298 95,302 95,300 98,300 98,298 98,302 98,300 102,300 102,294 102,306 102,300 105,300 105,298 105,302 105,300 108,300 108,298 108,302 108,300 112,300 112,298 112,302 112,300 115,300 115,298 115,302 115,300 119,300 119,298 119,302 119,300 122,300 122,298 122,302 122,300 125,300 125,298 125,302 125,300 129,300 129,298 129,302 129,300 132,300 132,298 132,302 132,300 136,300 136,294 136,306 136,300 139,300 139,298 139,302 139,300 142,300 142,298 142,302 142,300 146,300 146,298 146,302 146,300 149,300 149,298 149,302 149,300 152,300 152,298 152,302 152,300 156,300 156,298 156,302 156,300 159,300 159,298 159,302 159,300 163,300 163,298 163,302 163,300 166,300 166,298 166,302 166,300 169,300 169,294 169,306 169,300 173,300 173,298 173,302 173,300 176,300 176,298 176,302 176,300 180,300 180,298 180,302 180,300 183,300 183,298 183,302 183,300 186,300 186,298 186,302 186,300 190,300 190,298 190,302 190,300 193,300 193,298 193,302 193,300 196,300 196,298 196,302 196,300 200,300 200,298 200,302 200,300 203,300 203,294 203,306 203,300 207,300 207,298 207,302 207,300 210,300 210,298 210,302 210,300 213,300 213,298 213,302 213,300 217,300 217,298 217,302 217,300 220,300 220,298 220,302 220,300 224,300 224,298 224,302 224,300 227,300 227,298 227,302 227,300 230,300 230,298 230,302 230,300 234,300 234,298 234,302 234,300 237,300 237,294 237,306 237,300 241,300 241,298 241,302 241,300 244,300 244,298 244,302 244,300 247,300 247,298 247,302 247,300 251,300 251,298 251,302 251,300 254,300 254,298 254,302 254,300 257,300 257,298 257,302 257,300 261,300 261,298 261,302 261,300 264,300 264,298 264,302 264,300 268,300 268,298 268,302 268,300 271,300 271,294 271,306 271,300 274,300 274,298 274,302 274,300 278,300 278,298 278,302 278,300 281,300 281,298 281,302 281,300 285,300 285,298 285,302 285,300 288,300 288,298 288,302 288,300 291,300 291,298 291,302 291,300 295,300 295,298 295,302 295,300 298,300 298,298 298,302 298,300 302,300 302,298 302,302 302,300 305,300 305,294 305,306 305,300 308,300 308,298 308,302 308,300 312,300 312,298 312,302 312,300 315,300 315,298 315,302 315,300 318,300 318,298 318,302 318,300 322,300 322,298 322,302 322,300 325,300 325,298 325,302 325,300 329,300 329,298 329,302 329,300 332,300 332,298 332,302 332,300 335,300 335,298 335,302 335,300 339,300 339,294 339,306 339,300 342,300 342,298 342,302 342,300 346,300 346,298 346,302 346,300 349,300 349,298 349,302 349,300 352,300 352,298 352,302 352,300 356,300 356,298 356,302 356,300 359,300 359,298 359,302 359,300 362,300 362,298 362,302 362,300 366,300 366,298 366,302 366,300 369,300 369,298 369,302 369,300 373,300 373,294 373,306 373,300 376,300 376,298 376,302 376,300 379,300 379,298 379,302 379,300 383,300 383,298 383,302 383,300 386,300 386,298 386,302 386,300 390,300 390,298 390,302 390,300 393,300 393,298 393,302 393,300 396,300 396,298 396,302 396,300 400,300 400,298 400,302 400,300 403,300 403,298 403,302 403,300 407,300 407,294 407,306 407,300 410,300 410,298 410,302 410,300 413,300 413,298 413,302 413,300 417,300 417,298 417,302 417,300 420,300 420,298 420,302 420,300 423,300 423,298 423,302 423,300 427,300 427,298 427,302 427,300 430,300 430,298 430,302 430,300 434,300 434,298 434,302 434,300 437,300 437,298 437,302 437,300 440,300 440,294 440,306 440,300 444,300 444,298 444,302 444,300 447,300 447,298 447,302 447,300 451,300 451,298 451,302 451,300 454,300 454,298 454,302 454,300 457,300 457,298 457,302 457,300 461,300 461,298 461,302 461,300 464,300 464,298 464,302 464,300 468,300 468,298 468,302 468,300 471,300 471,298 471,302 471,300 474,300 474,294 474,306 474,300 478,300 478,298 478,302 478,300 481,300 481,298 481,302 481,300 484,300 484,298 484,302 484,300 488,300 488,298 488,302 488,300 491,300 491,298 491,302 491,300 495,300 495,298 495,302 495,300 498,300 498,298 498,302 498,300 501,300 501,298 501,302 501,300 505,300 505,298 505,302 505,300 508,300 508,294 508,306 508,300 512,300 512,298 512,302 512,300 515,300 515,298 515,302 515,300 518,300 518,298 518,302 518,300 522,300 522,298 522,302 522,300 525,300 525,298 525,302 525,300 529,300 529,298 529,302 529,300 532,300 532,298 532,302 532,300 535,300 535,298 535,302 535,300 539,300 539,298 539,302 539,300 542,300 542,294 542,306 542,300 545,300 545,298 545,302 545,300 549,300 549,298 549,302 549,300 552,300 552,298 552,302 552,300 556,300 556,298 556,302 556,300 559,300 559,298 559,302 559,300 562,300 562,298 562,302 562,300 566,300 566,298 566,302 566,300 569,300 569,298 569,302 569,300 573,300 573,298 573,302 573,300 576,300 576,294 576,306 576,300 579,300 579,298 579,302 579,300 583,300 583,298 583,302 583,300 586,300 586,298 586,302 586,300 589,300 589,298 589,302 589,300 593,300 593,298 593,302 593,300 596,300 596,298 596,302 596,300 600,300 600,298 600,302 600,300 603,300 603,298 603,302 603,300 606,300 606,298 606,302 606,300 610,300 610,294 610,306 610,300 613,300 613,298 613,302 613,300 617,300 617,298 617,302 617,300 620,300 620,298 620,302 620,300 623,300 623,298 623,302 623,300 627,300 627,298 627,302 627,300 630,300 630,298 630,302 630,300 634,300 634,298 634,302 634,300 637,300 637,298 637,302 637,300 640,300 640,298 640,302 640,300 644,300 644,294 644,306 644,300 647,300 647,298 647,302 647,300 650,300 650,298 650,302 650,300 654,300 654,298 654,302 654,300 657,300 657,298 657,302 657,300 661,300 661,298 661,302 661,300 664,300 664,298 664,302 664,300 667,300 667,298 667,302 667,300 671,300 671,298 671,302 671,300 674,300 674,298 674,302 674,300 678,300 678,294 678,306 678,300 681,300 681,298 681,302 681,300 684,300 684,298 684,302 684,300 688,300 688,298 688,302 688,300 691,300 691,298 691,302 691,300 695,300 695,298 695,302 695,300 698,300 698,298 698,302 698,300 701,300 701,298 701,302 701,300 705,300 705,298 705,302 705,300 708,300 708,298 708,302 708,300 711,300 711,294 711,306 711,300 715,300 715,298 715,302 715,300 718,300 718,298 718,302 718,300 722,300 722,298 722,302 722,300 725,300 725,298 725,302 725,300 728,300 728,298 728,302 728,300 732,300 732,298 732,302 732,300 735,300 735,298 735,302 735,300 739,300 739,298 739,302 739,300 742,300 742,298 742,302 742,300 745,300 745,294 745,306 745,300 749,300 749,298 749,302 749,300 752,300 752,298 752,302 752,300 755,300 755,298 755,302 755,300 759,300 759,298 759,302 759,300 762,300 762,298 762,302 762,300 766,300 766,298 766,302 766,300 769,300 769,298 769,302 769,300 772,300 772,298 772,302 772,300 776,300 776,298 776,302 776,300 779,300 779,294 779,306 779,300 783,300 783,298 783,302 783,300 786,300 786,298 786,302 786,300 789,300 789,298 789,302 789,300 793,300 793,298 793,302 793,300 796,300 796,298 796,302 796,300 800,300 800,298 800,302 800,300 800,300 " style="fill: none; stroke: black; stroke-width: 0.1" />
	<rect class="exon" height="50" style="fill: white; stroke: black" width="7" x="342" y="275" />
	<text class="exon" style="font: 10px Verdana" transform="rotate(-90,346,265)" x="346" y="265">3,480,654 .. 3,480,853</text>
	<line class="intron" style="fill: white; stroke: black" x1="349" x2="358" y1="300" y2="300" />
	<rect class="exon" height="50" style="fill: white; stroke: black" width="1" x="358" y="275" />
	<text class="exon" style="font: 10px Verdana" transform="rotate(-90,362,265)" x="362" y="265">3,481,110 .. 3,481,118</text>
	<line class="intron" style="fill: white; stroke: black" x1="358" x2="369" y1="300" y2="300" />
	<rect class="exon" height="50" style="fill: white; stroke: black" width="35" x="369" y="275" />
	<text class="exon" style="font: 10px Verdana" transform="rotate(-90,373,265)" x="373" y="265">3,481,452 .. 3,482,470</text>
	<line class="intron" style="fill: white; stroke: black" x1="404" x2="429" y1="300" y2="300" />
	<rect class="exon" height="50" style="fill: white; stroke: black" width="8" x="429" y="275" />
	<text class="exon" style="font: 10px Verdana" transform="rotate(-90,433,265)" x="433" y="265">3,483,199 .. 3,483,443</text>
	<line class="intron" style="fill: white; stroke: black" x1="437" x2="440" y1="300" y2="300" />
	<rect class="exon" height="50" style="fill: white; stroke: black" width="4" x="440" y="275" />
	<text class="exon" style="font: 10px Verdana" transform="rotate(-90,444,265)" x="444" y="265">3,483,542 .. 3,483,638</text>
	<line class="intron" style="fill: white; stroke: black" x1="444" x2="446" y1="300" y2="300" />
	<rect class="exon" height="50" style="fill: white; stroke: black" width="6" x="446" y="275" />
	<text class="exon" style="font: 10px Verdana" transform="rotate(-90,450,265)" x="450" y="265">3,483,714 .. 3,483,897</text>
	<line class="breakpoint" style="fill: white; stroke: black; stroke-width: 0.1" x1="505" x2="505" y1="100" y2="300" />
	<text class="breakpoint" style="font: 10px Verdana" transform="rotate(-90,4,90)" x="4" y="90">3,470,546</text>
	<line class="breakpoint" style="fill: white; stroke: black; stroke-width: 0.1" x1="526" x2="526" y1="100" y2="300" />
	<text class="breakpoint" style="font: 10px Verdana" transform="rotate(-90,509,90)" x="509" y="90">3,485,454</text>
	<line class="breakpoint" style="fill: white; stroke: black; stroke-width: 0.1" x1="594" x2="594" y1="100" y2="300" />
	<text class="breakpoint" style="font: 10px Verdana" transform="rotate(-90,530,90)" x="530" y="90">3,486,078</text>
	<line class="breakpoint" style="fill: white; stroke: black; stroke-width: 0.1" x1="608" x2="608" y1="100" y2="300" />
	<text class="breakpoint" style="font: 10px Verdana" transform="rotate(-90,598,90)" x="598" y="90">3,488,091</text>
	<line class="breakpoint" style="fill: white; stroke: black; stroke-width: 0.1" x1="671" x2="671" y1="100" y2="300" />
	<text class="breakpoint" style="font: 10px Verdana" transform="rotate(-90,612,90)" x="612" y="90">3,488,495</text>
	<line class="breakpoint" style="fill: white; stroke: black; stroke-width: 0.1" x1="800" x2="800" y1="100" y2="300" />
	<text class="breakpoint" style="font: 10px Verdana" transform="rotate(-90,675,90)" x="675" y="90">3,490,350</text>
	<line style="fill: none; stroke: gray; stroke-width: 0.1" x1="0" x2="800" y1="345" y2="345" />
	<text class="crossover RF_047" style="font: 10px Verdana" x="4" y="339">S. pimpinellifolium</text>
	<line style="fill: none; stroke: gray; stroke-width: 0.1" x1="0" x2="800" y1="390" y2="390" />
	<text class="crossover RF_051" style="font: 10px Verdana" x="4" y="384">S. chiemliewskii</text>
	<line style="fill: none; stroke: gray; stroke-width: 0.1" x1="0" x2="800" y1="435" y2="435" />
	<text class="crossover ITAG2_3" style="font: 10px Verdana" x="4" y="429">S. l. Heinz 1706</text>
	<line style="fill: none; stroke: rgb(255,0,0)" x1="5" x2="10" y1="480" y2="480" />
	<text class="crossover" style="font: 10px Verdana" x="15" y="485">S. l. var Momatero</text>
	<line style="fill: none; stroke: rgb(255,217,0)" x1="5" x2="10" y1="495" y2="495" />
	<text class="crossover" style="font: 10px Verdana" x="15" y="500">S. l. var Gardener&apos;s Delight	</text>
	<line style="fill: none; stroke: rgb(77,255,0)" x1="5" x2="10" y1="510" y2="510" />
	<text class="crossover" style="font: 10px Verdana" x="15" y="515">S. l. var Katinka Cherry</text>
	<line style="fill: none; stroke: rgb(0,255,140)" x1="5" x2="10" y1="525" y2="525" />
	<text class="crossover" style="font: 10px Verdana" x="15" y="530">S. l. (1891)</text>
	<line style="fill: none; stroke: rgb(0,153,255)" x1="5" x2="10" y1="540" y2="540" />
	<text class="crossover" style="font: 10px Verdana" x="15" y="545">S. l. (1830)</text>
	<line style="fill: none; stroke: rgb(64,0,255)" x1="5" x2="10" y1="555" y2="555" />
	<text class="crossover" style="font: 10px Verdana" x="15" y="560">S. l. var Moneymaker</text>
	<line style="fill: none; stroke: rgb(255,0,230)" x1="5" x2="10" y1="570" y2="570" />
	<text class="crossover" style="font: 10px Verdana" x="15" y="575">S. l. var Sonato</text>
	<line class="segment RF_015" stroke-linecap="round" style="fill: none; stroke: rgb(255,0,0)" transform="translate(0,0)" x1="0" x2="505" y1="435" y2="435" />
	<line class="segment RF_003" stroke-linecap="round" style="fill: none; stroke: rgb(255,217,0)" transform="translate(1,1)" x1="0" x2="505" y1="435" y2="435" />
	<line class="segment RF_007" stroke-linecap="round" style="fill: none; stroke: rgb(77,255,0)" transform="translate(2,2)" x1="0" x2="505" y1="345" y2="345" />
	<line class="segment U0015716" stroke-linecap="round" style="fill: none; stroke: rgb(0,255,140)" transform="translate(3,3)" x1="0" x2="505" y1="435" y2="435" />
	<line class="segment U0015717" stroke-linecap="round" style="fill: none; stroke: rgb(0,153,255)" transform="translate(4,4)" x1="0" x2="505" y1="435" y2="435" />
	<line class="segment RF_001" stroke-linecap="round" style="fill: none; stroke: rgb(64,0,255)" transform="translate(5,5)" x1="0" x2="505" y1="435" y2="435" />
	<line class="segment RF_012" stroke-linecap="round" style="fill: none; stroke: rgb(255,0,230)" transform="translate(6,6)" x1="0" x2="505" y1="435" y2="435" />
	<path class="segment RF_015" d="M505,435 C505,435 505,435 505,435" stroke-linecap="round" style="fill: none; stroke: rgb(255,0,0)" transform="translate(0,0)" />
	<line class="segment RF_015" stroke-linecap="round" style="fill: none; stroke: rgb(255,0,0)" transform="translate(0,0)" x1="505" x2="526" y1="435" y2="435" />
	<path class="segment RF_003" d="M505,435 C505,435 505,435 505,435" stroke-linecap="round" style="fill: none; stroke: rgb(255,217,0)" transform="translate(1,1)" />
	<line class="segment RF_003" stroke-linecap="round" style="fill: none; stroke: rgb(255,217,0)" transform="translate(1,1)" x1="505" x2="526" y1="435" y2="435" />
	<path class="segment RF_007" d="M505,345 C505,345 505,345 505,345" stroke-linecap="round" style="fill: none; stroke: rgb(77,255,0)" transform="translate(2,2)" />
	<line class="segment RF_007" stroke-linecap="round" style="fill: none; stroke: rgb(77,255,0)" transform="translate(2,2)" x1="505" x2="526" y1="345" y2="345" />
	<path class="segment U0015716" d="M505,435 C505,435 505,435 505,435" stroke-linecap="round" style="fill: none; stroke: rgb(0,255,140)" transform="translate(3,3)" />
	<line class="segment U0015716" stroke-linecap="round" style="fill: none; stroke: rgb(0,255,140)" transform="translate(3,3)" x1="505" x2="526" y1="435" y2="435" />
	<path class="segment U0015717" d="M505,435 C505,435 505,435 505,435" stroke-linecap="round" style="fill: none; stroke: rgb(0,153,255)" transform="translate(4,4)" />
	<line class="segment U0015717" stroke-linecap="round" style="fill: none; stroke: rgb(0,153,255)" transform="translate(4,4)" x1="505" x2="526" y1="435" y2="435" />
	<path class="segment RF_001" d="M505,435 C505,435 505,435 505,435" stroke-linecap="round" style="fill: none; stroke: rgb(64,0,255)" transform="translate(5,5)" />
	<line class="segment RF_001" stroke-linecap="round" style="fill: none; stroke: rgb(64,0,255)" transform="translate(5,5)" x1="505" x2="526" y1="435" y2="435" />
	<path class="segment RF_012" d="M505,435 C505,435 505,435 505,435" stroke-linecap="round" style="fill: none; stroke: rgb(255,0,230)" transform="translate(6,6)" />
	<line class="segment RF_012" stroke-linecap="round" style="fill: none; stroke: rgb(255,0,230)" transform="translate(6,6)" x1="505" x2="526" y1="435" y2="435" />
	<path class="segment RF_015" d="M526,435 C526,435 526,435 526,435" stroke-linecap="round" style="fill: none; stroke: rgb(255,0,0)" transform="translate(0,0)" />
	<line class="segment RF_015" stroke-linecap="round" style="fill: none; stroke: rgb(255,0,0)" transform="translate(0,0)" x1="526" x2="594" y1="435" y2="435" />
	<path class="segment RF_003" d="M526,435 C526,435 526,435 526,435" stroke-linecap="round" style="fill: none; stroke: rgb(255,217,0)" transform="translate(1,1)" />
	<line class="segment RF_003" stroke-linecap="round" style="fill: none; stroke: rgb(255,217,0)" transform="translate(1,1)" x1="526" x2="594" y1="435" y2="435" />
	<path class="segment RF_007" d="M526,345 C526,345 526,345 526,345" stroke-linecap="round" style="fill: none; stroke: rgb(77,255,0)" transform="translate(2,2)" />
	<line class="segment RF_007" stroke-linecap="round" style="fill: none; stroke: rgb(77,255,0)" transform="translate(2,2)" x1="526" x2="594" y1="345" y2="345" />
	<path class="segment U0015716" d="M526,435 C526,435 526,435 526,435" stroke-linecap="round" style="fill: none; stroke: rgb(0,255,140)" transform="translate(3,3)" />
	<line class="segment U0015716" stroke-linecap="round" style="fill: none; stroke: rgb(0,255,140)" transform="translate(3,3)" x1="526" x2="594" y1="435" y2="435" />
	<path class="segment U0015717" d="M526,435 C526,435 526,435 526,435" stroke-linecap="round" style="fill: none; stroke: rgb(0,153,255)" transform="translate(4,4)" />
	<line class="segment U0015717" stroke-linecap="round" style="fill: none; stroke: rgb(0,153,255)" transform="translate(4,4)" x1="526" x2="594" y1="435" y2="435" />
	<path class="segment RF_001" d="M526,435 C526,435 526,435 526,435" stroke-linecap="round" style="fill: none; stroke: rgb(64,0,255)" transform="translate(5,5)" />
	<line class="segment RF_001" stroke-linecap="round" style="fill: none; stroke: rgb(64,0,255)" transform="translate(5,5)" x1="526" x2="594" y1="435" y2="435" />
	<path class="segment RF_012" d="M526,435 C526,435 526,435 526,435" stroke-linecap="round" style="fill: none; stroke: rgb(255,0,230)" transform="translate(6,6)" />
	<line class="segment RF_012" stroke-linecap="round" style="fill: none; stroke: rgb(255,0,230)" transform="translate(6,6)" x1="526" x2="594" y1="435" y2="435" />
	<path class="segment RF_015" d="M594,435 C594,435 594,390 594,390" stroke-linecap="round" style="fill: none; stroke: rgb(255,0,0)" transform="translate(0,0)" />
	<line class="segment RF_015" stroke-linecap="round" style="fill: none; stroke: rgb(255,0,0)" transform="translate(0,0)" x1="594" x2="608" y1="390" y2="390" />
	<path class="segment RF_003" d="M594,435 C594,435 594,390 594,390" stroke-linecap="round" style="fill: none; stroke: rgb(255,217,0)" transform="translate(1,1)" />
	<line class="segment RF_003" stroke-linecap="round" style="fill: none; stroke: rgb(255,217,0)" transform="translate(1,1)" x1="594" x2="608" y1="390" y2="390" />
	<path class="segment RF_007" d="M594,345 C594,345 594,345 594,345" stroke-linecap="round" style="fill: none; stroke: rgb(77,255,0)" transform="translate(2,2)" />
	<line class="segment RF_007" stroke-linecap="round" style="fill: none; stroke: rgb(77,255,0)" transform="translate(2,2)" x1="594" x2="608" y1="345" y2="345" />
	<path class="segment U0015716" d="M594,435 C594,435 594,390 594,390" stroke-linecap="round" style="fill: none; stroke: rgb(0,255,140)" transform="translate(3,3)" />
	<line class="segment U0015716" stroke-linecap="round" style="fill: none; stroke: rgb(0,255,140)" transform="translate(3,3)" x1="594" x2="608" y1="390" y2="390" />
	<path class="segment U0015717" d="M594,435 C594,435 594,390 594,390" stroke-linecap="round" style="fill: none; stroke: rgb(0,153,255)" transform="translate(4,4)" />
	<line class="segment U0015717" stroke-linecap="round" style="fill: none; stroke: rgb(0,153,255)" transform="translate(4,4)" x1="594" x2="608" y1="390" y2="390" />
	<path class="segment RF_001" d="M594,435 C594,435 594,390 594,390" stroke-linecap="round" style="fill: none; stroke: rgb(64,0,255)" transform="translate(5,5)" />
	<line class="segment RF_001" stroke-linecap="round" style="fill: none; stroke: rgb(64,0,255)" transform="translate(5,5)" x1="594" x2="608" y1="390" y2="390" />
	<path class="segment RF_012" d="M594,435 C594,435 594,390 594,390" stroke-linecap="round" style="fill: none; stroke: rgb(255,0,230)" transform="translate(6,6)" />
	<line class="segment RF_012" stroke-linecap="round" style="fill: none; stroke: rgb(255,0,230)" transform="translate(6,6)" x1="594" x2="608" y1="390" y2="390" />
	<path class="segment RF_015" d="M608,390 C608,390 608,435 608,435" stroke-linecap="round" style="fill: none; stroke: rgb(255,0,0)" transform="translate(0,0)" />
	<line class="segment RF_015" stroke-linecap="round" style="fill: none; stroke: rgb(255,0,0)" transform="translate(0,0)" x1="608" x2="671" y1="435" y2="435" />
	<path class="segment RF_003" d="M608,390 C608,390 608,435 608,435" stroke-linecap="round" style="fill: none; stroke: rgb(255,217,0)" transform="translate(1,1)" />
	<line class="segment RF_003" stroke-linecap="round" style="fill: none; stroke: rgb(255,217,0)" transform="translate(1,1)" x1="608" x2="671" y1="435" y2="435" />
	<path class="segment RF_007" d="M608,345 C608,345 608,345 608,345" stroke-linecap="round" style="fill: none; stroke: rgb(77,255,0)" transform="translate(2,2)" />
	<line class="segment RF_007" stroke-linecap="round" style="fill: none; stroke: rgb(77,255,0)" transform="translate(2,2)" x1="608" x2="671" y1="345" y2="345" />
	<path class="segment U0015716" d="M608,390 C608,390 608,435 608,435" stroke-linecap="round" style="fill: none; stroke: rgb(0,255,140)" transform="translate(3,3)" />
	<line class="segment U0015716" stroke-linecap="round" style="fill: none; stroke: rgb(0,255,140)" transform="translate(3,3)" x1="608" x2="671" y1="435" y2="435" />
	<path class="segment U0015717" d="M608,390 C608,390 608,435 608,435" stroke-linecap="round" style="fill: none; stroke: rgb(0,153,255)" transform="translate(4,4)" />
	<line class="segment U0015717" stroke-linecap="round" style="fill: none; stroke: rgb(0,153,255)" transform="translate(4,4)" x1="608" x2="671" y1="435" y2="435" />
	<path class="segment RF_001" d="M608,390 C608,390 608,435 608,435" stroke-linecap="round" style="fill: none; stroke: rgb(64,0,255)" transform="translate(5,5)" />
	<line class="segment RF_001" stroke-linecap="round" style="fill: none; stroke: rgb(64,0,255)" transform="translate(5,5)" x1="608" x2="671" y1="435" y2="435" />
	<path class="segment RF_012" d="M608,390 C608,390 608,435 608,435" stroke-linecap="round" style="fill: none; stroke: rgb(255,0,230)" transform="translate(6,6)" />
	<line class="segment RF_012" stroke-linecap="round" style="fill: none; stroke: rgb(255,0,230)" transform="translate(6,6)" x1="608" x2="671" y1="435" y2="435" />
	<path class="segment RF_015" d="M671,435 C671,435 671,435 671,435" stroke-linecap="round" style="fill: none; stroke: rgb(255,0,0)" transform="translate(0,0)" />
	<line class="segment RF_015" stroke-linecap="round" style="fill: none; stroke: rgb(255,0,0)" transform="translate(0,0)" x1="671" x2="800" y1="435" y2="435" />
	<path class="segment RF_003" d="M671,435 C671,435 671,435 671,435" stroke-linecap="round" style="fill: none; stroke: rgb(255,217,0)" transform="translate(1,1)" />
	<line class="segment RF_003" stroke-linecap="round" style="fill: none; stroke: rgb(255,217,0)" transform="translate(1,1)" x1="671" x2="800" y1="435" y2="435" />
	<path class="segment RF_007" d="M671,345 C671,345 671,345 671,345" stroke-linecap="round" style="fill: none; stroke: rgb(77,255,0)" transform="translate(2,2)" />
	<line class="segment RF_007" stroke-linecap="round" style="fill: none; stroke: rgb(77,255,0)" transform="translate(2,2)" x1="671" x2="800" y1="345" y2="345" />
	<path class="segment U0015716" d="M671,435 C671,435 671,435 671,435" stroke-linecap="round" style="fill: none; stroke: rgb(0,255,140)" transform="translate(3,3)" />
	<line class="segment U0015716" stroke-linecap="round" style="fill: none; stroke: rgb(0,255,140)" transform="translate(3,3)" x1="671" x2="800" y1="435" y2="435" />
	<path class="segment U0015717" d="M671,435 C671,435 671,435 671,435" stroke-linecap="round" style="fill: none; stroke: rgb(0,153,255)" transform="translate(4,4)" />
	<line class="segment U0015717" stroke-linecap="round" style="fill: none; stroke: rgb(0,153,255)" transform="translate(4,4)" x1="671" x2="800" y1="435" y2="435" />
	<path class="segment RF_001" d="M671,435 C671,435 671,435 671,435" stroke-linecap="round" style="fill: none; stroke: rgb(64,0,255)" transform="translate(5,5)" />
	<line class="segment RF_001" stroke-linecap="round" style="fill: none; stroke: rgb(64,0,255)" transform="translate(5,5)" x1="671" x2="800" y1="435" y2="435" />
	<path class="segment RF_012" d="M671,435 C671,435 671,435 671,435" stroke-linecap="round" style="fill: none; stroke: rgb(255,0,230)" transform="translate(6,6)" />
	<line class="segment RF_012" stroke-linecap="round" style="fill: none; stroke: rgb(255,0,230)" transform="translate(6,6)" x1="671" x2="800" y1="435" y2="435" />
	<polygon class="arrow" points="339,337.5 339,332.5 451,332.5 451,330 461,335 451,340 451,337.5 339,337.5 " style="fill: white; stroke: black" />
	<rect class="five_prime_UTR" height="50" style="fill: silver; stroke: black" width="3" x="339" y="275" />
	<text class="five_prime_UTR" style="font: 10px Verdana" transform="rotate(-90,343,265)" x="343" y="265">3,480,545 .. 3,480,654</text>
	<rect class="three_prime_UTR" height="50" style="fill: silver; stroke: black" width="9" x="452" y="275" />
	<text class="three_prime_UTR" style="font: 10px Verdana" transform="rotate(-90,456,265)" x="456" y="265">3,483,897 .. 3,484,159</text>
	<!-- 
	Generated using the Perl SVG Module V2.59
	by Ronan Oger
	Info: http://www.roitsystems.com/
 -->
</svg>