<?xml version="1.0" encoding="UTF-8" standalone="yes"?>
<!DOCTYPE svg PUBLIC "-//W3C//DTD SVG 1.0//EN" "http://www.w3.org/TR/2001/REC-SVG-20010904/DTD/svg10.dtd">
<svg height="600" width="800" xmlns="http://www.w3.org/2000/svg" xmlns:svg="http://www.w3.org/2000/svg" xmlns:xlink="http://www.w3.org/1999/xlink">
	<line class="breakpoint" style="fill: white; stroke: black; stroke-width: 0.1" x1="800" x2="800" y1="100" y2="300" />
	<text class="breakpoint" style="font: 10px Verdana" transform="rotate(-90,4,90)" x="4" y="90">46,820,408</text>
	<polyline class="scale" points="0,294 0,306 0,300 4,300 4,298 4,302 4,300 8,300 8,298 8,302 8,300 12,300 12,298 12,302 12,300 15,300 15,298 15,302 15,300 19,300 19,298 19,302 19,300 23,300 23,298 23,302 23,300 27,300 27,298 27,302 27,300 31,300 31,298 31,302 31,300 35,300 35,298 35,302 35,300 38,300 38,294 38,306 38,300 42,300 42,298 42,302 42,300 46,300 46,298 46,302 46,300 50,300 50,298 50,302 50,300 54,300 54,298 54,302 54,300 58,300 58,298 58,302 58,300 62,300 62,298 62,302 62,300 65,300 65,298 65,302 65,300 69,300 69,298 69,302 69,300 73,300 73,298 73,302 73,300 77,300 77,294 77,306 77,300 81,300 81,298 81,302 81,300 85,300 85,298 85,302 85,300 89,300 89,298 89,302 89,300 92,300 92,298 92,302 92,300 96,300 96,298 96,302 96,300 100,300 100,298 100,302 100,300 104,300 104,298 104,302 104,300 108,300 108,298 108,302 108,300 112,300 112,298 112,302 112,300 115,300 115,294 115,306 115,300 119,300 119,298 119,302 119,300 123,300 123,298 123,302 123,300 127,300 127,298 127,302 127,300 131,300 131,298 131,302 131,300 135,300 135,298 135,302 135,300 139,300 139,298 139,302 139,300 142,300 142,298 142,302 142,300 146,300 146,298 146,302 146,300 150,300 150,298 150,302 150,300 154,300 154,294 154,306 154,300 158,300 158,298 158,302 158,300 162,300 162,298 162,302 162,300 165,300 165,298 165,302 165,300 169,300 169,298 169,302 169,300 173,300 173,298 173,302 173,300 177,300 177,298 177,302 177,300 181,300 181,298 181,302 181,300 185,300 185,298 185,302 185,300 189,300 189,298 189,302 189,300 192,300 192,294 192,306 192,300 196,300 196,298 196,302 196,300 200,300 200,298 200,302 200,300 204,300 204,298 204,302 204,300 208,300 208,298 208,302 208,300 212,300 212,298 212,302 212,300 215,300 215,298 215,302 215,300 219,300 219,298 219,302 219,300 223,300 223,298 223,302 223,300 227,300 227,298 227,302 227,300 231,300 231,294 231,306 231,300 235,300 235,298 235,302 235,300 239,300 239,298 239,302 239,300 242,300 242,298 242,302 242,300 246,300 246,298 246,302 246,300 250,300 250,298 250,302 250,300 254,300 254,298 254,302 254,300 258,300 258,298 258,302 258,300 262,300 262,298 262,302 262,300 266,300 266,298 266,302 266,300 269,300 269,294 269,306 269,300 273,300 273,298 273,302 273,300 277,300 277,298 277,302 277,300 281,300 281,298 281,302 281,300 285,300 285,298 285,302 285,300 289,300 289,298 289,302 289,300 292,300 292,298 292,302 292,300 296,300 296,298 296,302 296,300 300,300 300,298 300,302 300,300 304,300 304,298 304,302 304,300 308,300 308,294 308,306 308,300 312,300 312,298 312,302 312,300 316,300 316,298 316,302 316,300 319,300 319,298 319,302 319,300 323,300 323,298 323,302 323,300 327,300 327,298 327,302 327,300 331,300 331,298 331,302 331,300 335,300 335,298 335,302 335,300 339,300 339,298 339,302 339,300 342,300 342,298 342,302 342,300 346,300 346,294 346,306 346,300 350,300 350,298 350,302 350,300 354,300 354,298 354,302 354,300 358,300 358,298 358,302 358,300 362,300 362,298 362,302 362,300 366,300 366,298 366,302 366,300 369,300 369,298 369,302 369,300 373,300 373,298 373,302 373,300 377,300 377,298 377,302 377,300 381,300 381,298 381,302 381,300 385,300 385,294 385,306 385,300 389,300 389,298 389,302 389,300 392,300 392,298 392,302 392,300 396,300 396,298 396,302 396,300 400,300 400,298 400,302 400,300 404,300 404,298 404,302 404,300 408,300 408,298 408,302 408,300 412,300 412,298 412,302 412,300 416,300 416,298 416,302 416,300 419,300 419,298 419,302 419,300 423,300 423,294 423,306 423,300 427,300 427,298 427,302 427,300 431,300 431,298 431,302 431,300 435,300 435,298 435,302 435,300 439,300 439,298 439,302 439,300 443,300 443,298 443,302 443,300 446,300 446,298 446,302 446,300 450,300 450,298 450,302 450,300 454,300 454,298 454,302 454,300 458,300 458,298 458,302 458,300 462,300 462,294 462,306 462,300 466,300 466,298 466,302 466,300 469,300 469,298 469,302 469,300 473,300 473,298 473,302 473,300 477,300 477,298 477,302 477,300 481,300 481,298 481,302 481,300 485,300 485,298 485,302 485,300 489,300 489,298 489,302 489,300 493,300 493,298 493,302 493,300 496,300 496,298 496,302 496,300 500,300 500,294 500,306 500,300 504,300 504,298 504,302 504,300 508,300 508,298 508,302 508,300 512,300 512,298 512,302 512,300 516,300 516,298 516,302 516,300 519,300 519,298 519,302 519,300 523,300 523,298 523,302 523,300 527,300 527,298 527,302 527,300 531,300 531,298 531,302 531,300 535,300 535,298 535,302 535,300 539,300 539,294 539,306 539,300 543,300 543,298 543,302 543,300 546,300 546,298 546,302 546,300 550,300 550,298 550,302 550,300 554,300 554,298 554,302 554,300 558,300 558,298 558,302 558,300 562,300 562,298 562,302 562,300 566,300 566,298 566,302 566,300 570,300 570,298 570,302 570,300 573,300 573,298 573,302 573,300 577,300 577,294 577,306 577,300 581,300 581,298 581,302 581,300 585,300 585,298 585,302 585,300 589,300 589,298 589,302 589,300 593,300 593,298 593,302 593,300 596,300 596,298 596,302 596,300 600,300 600,298 600,302 600,300 604,300 604,298 604,302 604,300 608,300 608,298 608,302 608,300 612,300 612,298 612,302 612,300 616,300 616,294 616,306 616,300 620,300 620,298 620,302 620,300 623,300 623,298 623,302 623,300 627,300 627,298 627,302 627,300 631,300 631,298 631,302 631,300 635,300 635,298 635,302 635,300 639,300 639,298 639,302 639,300 643,300 643,298 643,302 643,300 646,300 646,298 646,302 646,300 650,300 650,298 650,302 650,300 654,300 654,294 654,306 654,300 658,300 658,298 658,302 658,300 662,300 662,298 662,302 662,300 666,300 666,298 666,302 666,300 670,300 670,298 670,302 670,300 673,300 673,298 673,302 673,300 677,300 677,298 677,302 677,300 681,300 681,298 681,302 681,300 685,300 685,298 685,302 685,300 689,300 689,298 689,302 689,300 693,300 693,294 693,306 693,300 696,300 696,298 696,302 696,300 700,300 700,298 700,302 700,300 704,300 704,298 704,302 704,300 708,300 708,298 708,302 708,300 712,300 712,298 712,302 712,300 716,300 716,298 716,302 716,300 720,300 720,298 720,302 720,300 723,300 723,298 723,302 723,300 727,300 727,298 727,302 727,300 731,300 731,294 731,306 731,300 735,300 735,298 735,302 735,300 739,300 739,298 739,302 739,300 743,300 743,298 743,302 743,300 747,300 747,298 747,302 747,300 750,300 750,298 750,302 750,300 754,300 754,298 754,302 754,300 758,300 758,298 758,302 758,300 762,300 762,298 762,302 762,300 766,300 766,298 766,302 766,300 770,300 770,294 770,306 770,300 773,300 773,298 773,302 773,300 777,300 777,298 777,302 777,300 781,300 781,298 781,302 781,300 785,300 785,298 785,302 785,300 789,300 789,298 789,302 789,300 793,300 793,298 793,302 793,300 797,300 797,298 797,302 797,300 800,300 " style="fill: none; stroke: black; stroke-width: 0.1" />
	<rect class="exon" height="50" style="fill: white; stroke: black" width="8" x="385" y="275" />
	<text class="exon" style="font: 10px Verdana" transform="rotate(-90,389,265)" x="389" y="265">46,830,407 .. 46,830,614</text>
	<line class="intron" style="fill: white; stroke: black" x1="393" x2="397" y1="300" y2="300" />
	<rect class="exon" height="50" style="fill: white; stroke: black" width="8" x="397" y="275" />
	<text class="exon" style="font: 10px Verdana" transform="rotate(-90,401,265)" x="401" y="265">46,830,715 .. 46,830,924</text>
	<line class="intron" style="fill: white; stroke: black" x1="405" x2="408" y1="300" y2="300" />
	<rect class="exon" height="50" style="fill: white; stroke: black" width="3" x="408" y="275" />
	<text class="exon" style="font: 10px Verdana" transform="rotate(-90,412,265)" x="412" y="265">46,831,003 .. 46,831,077</text>
	<line class="breakpoint" style="fill: white; stroke: black; stroke-width: 0.1" x1="800" x2="800" y1="100" y2="300" />
	<text class="breakpoint" style="font: 10px Verdana" transform="rotate(-90,4,90)" x="4" y="90">46,820,408</text>
	<line style="fill: none; stroke: gray; stroke-width: 0.1" x1="0" x2="800" y1="345" y2="345" />
	<text class="crossover ITAG2_3" style="font: 10px Verdana" x="4" y="339">S. l. Heinz 1706</text>
	<line style="fill: none; stroke: rgb(255,0,0)" x1="5" x2="10" y1="480" y2="480" />
	<text class="crossover" style="font: 10px Verdana" x="15" y="485">S. l. var Momatero</text>
	<line style="fill: none; stroke: rgb(255,217,0)" x1="5" x2="10" y1="495" y2="495" />
	<text class="crossover" style="font: 10px Verdana" x="15" y="500">S. l. var Gardener&apos;s Delight	</text>
	<line style="fill: none; stroke: rgb(77,255,0)" x1="5" x2="10" y1="510" y2="510" />
	<text class="crossover" style="font: 10px Verdana" x="15" y="515">S. l. var Katinka Cherry</text>
	<line style="fill: none; stroke: rgb(0,255,140)" x1="5" x2="10" y1="525" y2="525" />
	<text class="crossover" style="font: 10px Verdana" x="15" y="530">S. l. (1891)</text>
	<line style="fill: none; stroke: rgb(0,153,255)" x1="5" x2="10" y1="540" y2="540" />
	<text class="crossover" style="font: 10px Verdana" x="15" y="545">S. l. (1830)</text>
	<line style="fill: none; stroke: rgb(64,0,255)" x1="5" x2="10" y1="555" y2="555" />
	<text class="crossover" style="font: 10px Verdana" x="15" y="560">S. l. var Moneymaker</text>
	<line style="fill: none; stroke: rgb(255,0,230)" x1="5" x2="10" y1="570" y2="570" />
	<text class="crossover" style="font: 10px Verdana" x="15" y="575">S. l. var Sonato</text>
	<line class="segment RF_015" stroke-linecap="round" style="fill: none; stroke: rgb(255,0,0)" transform="translate(0,0)" x1="0" x2="800" y1="345" y2="345" />
	<line class="segment RF_003" stroke-linecap="round" style="fill: none; stroke: rgb(255,217,0)" transform="translate(1,1)" x1="0" x2="800" y1="345" y2="345" />
	<line class="segment RF_007" stroke-linecap="round" style="fill: none; stroke: rgb(77,255,0)" transform="translate(2,2)" x1="0" x2="800" y1="345" y2="345" />
	<line class="segment U0015716" stroke-linecap="round" style="fill: none; stroke: rgb(0,255,140)" transform="translate(3,3)" x1="0" x2="800" y1="345" y2="345" />
	<line class="segment U0015717" stroke-linecap="round" style="fill: none; stroke: rgb(0,153,255)" transform="translate(4,4)" x1="0" x2="800" y1="345" y2="345" />
	<line class="segment RF_001" stroke-linecap="round" style="fill: none; stroke: rgb(64,0,255)" transform="translate(5,5)" x1="0" x2="800" y1="345" y2="345" />
	<line class="segment RF_012" stroke-linecap="round" style="fill: none; stroke: rgb(255,0,230)" transform="translate(6,6)" x1="0" x2="800" y1="345" y2="345" />
	<polygon class="arrow" points="385,337.5 385,332.5 405,332.5 405,330 415,335 405,340 405,337.5 385,337.5 " style="fill: white; stroke: black" />
	<rect class="three_prime_UTR" height="50" style="fill: silver; stroke: black" width="4" x="411" y="275" />
	<text class="three_prime_UTR" style="font: 10px Verdana" transform="rotate(-90,415,265)" x="415" y="265">46,831,077 .. 46,831,197</text>
	<!-- 
	Generated using the Perl SVG Module V2.59
	by Ronan Oger
	Info: http://www.roitsystems.com/
 -->
</svg>