<?xml version="1.0" encoding="UTF-8" standalone="yes"?>
<!DOCTYPE svg PUBLIC "-//W3C//DTD SVG 1.0//EN" "http://www.w3.org/TR/2001/REC-SVG-20010904/DTD/svg10.dtd">
<svg height="600" width="800" xmlns="http://www.w3.org/2000/svg" xmlns:svg="http://www.w3.org/2000/svg" xmlns:xlink="http://www.w3.org/1999/xlink">
	<line class="breakpoint" style="fill: white; stroke: black; stroke-width: 0.1" x1="256" x2="256" y1="100" y2="300" />
	<text class="breakpoint" style="font: 10px Verdana" transform="rotate(-90,4,90)" x="4" y="90">2,151,345</text>
	<line class="breakpoint" style="fill: white; stroke: black; stroke-width: 0.1" x1="336" x2="336" y1="100" y2="300" />
	<text class="breakpoint" style="font: 10px Verdana" transform="rotate(-90,260,90)" x="260" y="90">2,158,832</text>
	<line class="breakpoint" style="fill: white; stroke: black; stroke-width: 0.1" x1="408" x2="408" y1="100" y2="300" />
	<text class="breakpoint" style="font: 10px Verdana" transform="rotate(-90,340,90)" x="340" y="90">2,161,187</text>
	<line class="breakpoint" style="fill: white; stroke: black; stroke-width: 0.1" x1="439" x2="439" y1="100" y2="300" />
	<text class="breakpoint" style="font: 10px Verdana" transform="rotate(-90,412,90)" x="412" y="90">2,163,269</text>
	<line class="breakpoint" style="fill: white; stroke: black; stroke-width: 0.1" x1="461" x2="461" y1="100" y2="300" />
	<text class="breakpoint" style="font: 10px Verdana" transform="rotate(-90,443,90)" x="443" y="90">2,164,197</text>
	<line class="breakpoint" style="fill: white; stroke: black; stroke-width: 0.1" x1="606" x2="606" y1="100" y2="300" />
	<text class="breakpoint" style="font: 10px Verdana" transform="rotate(-90,465,90)" x="465" y="90">2,164,834</text>
	<line class="breakpoint" style="fill: white; stroke: black; stroke-width: 0.1" x1="647" x2="647" y1="100" y2="300" />
	<text class="breakpoint" style="font: 10px Verdana" transform="rotate(-90,610,90)" x="610" y="90">2,169,071</text>
	<line class="breakpoint" style="fill: white; stroke: black; stroke-width: 0.1" x1="800" x2="800" y1="100" y2="300" />
	<text class="breakpoint" style="font: 10px Verdana" transform="rotate(-90,651,90)" x="651" y="90">2,170,285</text>
	<polyline class="scale" points="0,294 0,306 0,300 3,300 3,298 3,302 3,300 7,300 7,298 7,302 7,300 10,300 10,298 10,302 10,300 14,300 14,298 14,302 14,300 17,300 17,298 17,302 17,300 21,300 21,298 21,302 21,300 24,300 24,298 24,302 24,300 27,300 27,298 27,302 27,300 31,300 31,298 31,302 31,300 34,300 34,294 34,306 34,300 38,300 38,298 38,302 38,300 41,300 41,298 41,302 41,300 44,300 44,298 44,302 44,300 48,300 48,298 48,302 48,300 51,300 51,298 51,302 51,300 55,300 55,298 55,302 55,300 58,300 58,298 58,302 58,300 62,300 62,298 62,302 62,300 65,300 65,298 65,302 65,300 68,300 68,294 68,306 68,300 72,300 72,298 72,302 72,300 75,300 75,298 75,302 75,300 79,300 79,298 79,302 79,300 82,300 82,298 82,302 82,300 85,300 85,298 85,302 85,300 89,300 89,298 89,302 89,300 92,300 92,298 92,302 92,300 96,300 96,298 96,302 96,300 99,300 99,298 99,302 99,300 103,300 103,294 103,306 103,300 106,300 106,298 106,302 106,300 109,300 109,298 109,302 109,300 113,300 113,298 113,302 113,300 116,300 116,298 116,302 116,300 120,300 120,298 120,302 120,300 123,300 123,298 123,302 123,300 126,300 126,298 126,302 126,300 130,300 130,298 130,302 130,300 133,300 133,298 133,302 133,300 137,300 137,294 137,306 137,300 140,300 140,298 140,302 140,300 144,300 144,298 144,302 144,300 147,300 147,298 147,302 147,300 150,300 150,298 150,302 150,300 154,300 154,298 154,302 154,300 157,300 157,298 157,302 157,300 161,300 161,298 161,302 161,300 164,300 164,298 164,302 164,300 168,300 168,298 168,302 168,300 171,300 171,294 171,306 171,300 174,300 174,298 174,302 174,300 178,300 178,298 178,302 178,300 181,300 181,298 181,302 181,300 185,300 185,298 185,302 185,300 188,300 188,298 188,302 188,300 191,300 191,298 191,302 191,300 195,300 195,298 195,302 195,300 198,300 198,298 198,302 198,300 202,300 202,298 202,302 202,300 205,300 205,294 205,306 205,300 209,300 209,298 209,302 209,300 212,300 212,298 212,302 212,300 215,300 215,298 215,302 215,300 219,300 219,298 219,302 219,300 222,300 222,298 222,302 222,300 226,300 226,298 226,302 226,300 229,300 229,298 229,302 229,300 232,300 232,298 232,302 232,300 236,300 236,298 236,302 236,300 239,300 239,294 239,306 239,300 243,300 243,298 243,302 243,300 246,300 246,298 246,302 246,300 250,300 250,298 250,302 250,300 253,300 253,298 253,302 253,300 256,300 256,298 256,302 256,300 260,300 260,298 260,302 260,300 263,300 263,298 263,302 263,300 267,300 267,298 267,302 267,300 270,300 270,298 270,302 270,300 273,300 273,294 273,306 273,300 277,300 277,298 277,302 277,300 280,300 280,298 280,302 280,300 284,300 284,298 284,302 284,300 287,300 287,298 287,302 287,300 291,300 291,298 291,302 291,300 294,300 294,298 294,302 294,300 297,300 297,298 297,302 297,300 301,300 301,298 301,302 301,300 304,300 304,298 304,302 304,300 308,300 308,294 308,306 308,300 311,300 311,298 311,302 311,300 315,300 315,298 315,302 315,300 318,300 318,298 318,302 318,300 321,300 321,298 321,302 321,300 325,300 325,298 325,302 325,300 328,300 328,298 328,302 328,300 332,300 332,298 332,302 332,300 335,300 335,298 335,302 335,300 338,300 338,298 338,302 338,300 342,300 342,294 342,306 342,300 345,300 345,298 345,302 345,300 349,300 349,298 349,302 349,300 352,300 352,298 352,302 352,300 356,300 356,298 356,302 356,300 359,300 359,298 359,302 359,300 362,300 362,298 362,302 362,300 366,300 366,298 366,302 366,300 369,300 369,298 369,302 369,300 373,300 373,298 373,302 373,300 376,300 376,294 376,306 376,300 379,300 379,298 379,302 379,300 383,300 383,298 383,302 383,300 386,300 386,298 386,302 386,300 390,300 390,298 390,302 390,300 393,300 393,298 393,302 393,300 397,300 397,298 397,302 397,300 400,300 400,298 400,302 400,300 403,300 403,298 403,302 403,300 407,300 407,298 407,302 407,300 410,300 410,294 410,306 410,300 414,300 414,298 414,302 414,300 417,300 417,298 417,302 417,300 420,300 420,298 420,302 420,300 424,300 424,298 424,302 424,300 427,300 427,298 427,302 427,300 431,300 431,298 431,302 431,300 434,300 434,298 434,302 434,300 438,300 438,298 438,302 438,300 441,300 441,298 441,302 441,300 444,300 444,294 444,306 444,300 448,300 448,298 448,302 448,300 451,300 451,298 451,302 451,300 455,300 455,298 455,302 455,300 458,300 458,298 458,302 458,300 461,300 461,298 461,302 461,300 465,300 465,298 465,302 465,300 468,300 468,298 468,302 468,300 472,300 472,298 472,302 472,300 475,300 475,298 475,302 475,300 479,300 479,294 479,306 479,300 482,300 482,298 482,302 482,300 485,300 485,298 485,302 485,300 489,300 489,298 489,302 489,300 492,300 492,298 492,302 492,300 496,300 496,298 496,302 496,300 499,300 499,298 499,302 499,300 503,300 503,298 503,302 503,300 506,300 506,298 506,302 506,300 509,300 509,298 509,302 509,300 513,300 513,294 513,306 513,300 516,300 516,298 516,302 516,300 520,300 520,298 520,302 520,300 523,300 523,298 523,302 523,300 526,300 526,298 526,302 526,300 530,300 530,298 530,302 530,300 533,300 533,298 533,302 533,300 537,300 537,298 537,302 537,300 540,300 540,298 540,302 540,300 544,300 544,298 544,302 544,300 547,300 547,294 547,306 547,300 550,300 550,298 550,302 550,300 554,300 554,298 554,302 554,300 557,300 557,298 557,302 557,300 561,300 561,298 561,302 561,300 564,300 564,298 564,302 564,300 567,300 567,298 567,302 567,300 571,300 571,298 571,302 571,300 574,300 574,298 574,302 574,300 578,300 578,298 578,302 578,300 581,300 581,294 581,306 581,300 585,300 585,298 585,302 585,300 588,300 588,298 588,302 588,300 591,300 591,298 591,302 591,300 595,300 595,298 595,302 595,300 598,300 598,298 598,302 598,300 602,300 602,298 602,302 602,300 605,300 605,298 605,302 605,300 608,300 608,298 608,302 608,300 612,300 612,298 612,302 612,300 615,300 615,294 615,306 615,300 619,300 619,298 619,302 619,300 622,300 622,298 622,302 622,300 626,300 626,298 626,302 626,300 629,300 629,298 629,302 629,300 632,300 632,298 632,302 632,300 636,300 636,298 636,302 636,300 639,300 639,298 639,302 639,300 643,300 643,298 643,302 643,300 646,300 646,298 646,302 646,300 650,300 650,294 650,306 650,300 653,300 653,298 653,302 653,300 656,300 656,298 656,302 656,300 660,300 660,298 660,302 660,300 663,300 663,298 663,302 663,300 667,300 667,298 667,302 667,300 670,300 670,298 670,302 670,300 673,300 673,298 673,302 673,300 677,300 677,298 677,302 677,300 680,300 680,298 680,302 680,300 684,300 684,294 684,306 684,300 687,300 687,298 687,302 687,300 691,300 691,298 691,302 691,300 694,300 694,298 694,302 694,300 697,300 697,298 697,302 697,300 701,300 701,298 701,302 701,300 704,300 704,298 704,302 704,300 708,300 708,298 708,302 708,300 711,300 711,298 711,302 711,300 714,300 714,298 714,302 714,300 718,300 718,294 718,306 718,300 721,300 721,298 721,302 721,300 725,300 725,298 725,302 725,300 728,300 728,298 728,302 728,300 732,300 732,298 732,302 732,300 735,300 735,298 735,302 735,300 738,300 738,298 738,302 738,300 742,300 742,298 742,302 742,300 745,300 745,298 745,302 745,300 749,300 749,298 749,302 749,300 752,300 752,294 752,306 752,300 755,300 755,298 755,302 755,300 759,300 759,298 759,302 759,300 762,300 762,298 762,302 762,300 766,300 766,298 766,302 766,300 769,300 769,298 769,302 769,300 773,300 773,298 773,302 773,300 776,300 776,298 776,302 776,300 779,300 779,298 779,302 779,300 783,300 783,298 783,302 783,300 786,300 786,294 786,306 786,300 790,300 790,298 790,302 790,300 793,300 793,298 793,302 793,300 797,300 797,298 797,302 797,300 800,300 800,298 800,302 800,300 800,300 " style="fill: none; stroke: black; stroke-width: 0.1" />
	<rect class="exon" height="50" style="fill: white; stroke: black" width="-5" x="347" y="275" />
	<text class="exon" style="font: 10px Verdana" transform="rotate(-90,351,265)" x="351" y="265">2,161,510 .. 2,161,344</text>
	<line class="intron" style="fill: white; stroke: black" x1="348" x2="354" y1="300" y2="300" />
	<rect class="exon" height="50" style="fill: white; stroke: black" width="60" x="355" y="275" />
	<text class="exon" style="font: 10px Verdana" transform="rotate(-90,359,265)" x="359" y="265">2,161,736 .. 2,163,495</text>
	<line class="intron" style="fill: white; stroke: black" x1="415" x2="417" y1="300" y2="300" />
	<rect class="exon" height="50" style="fill: white; stroke: black" width="14" x="417" y="275" />
	<text class="exon" style="font: 10px Verdana" transform="rotate(-90,421,265)" x="421" y="265">2,163,536 .. 2,163,966</text>
	<line class="intron" style="fill: white; stroke: black" x1="431" x2="433" y1="300" y2="300" />
	<rect class="exon" height="50" style="fill: white; stroke: black" width="24" x="433" y="275" />
	<text class="exon" style="font: 10px Verdana" transform="rotate(-90,437,265)" x="437" y="265">2,164,022 .. 2,164,718</text>
	<line class="breakpoint" style="fill: white; stroke: black; stroke-width: 0.1" x1="256" x2="256" y1="100" y2="300" />
	<text class="breakpoint" style="font: 10px Verdana" transform="rotate(-90,4,90)" x="4" y="90">2,151,345</text>
	<line class="breakpoint" style="fill: white; stroke: black; stroke-width: 0.1" x1="336" x2="336" y1="100" y2="300" />
	<text class="breakpoint" style="font: 10px Verdana" transform="rotate(-90,260,90)" x="260" y="90">2,158,832</text>
	<line class="breakpoint" style="fill: white; stroke: black; stroke-width: 0.1" x1="408" x2="408" y1="100" y2="300" />
	<text class="breakpoint" style="font: 10px Verdana" transform="rotate(-90,340,90)" x="340" y="90">2,161,187</text>
	<line class="breakpoint" style="fill: white; stroke: black; stroke-width: 0.1" x1="439" x2="439" y1="100" y2="300" />
	<text class="breakpoint" style="font: 10px Verdana" transform="rotate(-90,412,90)" x="412" y="90">2,163,269</text>
	<line class="breakpoint" style="fill: white; stroke: black; stroke-width: 0.1" x1="461" x2="461" y1="100" y2="300" />
	<text class="breakpoint" style="font: 10px Verdana" transform="rotate(-90,443,90)" x="443" y="90">2,164,197</text>
	<line class="breakpoint" style="fill: white; stroke: black; stroke-width: 0.1" x1="606" x2="606" y1="100" y2="300" />
	<text class="breakpoint" style="font: 10px Verdana" transform="rotate(-90,465,90)" x="465" y="90">2,164,834</text>
	<line class="breakpoint" style="fill: white; stroke: black; stroke-width: 0.1" x1="647" x2="647" y1="100" y2="300" />
	<text class="breakpoint" style="font: 10px Verdana" transform="rotate(-90,610,90)" x="610" y="90">2,169,071</text>
	<line class="breakpoint" style="fill: white; stroke: black; stroke-width: 0.1" x1="800" x2="800" y1="100" y2="300" />
	<text class="breakpoint" style="font: 10px Verdana" transform="rotate(-90,651,90)" x="651" y="90">2,170,285</text>
	<line style="fill: none; stroke: gray; stroke-width: 0.1" x1="0" x2="800" y1="345" y2="345" />
	<text class="crossover RF_047" style="font: 10px Verdana" x="4" y="339">S. pimpinellifolium</text>
	<line style="fill: none; stroke: gray; stroke-width: 0.1" x1="0" x2="800" y1="390" y2="390" />
	<text class="crossover RF_058" style="font: 10px Verdana" x="4" y="384">S. Arcanum</text>
	<line style="fill: none; stroke: gray; stroke-width: 0.1" x1="0" x2="800" y1="435" y2="435" />
	<text class="crossover ITAG2_3" style="font: 10px Verdana" x="4" y="429">S. l. Heinz 1706</text>
	<line style="fill: none; stroke: rgb(255,0,0)" x1="5" x2="10" y1="480" y2="480" />
	<text class="crossover" style="font: 10px Verdana" x="15" y="485">S. l. var Momatero</text>
	<line style="fill: none; stroke: rgb(255,217,0)" x1="5" x2="10" y1="495" y2="495" />
	<text class="crossover" style="font: 10px Verdana" x="15" y="500">S. l. var Gardener&apos;s Delight	</text>
	<line style="fill: none; stroke: rgb(77,255,0)" x1="5" x2="10" y1="510" y2="510" />
	<text class="crossover" style="font: 10px Verdana" x="15" y="515">S. l. var Katinka Cherry</text>
	<line style="fill: none; stroke: rgb(0,255,140)" x1="5" x2="10" y1="525" y2="525" />
	<text class="crossover" style="font: 10px Verdana" x="15" y="530">S. l. (1891)</text>
	<line style="fill: none; stroke: rgb(0,153,255)" x1="5" x2="10" y1="540" y2="540" />
	<text class="crossover" style="font: 10px Verdana" x="15" y="545">S. l. (1830)</text>
	<line style="fill: none; stroke: rgb(64,0,255)" x1="5" x2="10" y1="555" y2="555" />
	<text class="crossover" style="font: 10px Verdana" x="15" y="560">S. l. var Moneymaker</text>
	<line style="fill: none; stroke: rgb(255,0,230)" x1="5" x2="10" y1="570" y2="570" />
	<text class="crossover" style="font: 10px Verdana" x="15" y="575">S. l. var Sonato</text>
	<line class="segment RF_015" stroke-linecap="round" style="fill: none; stroke: rgb(255,0,0)" transform="translate(0,0)" x1="0" x2="256" y1="345" y2="345" />
	<line class="segment RF_003" stroke-linecap="round" style="fill: none; stroke: rgb(255,217,0)" transform="translate(1,1)" x1="0" x2="256" y1="435" y2="435" />
	<line class="segment RF_007" stroke-linecap="round" style="fill: none; stroke: rgb(77,255,0)" transform="translate(2,2)" x1="0" x2="256" y1="435" y2="435" />
	<line class="segment U0015716" stroke-linecap="round" style="fill: none; stroke: rgb(0,255,140)" transform="translate(3,3)" x1="0" x2="256" y1="435" y2="435" />
	<line class="segment U0015717" stroke-linecap="round" style="fill: none; stroke: rgb(0,153,255)" transform="translate(4,4)" x1="0" x2="256" y1="435" y2="435" />
	<line class="segment RF_001" stroke-linecap="round" style="fill: none; stroke: rgb(64,0,255)" transform="translate(5,5)" x1="0" x2="256" y1="435" y2="435" />
	<line class="segment RF_012" stroke-linecap="round" style="fill: none; stroke: rgb(255,0,230)" transform="translate(6,6)" x1="0" x2="256" y1="435" y2="435" />
	<path class="segment RF_015" d="M256,345 C256,345 256,435 256,435" stroke-linecap="round" style="fill: none; stroke: rgb(255,0,0)" transform="translate(0,0)" />
	<line class="segment RF_015" stroke-linecap="round" style="fill: none; stroke: rgb(255,0,0)" transform="translate(0,0)" x1="256" x2="336" y1="435" y2="435" />
	<path class="segment RF_003" d="M256,435 C256,435 256,435 256,435" stroke-linecap="round" style="fill: none; stroke: rgb(255,217,0)" transform="translate(1,1)" />
	<line class="segment RF_003" stroke-linecap="round" style="fill: none; stroke: rgb(255,217,0)" transform="translate(1,1)" x1="256" x2="336" y1="435" y2="435" />
	<path class="segment RF_007" d="M256,435 C256,435 256,435 256,435" stroke-linecap="round" style="fill: none; stroke: rgb(77,255,0)" transform="translate(2,2)" />
	<line class="segment RF_007" stroke-linecap="round" style="fill: none; stroke: rgb(77,255,0)" transform="translate(2,2)" x1="256" x2="336" y1="435" y2="435" />
	<path class="segment U0015716" d="M256,435 C256,435 256,435 256,435" stroke-linecap="round" style="fill: none; stroke: rgb(0,255,140)" transform="translate(3,3)" />
	<line class="segment U0015716" stroke-linecap="round" style="fill: none; stroke: rgb(0,255,140)" transform="translate(3,3)" x1="256" x2="336" y1="435" y2="435" />
	<path class="segment U0015717" d="M256,435 C256,435 256,435 256,435" stroke-linecap="round" style="fill: none; stroke: rgb(0,153,255)" transform="translate(4,4)" />
	<line class="segment U0015717" stroke-linecap="round" style="fill: none; stroke: rgb(0,153,255)" transform="translate(4,4)" x1="256" x2="336" y1="435" y2="435" />
	<path class="segment RF_001" d="M256,435 C256,435 256,435 256,435" stroke-linecap="round" style="fill: none; stroke: rgb(64,0,255)" transform="translate(5,5)" />
	<line class="segment RF_001" stroke-linecap="round" style="fill: none; stroke: rgb(64,0,255)" transform="translate(5,5)" x1="256" x2="336" y1="435" y2="435" />
	<path class="segment RF_012" d="M256,435 C256,435 256,435 256,435" stroke-linecap="round" style="fill: none; stroke: rgb(255,0,230)" transform="translate(6,6)" />
	<line class="segment RF_012" stroke-linecap="round" style="fill: none; stroke: rgb(255,0,230)" transform="translate(6,6)" x1="256" x2="336" y1="435" y2="435" />
	<path class="segment RF_015" d="M336,435 C336,435 336,435 336,435" stroke-linecap="round" style="fill: none; stroke: rgb(255,0,0)" transform="translate(0,0)" />
	<line class="segment RF_015" stroke-linecap="round" style="fill: none; stroke: rgb(255,0,0)" transform="translate(0,0)" x1="336" x2="408" y1="435" y2="435" />
	<path class="segment RF_003" d="M336,435 C336,435 336,435 336,435" stroke-linecap="round" style="fill: none; stroke: rgb(255,217,0)" transform="translate(1,1)" />
	<line class="segment RF_003" stroke-linecap="round" style="fill: none; stroke: rgb(255,217,0)" transform="translate(1,1)" x1="336" x2="408" y1="435" y2="435" />
	<path class="segment RF_007" d="M336,435 C336,435 336,435 336,435" stroke-linecap="round" style="fill: none; stroke: rgb(77,255,0)" transform="translate(2,2)" />
	<line class="segment RF_007" stroke-linecap="round" style="fill: none; stroke: rgb(77,255,0)" transform="translate(2,2)" x1="336" x2="408" y1="435" y2="435" />
	<path class="segment U0015716" d="M336,435 C336,435 336,435 336,435" stroke-linecap="round" style="fill: none; stroke: rgb(0,255,140)" transform="translate(3,3)" />
	<line class="segment U0015716" stroke-linecap="round" style="fill: none; stroke: rgb(0,255,140)" transform="translate(3,3)" x1="336" x2="408" y1="435" y2="435" />
	<path class="segment U0015717" d="M336,435 C336,435 336,435 336,435" stroke-linecap="round" style="fill: none; stroke: rgb(0,153,255)" transform="translate(4,4)" />
	<line class="segment U0015717" stroke-linecap="round" style="fill: none; stroke: rgb(0,153,255)" transform="translate(4,4)" x1="336" x2="408" y1="435" y2="435" />
	<path class="segment RF_001" d="M336,435 C336,435 336,435 336,435" stroke-linecap="round" style="fill: none; stroke: rgb(64,0,255)" transform="translate(5,5)" />
	<line class="segment RF_001" stroke-linecap="round" style="fill: none; stroke: rgb(64,0,255)" transform="translate(5,5)" x1="336" x2="408" y1="435" y2="435" />
	<path class="segment RF_012" d="M336,435 C336,435 336,435 336,435" stroke-linecap="round" style="fill: none; stroke: rgb(255,0,230)" transform="translate(6,6)" />
	<line class="segment RF_012" stroke-linecap="round" style="fill: none; stroke: rgb(255,0,230)" transform="translate(6,6)" x1="336" x2="408" y1="435" y2="435" />
	<path class="segment RF_015" d="M408,435 C408,435 408,435 408,435" stroke-linecap="round" style="fill: none; stroke: rgb(255,0,0)" transform="translate(0,0)" />
	<line class="segment RF_015" stroke-linecap="round" style="fill: none; stroke: rgb(255,0,0)" transform="translate(0,0)" x1="408" x2="439" y1="435" y2="435" />
	<path class="segment RF_003" d="M408,435 C408,435 408,435 408,435" stroke-linecap="round" style="fill: none; stroke: rgb(255,217,0)" transform="translate(1,1)" />
	<line class="segment RF_003" stroke-linecap="round" style="fill: none; stroke: rgb(255,217,0)" transform="translate(1,1)" x1="408" x2="439" y1="435" y2="435" />
	<path class="segment RF_007" d="M408,435 C408,435 408,435 408,435" stroke-linecap="round" style="fill: none; stroke: rgb(77,255,0)" transform="translate(2,2)" />
	<line class="segment RF_007" stroke-linecap="round" style="fill: none; stroke: rgb(77,255,0)" transform="translate(2,2)" x1="408" x2="439" y1="435" y2="435" />
	<path class="segment U0015716" d="M408,435 C408,435 408,435 408,435" stroke-linecap="round" style="fill: none; stroke: rgb(0,255,140)" transform="translate(3,3)" />
	<line class="segment U0015716" stroke-linecap="round" style="fill: none; stroke: rgb(0,255,140)" transform="translate(3,3)" x1="408" x2="439" y1="435" y2="435" />
	<path class="segment U0015717" d="M408,435 C408,435 408,435 408,435" stroke-linecap="round" style="fill: none; stroke: rgb(0,153,255)" transform="translate(4,4)" />
	<line class="segment U0015717" stroke-linecap="round" style="fill: none; stroke: rgb(0,153,255)" transform="translate(4,4)" x1="408" x2="439" y1="435" y2="435" />
	<path class="segment RF_001" d="M408,435 C408,435 408,435 408,435" stroke-linecap="round" style="fill: none; stroke: rgb(64,0,255)" transform="translate(5,5)" />
	<line class="segment RF_001" stroke-linecap="round" style="fill: none; stroke: rgb(64,0,255)" transform="translate(5,5)" x1="408" x2="439" y1="435" y2="435" />
	<path class="segment RF_012" d="M408,435 C408,435 408,435 408,435" stroke-linecap="round" style="fill: none; stroke: rgb(255,0,230)" transform="translate(6,6)" />
	<line class="segment RF_012" stroke-linecap="round" style="fill: none; stroke: rgb(255,0,230)" transform="translate(6,6)" x1="408" x2="439" y1="435" y2="435" />
	<path class="segment RF_015" d="M439,435 C439,435 439,435 439,435" stroke-linecap="round" style="fill: none; stroke: rgb(255,0,0)" transform="translate(0,0)" />
	<line class="segment RF_015" stroke-linecap="round" style="fill: none; stroke: rgb(255,0,0)" transform="translate(0,0)" x1="439" x2="461" y1="435" y2="435" />
	<path class="segment RF_003" d="M439,435 C439,435 439,435 439,435" stroke-linecap="round" style="fill: none; stroke: rgb(255,217,0)" transform="translate(1,1)" />
	<line class="segment RF_003" stroke-linecap="round" style="fill: none; stroke: rgb(255,217,0)" transform="translate(1,1)" x1="439" x2="461" y1="435" y2="435" />
	<path class="segment RF_007" d="M439,435 C439,435 439,435 439,435" stroke-linecap="round" style="fill: none; stroke: rgb(77,255,0)" transform="translate(2,2)" />
	<line class="segment RF_007" stroke-linecap="round" style="fill: none; stroke: rgb(77,255,0)" transform="translate(2,2)" x1="439" x2="461" y1="435" y2="435" />
	<path class="segment U0015716" d="M439,435 C439,435 439,435 439,435" stroke-linecap="round" style="fill: none; stroke: rgb(0,255,140)" transform="translate(3,3)" />
	<line class="segment U0015716" stroke-linecap="round" style="fill: none; stroke: rgb(0,255,140)" transform="translate(3,3)" x1="439" x2="461" y1="435" y2="435" />
	<path class="segment U0015717" d="M439,435 C439,435 439,435 439,435" stroke-linecap="round" style="fill: none; stroke: rgb(0,153,255)" transform="translate(4,4)" />
	<line class="segment U0015717" stroke-linecap="round" style="fill: none; stroke: rgb(0,153,255)" transform="translate(4,4)" x1="439" x2="461" y1="435" y2="435" />
	<path class="segment RF_001" d="M439,435 C439,435 439,435 439,435" stroke-linecap="round" style="fill: none; stroke: rgb(64,0,255)" transform="translate(5,5)" />
	<line class="segment RF_001" stroke-linecap="round" style="fill: none; stroke: rgb(64,0,255)" transform="translate(5,5)" x1="439" x2="461" y1="435" y2="435" />
	<path class="segment RF_012" d="M439,435 C439,435 439,435 439,435" stroke-linecap="round" style="fill: none; stroke: rgb(255,0,230)" transform="translate(6,6)" />
	<line class="segment RF_012" stroke-linecap="round" style="fill: none; stroke: rgb(255,0,230)" transform="translate(6,6)" x1="439" x2="461" y1="435" y2="435" />
	<path class="segment RF_015" d="M461,435 C461,435 461,435 461,435" stroke-linecap="round" style="fill: none; stroke: rgb(255,0,0)" transform="translate(0,0)" />
	<line class="segment RF_015" stroke-linecap="round" style="fill: none; stroke: rgb(255,0,0)" transform="translate(0,0)" x1="461" x2="606" y1="435" y2="435" />
	<path class="segment RF_003" d="M461,435 C461,435 461,435 461,435" stroke-linecap="round" style="fill: none; stroke: rgb(255,217,0)" transform="translate(1,1)" />
	<line class="segment RF_003" stroke-linecap="round" style="fill: none; stroke: rgb(255,217,0)" transform="translate(1,1)" x1="461" x2="606" y1="435" y2="435" />
	<path class="segment RF_007" d="M461,435 C461,435 461,435 461,435" stroke-linecap="round" style="fill: none; stroke: rgb(77,255,0)" transform="translate(2,2)" />
	<line class="segment RF_007" stroke-linecap="round" style="fill: none; stroke: rgb(77,255,0)" transform="translate(2,2)" x1="461" x2="606" y1="435" y2="435" />
	<path class="segment U0015716" d="M461,435 C461,435 461,435 461,435" stroke-linecap="round" style="fill: none; stroke: rgb(0,255,140)" transform="translate(3,3)" />
	<line class="segment U0015716" stroke-linecap="round" style="fill: none; stroke: rgb(0,255,140)" transform="translate(3,3)" x1="461" x2="606" y1="435" y2="435" />
	<path class="segment U0015717" d="M461,435 C461,435 461,435 461,435" stroke-linecap="round" style="fill: none; stroke: rgb(0,153,255)" transform="translate(4,4)" />
	<line class="segment U0015717" stroke-linecap="round" style="fill: none; stroke: rgb(0,153,255)" transform="translate(4,4)" x1="461" x2="606" y1="435" y2="435" />
	<path class="segment RF_001" d="M461,435 C461,435 461,435 461,435" stroke-linecap="round" style="fill: none; stroke: rgb(64,0,255)" transform="translate(5,5)" />
	<line class="segment RF_001" stroke-linecap="round" style="fill: none; stroke: rgb(64,0,255)" transform="translate(5,5)" x1="461" x2="606" y1="435" y2="435" />
	<path class="segment RF_012" d="M461,435 C461,435 461,435 461,435" stroke-linecap="round" style="fill: none; stroke: rgb(255,0,230)" transform="translate(6,6)" />
	<line class="segment RF_012" stroke-linecap="round" style="fill: none; stroke: rgb(255,0,230)" transform="translate(6,6)" x1="461" x2="606" y1="435" y2="435" />
	<path class="segment RF_015" d="M606,435 C606,435 606,345 606,345" stroke-linecap="round" style="fill: none; stroke: rgb(255,0,0)" transform="translate(0,0)" />
	<line class="segment RF_015" stroke-linecap="round" style="fill: none; stroke: rgb(255,0,0)" transform="translate(0,0)" x1="606" x2="647" y1="345" y2="345" />
	<path class="segment RF_003" d="M606,435 C606,435 606,345 606,345" stroke-linecap="round" style="fill: none; stroke: rgb(255,217,0)" transform="translate(1,1)" />
	<line class="segment RF_003" stroke-linecap="round" style="fill: none; stroke: rgb(255,217,0)" transform="translate(1,1)" x1="606" x2="647" y1="345" y2="345" />
	<path class="segment RF_007" d="M606,435 C606,435 606,345 606,345" stroke-linecap="round" style="fill: none; stroke: rgb(77,255,0)" transform="translate(2,2)" />
	<line class="segment RF_007" stroke-linecap="round" style="fill: none; stroke: rgb(77,255,0)" transform="translate(2,2)" x1="606" x2="647" y1="345" y2="345" />
	<path class="segment U0015716" d="M606,435 C606,435 606,345 606,345" stroke-linecap="round" style="fill: none; stroke: rgb(0,255,140)" transform="translate(3,3)" />
	<line class="segment U0015716" stroke-linecap="round" style="fill: none; stroke: rgb(0,255,140)" transform="translate(3,3)" x1="606" x2="647" y1="345" y2="345" />
	<path class="segment U0015717" d="M606,435 C606,435 606,345 606,345" stroke-linecap="round" style="fill: none; stroke: rgb(0,153,255)" transform="translate(4,4)" />
	<line class="segment U0015717" stroke-linecap="round" style="fill: none; stroke: rgb(0,153,255)" transform="translate(4,4)" x1="606" x2="647" y1="345" y2="345" />
	<path class="segment RF_001" d="M606,435 C606,435 606,345 606,345" stroke-linecap="round" style="fill: none; stroke: rgb(64,0,255)" transform="translate(5,5)" />
	<line class="segment RF_001" stroke-linecap="round" style="fill: none; stroke: rgb(64,0,255)" transform="translate(5,5)" x1="606" x2="647" y1="345" y2="345" />
	<path class="segment RF_012" d="M606,435 C606,435 606,345 606,345" stroke-linecap="round" style="fill: none; stroke: rgb(255,0,230)" transform="translate(6,6)" />
	<line class="segment RF_012" stroke-linecap="round" style="fill: none; stroke: rgb(255,0,230)" transform="translate(6,6)" x1="606" x2="647" y1="345" y2="345" />
	<path class="segment RF_015" d="M647,345 C647,345 647,390 647,390" stroke-linecap="round" style="fill: none; stroke: rgb(255,0,0)" transform="translate(0,0)" />
	<line class="segment RF_015" stroke-linecap="round" style="fill: none; stroke: rgb(255,0,0)" transform="translate(0,0)" x1="647" x2="800" y1="390" y2="390" />
	<path class="segment RF_003" d="M647,345 C647,345 647,435 647,435" stroke-linecap="round" style="fill: none; stroke: rgb(255,217,0)" transform="translate(1,1)" />
	<line class="segment RF_003" stroke-linecap="round" style="fill: none; stroke: rgb(255,217,0)" transform="translate(1,1)" x1="647" x2="800" y1="435" y2="435" />
	<path class="segment RF_007" d="M647,345 C647,345 647,435 647,435" stroke-linecap="round" style="fill: none; stroke: rgb(77,255,0)" transform="translate(2,2)" />
	<line class="segment RF_007" stroke-linecap="round" style="fill: none; stroke: rgb(77,255,0)" transform="translate(2,2)" x1="647" x2="800" y1="435" y2="435" />
	<path class="segment U0015716" d="M647,345 C647,345 647,435 647,435" stroke-linecap="round" style="fill: none; stroke: rgb(0,255,140)" transform="translate(3,3)" />
	<line class="segment U0015716" stroke-linecap="round" style="fill: none; stroke: rgb(0,255,140)" transform="translate(3,3)" x1="647" x2="800" y1="435" y2="435" />
	<path class="segment U0015717" d="M647,345 C647,345 647,435 647,435" stroke-linecap="round" style="fill: none; stroke: rgb(0,153,255)" transform="translate(4,4)" />
	<line class="segment U0015717" stroke-linecap="round" style="fill: none; stroke: rgb(0,153,255)" transform="translate(4,4)" x1="647" x2="800" y1="435" y2="435" />
	<path class="segment RF_001" d="M647,345 C647,345 647,435 647,435" stroke-linecap="round" style="fill: none; stroke: rgb(64,0,255)" transform="translate(5,5)" />
	<line class="segment RF_001" stroke-linecap="round" style="fill: none; stroke: rgb(64,0,255)" transform="translate(5,5)" x1="647" x2="800" y1="435" y2="435" />
	<path class="segment RF_012" d="M647,345 C647,345 647,435 647,435" stroke-linecap="round" style="fill: none; stroke: rgb(255,0,230)" transform="translate(6,6)" />
	<line class="segment RF_012" stroke-linecap="round" style="fill: none; stroke: rgb(255,0,230)" transform="translate(6,6)" x1="647" x2="800" y1="435" y2="435" />
	<polygon class="arrow" points="352,337.5 352,340 342,335 352,330 352,332.5 458,332.5 458,337.5 352,337.5 " style="fill: white; stroke: black" />
	<rect class="three_prime_UTR" height="50" style="fill: silver; stroke: black" width="5" x="342" y="275" />
	<text class="three_prime_UTR" style="font: 10px Verdana" transform="rotate(-90,346,265)" x="346" y="265">2,161,344 .. 2,161,510</text>
	<rect class="three_prime_UTR" height="50" style="fill: silver; stroke: black" width="1" x="354" y="275" />
	<text class="three_prime_UTR" style="font: 10px Verdana" transform="rotate(-90,358,265)" x="358" y="265">2,161,695 .. 2,161,736</text>
	<rect class="five_prime_UTR" height="50" style="fill: silver; stroke: black" width="1" x="457" y="275" />
	<text class="five_prime_UTR" style="font: 10px Verdana" transform="rotate(-90,461,265)" x="461" y="265">2,164,718 .. 2,164,746</text>
	<!-- 
	Generated using the Perl SVG Module V2.59
	by Ronan Oger
	Info: http://www.roitsystems.com/
 -->
</svg>