<?xml version="1.0" encoding="UTF-8" standalone="yes"?>
<!DOCTYPE svg PUBLIC "-//W3C//DTD SVG 1.0//EN" "http://www.w3.org/TR/2001/REC-SVG-20010904/DTD/svg10.dtd">
<svg height="600" width="800" xmlns="http://www.w3.org/2000/svg" xmlns:svg="http://www.w3.org/2000/svg" xmlns:xlink="http://www.w3.org/1999/xlink">
	<line class="breakpoint" style="fill: white; stroke: black; stroke-width: 0.1" x1="69" x2="69" y1="100" y2="300" />
	<text class="breakpoint" style="font: 10px Verdana" transform="rotate(-90,4,90)" x="4" y="90">67,291,676</text>
	<line class="breakpoint" style="fill: white; stroke: black; stroke-width: 0.1" x1="800" x2="800" y1="100" y2="300" />
	<text class="breakpoint" style="font: 10px Verdana" transform="rotate(-90,73,90)" x="73" y="90">67,293,724</text>
	<polyline class="scale" points="0,294 0,306 0,300 3,300 3,298 3,302 3,300 7,300 7,298 7,302 7,300 10,300 10,298 10,302 10,300 13,300 13,298 13,302 13,300 17,300 17,298 17,302 17,300 20,300 20,298 20,302 20,300 24,300 24,298 24,302 24,300 27,300 27,298 27,302 27,300 30,300 30,298 30,302 30,300 34,300 34,294 34,306 34,300 37,300 37,298 37,302 37,300 40,300 40,298 40,302 40,300 44,300 44,298 44,302 44,300 47,300 47,298 47,302 47,300 51,300 51,298 51,302 51,300 54,300 54,298 54,302 54,300 57,300 57,298 57,302 57,300 61,300 61,298 61,302 61,300 64,300 64,298 64,302 64,300 67,300 67,294 67,306 67,300 71,300 71,298 71,302 71,300 74,300 74,298 74,302 74,300 78,300 78,298 78,302 78,300 81,300 81,298 81,302 81,300 84,300 84,298 84,302 84,300 88,300 88,298 88,302 88,300 91,300 91,298 91,302 91,300 94,300 94,298 94,302 94,300 98,300 98,298 98,302 98,300 101,300 101,294 101,306 101,300 104,300 104,298 104,302 104,300 108,300 108,298 108,302 108,300 111,300 111,298 111,302 111,300 115,300 115,298 115,302 115,300 118,300 118,298 118,302 118,300 121,300 121,298 121,302 121,300 125,300 125,298 125,302 125,300 128,300 128,298 128,302 128,300 131,300 131,298 131,302 131,300 135,300 135,294 135,306 135,300 138,300 138,298 138,302 138,300 142,300 142,298 142,302 142,300 145,300 145,298 145,302 145,300 148,300 148,298 148,302 148,300 152,300 152,298 152,302 152,300 155,300 155,298 155,302 155,300 158,300 158,298 158,302 158,300 162,300 162,298 162,302 162,300 165,300 165,298 165,302 165,300 169,300 169,294 169,306 169,300 172,300 172,298 172,302 172,300 175,300 175,298 175,302 175,300 179,300 179,298 179,302 179,300 182,300 182,298 182,302 182,300 185,300 185,298 185,302 185,300 189,300 189,298 189,302 189,300 192,300 192,298 192,302 192,300 195,300 195,298 195,302 195,300 199,300 199,298 199,302 199,300 202,300 202,294 202,306 202,300 206,300 206,298 206,302 206,300 209,300 209,298 209,302 209,300 212,300 212,298 212,302 212,300 216,300 216,298 216,302 216,300 219,300 219,298 219,302 219,300 222,300 222,298 222,302 222,300 226,300 226,298 226,302 226,300 229,300 229,298 229,302 229,300 233,300 233,298 233,302 233,300 236,300 236,294 236,306 236,300 239,300 239,298 239,302 239,300 243,300 243,298 243,302 243,300 246,300 246,298 246,302 246,300 249,300 249,298 249,302 249,300 253,300 253,298 253,302 253,300 256,300 256,298 256,302 256,300 260,300 260,298 260,302 260,300 263,300 263,298 263,302 263,300 266,300 266,298 266,302 266,300 270,300 270,294 270,306 270,300 273,300 273,298 273,302 273,300 276,300 276,298 276,302 276,300 280,300 280,298 280,302 280,300 283,300 283,298 283,302 283,300 286,300 286,298 286,302 286,300 290,300 290,298 290,302 290,300 293,300 293,298 293,302 293,300 297,300 297,298 297,302 297,300 300,300 300,298 300,302 300,300 303,300 303,294 303,306 303,300 307,300 307,298 307,302 307,300 310,300 310,298 310,302 310,300 313,300 313,298 313,302 313,300 317,300 317,298 317,302 317,300 320,300 320,298 320,302 320,300 324,300 324,298 324,302 324,300 327,300 327,298 327,302 327,300 330,300 330,298 330,302 330,300 334,300 334,298 334,302 334,300 337,300 337,294 337,306 337,300 340,300 340,298 340,302 340,300 344,300 344,298 344,302 344,300 347,300 347,298 347,302 347,300 351,300 351,298 351,302 351,300 354,300 354,298 354,302 354,300 357,300 357,298 357,302 357,300 361,300 361,298 361,302 361,300 364,300 364,298 364,302 364,300 367,300 367,298 367,302 367,300 371,300 371,294 371,306 371,300 374,300 374,298 374,302 374,300 377,300 377,298 377,302 377,300 381,300 381,298 381,302 381,300 384,300 384,298 384,302 384,300 388,300 388,298 388,302 388,300 391,300 391,298 391,302 391,300 394,300 394,298 394,302 394,300 398,300 398,298 398,302 398,300 401,300 401,298 401,302 401,300 404,300 404,294 404,306 404,300 408,300 408,298 408,302 408,300 411,300 411,298 411,302 411,300 415,300 415,298 415,302 415,300 418,300 418,298 418,302 418,300 421,300 421,298 421,302 421,300 425,300 425,298 425,302 425,300 428,300 428,298 428,302 428,300 431,300 431,298 431,302 431,300 435,300 435,298 435,302 435,300 438,300 438,294 438,306 438,300 442,300 442,298 442,302 442,300 445,300 445,298 445,302 445,300 448,300 448,298 448,302 448,300 452,300 452,298 452,302 452,300 455,300 455,298 455,302 455,300 458,300 458,298 458,302 458,300 462,300 462,298 462,302 462,300 465,300 465,298 465,302 465,300 468,300 468,298 468,302 468,300 472,300 472,294 472,306 472,300 475,300 475,298 475,302 475,300 479,300 479,298 479,302 479,300 482,300 482,298 482,302 482,300 485,300 485,298 485,302 485,300 489,300 489,298 489,302 489,300 492,300 492,298 492,302 492,300 495,300 495,298 495,302 495,300 499,300 499,298 499,302 499,300 502,300 502,298 502,302 502,300 506,300 506,294 506,306 506,300 509,300 509,298 509,302 509,300 512,300 512,298 512,302 512,300 516,300 516,298 516,302 516,300 519,300 519,298 519,302 519,300 522,300 522,298 522,302 522,300 526,300 526,298 526,302 526,300 529,300 529,298 529,302 529,300 533,300 533,298 533,302 533,300 536,300 536,298 536,302 536,300 539,300 539,294 539,306 539,300 543,300 543,298 543,302 543,300 546,300 546,298 546,302 546,300 549,300 549,298 549,302 549,300 553,300 553,298 553,302 553,300 556,300 556,298 556,302 556,300 559,300 559,298 559,302 559,300 563,300 563,298 563,302 563,300 566,300 566,298 566,302 566,300 570,300 570,298 570,302 570,300 573,300 573,294 573,306 573,300 576,300 576,298 576,302 576,300 580,300 580,298 580,302 580,300 583,300 583,298 583,302 583,300 586,300 586,298 586,302 586,300 590,300 590,298 590,302 590,300 593,300 593,298 593,302 593,300 597,300 597,298 597,302 597,300 600,300 600,298 600,302 600,300 603,300 603,298 603,302 603,300 607,300 607,294 607,306 607,300 610,300 610,298 610,302 610,300 613,300 613,298 613,302 613,300 617,300 617,298 617,302 617,300 620,300 620,298 620,302 620,300 623,300 623,298 623,302 623,300 627,300 627,298 627,302 627,300 630,300 630,298 630,302 630,300 634,300 634,298 634,302 634,300 637,300 637,298 637,302 637,300 640,300 640,294 640,306 640,300 644,300 644,298 644,302 644,300 647,300 647,298 647,302 647,300 650,300 650,298 650,302 650,300 654,300 654,298 654,302 654,300 657,300 657,298 657,302 657,300 661,300 661,298 661,302 661,300 664,300 664,298 664,302 664,300 667,300 667,298 667,302 667,300 671,300 671,298 671,302 671,300 674,300 674,294 674,306 674,300 677,300 677,298 677,302 677,300 681,300 681,298 681,302 681,300 684,300 684,298 684,302 684,300 688,300 688,298 688,302 688,300 691,300 691,298 691,302 691,300 694,300 694,298 694,302 694,300 698,300 698,298 698,302 698,300 701,300 701,298 701,302 701,300 704,300 704,298 704,302 704,300 708,300 708,294 708,306 708,300 711,300 711,298 711,302 711,300 714,300 714,298 714,302 714,300 718,300 718,298 718,302 718,300 721,300 721,298 721,302 721,300 725,300 725,298 725,302 725,300 728,300 728,298 728,302 728,300 731,300 731,298 731,302 731,300 735,300 735,298 735,302 735,300 738,300 738,298 738,302 738,300 741,300 741,294 741,306 741,300 745,300 745,298 745,302 745,300 748,300 748,298 748,302 748,300 752,300 752,298 752,302 752,300 755,300 755,298 755,302 755,300 758,300 758,298 758,302 758,300 762,300 762,298 762,302 762,300 765,300 765,298 765,302 765,300 768,300 768,298 768,302 768,300 772,300 772,298 772,302 772,300 775,300 775,294 775,306 775,300 779,300 779,298 779,302 779,300 782,300 782,298 782,302 782,300 785,300 785,298 785,302 785,300 789,300 789,298 789,302 789,300 792,300 792,298 792,302 792,300 795,300 795,298 795,302 795,300 799,300 799,298 799,302 799,300 800,300 " style="fill: none; stroke: black; stroke-width: 0.1" />
	<rect class="exon" height="50" style="fill: white; stroke: black" width="126" x="337" y="275" />
	<text class="exon" style="font: 10px Verdana" transform="rotate(-90,341,265)" x="341" y="265">67,301,675 .. 67,305,412</text>
	<line class="breakpoint" style="fill: white; stroke: black; stroke-width: 0.1" x1="69" x2="69" y1="100" y2="300" />
	<text class="breakpoint" style="font: 10px Verdana" transform="rotate(-90,4,90)" x="4" y="90">67,291,676</text>
	<line class="breakpoint" style="fill: white; stroke: black; stroke-width: 0.1" x1="800" x2="800" y1="100" y2="300" />
	<text class="breakpoint" style="font: 10px Verdana" transform="rotate(-90,73,90)" x="73" y="90">67,293,724</text>
	<line style="fill: none; stroke: gray; stroke-width: 0.1" x1="0" x2="800" y1="345" y2="345" />
	<text class="crossover RF_047" style="font: 10px Verdana" x="4" y="339">S. pimpinellifolium</text>
	<line style="fill: none; stroke: gray; stroke-width: 0.1" x1="0" x2="800" y1="390" y2="390" />
	<text class="crossover ITAG2_3" style="font: 10px Verdana" x="4" y="384">S. l. Heinz 1706</text>
	<line style="fill: none; stroke: gray; stroke-width: 0.1" x1="0" x2="800" y1="435" y2="435" />
	<text class="crossover RF_051" style="font: 10px Verdana" x="4" y="429">S. chiemliewskii</text>
	<line style="fill: none; stroke: rgb(255,0,0)" x1="5" x2="10" y1="480" y2="480" />
	<text class="crossover" style="font: 10px Verdana" x="15" y="485">S. l. var Momatero</text>
	<line style="fill: none; stroke: rgb(255,217,0)" x1="5" x2="10" y1="495" y2="495" />
	<text class="crossover" style="font: 10px Verdana" x="15" y="500">S. l. var Gardener&apos;s Delight	</text>
	<line style="fill: none; stroke: rgb(77,255,0)" x1="5" x2="10" y1="510" y2="510" />
	<text class="crossover" style="font: 10px Verdana" x="15" y="515">S. l. var Katinka Cherry</text>
	<line style="fill: none; stroke: rgb(0,255,140)" x1="5" x2="10" y1="525" y2="525" />
	<text class="crossover" style="font: 10px Verdana" x="15" y="530">S. l. (1891)</text>
	<line style="fill: none; stroke: rgb(0,153,255)" x1="5" x2="10" y1="540" y2="540" />
	<text class="crossover" style="font: 10px Verdana" x="15" y="545">S. l. (1830)</text>
	<line style="fill: none; stroke: rgb(64,0,255)" x1="5" x2="10" y1="555" y2="555" />
	<text class="crossover" style="font: 10px Verdana" x="15" y="560">S. l. var Moneymaker</text>
	<line style="fill: none; stroke: rgb(255,0,230)" x1="5" x2="10" y1="570" y2="570" />
	<text class="crossover" style="font: 10px Verdana" x="15" y="575">S. l. var Sonato</text>
	<line class="segment RF_015" stroke-linecap="round" style="fill: none; stroke: rgb(255,0,0)" transform="translate(0,0)" x1="0" x2="69" y1="435" y2="435" />
	<line class="segment RF_003" stroke-linecap="round" style="fill: none; stroke: rgb(255,217,0)" transform="translate(1,1)" x1="0" x2="69" y1="435" y2="435" />
	<line class="segment RF_007" stroke-linecap="round" style="fill: none; stroke: rgb(77,255,0)" transform="translate(2,2)" x1="0" x2="69" y1="435" y2="435" />
	<line class="segment U0015716" stroke-linecap="round" style="fill: none; stroke: rgb(0,255,140)" transform="translate(3,3)" x1="0" x2="69" y1="345" y2="345" />
	<line class="segment U0015717" stroke-linecap="round" style="fill: none; stroke: rgb(0,153,255)" transform="translate(4,4)" x1="0" x2="69" y1="435" y2="435" />
	<line class="segment RF_001" stroke-linecap="round" style="fill: none; stroke: rgb(64,0,255)" transform="translate(5,5)" x1="0" x2="69" y1="435" y2="435" />
	<line class="segment RF_012" stroke-linecap="round" style="fill: none; stroke: rgb(255,0,230)" transform="translate(6,6)" x1="0" x2="69" y1="435" y2="435" />
	<path class="segment RF_015" d="M69,435 C69,435 69,390 69,390" stroke-linecap="round" style="fill: none; stroke: rgb(255,0,0)" transform="translate(0,0)" />
	<line class="segment RF_015" stroke-linecap="round" style="fill: none; stroke: rgb(255,0,0)" transform="translate(0,0)" x1="69" x2="800" y1="390" y2="390" />
	<path class="segment RF_003" d="M69,435 C69,435 69,390 69,390" stroke-linecap="round" style="fill: none; stroke: rgb(255,217,0)" transform="translate(1,1)" />
	<line class="segment RF_003" stroke-linecap="round" style="fill: none; stroke: rgb(255,217,0)" transform="translate(1,1)" x1="69" x2="800" y1="390" y2="390" />
	<path class="segment RF_007" d="M69,435 C69,435 69,345 69,345" stroke-linecap="round" style="fill: none; stroke: rgb(77,255,0)" transform="translate(2,2)" />
	<line class="segment RF_007" stroke-linecap="round" style="fill: none; stroke: rgb(77,255,0)" transform="translate(2,2)" x1="69" x2="800" y1="345" y2="345" />
	<path class="segment U0015716" d="M69,345 C69,345 69,390 69,390" stroke-linecap="round" style="fill: none; stroke: rgb(0,255,140)" transform="translate(3,3)" />
	<line class="segment U0015716" stroke-linecap="round" style="fill: none; stroke: rgb(0,255,140)" transform="translate(3,3)" x1="69" x2="800" y1="390" y2="390" />
	<path class="segment U0015717" d="M69,435 C69,435 69,390 69,390" stroke-linecap="round" style="fill: none; stroke: rgb(0,153,255)" transform="translate(4,4)" />
	<line class="segment U0015717" stroke-linecap="round" style="fill: none; stroke: rgb(0,153,255)" transform="translate(4,4)" x1="69" x2="800" y1="390" y2="390" />
	<path class="segment RF_001" d="M69,435 C69,435 69,390 69,390" stroke-linecap="round" style="fill: none; stroke: rgb(64,0,255)" transform="translate(5,5)" />
	<line class="segment RF_001" stroke-linecap="round" style="fill: none; stroke: rgb(64,0,255)" transform="translate(5,5)" x1="69" x2="800" y1="390" y2="390" />
	<path class="segment RF_012" d="M69,435 C69,435 69,390 69,390" stroke-linecap="round" style="fill: none; stroke: rgb(255,0,230)" transform="translate(6,6)" />
	<line class="segment RF_012" stroke-linecap="round" style="fill: none; stroke: rgb(255,0,230)" transform="translate(6,6)" x1="69" x2="800" y1="390" y2="390" />
	<polygon class="arrow" points="337,337.5 337,332.5 453,332.5 453,330 463,335 453,340 453,337.5 337,337.5 " style="fill: white; stroke: black" />
	<!-- 
	Generated using the Perl SVG Module V2.59
	by Ronan Oger
	Info: http://www.roitsystems.com/
 -->
</svg>