<?xml version="1.0" encoding="UTF-8" standalone="yes"?>
<!DOCTYPE svg PUBLIC "-//W3C//DTD SVG 1.0//EN" "http://www.w3.org/TR/2001/REC-SVG-20010904/DTD/svg10.dtd">
<svg height="600" width="800" xmlns="http://www.w3.org/2000/svg" xmlns:svg="http://www.w3.org/2000/svg" xmlns:xlink="http://www.w3.org/1999/xlink">
	<line class="breakpoint" style="fill: white; stroke: black; stroke-width: 0.1" x1="39" x2="39" y1="100" y2="300" />
	<text class="breakpoint" style="font: 10px Verdana" transform="rotate(-90,4,90)" x="4" y="90">62,425,059</text>
	<line class="breakpoint" style="fill: white; stroke: black; stroke-width: 0.1" x1="800" x2="800" y1="100" y2="300" />
	<text class="breakpoint" style="font: 10px Verdana" transform="rotate(-90,43,90)" x="43" y="90">62,426,300</text>
	<polyline class="scale" points="0,294 0,306 0,300 3,300 3,298 3,302 3,300 6,300 6,298 6,302 6,300 9,300 9,298 9,302 9,300 13,300 13,298 13,302 13,300 16,300 16,298 16,302 16,300 19,300 19,298 19,302 19,300 22,300 22,298 22,302 22,300 25,300 25,298 25,302 25,300 28,300 28,298 28,302 28,300 32,300 32,294 32,306 32,300 35,300 35,298 35,302 35,300 38,300 38,298 38,302 38,300 41,300 41,298 41,302 41,300 44,300 44,298 44,302 44,300 47,300 47,298 47,302 47,300 50,300 50,298 50,302 50,300 54,300 54,298 54,302 54,300 57,300 57,298 57,302 57,300 60,300 60,298 60,302 60,300 63,300 63,294 63,306 63,300 66,300 66,298 66,302 66,300 69,300 69,298 69,302 69,300 72,300 72,298 72,302 72,300 76,300 76,298 76,302 76,300 79,300 79,298 79,302 79,300 82,300 82,298 82,302 82,300 85,300 85,298 85,302 85,300 88,300 88,298 88,302 88,300 91,300 91,298 91,302 91,300 95,300 95,294 95,306 95,300 98,300 98,298 98,302 98,300 101,300 101,298 101,302 101,300 104,300 104,298 104,302 104,300 107,300 107,298 107,302 107,300 110,300 110,298 110,302 110,300 113,300 113,298 113,302 113,300 117,300 117,298 117,302 117,300 120,300 120,298 120,302 120,300 123,300 123,298 123,302 123,300 126,300 126,294 126,306 126,300 129,300 129,298 129,302 129,300 132,300 132,298 132,302 132,300 136,300 136,298 136,302 136,300 139,300 139,298 139,302 139,300 142,300 142,298 142,302 142,300 145,300 145,298 145,302 145,300 148,300 148,298 148,302 148,300 151,300 151,298 151,302 151,300 154,300 154,298 154,302 154,300 158,300 158,294 158,306 158,300 161,300 161,298 161,302 161,300 164,300 164,298 164,302 164,300 167,300 167,298 167,302 167,300 170,300 170,298 170,302 170,300 173,300 173,298 173,302 173,300 176,300 176,298 176,302 176,300 180,300 180,298 180,302 180,300 183,300 183,298 183,302 183,300 186,300 186,298 186,302 186,300 189,300 189,294 189,306 189,300 192,300 192,298 192,302 192,300 195,300 195,298 195,302 195,300 199,300 199,298 199,302 199,300 202,300 202,298 202,302 202,300 205,300 205,298 205,302 205,300 208,300 208,298 208,302 208,300 211,300 211,298 211,302 211,300 214,300 214,298 214,302 214,300 217,300 217,298 217,302 217,300 221,300 221,294 221,306 221,300 224,300 224,298 224,302 224,300 227,300 227,298 227,302 227,300 230,300 230,298 230,302 230,300 233,300 233,298 233,302 233,300 236,300 236,298 236,302 236,300 240,300 240,298 240,302 240,300 243,300 243,298 243,302 243,300 246,300 246,298 246,302 246,300 249,300 249,298 249,302 249,300 252,300 252,294 252,306 252,300 255,300 255,298 255,302 255,300 258,300 258,298 258,302 258,300 262,300 262,298 262,302 262,300 265,300 265,298 265,302 265,300 268,300 268,298 268,302 268,300 271,300 271,298 271,302 271,300 274,300 274,298 274,302 274,300 277,300 277,298 277,302 277,300 280,300 280,298 280,302 280,300 284,300 284,294 284,306 284,300 287,300 287,298 287,302 287,300 290,300 290,298 290,302 290,300 293,300 293,298 293,302 293,300 296,300 296,298 296,302 296,300 299,300 299,298 299,302 299,300 303,300 303,298 303,302 303,300 306,300 306,298 306,302 306,300 309,300 309,298 309,302 309,300 312,300 312,298 312,302 312,300 315,300 315,294 315,306 315,300 318,300 318,298 318,302 318,300 321,300 321,298 321,302 321,300 325,300 325,298 325,302 325,300 328,300 328,298 328,302 328,300 331,300 331,298 331,302 331,300 334,300 334,298 334,302 334,300 337,300 337,298 337,302 337,300 340,300 340,298 340,302 340,300 343,300 343,298 343,302 343,300 347,300 347,294 347,306 347,300 350,300 350,298 350,302 350,300 353,300 353,298 353,302 353,300 356,300 356,298 356,302 356,300 359,300 359,298 359,302 359,300 362,300 362,298 362,302 362,300 366,300 366,298 366,302 366,300 369,300 369,298 369,302 369,300 372,300 372,298 372,302 372,300 375,300 375,298 375,302 375,300 378,300 378,294 378,306 378,300 381,300 381,298 381,302 381,300 384,300 384,298 384,302 384,300 388,300 388,298 388,302 388,300 391,300 391,298 391,302 391,300 394,300 394,298 394,302 394,300 397,300 397,298 397,302 397,300 400,300 400,298 400,302 400,300 403,300 403,298 403,302 403,300 407,300 407,298 407,302 407,300 410,300 410,294 410,306 410,300 413,300 413,298 413,302 413,300 416,300 416,298 416,302 416,300 419,300 419,298 419,302 419,300 422,300 422,298 422,302 422,300 425,300 425,298 425,302 425,300 429,300 429,298 429,302 429,300 432,300 432,298 432,302 432,300 435,300 435,298 435,302 435,300 438,300 438,298 438,302 438,300 441,300 441,294 441,306 441,300 444,300 444,298 444,302 444,300 447,300 447,298 447,302 447,300 451,300 451,298 451,302 451,300 454,300 454,298 454,302 454,300 457,300 457,298 457,302 457,300 460,300 460,298 460,302 460,300 463,300 463,298 463,302 463,300 466,300 466,298 466,302 466,300 470,300 470,298 470,302 470,300 473,300 473,294 473,306 473,300 476,300 476,298 476,302 476,300 479,300 479,298 479,302 479,300 482,300 482,298 482,302 482,300 485,300 485,298 485,302 485,300 488,300 488,298 488,302 488,300 492,300 492,298 492,302 492,300 495,300 495,298 495,302 495,300 498,300 498,298 498,302 498,300 501,300 501,298 501,302 501,300 504,300 504,294 504,306 504,300 507,300 507,298 507,302 507,300 511,300 511,298 511,302 511,300 514,300 514,298 514,302 514,300 517,300 517,298 517,302 517,300 520,300 520,298 520,302 520,300 523,300 523,298 523,302 523,300 526,300 526,298 526,302 526,300 529,300 529,298 529,302 529,300 533,300 533,298 533,302 533,300 536,300 536,294 536,306 536,300 539,300 539,298 539,302 539,300 542,300 542,298 542,302 542,300 545,300 545,298 545,302 545,300 548,300 548,298 548,302 548,300 551,300 551,298 551,302 551,300 555,300 555,298 555,302 555,300 558,300 558,298 558,302 558,300 561,300 561,298 561,302 561,300 564,300 564,298 564,302 564,300 567,300 567,294 567,306 567,300 570,300 570,298 570,302 570,300 574,300 574,298 574,302 574,300 577,300 577,298 577,302 577,300 580,300 580,298 580,302 580,300 583,300 583,298 583,302 583,300 586,300 586,298 586,302 586,300 589,300 589,298 589,302 589,300 592,300 592,298 592,302 592,300 596,300 596,298 596,302 596,300 599,300 599,294 599,306 599,300 602,300 602,298 602,302 602,300 605,300 605,298 605,302 605,300 608,300 608,298 608,302 608,300 611,300 611,298 611,302 611,300 615,300 615,298 615,302 615,300 618,300 618,298 618,302 618,300 621,300 621,298 621,302 621,300 624,300 624,298 624,302 624,300 627,300 627,298 627,302 627,300 630,300 630,294 630,306 630,300 633,300 633,298 633,302 633,300 637,300 637,298 637,302 637,300 640,300 640,298 640,302 640,300 643,300 643,298 643,302 643,300 646,300 646,298 646,302 646,300 649,300 649,298 649,302 649,300 652,300 652,298 652,302 652,300 655,300 655,298 655,302 655,300 659,300 659,298 659,302 659,300 662,300 662,294 662,306 662,300 665,300 665,298 665,302 665,300 668,300 668,298 668,302 668,300 671,300 671,298 671,302 671,300 674,300 674,298 674,302 674,300 678,300 678,298 678,302 678,300 681,300 681,298 681,302 681,300 684,300 684,298 684,302 684,300 687,300 687,298 687,302 687,300 690,300 690,298 690,302 690,300 693,300 693,294 693,306 693,300 696,300 696,298 696,302 696,300 700,300 700,298 700,302 700,300 703,300 703,298 703,302 703,300 706,300 706,298 706,302 706,300 709,300 709,298 709,302 709,300 712,300 712,298 712,302 712,300 715,300 715,298 715,302 715,300 719,300 719,298 719,302 719,300 722,300 722,298 722,302 722,300 725,300 725,294 725,306 725,300 728,300 728,298 728,302 728,300 731,300 731,298 731,302 731,300 734,300 734,298 734,302 734,300 737,300 737,298 737,302 737,300 741,300 741,298 741,302 741,300 744,300 744,298 744,302 744,300 747,300 747,298 747,302 747,300 750,300 750,298 750,302 750,300 753,300 753,298 753,302 753,300 756,300 756,294 756,306 756,300 759,300 759,298 759,302 759,300 763,300 763,298 763,302 763,300 766,300 766,298 766,302 766,300 769,300 769,298 769,302 769,300 772,300 772,298 772,302 772,300 775,300 775,298 775,302 775,300 778,300 778,298 778,302 778,300 782,300 782,298 782,302 782,300 785,300 785,298 785,302 785,300 788,300 788,294 788,306 788,300 791,300 791,298 791,302 791,300 794,300 794,298 794,302 794,300 797,300 797,298 797,302 797,300 800,300 " style="fill: none; stroke: black; stroke-width: 0.1" />
	<rect class="exon" height="50" style="fill: white; stroke: black" width="6" x="315" y="275" />
	<text class="exon" style="font: 10px Verdana" transform="rotate(-90,319,265)" x="319" y="265">62,435,058 .. 62,435,237</text>
	<line class="intron" style="fill: white; stroke: black" x1="321" x2="323" y1="300" y2="300" />
	<rect class="exon" height="50" style="fill: white; stroke: black" width="3" x="323" y="275" />
	<text class="exon" style="font: 10px Verdana" transform="rotate(-90,327,265)" x="327" y="265">62,435,321 .. 62,435,417</text>
	<line class="intron" style="fill: white; stroke: black" x1="326" x2="330" y1="300" y2="300" />
	<rect class="exon" height="50" style="fill: white; stroke: black" width="7" x="330" y="275" />
	<text class="exon" style="font: 10px Verdana" transform="rotate(-90,334,265)" x="334" y="265">62,435,516 .. 62,435,760</text>
	<line class="intron" style="fill: white; stroke: black" x1="337" x2="340" y1="300" y2="300" />
	<rect class="exon" height="50" style="fill: white; stroke: black" width="32" x="340" y="275" />
	<text class="exon" style="font: 10px Verdana" transform="rotate(-90,344,265)" x="344" y="265">62,435,856 .. 62,436,877</text>
	<line class="intron" style="fill: white; stroke: black" x1="372" x2="375" y1="300" y2="300" />
	<rect class="exon" height="50" style="fill: white; stroke: black" width="1" x="375" y="275" />
	<text class="exon" style="font: 10px Verdana" transform="rotate(-90,379,265)" x="379" y="265">62,436,964 .. 62,436,972</text>
	<line class="intron" style="fill: white; stroke: black" x1="375" x2="479" y1="300" y2="300" />
	<rect class="exon" height="50" style="fill: white; stroke: black" width="6" x="479" y="275" />
	<text class="exon" style="font: 10px Verdana" transform="rotate(-90,483,265)" x="483" y="265">62,440,249 .. 62,440,444</text>
	<line class="breakpoint" style="fill: white; stroke: black; stroke-width: 0.1" x1="39" x2="39" y1="100" y2="300" />
	<text class="breakpoint" style="font: 10px Verdana" transform="rotate(-90,4,90)" x="4" y="90">62,425,059</text>
	<line class="breakpoint" style="fill: white; stroke: black; stroke-width: 0.1" x1="800" x2="800" y1="100" y2="300" />
	<text class="breakpoint" style="font: 10px Verdana" transform="rotate(-90,43,90)" x="43" y="90">62,426,300</text>
	<line style="fill: none; stroke: gray; stroke-width: 0.1" x1="0" x2="800" y1="345" y2="345" />
	<text class="crossover RF_047" style="font: 10px Verdana" x="4" y="339">S. pimpinellifolium</text>
	<line style="fill: none; stroke: gray; stroke-width: 0.1" x1="0" x2="800" y1="390" y2="390" />
	<text class="crossover ITAG2_3" style="font: 10px Verdana" x="4" y="384">S. l. Heinz 1706</text>
	<line style="fill: none; stroke: gray; stroke-width: 0.1" x1="0" x2="800" y1="435" y2="435" />
	<text class="crossover RF_051" style="font: 10px Verdana" x="4" y="429">S. chiemliewskii</text>
	<line style="fill: none; stroke: rgb(255,0,0)" x1="5" x2="10" y1="480" y2="480" />
	<text class="crossover" style="font: 10px Verdana" x="15" y="485">S. l. var Momatero</text>
	<line style="fill: none; stroke: rgb(255,217,0)" x1="5" x2="10" y1="495" y2="495" />
	<text class="crossover" style="font: 10px Verdana" x="15" y="500">S. l. var Gardener&apos;s Delight	</text>
	<line style="fill: none; stroke: rgb(77,255,0)" x1="5" x2="10" y1="510" y2="510" />
	<text class="crossover" style="font: 10px Verdana" x="15" y="515">S. l. var Katinka Cherry</text>
	<line style="fill: none; stroke: rgb(0,255,140)" x1="5" x2="10" y1="525" y2="525" />
	<text class="crossover" style="font: 10px Verdana" x="15" y="530">S. l. (1891)</text>
	<line style="fill: none; stroke: rgb(0,153,255)" x1="5" x2="10" y1="540" y2="540" />
	<text class="crossover" style="font: 10px Verdana" x="15" y="545">S. l. (1830)</text>
	<line style="fill: none; stroke: rgb(64,0,255)" x1="5" x2="10" y1="555" y2="555" />
	<text class="crossover" style="font: 10px Verdana" x="15" y="560">S. l. var Moneymaker</text>
	<line style="fill: none; stroke: rgb(255,0,230)" x1="5" x2="10" y1="570" y2="570" />
	<text class="crossover" style="font: 10px Verdana" x="15" y="575">S. l. var Sonato</text>
	<line class="segment RF_015" stroke-linecap="round" style="fill: none; stroke: rgb(255,0,0)" transform="translate(0,0)" x1="0" x2="39" y1="435" y2="435" />
	<line class="segment RF_003" stroke-linecap="round" style="fill: none; stroke: rgb(255,217,0)" transform="translate(1,1)" x1="0" x2="39" y1="435" y2="435" />
	<line class="segment RF_007" stroke-linecap="round" style="fill: none; stroke: rgb(77,255,0)" transform="translate(2,2)" x1="0" x2="39" y1="435" y2="435" />
	<line class="segment U0015716" stroke-linecap="round" style="fill: none; stroke: rgb(0,255,140)" transform="translate(3,3)" x1="0" x2="39" y1="435" y2="435" />
	<line class="segment U0015717" stroke-linecap="round" style="fill: none; stroke: rgb(0,153,255)" transform="translate(4,4)" x1="0" x2="39" y1="435" y2="435" />
	<line class="segment RF_001" stroke-linecap="round" style="fill: none; stroke: rgb(64,0,255)" transform="translate(5,5)" x1="0" x2="39" y1="435" y2="435" />
	<line class="segment RF_012" stroke-linecap="round" style="fill: none; stroke: rgb(255,0,230)" transform="translate(6,6)" x1="0" x2="39" y1="435" y2="435" />
	<path class="segment RF_015" d="M39,435 C39,435 39,390 39,390" stroke-linecap="round" style="fill: none; stroke: rgb(255,0,0)" transform="translate(0,0)" />
	<line class="segment RF_015" stroke-linecap="round" style="fill: none; stroke: rgb(255,0,0)" transform="translate(0,0)" x1="39" x2="800" y1="390" y2="390" />
	<path class="segment RF_003" d="M39,435 C39,435 39,345 39,345" stroke-linecap="round" style="fill: none; stroke: rgb(255,217,0)" transform="translate(1,1)" />
	<line class="segment RF_003" stroke-linecap="round" style="fill: none; stroke: rgb(255,217,0)" transform="translate(1,1)" x1="39" x2="800" y1="345" y2="345" />
	<path class="segment RF_007" d="M39,435 C39,435 39,390 39,390" stroke-linecap="round" style="fill: none; stroke: rgb(77,255,0)" transform="translate(2,2)" />
	<line class="segment RF_007" stroke-linecap="round" style="fill: none; stroke: rgb(77,255,0)" transform="translate(2,2)" x1="39" x2="800" y1="390" y2="390" />
	<path class="segment U0015716" d="M39,435 C39,435 39,390 39,390" stroke-linecap="round" style="fill: none; stroke: rgb(0,255,140)" transform="translate(3,3)" />
	<line class="segment U0015716" stroke-linecap="round" style="fill: none; stroke: rgb(0,255,140)" transform="translate(3,3)" x1="39" x2="800" y1="390" y2="390" />
	<path class="segment U0015717" d="M39,435 C39,435 39,390 39,390" stroke-linecap="round" style="fill: none; stroke: rgb(0,153,255)" transform="translate(4,4)" />
	<line class="segment U0015717" stroke-linecap="round" style="fill: none; stroke: rgb(0,153,255)" transform="translate(4,4)" x1="39" x2="800" y1="390" y2="390" />
	<path class="segment RF_001" d="M39,435 C39,435 39,390 39,390" stroke-linecap="round" style="fill: none; stroke: rgb(64,0,255)" transform="translate(5,5)" />
	<line class="segment RF_001" stroke-linecap="round" style="fill: none; stroke: rgb(64,0,255)" transform="translate(5,5)" x1="39" x2="800" y1="390" y2="390" />
	<path class="segment RF_012" d="M39,435 C39,435 39,390 39,390" stroke-linecap="round" style="fill: none; stroke: rgb(255,0,230)" transform="translate(6,6)" />
	<line class="segment RF_012" stroke-linecap="round" style="fill: none; stroke: rgb(255,0,230)" transform="translate(6,6)" x1="39" x2="800" y1="390" y2="390" />
	<polygon class="arrow" points="325,337.5 325,340 315,335 325,330 325,332.5 485,332.5 485,337.5 325,337.5 " style="fill: white; stroke: black" />
	<!-- 
	Generated using the Perl SVG Module V2.59
	by Ronan Oger
	Info: http://www.roitsystems.com/
 -->
</svg>