<?xml version="1.0" encoding="UTF-8" standalone="yes"?>
<!DOCTYPE svg PUBLIC "-//W3C//DTD SVG 1.0//EN" "http://www.w3.org/TR/2001/REC-SVG-20010904/DTD/svg10.dtd">
<svg height="600" width="800" xmlns="http://www.w3.org/2000/svg" xmlns:svg="http://www.w3.org/2000/svg" xmlns:xlink="http://www.w3.org/1999/xlink">
	<line class="breakpoint" style="fill: white; stroke: black; stroke-width: 0.1" x1="182" x2="182" y1="100" y2="300" />
	<text class="breakpoint" style="font: 10px Verdana" transform="rotate(-90,4,90)" x="4" y="90">2,283,089</text>
	<line class="breakpoint" style="fill: white; stroke: black; stroke-width: 0.1" x1="279" x2="279" y1="100" y2="300" />
	<text class="breakpoint" style="font: 10px Verdana" transform="rotate(-90,186,90)" x="186" y="90">2,288,302</text>
	<line class="breakpoint" style="fill: white; stroke: black; stroke-width: 0.1" x1="482" x2="482" y1="100" y2="300" />
	<text class="breakpoint" style="font: 10px Verdana" transform="rotate(-90,283,90)" x="283" y="90">2,291,067</text>
	<line class="breakpoint" style="fill: white; stroke: black; stroke-width: 0.1" x1="511" x2="511" y1="100" y2="300" />
	<text class="breakpoint" style="font: 10px Verdana" transform="rotate(-90,486,90)" x="486" y="90">2,296,863</text>
	<line class="breakpoint" style="fill: white; stroke: black; stroke-width: 0.1" x1="604" x2="604" y1="100" y2="300" />
	<text class="breakpoint" style="font: 10px Verdana" transform="rotate(-90,515,90)" x="515" y="90">2,297,679</text>
	<line class="breakpoint" style="fill: white; stroke: black; stroke-width: 0.1" x1="670" x2="670" y1="100" y2="300" />
	<text class="breakpoint" style="font: 10px Verdana" transform="rotate(-90,608,90)" x="608" y="90">2,300,360</text>
	<line class="breakpoint" style="fill: white; stroke: black; stroke-width: 0.1" x1="800" x2="800" y1="100" y2="300" />
	<text class="breakpoint" style="font: 10px Verdana" transform="rotate(-90,674,90)" x="674" y="90">2,302,228</text>
	<polyline class="scale" points="0,294 0,306 0,300 4,300 4,298 4,302 4,300 7,300 7,298 7,302 7,300 11,300 11,298 11,302 11,300 14,300 14,298 14,302 14,300 18,300 18,298 18,302 18,300 21,300 21,298 21,302 21,300 25,300 25,298 25,302 25,300 28,300 28,298 28,302 28,300 32,300 32,298 32,302 32,300 35,300 35,294 35,306 35,300 39,300 39,298 39,302 39,300 42,300 42,298 42,302 42,300 46,300 46,298 46,302 46,300 49,300 49,298 49,302 49,300 53,300 53,298 53,302 53,300 56,300 56,298 56,302 56,300 60,300 60,298 60,302 60,300 63,300 63,298 63,302 63,300 67,300 67,298 67,302 67,300 70,300 70,294 70,306 70,300 74,300 74,298 74,302 74,300 77,300 77,298 77,302 77,300 81,300 81,298 81,302 81,300 84,300 84,298 84,302 84,300 88,300 88,298 88,302 88,300 91,300 91,298 91,302 91,300 95,300 95,298 95,302 95,300 98,300 98,298 98,302 98,300 102,300 102,298 102,302 102,300 105,300 105,294 105,306 105,300 109,300 109,298 109,302 109,300 112,300 112,298 112,302 112,300 116,300 116,298 116,302 116,300 119,300 119,298 119,302 119,300 123,300 123,298 123,302 123,300 126,300 126,298 126,302 126,300 130,300 130,298 130,302 130,300 133,300 133,298 133,302 133,300 137,300 137,298 137,302 137,300 140,300 140,294 140,306 140,300 144,300 144,298 144,302 144,300 147,300 147,298 147,302 147,300 151,300 151,298 151,302 151,300 154,300 154,298 154,302 154,300 158,300 158,298 158,302 158,300 161,300 161,298 161,302 161,300 165,300 165,298 165,302 165,300 168,300 168,298 168,302 168,300 172,300 172,298 172,302 172,300 175,300 175,294 175,306 175,300 179,300 179,298 179,302 179,300 182,300 182,298 182,302 182,300 186,300 186,298 186,302 186,300 189,300 189,298 189,302 189,300 193,300 193,298 193,302 193,300 196,300 196,298 196,302 196,300 200,300 200,298 200,302 200,300 203,300 203,298 203,302 203,300 207,300 207,298 207,302 207,300 210,300 210,294 210,306 210,300 214,300 214,298 214,302 214,300 217,300 217,298 217,302 217,300 221,300 221,298 221,302 221,300 224,300 224,298 224,302 224,300 228,300 228,298 228,302 228,300 231,300 231,298 231,302 231,300 235,300 235,298 235,302 235,300 238,300 238,298 238,302 238,300 242,300 242,298 242,302 242,300 245,300 245,294 245,306 245,300 249,300 249,298 249,302 249,300 252,300 252,298 252,302 252,300 256,300 256,298 256,302 256,300 259,300 259,298 259,302 259,300 263,300 263,298 263,302 263,300 266,300 266,298 266,302 266,300 270,300 270,298 270,302 270,300 273,300 273,298 273,302 273,300 277,300 277,298 277,302 277,300 280,300 280,294 280,306 280,300 284,300 284,298 284,302 284,300 287,300 287,298 287,302 287,300 291,300 291,298 291,302 291,300 294,300 294,298 294,302 294,300 298,300 298,298 298,302 298,300 301,300 301,298 301,302 301,300 305,300 305,298 305,302 305,300 308,300 308,298 308,302 308,300 312,300 312,298 312,302 312,300 315,300 315,294 315,306 315,300 319,300 319,298 319,302 319,300 322,300 322,298 322,302 322,300 326,300 326,298 326,302 326,300 329,300 329,298 329,302 329,300 333,300 333,298 333,302 333,300 336,300 336,298 336,302 336,300 340,300 340,298 340,302 340,300 343,300 343,298 343,302 343,300 347,300 347,298 347,302 347,300 350,300 350,294 350,306 350,300 354,300 354,298 354,302 354,300 357,300 357,298 357,302 357,300 361,300 361,298 361,302 361,300 364,300 364,298 364,302 364,300 368,300 368,298 368,302 368,300 371,300 371,298 371,302 371,300 375,300 375,298 375,302 375,300 378,300 378,298 378,302 378,300 382,300 382,298 382,302 382,300 385,300 385,294 385,306 385,300 389,300 389,298 389,302 389,300 392,300 392,298 392,302 392,300 396,300 396,298 396,302 396,300 399,300 399,298 399,302 399,300 403,300 403,298 403,302 403,300 406,300 406,298 406,302 406,300 410,300 410,298 410,302 410,300 413,300 413,298 413,302 413,300 417,300 417,298 417,302 417,300 420,300 420,294 420,306 420,300 424,300 424,298 424,302 424,300 427,300 427,298 427,302 427,300 431,300 431,298 431,302 431,300 434,300 434,298 434,302 434,300 438,300 438,298 438,302 438,300 441,300 441,298 441,302 441,300 445,300 445,298 445,302 445,300 448,300 448,298 448,302 448,300 452,300 452,298 452,302 452,300 455,300 455,294 455,306 455,300 459,300 459,298 459,302 459,300 462,300 462,298 462,302 462,300 466,300 466,298 466,302 466,300 469,300 469,298 469,302 469,300 473,300 473,298 473,302 473,300 476,300 476,298 476,302 476,300 480,300 480,298 480,302 480,300 483,300 483,298 483,302 483,300 487,300 487,298 487,302 487,300 490,300 490,294 490,306 490,300 494,300 494,298 494,302 494,300 497,300 497,298 497,302 497,300 501,300 501,298 501,302 501,300 504,300 504,298 504,302 504,300 508,300 508,298 508,302 508,300 511,300 511,298 511,302 511,300 515,300 515,298 515,302 515,300 518,300 518,298 518,302 518,300 522,300 522,298 522,302 522,300 525,300 525,294 525,306 525,300 529,300 529,298 529,302 529,300 532,300 532,298 532,302 532,300 536,300 536,298 536,302 536,300 539,300 539,298 539,302 539,300 543,300 543,298 543,302 543,300 546,300 546,298 546,302 546,300 550,300 550,298 550,302 550,300 553,300 553,298 553,302 553,300 557,300 557,298 557,302 557,300 560,300 560,294 560,306 560,300 564,300 564,298 564,302 564,300 567,300 567,298 567,302 567,300 571,300 571,298 571,302 571,300 574,300 574,298 574,302 574,300 578,300 578,298 578,302 578,300 581,300 581,298 581,302 581,300 585,300 585,298 585,302 585,300 588,300 588,298 588,302 588,300 592,300 592,298 592,302 592,300 595,300 595,294 595,306 595,300 599,300 599,298 599,302 599,300 602,300 602,298 602,302 602,300 606,300 606,298 606,302 606,300 609,300 609,298 609,302 609,300 613,300 613,298 613,302 613,300 616,300 616,298 616,302 616,300 620,300 620,298 620,302 620,300 623,300 623,298 623,302 623,300 627,300 627,298 627,302 627,300 630,300 630,294 630,306 630,300 634,300 634,298 634,302 634,300 637,300 637,298 637,302 637,300 641,300 641,298 641,302 641,300 644,300 644,298 644,302 644,300 648,300 648,298 648,302 648,300 651,300 651,298 651,302 651,300 655,300 655,298 655,302 655,300 658,300 658,298 658,302 658,300 662,300 662,298 662,302 662,300 665,300 665,294 665,306 665,300 669,300 669,298 669,302 669,300 672,300 672,298 672,302 672,300 676,300 676,298 676,302 676,300 679,300 679,298 679,302 679,300 683,300 683,298 683,302 683,300 686,300 686,298 686,302 686,300 690,300 690,298 690,302 690,300 693,300 693,298 693,302 693,300 697,300 697,298 697,302 697,300 700,300 700,294 700,306 700,300 704,300 704,298 704,302 704,300 707,300 707,298 707,302 707,300 711,300 711,298 711,302 711,300 714,300 714,298 714,302 714,300 718,300 718,298 718,302 718,300 721,300 721,298 721,302 721,300 725,300 725,298 725,302 725,300 728,300 728,298 728,302 728,300 732,300 732,298 732,302 732,300 735,300 735,294 735,306 735,300 739,300 739,298 739,302 739,300 742,300 742,298 742,302 742,300 746,300 746,298 746,302 746,300 749,300 749,298 749,302 749,300 753,300 753,298 753,302 753,300 756,300 756,298 756,302 756,300 760,300 760,298 760,302 760,300 763,300 763,298 763,302 763,300 767,300 767,298 767,302 767,300 770,300 770,294 770,306 770,300 774,300 774,298 774,302 774,300 777,300 777,298 777,302 777,300 781,300 781,298 781,302 781,300 784,300 784,298 784,302 784,300 788,300 788,298 788,302 788,300 791,300 791,298 791,302 791,300 795,300 795,298 795,302 795,300 798,300 798,298 798,302 798,300 800,300 " style="fill: none; stroke: black; stroke-width: 0.1" />
	<rect class="exon" height="50" style="fill: white; stroke: black" width="2" x="350" y="275" />
	<text class="exon" style="font: 10px Verdana" transform="rotate(-90,354,265)" x="354" y="265">2,293,088 .. 2,293,135</text>
	<line class="intron" style="fill: white; stroke: black" x1="352" x2="372" y1="300" y2="300" />
	<rect class="exon" height="50" style="fill: white; stroke: black" width="8" x="372" y="275" />
	<text class="exon" style="font: 10px Verdana" transform="rotate(-90,376,265)" x="376" y="265">2,293,711 .. 2,293,953</text>
	<line class="intron" style="fill: white; stroke: black" x1="380" x2="389" y1="300" y2="300" />
	<rect class="exon" height="50" style="fill: white; stroke: black" width="2" x="389" y="275" />
	<text class="exon" style="font: 10px Verdana" transform="rotate(-90,393,265)" x="393" y="265">2,294,197 .. 2,294,253</text>
	<line class="intron" style="fill: white; stroke: black" x1="391" x2="398" y1="300" y2="300" />
	<rect class="exon" height="50" style="fill: white; stroke: black" width="3" x="398" y="275" />
	<text class="exon" style="font: 10px Verdana" transform="rotate(-90,402,265)" x="402" y="265">2,294,458 .. 2,294,544</text>
	<line class="intron" style="fill: white; stroke: black" x1="401" x2="444" y1="300" y2="300" />
	<rect class="exon" height="50" style="fill: white; stroke: black" width="5" x="444" y="275" />
	<text class="exon" style="font: 10px Verdana" transform="rotate(-90,448,265)" x="448" y="265">2,295,785 .. 2,295,929</text>
	<line class="breakpoint" style="fill: white; stroke: black; stroke-width: 0.1" x1="182" x2="182" y1="100" y2="300" />
	<text class="breakpoint" style="font: 10px Verdana" transform="rotate(-90,4,90)" x="4" y="90">2,283,089</text>
	<line class="breakpoint" style="fill: white; stroke: black; stroke-width: 0.1" x1="279" x2="279" y1="100" y2="300" />
	<text class="breakpoint" style="font: 10px Verdana" transform="rotate(-90,186,90)" x="186" y="90">2,288,302</text>
	<line class="breakpoint" style="fill: white; stroke: black; stroke-width: 0.1" x1="482" x2="482" y1="100" y2="300" />
	<text class="breakpoint" style="font: 10px Verdana" transform="rotate(-90,283,90)" x="283" y="90">2,291,067</text>
	<line class="breakpoint" style="fill: white; stroke: black; stroke-width: 0.1" x1="511" x2="511" y1="100" y2="300" />
	<text class="breakpoint" style="font: 10px Verdana" transform="rotate(-90,486,90)" x="486" y="90">2,296,863</text>
	<line class="breakpoint" style="fill: white; stroke: black; stroke-width: 0.1" x1="604" x2="604" y1="100" y2="300" />
	<text class="breakpoint" style="font: 10px Verdana" transform="rotate(-90,515,90)" x="515" y="90">2,297,679</text>
	<line class="breakpoint" style="fill: white; stroke: black; stroke-width: 0.1" x1="670" x2="670" y1="100" y2="300" />
	<text class="breakpoint" style="font: 10px Verdana" transform="rotate(-90,608,90)" x="608" y="90">2,300,360</text>
	<line class="breakpoint" style="fill: white; stroke: black; stroke-width: 0.1" x1="800" x2="800" y1="100" y2="300" />
	<text class="breakpoint" style="font: 10px Verdana" transform="rotate(-90,674,90)" x="674" y="90">2,302,228</text>
	<line style="fill: none; stroke: gray; stroke-width: 0.1" x1="0" x2="800" y1="345" y2="345" />
	<text class="crossover RF_072" style="font: 10px Verdana" x="4" y="339">S. habrochaites</text>
	<line style="fill: none; stroke: gray; stroke-width: 0.1" x1="0" x2="800" y1="413" y2="413" />
	<text class="crossover ITAG2_3" style="font: 10px Verdana" x="4" y="407">S. l. Heinz 1706</text>
	<line style="fill: none; stroke: rgb(255,0,0)" x1="5" x2="10" y1="480" y2="480" />
	<text class="crossover" style="font: 10px Verdana" x="15" y="485">S. l. var Momatero</text>
	<line style="fill: none; stroke: rgb(255,217,0)" x1="5" x2="10" y1="495" y2="495" />
	<text class="crossover" style="font: 10px Verdana" x="15" y="500">S. l. var Gardener&apos;s Delight	</text>
	<line style="fill: none; stroke: rgb(77,255,0)" x1="5" x2="10" y1="510" y2="510" />
	<text class="crossover" style="font: 10px Verdana" x="15" y="515">S. l. var Katinka Cherry</text>
	<line style="fill: none; stroke: rgb(0,255,140)" x1="5" x2="10" y1="525" y2="525" />
	<text class="crossover" style="font: 10px Verdana" x="15" y="530">S. l. (1891)</text>
	<line style="fill: none; stroke: rgb(0,153,255)" x1="5" x2="10" y1="540" y2="540" />
	<text class="crossover" style="font: 10px Verdana" x="15" y="545">S. l. (1830)</text>
	<line style="fill: none; stroke: rgb(64,0,255)" x1="5" x2="10" y1="555" y2="555" />
	<text class="crossover" style="font: 10px Verdana" x="15" y="560">S. l. var Moneymaker</text>
	<line style="fill: none; stroke: rgb(255,0,230)" x1="5" x2="10" y1="570" y2="570" />
	<text class="crossover" style="font: 10px Verdana" x="15" y="575">S. l. var Sonato</text>
	<line class="segment RF_015" stroke-linecap="round" style="fill: none; stroke: rgb(255,0,0)" transform="translate(0,0)" x1="0" x2="182" y1="413" y2="413" />
	<line class="segment RF_003" stroke-linecap="round" style="fill: none; stroke: rgb(255,217,0)" transform="translate(1,1)" x1="0" x2="182" y1="413" y2="413" />
	<line class="segment RF_007" stroke-linecap="round" style="fill: none; stroke: rgb(77,255,0)" transform="translate(2,2)" x1="0" x2="182" y1="413" y2="413" />
	<line class="segment U0015716" stroke-linecap="round" style="fill: none; stroke: rgb(0,255,140)" transform="translate(3,3)" x1="0" x2="182" y1="413" y2="413" />
	<line class="segment U0015717" stroke-linecap="round" style="fill: none; stroke: rgb(0,153,255)" transform="translate(4,4)" x1="0" x2="182" y1="413" y2="413" />
	<line class="segment RF_001" stroke-linecap="round" style="fill: none; stroke: rgb(64,0,255)" transform="translate(5,5)" x1="0" x2="182" y1="413" y2="413" />
	<line class="segment RF_012" stroke-linecap="round" style="fill: none; stroke: rgb(255,0,230)" transform="translate(6,6)" x1="0" x2="182" y1="413" y2="413" />
	<path class="segment RF_015" d="M182,413 C182,413 182,413 182,413" stroke-linecap="round" style="fill: none; stroke: rgb(255,0,0)" transform="translate(0,0)" />
	<line class="segment RF_015" stroke-linecap="round" style="fill: none; stroke: rgb(255,0,0)" transform="translate(0,0)" x1="182" x2="279" y1="413" y2="413" />
	<path class="segment RF_003" d="M182,413 C182,413 182,413 182,413" stroke-linecap="round" style="fill: none; stroke: rgb(255,217,0)" transform="translate(1,1)" />
	<line class="segment RF_003" stroke-linecap="round" style="fill: none; stroke: rgb(255,217,0)" transform="translate(1,1)" x1="182" x2="279" y1="413" y2="413" />
	<path class="segment RF_007" d="M182,413 C182,413 182,413 182,413" stroke-linecap="round" style="fill: none; stroke: rgb(77,255,0)" transform="translate(2,2)" />
	<line class="segment RF_007" stroke-linecap="round" style="fill: none; stroke: rgb(77,255,0)" transform="translate(2,2)" x1="182" x2="279" y1="413" y2="413" />
	<path class="segment U0015716" d="M182,413 C182,413 182,413 182,413" stroke-linecap="round" style="fill: none; stroke: rgb(0,255,140)" transform="translate(3,3)" />
	<line class="segment U0015716" stroke-linecap="round" style="fill: none; stroke: rgb(0,255,140)" transform="translate(3,3)" x1="182" x2="279" y1="413" y2="413" />
	<path class="segment U0015717" d="M182,413 C182,413 182,413 182,413" stroke-linecap="round" style="fill: none; stroke: rgb(0,153,255)" transform="translate(4,4)" />
	<line class="segment U0015717" stroke-linecap="round" style="fill: none; stroke: rgb(0,153,255)" transform="translate(4,4)" x1="182" x2="279" y1="413" y2="413" />
	<path class="segment RF_001" d="M182,413 C182,413 182,413 182,413" stroke-linecap="round" style="fill: none; stroke: rgb(64,0,255)" transform="translate(5,5)" />
	<line class="segment RF_001" stroke-linecap="round" style="fill: none; stroke: rgb(64,0,255)" transform="translate(5,5)" x1="182" x2="279" y1="413" y2="413" />
	<path class="segment RF_012" d="M182,413 C182,413 182,413 182,413" stroke-linecap="round" style="fill: none; stroke: rgb(255,0,230)" transform="translate(6,6)" />
	<line class="segment RF_012" stroke-linecap="round" style="fill: none; stroke: rgb(255,0,230)" transform="translate(6,6)" x1="182" x2="279" y1="413" y2="413" />
	<path class="segment RF_015" d="M279,413 C279,413 279,413 279,413" stroke-linecap="round" style="fill: none; stroke: rgb(255,0,0)" transform="translate(0,0)" />
	<line class="segment RF_015" stroke-linecap="round" style="fill: none; stroke: rgb(255,0,0)" transform="translate(0,0)" x1="279" x2="482" y1="413" y2="413" />
	<path class="segment RF_003" d="M279,413 C279,413 279,413 279,413" stroke-linecap="round" style="fill: none; stroke: rgb(255,217,0)" transform="translate(1,1)" />
	<line class="segment RF_003" stroke-linecap="round" style="fill: none; stroke: rgb(255,217,0)" transform="translate(1,1)" x1="279" x2="482" y1="413" y2="413" />
	<path class="segment RF_007" d="M279,413 C279,413 279,413 279,413" stroke-linecap="round" style="fill: none; stroke: rgb(77,255,0)" transform="translate(2,2)" />
	<line class="segment RF_007" stroke-linecap="round" style="fill: none; stroke: rgb(77,255,0)" transform="translate(2,2)" x1="279" x2="482" y1="413" y2="413" />
	<path class="segment U0015716" d="M279,413 C279,413 279,413 279,413" stroke-linecap="round" style="fill: none; stroke: rgb(0,255,140)" transform="translate(3,3)" />
	<line class="segment U0015716" stroke-linecap="round" style="fill: none; stroke: rgb(0,255,140)" transform="translate(3,3)" x1="279" x2="482" y1="413" y2="413" />
	<path class="segment U0015717" d="M279,413 C279,413 279,413 279,413" stroke-linecap="round" style="fill: none; stroke: rgb(0,153,255)" transform="translate(4,4)" />
	<line class="segment U0015717" stroke-linecap="round" style="fill: none; stroke: rgb(0,153,255)" transform="translate(4,4)" x1="279" x2="482" y1="413" y2="413" />
	<path class="segment RF_001" d="M279,413 C279,413 279,413 279,413" stroke-linecap="round" style="fill: none; stroke: rgb(64,0,255)" transform="translate(5,5)" />
	<line class="segment RF_001" stroke-linecap="round" style="fill: none; stroke: rgb(64,0,255)" transform="translate(5,5)" x1="279" x2="482" y1="413" y2="413" />
	<path class="segment RF_012" d="M279,413 C279,413 279,413 279,413" stroke-linecap="round" style="fill: none; stroke: rgb(255,0,230)" transform="translate(6,6)" />
	<line class="segment RF_012" stroke-linecap="round" style="fill: none; stroke: rgb(255,0,230)" transform="translate(6,6)" x1="279" x2="482" y1="413" y2="413" />
	<path class="segment RF_015" d="M482,413 C482,413 482,413 482,413" stroke-linecap="round" style="fill: none; stroke: rgb(255,0,0)" transform="translate(0,0)" />
	<line class="segment RF_015" stroke-linecap="round" style="fill: none; stroke: rgb(255,0,0)" transform="translate(0,0)" x1="482" x2="511" y1="413" y2="413" />
	<path class="segment RF_003" d="M482,413 C482,413 482,413 482,413" stroke-linecap="round" style="fill: none; stroke: rgb(255,217,0)" transform="translate(1,1)" />
	<line class="segment RF_003" stroke-linecap="round" style="fill: none; stroke: rgb(255,217,0)" transform="translate(1,1)" x1="482" x2="511" y1="413" y2="413" />
	<path class="segment RF_007" d="M482,413 C482,413 482,413 482,413" stroke-linecap="round" style="fill: none; stroke: rgb(77,255,0)" transform="translate(2,2)" />
	<line class="segment RF_007" stroke-linecap="round" style="fill: none; stroke: rgb(77,255,0)" transform="translate(2,2)" x1="482" x2="511" y1="413" y2="413" />
	<path class="segment U0015716" d="M482,413 C482,413 482,413 482,413" stroke-linecap="round" style="fill: none; stroke: rgb(0,255,140)" transform="translate(3,3)" />
	<line class="segment U0015716" stroke-linecap="round" style="fill: none; stroke: rgb(0,255,140)" transform="translate(3,3)" x1="482" x2="511" y1="413" y2="413" />
	<path class="segment U0015717" d="M482,413 C482,413 482,413 482,413" stroke-linecap="round" style="fill: none; stroke: rgb(0,153,255)" transform="translate(4,4)" />
	<line class="segment U0015717" stroke-linecap="round" style="fill: none; stroke: rgb(0,153,255)" transform="translate(4,4)" x1="482" x2="511" y1="413" y2="413" />
	<path class="segment RF_001" d="M482,413 C482,413 482,413 482,413" stroke-linecap="round" style="fill: none; stroke: rgb(64,0,255)" transform="translate(5,5)" />
	<line class="segment RF_001" stroke-linecap="round" style="fill: none; stroke: rgb(64,0,255)" transform="translate(5,5)" x1="482" x2="511" y1="413" y2="413" />
	<path class="segment RF_012" d="M482,413 C482,413 482,413 482,413" stroke-linecap="round" style="fill: none; stroke: rgb(255,0,230)" transform="translate(6,6)" />
	<line class="segment RF_012" stroke-linecap="round" style="fill: none; stroke: rgb(255,0,230)" transform="translate(6,6)" x1="482" x2="511" y1="413" y2="413" />
	<path class="segment RF_015" d="M511,413 C511,413 511,345 511,345" stroke-linecap="round" style="fill: none; stroke: rgb(255,0,0)" transform="translate(0,0)" />
	<line class="segment RF_015" stroke-linecap="round" style="fill: none; stroke: rgb(255,0,0)" transform="translate(0,0)" x1="511" x2="604" y1="345" y2="345" />
	<path class="segment RF_003" d="M511,413 C511,413 511,345 511,345" stroke-linecap="round" style="fill: none; stroke: rgb(255,217,0)" transform="translate(1,1)" />
	<line class="segment RF_003" stroke-linecap="round" style="fill: none; stroke: rgb(255,217,0)" transform="translate(1,1)" x1="511" x2="604" y1="345" y2="345" />
	<path class="segment RF_007" d="M511,413 C511,413 511,345 511,345" stroke-linecap="round" style="fill: none; stroke: rgb(77,255,0)" transform="translate(2,2)" />
	<line class="segment RF_007" stroke-linecap="round" style="fill: none; stroke: rgb(77,255,0)" transform="translate(2,2)" x1="511" x2="604" y1="345" y2="345" />
	<path class="segment U0015716" d="M511,413 C511,413 511,345 511,345" stroke-linecap="round" style="fill: none; stroke: rgb(0,255,140)" transform="translate(3,3)" />
	<line class="segment U0015716" stroke-linecap="round" style="fill: none; stroke: rgb(0,255,140)" transform="translate(3,3)" x1="511" x2="604" y1="345" y2="345" />
	<path class="segment U0015717" d="M511,413 C511,413 511,345 511,345" stroke-linecap="round" style="fill: none; stroke: rgb(0,153,255)" transform="translate(4,4)" />
	<line class="segment U0015717" stroke-linecap="round" style="fill: none; stroke: rgb(0,153,255)" transform="translate(4,4)" x1="511" x2="604" y1="345" y2="345" />
	<path class="segment RF_001" d="M511,413 C511,413 511,345 511,345" stroke-linecap="round" style="fill: none; stroke: rgb(64,0,255)" transform="translate(5,5)" />
	<line class="segment RF_001" stroke-linecap="round" style="fill: none; stroke: rgb(64,0,255)" transform="translate(5,5)" x1="511" x2="604" y1="345" y2="345" />
	<path class="segment RF_012" d="M511,413 C511,413 511,345 511,345" stroke-linecap="round" style="fill: none; stroke: rgb(255,0,230)" transform="translate(6,6)" />
	<line class="segment RF_012" stroke-linecap="round" style="fill: none; stroke: rgb(255,0,230)" transform="translate(6,6)" x1="511" x2="604" y1="345" y2="345" />
	<path class="segment RF_015" d="M604,345 C604,345 604,413 604,413" stroke-linecap="round" style="fill: none; stroke: rgb(255,0,0)" transform="translate(0,0)" />
	<line class="segment RF_015" stroke-linecap="round" style="fill: none; stroke: rgb(255,0,0)" transform="translate(0,0)" x1="604" x2="670" y1="413" y2="413" />
	<path class="segment RF_003" d="M604,345 C604,345 604,413 604,413" stroke-linecap="round" style="fill: none; stroke: rgb(255,217,0)" transform="translate(1,1)" />
	<line class="segment RF_003" stroke-linecap="round" style="fill: none; stroke: rgb(255,217,0)" transform="translate(1,1)" x1="604" x2="670" y1="413" y2="413" />
	<path class="segment RF_007" d="M604,345 C604,345 604,413 604,413" stroke-linecap="round" style="fill: none; stroke: rgb(77,255,0)" transform="translate(2,2)" />
	<line class="segment RF_007" stroke-linecap="round" style="fill: none; stroke: rgb(77,255,0)" transform="translate(2,2)" x1="604" x2="670" y1="413" y2="413" />
	<path class="segment U0015716" d="M604,345 C604,345 604,413 604,413" stroke-linecap="round" style="fill: none; stroke: rgb(0,255,140)" transform="translate(3,3)" />
	<line class="segment U0015716" stroke-linecap="round" style="fill: none; stroke: rgb(0,255,140)" transform="translate(3,3)" x1="604" x2="670" y1="413" y2="413" />
	<path class="segment U0015717" d="M604,345 C604,345 604,413 604,413" stroke-linecap="round" style="fill: none; stroke: rgb(0,153,255)" transform="translate(4,4)" />
	<line class="segment U0015717" stroke-linecap="round" style="fill: none; stroke: rgb(0,153,255)" transform="translate(4,4)" x1="604" x2="670" y1="413" y2="413" />
	<path class="segment RF_001" d="M604,345 C604,345 604,413 604,413" stroke-linecap="round" style="fill: none; stroke: rgb(64,0,255)" transform="translate(5,5)" />
	<line class="segment RF_001" stroke-linecap="round" style="fill: none; stroke: rgb(64,0,255)" transform="translate(5,5)" x1="604" x2="670" y1="413" y2="413" />
	<path class="segment RF_012" d="M604,345 C604,345 604,413 604,413" stroke-linecap="round" style="fill: none; stroke: rgb(255,0,230)" transform="translate(6,6)" />
	<line class="segment RF_012" stroke-linecap="round" style="fill: none; stroke: rgb(255,0,230)" transform="translate(6,6)" x1="604" x2="670" y1="413" y2="413" />
	<path class="segment RF_015" d="M670,413 C670,413 670,413 670,413" stroke-linecap="round" style="fill: none; stroke: rgb(255,0,0)" transform="translate(0,0)" />
	<line class="segment RF_015" stroke-linecap="round" style="fill: none; stroke: rgb(255,0,0)" transform="translate(0,0)" x1="670" x2="800" y1="413" y2="413" />
	<path class="segment RF_003" d="M670,413 C670,413 670,413 670,413" stroke-linecap="round" style="fill: none; stroke: rgb(255,217,0)" transform="translate(1,1)" />
	<line class="segment RF_003" stroke-linecap="round" style="fill: none; stroke: rgb(255,217,0)" transform="translate(1,1)" x1="670" x2="800" y1="413" y2="413" />
	<path class="segment RF_007" d="M670,413 C670,413 670,413 670,413" stroke-linecap="round" style="fill: none; stroke: rgb(77,255,0)" transform="translate(2,2)" />
	<line class="segment RF_007" stroke-linecap="round" style="fill: none; stroke: rgb(77,255,0)" transform="translate(2,2)" x1="670" x2="800" y1="413" y2="413" />
	<path class="segment U0015716" d="M670,413 C670,413 670,413 670,413" stroke-linecap="round" style="fill: none; stroke: rgb(0,255,140)" transform="translate(3,3)" />
	<line class="segment U0015716" stroke-linecap="round" style="fill: none; stroke: rgb(0,255,140)" transform="translate(3,3)" x1="670" x2="800" y1="413" y2="413" />
	<path class="segment U0015717" d="M670,413 C670,413 670,413 670,413" stroke-linecap="round" style="fill: none; stroke: rgb(0,153,255)" transform="translate(4,4)" />
	<line class="segment U0015717" stroke-linecap="round" style="fill: none; stroke: rgb(0,153,255)" transform="translate(4,4)" x1="670" x2="800" y1="413" y2="413" />
	<path class="segment RF_001" d="M670,413 C670,413 670,413 670,413" stroke-linecap="round" style="fill: none; stroke: rgb(64,0,255)" transform="translate(5,5)" />
	<line class="segment RF_001" stroke-linecap="round" style="fill: none; stroke: rgb(64,0,255)" transform="translate(5,5)" x1="670" x2="800" y1="413" y2="413" />
	<path class="segment RF_012" d="M670,413 C670,413 670,413 670,413" stroke-linecap="round" style="fill: none; stroke: rgb(255,0,230)" transform="translate(6,6)" />
	<line class="segment RF_012" stroke-linecap="round" style="fill: none; stroke: rgb(255,0,230)" transform="translate(6,6)" x1="670" x2="800" y1="413" y2="413" />
	<polygon class="arrow" points="350,337.5 350,332.5 440,332.5 440,330 450,335 440,340 440,337.5 350,337.5 " style="fill: white; stroke: black" />
	<rect class="three_prime_UTR" height="50" style="fill: silver; stroke: black" width="1" x="449" y="275" />
	<text class="three_prime_UTR" style="font: 10px Verdana" transform="rotate(-90,453,265)" x="453" y="265">2,295,929 .. 2,295,945</text>
	<!-- 
	Generated using the Perl SVG Module V2.59
	by Ronan Oger
	Info: http://www.roitsystems.com/
 -->
</svg>