<?xml version="1.0" encoding="UTF-8" standalone="yes"?>
<!DOCTYPE svg PUBLIC "-//W3C//DTD SVG 1.0//EN" "http://www.w3.org/TR/2001/REC-SVG-20010904/DTD/svg10.dtd">
<svg height="600" width="800" xmlns="http://www.w3.org/2000/svg" xmlns:svg="http://www.w3.org/2000/svg" xmlns:xlink="http://www.w3.org/1999/xlink">
	<line class="breakpoint" style="fill: white; stroke: black; stroke-width: 0.1" x1="27" x2="27" y1="100" y2="300" />
	<text class="breakpoint" style="font: 10px Verdana" transform="rotate(-90,4,90)" x="4" y="90">38,646</text>
	<line class="breakpoint" style="fill: white; stroke: black; stroke-width: 0.1" x1="96" x2="96" y1="100" y2="300" />
	<text class="breakpoint" style="font: 10px Verdana" transform="rotate(-90,31,90)" x="31" y="90">39,442</text>
	<line class="breakpoint" style="fill: white; stroke: black; stroke-width: 0.1" x1="291" x2="291" y1="100" y2="300" />
	<text class="breakpoint" style="font: 10px Verdana" transform="rotate(-90,100,90)" x="100" y="90">41,455</text>
	<line class="breakpoint" style="fill: white; stroke: black; stroke-width: 0.1" x1="397" x2="397" y1="100" y2="300" />
	<text class="breakpoint" style="font: 10px Verdana" transform="rotate(-90,295,90)" x="295" y="90">47,162</text>
	<line class="breakpoint" style="fill: white; stroke: black; stroke-width: 0.1" x1="429" x2="429" y1="100" y2="300" />
	<text class="breakpoint" style="font: 10px Verdana" transform="rotate(-90,401,90)" x="401" y="90">50,256</text>
	<line class="breakpoint" style="fill: white; stroke: black; stroke-width: 0.1" x1="577" x2="577" y1="100" y2="300" />
	<text class="breakpoint" style="font: 10px Verdana" transform="rotate(-90,433,90)" x="433" y="90">51,209</text>
	<line class="breakpoint" style="fill: white; stroke: black; stroke-width: 0.1" x1="628" x2="628" y1="100" y2="300" />
	<text class="breakpoint" style="font: 10px Verdana" transform="rotate(-90,581,90)" x="581" y="90">55,537</text>
	<line class="breakpoint" style="fill: white; stroke: black; stroke-width: 0.1" x1="739" x2="739" y1="100" y2="300" />
	<text class="breakpoint" style="font: 10px Verdana" transform="rotate(-90,632,90)" x="632" y="90">57,040</text>
	<line class="breakpoint" style="fill: white; stroke: black; stroke-width: 0.1" x1="800" x2="800" y1="100" y2="300" />
	<text class="breakpoint" style="font: 10px Verdana" transform="rotate(-90,743,90)" x="743" y="90">60,273</text>
	<polyline class="scale" points="0,294 0,306 0,300 3,300 3,298 3,302 3,300 7,300 7,298 7,302 7,300 10,300 10,298 10,302 10,300 14,300 14,298 14,302 14,300 17,300 17,298 17,302 17,300 20,300 20,298 20,302 20,300 24,300 24,298 24,302 24,300 27,300 27,298 27,302 27,300 31,300 31,298 31,302 31,300 34,300 34,294 34,306 34,300 38,300 38,298 38,302 38,300 41,300 41,298 41,302 41,300 44,300 44,298 44,302 44,300 48,300 48,298 48,302 48,300 51,300 51,298 51,302 51,300 55,300 55,298 55,302 55,300 58,300 58,298 58,302 58,300 61,300 61,298 61,302 61,300 65,300 65,298 65,302 65,300 68,300 68,294 68,306 68,300 72,300 72,298 72,302 72,300 75,300 75,298 75,302 75,300 79,300 79,298 79,302 79,300 82,300 82,298 82,302 82,300 85,300 85,298 85,302 85,300 89,300 89,298 89,302 89,300 92,300 92,298 92,302 92,300 96,300 96,298 96,302 96,300 99,300 99,298 99,302 99,300 102,300 102,294 102,306 102,300 106,300 106,298 106,302 106,300 109,300 109,298 109,302 109,300 113,300 113,298 113,302 113,300 116,300 116,298 116,302 116,300 120,300 120,298 120,302 120,300 123,300 123,298 123,302 123,300 126,300 126,298 126,302 126,300 130,300 130,298 130,302 130,300 133,300 133,298 133,302 133,300 137,300 137,294 137,306 137,300 140,300 140,298 140,302 140,300 143,300 143,298 143,302 143,300 147,300 147,298 147,302 147,300 150,300 150,298 150,302 150,300 154,300 154,298 154,302 154,300 157,300 157,298 157,302 157,300 161,300 161,298 161,302 161,300 164,300 164,298 164,302 164,300 167,300 167,298 167,302 167,300 171,300 171,294 171,306 171,300 174,300 174,298 174,302 174,300 178,300 178,298 178,302 178,300 181,300 181,298 181,302 181,300 184,300 184,298 184,302 184,300 188,300 188,298 188,302 188,300 191,300 191,298 191,302 191,300 195,300 195,298 195,302 195,300 198,300 198,298 198,302 198,300 202,300 202,298 202,302 202,300 205,300 205,294 205,306 205,300 208,300 208,298 208,302 208,300 212,300 212,298 212,302 212,300 215,300 215,298 215,302 215,300 219,300 219,298 219,302 219,300 222,300 222,298 222,302 222,300 225,300 225,298 225,302 225,300 229,300 229,298 229,302 229,300 232,300 232,298 232,302 232,300 236,300 236,298 236,302 236,300 239,300 239,294 239,306 239,300 243,300 243,298 243,302 243,300 246,300 246,298 246,302 246,300 249,300 249,298 249,302 249,300 253,300 253,298 253,302 253,300 256,300 256,298 256,302 256,300 260,300 260,298 260,302 260,300 263,300 263,298 263,302 263,300 266,300 266,298 266,302 266,300 270,300 270,298 270,302 270,300 273,300 273,294 273,306 273,300 277,300 277,298 277,302 277,300 280,300 280,298 280,302 280,300 284,300 284,298 284,302 284,300 287,300 287,298 287,302 287,300 290,300 290,298 290,302 290,300 294,300 294,298 294,302 294,300 297,300 297,298 297,302 297,300 301,300 301,298 301,302 301,300 304,300 304,298 304,302 304,300 307,300 307,294 307,306 307,300 311,300 311,298 311,302 311,300 314,300 314,298 314,302 314,300 318,300 318,298 318,302 318,300 321,300 321,298 321,302 321,300 325,300 325,298 325,302 325,300 328,300 328,298 328,302 328,300 331,300 331,298 331,302 331,300 335,300 335,298 335,302 335,300 338,300 338,298 338,302 338,300 342,300 342,294 342,306 342,300 345,300 345,298 345,302 345,300 348,300 348,298 348,302 348,300 352,300 352,298 352,302 352,300 355,300 355,298 355,302 355,300 359,300 359,298 359,302 359,300 362,300 362,298 362,302 362,300 366,300 366,298 366,302 366,300 369,300 369,298 369,302 369,300 372,300 372,298 372,302 372,300 376,300 376,294 376,306 376,300 379,300 379,298 379,302 379,300 383,300 383,298 383,302 383,300 386,300 386,298 386,302 386,300 389,300 389,298 389,302 389,300 393,300 393,298 393,302 393,300 396,300 396,298 396,302 396,300 400,300 400,298 400,302 400,300 403,300 403,298 403,302 403,300 407,300 407,298 407,302 407,300 410,300 410,294 410,306 410,300 413,300 413,298 413,302 413,300 417,300 417,298 417,302 417,300 420,300 420,298 420,302 420,300 424,300 424,298 424,302 424,300 427,300 427,298 427,302 427,300 430,300 430,298 430,302 430,300 434,300 434,298 434,302 434,300 437,300 437,298 437,302 437,300 441,300 441,298 441,302 441,300 444,300 444,294 444,306 444,300 447,300 447,298 447,302 447,300 451,300 451,298 451,302 451,300 454,300 454,298 454,302 454,300 458,300 458,298 458,302 458,300 461,300 461,298 461,302 461,300 465,300 465,298 465,302 465,300 468,300 468,298 468,302 468,300 471,300 471,298 471,302 471,300 475,300 475,298 475,302 475,300 478,300 478,294 478,306 478,300 482,300 482,298 482,302 482,300 485,300 485,298 485,302 485,300 488,300 488,298 488,302 488,300 492,300 492,298 492,302 492,300 495,300 495,298 495,302 495,300 499,300 499,298 499,302 499,300 502,300 502,298 502,302 502,300 506,300 506,298 506,302 506,300 509,300 509,298 509,302 509,300 512,300 512,294 512,306 512,300 516,300 516,298 516,302 516,300 519,300 519,298 519,302 519,300 523,300 523,298 523,302 523,300 526,300 526,298 526,302 526,300 529,300 529,298 529,302 529,300 533,300 533,298 533,302 533,300 536,300 536,298 536,302 536,300 540,300 540,298 540,302 540,300 543,300 543,298 543,302 543,300 547,300 547,294 547,306 547,300 550,300 550,298 550,302 550,300 553,300 553,298 553,302 553,300 557,300 557,298 557,302 557,300 560,300 560,298 560,302 560,300 564,300 564,298 564,302 564,300 567,300 567,298 567,302 567,300 570,300 570,298 570,302 570,300 574,300 574,298 574,302 574,300 577,300 577,298 577,302 577,300 581,300 581,294 581,306 581,300 584,300 584,298 584,302 584,300 588,300 588,298 588,302 588,300 591,300 591,298 591,302 591,300 594,300 594,298 594,302 594,300 598,300 598,298 598,302 598,300 601,300 601,298 601,302 601,300 605,300 605,298 605,302 605,300 608,300 608,298 608,302 608,300 611,300 611,298 611,302 611,300 615,300 615,294 615,306 615,300 618,300 618,298 618,302 618,300 622,300 622,298 622,302 622,300 625,300 625,298 625,302 625,300 629,300 629,298 629,302 629,300 632,300 632,298 632,302 632,300 635,300 635,298 635,302 635,300 639,300 639,298 639,302 639,300 642,300 642,298 642,302 642,300 646,300 646,298 646,302 646,300 649,300 649,294 649,306 649,300 652,300 652,298 652,302 652,300 656,300 656,298 656,302 656,300 659,300 659,298 659,302 659,300 663,300 663,298 663,302 663,300 666,300 666,298 666,302 666,300 670,300 670,298 670,302 670,300 673,300 673,298 673,302 673,300 676,300 676,298 676,302 676,300 680,300 680,298 680,302 680,300 683,300 683,294 683,306 683,300 687,300 687,298 687,302 687,300 690,300 690,298 690,302 690,300 693,300 693,298 693,302 693,300 697,300 697,298 697,302 697,300 700,300 700,298 700,302 700,300 704,300 704,298 704,302 704,300 707,300 707,298 707,302 707,300 711,300 711,298 711,302 711,300 714,300 714,298 714,302 714,300 717,300 717,294 717,306 717,300 721,300 721,298 721,302 721,300 724,300 724,298 724,302 724,300 728,300 728,298 728,302 728,300 731,300 731,298 731,302 731,300 734,300 734,298 734,302 734,300 738,300 738,298 738,302 738,300 741,300 741,298 741,302 741,300 745,300 745,298 745,302 745,300 748,300 748,298 748,302 748,300 752,300 752,294 752,306 752,300 755,300 755,298 755,302 755,300 758,300 758,298 758,302 758,300 762,300 762,298 762,302 762,300 765,300 765,298 765,302 765,300 769,300 769,298 769,302 769,300 772,300 772,298 772,302 772,300 775,300 775,298 775,302 775,300 779,300 779,298 779,302 779,300 782,300 782,298 782,302 782,300 786,300 786,294 786,306 786,300 789,300 789,298 789,302 789,300 793,300 793,298 793,302 793,300 796,300 796,298 796,302 796,300 799,300 799,298 799,302 799,300 800,300 " style="fill: none; stroke: black; stroke-width: 0.1" />
	<rect class="exon" height="50" style="fill: white; stroke: black" width="116" x="342" y="275" />
	<text class="exon" style="font: 10px Verdana" transform="rotate(-90,346,265)" x="346" y="265">48,645 .. 52,064</text>
	<line class="breakpoint" style="fill: white; stroke: black; stroke-width: 0.1" x1="27" x2="27" y1="100" y2="300" />
	<text class="breakpoint" style="font: 10px Verdana" transform="rotate(-90,4,90)" x="4" y="90">38,646</text>
	<line class="breakpoint" style="fill: white; stroke: black; stroke-width: 0.1" x1="96" x2="96" y1="100" y2="300" />
	<text class="breakpoint" style="font: 10px Verdana" transform="rotate(-90,31,90)" x="31" y="90">39,442</text>
	<line class="breakpoint" style="fill: white; stroke: black; stroke-width: 0.1" x1="291" x2="291" y1="100" y2="300" />
	<text class="breakpoint" style="font: 10px Verdana" transform="rotate(-90,100,90)" x="100" y="90">41,455</text>
	<line class="breakpoint" style="fill: white; stroke: black; stroke-width: 0.1" x1="397" x2="397" y1="100" y2="300" />
	<text class="breakpoint" style="font: 10px Verdana" transform="rotate(-90,295,90)" x="295" y="90">47,162</text>
	<line class="breakpoint" style="fill: white; stroke: black; stroke-width: 0.1" x1="429" x2="429" y1="100" y2="300" />
	<text class="breakpoint" style="font: 10px Verdana" transform="rotate(-90,401,90)" x="401" y="90">50,256</text>
	<line class="breakpoint" style="fill: white; stroke: black; stroke-width: 0.1" x1="577" x2="577" y1="100" y2="300" />
	<text class="breakpoint" style="font: 10px Verdana" transform="rotate(-90,433,90)" x="433" y="90">51,209</text>
	<line class="breakpoint" style="fill: white; stroke: black; stroke-width: 0.1" x1="628" x2="628" y1="100" y2="300" />
	<text class="breakpoint" style="font: 10px Verdana" transform="rotate(-90,581,90)" x="581" y="90">55,537</text>
	<line class="breakpoint" style="fill: white; stroke: black; stroke-width: 0.1" x1="739" x2="739" y1="100" y2="300" />
	<text class="breakpoint" style="font: 10px Verdana" transform="rotate(-90,632,90)" x="632" y="90">57,040</text>
	<line class="breakpoint" style="fill: white; stroke: black; stroke-width: 0.1" x1="800" x2="800" y1="100" y2="300" />
	<text class="breakpoint" style="font: 10px Verdana" transform="rotate(-90,743,90)" x="743" y="90">60,273</text>
	<line style="fill: none; stroke: gray; stroke-width: 0.1" x1="0" x2="800" y1="345" y2="345" />
	<text class="crossover RF_047" style="font: 10px Verdana" x="4" y="339">S. pimpinellifolium</text>
	<line style="fill: none; stroke: gray; stroke-width: 0.1" x1="0" x2="800" y1="390" y2="390" />
	<text class="crossover RF_104" style="font: 10px Verdana" x="4" y="384">S. galapagense</text>
	<line style="fill: none; stroke: gray; stroke-width: 0.1" x1="0" x2="800" y1="435" y2="435" />
	<text class="crossover ITAG2_3" style="font: 10px Verdana" x="4" y="429">S. l. Heinz 1706</text>
	<line style="fill: none; stroke: rgb(255,0,0)" x1="5" x2="10" y1="480" y2="480" />
	<text class="crossover" style="font: 10px Verdana" x="15" y="485">S. l. var Momatero</text>
	<line style="fill: none; stroke: rgb(255,217,0)" x1="5" x2="10" y1="495" y2="495" />
	<text class="crossover" style="font: 10px Verdana" x="15" y="500">S. l. var Gardener&apos;s Delight	</text>
	<line style="fill: none; stroke: rgb(77,255,0)" x1="5" x2="10" y1="510" y2="510" />
	<text class="crossover" style="font: 10px Verdana" x="15" y="515">S. l. var Katinka Cherry</text>
	<line style="fill: none; stroke: rgb(0,255,140)" x1="5" x2="10" y1="525" y2="525" />
	<text class="crossover" style="font: 10px Verdana" x="15" y="530">S. l. (1891)</text>
	<line style="fill: none; stroke: rgb(0,153,255)" x1="5" x2="10" y1="540" y2="540" />
	<text class="crossover" style="font: 10px Verdana" x="15" y="545">S. l. (1830)</text>
	<line style="fill: none; stroke: rgb(64,0,255)" x1="5" x2="10" y1="555" y2="555" />
	<text class="crossover" style="font: 10px Verdana" x="15" y="560">S. l. var Moneymaker</text>
	<line style="fill: none; stroke: rgb(255,0,230)" x1="5" x2="10" y1="570" y2="570" />
	<text class="crossover" style="font: 10px Verdana" x="15" y="575">S. l. var Sonato</text>
	<line class="segment RF_015" stroke-linecap="round" style="fill: none; stroke: rgb(255,0,0)" transform="translate(0,0)" x1="0" x2="27" y1="390" y2="390" />
	<line class="segment RF_003" stroke-linecap="round" style="fill: none; stroke: rgb(255,217,0)" transform="translate(1,1)" x1="0" x2="27" y1="435" y2="435" />
	<line class="segment RF_007" stroke-linecap="round" style="fill: none; stroke: rgb(77,255,0)" transform="translate(2,2)" x1="0" x2="27" y1="435" y2="435" />
	<line class="segment U0015716" stroke-linecap="round" style="fill: none; stroke: rgb(0,255,140)" transform="translate(3,3)" x1="0" x2="27" y1="435" y2="435" />
	<line class="segment U0015717" stroke-linecap="round" style="fill: none; stroke: rgb(0,153,255)" transform="translate(4,4)" x1="0" x2="27" y1="435" y2="435" />
	<line class="segment RF_001" stroke-linecap="round" style="fill: none; stroke: rgb(64,0,255)" transform="translate(5,5)" x1="0" x2="27" y1="435" y2="435" />
	<line class="segment RF_012" stroke-linecap="round" style="fill: none; stroke: rgb(255,0,230)" transform="translate(6,6)" x1="0" x2="27" y1="435" y2="435" />
	<path class="segment RF_015" d="M27,390 C27,390 27,435 27,435" stroke-linecap="round" style="fill: none; stroke: rgb(255,0,0)" transform="translate(0,0)" />
	<line class="segment RF_015" stroke-linecap="round" style="fill: none; stroke: rgb(255,0,0)" transform="translate(0,0)" x1="27" x2="96" y1="435" y2="435" />
	<path class="segment RF_003" d="M27,435 C27,435 27,390 27,390" stroke-linecap="round" style="fill: none; stroke: rgb(255,217,0)" transform="translate(1,1)" />
	<line class="segment RF_003" stroke-linecap="round" style="fill: none; stroke: rgb(255,217,0)" transform="translate(1,1)" x1="27" x2="96" y1="390" y2="390" />
	<path class="segment RF_007" d="M27,435 C27,435 27,390 27,390" stroke-linecap="round" style="fill: none; stroke: rgb(77,255,0)" transform="translate(2,2)" />
	<line class="segment RF_007" stroke-linecap="round" style="fill: none; stroke: rgb(77,255,0)" transform="translate(2,2)" x1="27" x2="96" y1="390" y2="390" />
	<path class="segment U0015716" d="M27,435 C27,435 27,390 27,390" stroke-linecap="round" style="fill: none; stroke: rgb(0,255,140)" transform="translate(3,3)" />
	<line class="segment U0015716" stroke-linecap="round" style="fill: none; stroke: rgb(0,255,140)" transform="translate(3,3)" x1="27" x2="96" y1="390" y2="390" />
	<path class="segment U0015717" d="M27,435 C27,435 27,390 27,390" stroke-linecap="round" style="fill: none; stroke: rgb(0,153,255)" transform="translate(4,4)" />
	<line class="segment U0015717" stroke-linecap="round" style="fill: none; stroke: rgb(0,153,255)" transform="translate(4,4)" x1="27" x2="96" y1="390" y2="390" />
	<path class="segment RF_001" d="M27,435 C27,435 27,390 27,390" stroke-linecap="round" style="fill: none; stroke: rgb(64,0,255)" transform="translate(5,5)" />
	<line class="segment RF_001" stroke-linecap="round" style="fill: none; stroke: rgb(64,0,255)" transform="translate(5,5)" x1="27" x2="96" y1="390" y2="390" />
	<path class="segment RF_012" d="M27,435 C27,435 27,390 27,390" stroke-linecap="round" style="fill: none; stroke: rgb(255,0,230)" transform="translate(6,6)" />
	<line class="segment RF_012" stroke-linecap="round" style="fill: none; stroke: rgb(255,0,230)" transform="translate(6,6)" x1="27" x2="96" y1="390" y2="390" />
	<path class="segment RF_015" d="M96,435 C96,435 96,390 96,390" stroke-linecap="round" style="fill: none; stroke: rgb(255,0,0)" transform="translate(0,0)" />
	<line class="segment RF_015" stroke-linecap="round" style="fill: none; stroke: rgb(255,0,0)" transform="translate(0,0)" x1="96" x2="291" y1="390" y2="390" />
	<path class="segment RF_003" d="M96,390 C96,390 96,435 96,435" stroke-linecap="round" style="fill: none; stroke: rgb(255,217,0)" transform="translate(1,1)" />
	<line class="segment RF_003" stroke-linecap="round" style="fill: none; stroke: rgb(255,217,0)" transform="translate(1,1)" x1="96" x2="291" y1="435" y2="435" />
	<path class="segment RF_007" d="M96,390 C96,390 96,435 96,435" stroke-linecap="round" style="fill: none; stroke: rgb(77,255,0)" transform="translate(2,2)" />
	<line class="segment RF_007" stroke-linecap="round" style="fill: none; stroke: rgb(77,255,0)" transform="translate(2,2)" x1="96" x2="291" y1="435" y2="435" />
	<path class="segment U0015716" d="M96,390 C96,390 96,435 96,435" stroke-linecap="round" style="fill: none; stroke: rgb(0,255,140)" transform="translate(3,3)" />
	<line class="segment U0015716" stroke-linecap="round" style="fill: none; stroke: rgb(0,255,140)" transform="translate(3,3)" x1="96" x2="291" y1="435" y2="435" />
	<path class="segment U0015717" d="M96,390 C96,390 96,435 96,435" stroke-linecap="round" style="fill: none; stroke: rgb(0,153,255)" transform="translate(4,4)" />
	<line class="segment U0015717" stroke-linecap="round" style="fill: none; stroke: rgb(0,153,255)" transform="translate(4,4)" x1="96" x2="291" y1="435" y2="435" />
	<path class="segment RF_001" d="M96,390 C96,390 96,435 96,435" stroke-linecap="round" style="fill: none; stroke: rgb(64,0,255)" transform="translate(5,5)" />
	<line class="segment RF_001" stroke-linecap="round" style="fill: none; stroke: rgb(64,0,255)" transform="translate(5,5)" x1="96" x2="291" y1="435" y2="435" />
	<path class="segment RF_012" d="M96,390 C96,390 96,435 96,435" stroke-linecap="round" style="fill: none; stroke: rgb(255,0,230)" transform="translate(6,6)" />
	<line class="segment RF_012" stroke-linecap="round" style="fill: none; stroke: rgb(255,0,230)" transform="translate(6,6)" x1="96" x2="291" y1="435" y2="435" />
	<path class="segment RF_015" d="M291,390 C291,390 291,345 291,345" stroke-linecap="round" style="fill: none; stroke: rgb(255,0,0)" transform="translate(0,0)" />
	<line class="segment RF_015" stroke-linecap="round" style="fill: none; stroke: rgb(255,0,0)" transform="translate(0,0)" x1="291" x2="397" y1="345" y2="345" />
	<path class="segment RF_003" d="M291,435 C291,435 291,390 291,390" stroke-linecap="round" style="fill: none; stroke: rgb(255,217,0)" transform="translate(1,1)" />
	<line class="segment RF_003" stroke-linecap="round" style="fill: none; stroke: rgb(255,217,0)" transform="translate(1,1)" x1="291" x2="397" y1="390" y2="390" />
	<path class="segment RF_007" d="M291,435 C291,435 291,390 291,390" stroke-linecap="round" style="fill: none; stroke: rgb(77,255,0)" transform="translate(2,2)" />
	<line class="segment RF_007" stroke-linecap="round" style="fill: none; stroke: rgb(77,255,0)" transform="translate(2,2)" x1="291" x2="397" y1="390" y2="390" />
	<path class="segment U0015716" d="M291,435 C291,435 291,390 291,390" stroke-linecap="round" style="fill: none; stroke: rgb(0,255,140)" transform="translate(3,3)" />
	<line class="segment U0015716" stroke-linecap="round" style="fill: none; stroke: rgb(0,255,140)" transform="translate(3,3)" x1="291" x2="397" y1="390" y2="390" />
	<path class="segment U0015717" d="M291,435 C291,435 291,390 291,390" stroke-linecap="round" style="fill: none; stroke: rgb(0,153,255)" transform="translate(4,4)" />
	<line class="segment U0015717" stroke-linecap="round" style="fill: none; stroke: rgb(0,153,255)" transform="translate(4,4)" x1="291" x2="397" y1="390" y2="390" />
	<path class="segment RF_001" d="M291,435 C291,435 291,390 291,390" stroke-linecap="round" style="fill: none; stroke: rgb(64,0,255)" transform="translate(5,5)" />
	<line class="segment RF_001" stroke-linecap="round" style="fill: none; stroke: rgb(64,0,255)" transform="translate(5,5)" x1="291" x2="397" y1="390" y2="390" />
	<path class="segment RF_012" d="M291,435 C291,435 291,390 291,390" stroke-linecap="round" style="fill: none; stroke: rgb(255,0,230)" transform="translate(6,6)" />
	<line class="segment RF_012" stroke-linecap="round" style="fill: none; stroke: rgb(255,0,230)" transform="translate(6,6)" x1="291" x2="397" y1="390" y2="390" />
	<path class="segment RF_015" d="M397,345 C397,345 397,345 397,345" stroke-linecap="round" style="fill: none; stroke: rgb(255,0,0)" transform="translate(0,0)" />
	<line class="segment RF_015" stroke-linecap="round" style="fill: none; stroke: rgb(255,0,0)" transform="translate(0,0)" x1="397" x2="429" y1="345" y2="345" />
	<path class="segment RF_003" d="M397,390 C397,390 397,435 397,435" stroke-linecap="round" style="fill: none; stroke: rgb(255,217,0)" transform="translate(1,1)" />
	<line class="segment RF_003" stroke-linecap="round" style="fill: none; stroke: rgb(255,217,0)" transform="translate(1,1)" x1="397" x2="429" y1="435" y2="435" />
	<path class="segment RF_007" d="M397,390 C397,390 397,435 397,435" stroke-linecap="round" style="fill: none; stroke: rgb(77,255,0)" transform="translate(2,2)" />
	<line class="segment RF_007" stroke-linecap="round" style="fill: none; stroke: rgb(77,255,0)" transform="translate(2,2)" x1="397" x2="429" y1="435" y2="435" />
	<path class="segment U0015716" d="M397,390 C397,390 397,435 397,435" stroke-linecap="round" style="fill: none; stroke: rgb(0,255,140)" transform="translate(3,3)" />
	<line class="segment U0015716" stroke-linecap="round" style="fill: none; stroke: rgb(0,255,140)" transform="translate(3,3)" x1="397" x2="429" y1="435" y2="435" />
	<path class="segment U0015717" d="M397,390 C397,390 397,435 397,435" stroke-linecap="round" style="fill: none; stroke: rgb(0,153,255)" transform="translate(4,4)" />
	<line class="segment U0015717" stroke-linecap="round" style="fill: none; stroke: rgb(0,153,255)" transform="translate(4,4)" x1="397" x2="429" y1="435" y2="435" />
	<path class="segment RF_001" d="M397,390 C397,390 397,435 397,435" stroke-linecap="round" style="fill: none; stroke: rgb(64,0,255)" transform="translate(5,5)" />
	<line class="segment RF_001" stroke-linecap="round" style="fill: none; stroke: rgb(64,0,255)" transform="translate(5,5)" x1="397" x2="429" y1="435" y2="435" />
	<path class="segment RF_012" d="M397,390 C397,390 397,435 397,435" stroke-linecap="round" style="fill: none; stroke: rgb(255,0,230)" transform="translate(6,6)" />
	<line class="segment RF_012" stroke-linecap="round" style="fill: none; stroke: rgb(255,0,230)" transform="translate(6,6)" x1="397" x2="429" y1="435" y2="435" />
	<path class="segment RF_015" d="M429,345 C429,345 429,435 429,435" stroke-linecap="round" style="fill: none; stroke: rgb(255,0,0)" transform="translate(0,0)" />
	<line class="segment RF_015" stroke-linecap="round" style="fill: none; stroke: rgb(255,0,0)" transform="translate(0,0)" x1="429" x2="577" y1="435" y2="435" />
	<path class="segment RF_003" d="M429,435 C429,435 429,435 429,435" stroke-linecap="round" style="fill: none; stroke: rgb(255,217,0)" transform="translate(1,1)" />
	<line class="segment RF_003" stroke-linecap="round" style="fill: none; stroke: rgb(255,217,0)" transform="translate(1,1)" x1="429" x2="577" y1="435" y2="435" />
	<path class="segment RF_007" d="M429,435 C429,435 429,435 429,435" stroke-linecap="round" style="fill: none; stroke: rgb(77,255,0)" transform="translate(2,2)" />
	<line class="segment RF_007" stroke-linecap="round" style="fill: none; stroke: rgb(77,255,0)" transform="translate(2,2)" x1="429" x2="577" y1="435" y2="435" />
	<path class="segment U0015716" d="M429,435 C429,435 429,435 429,435" stroke-linecap="round" style="fill: none; stroke: rgb(0,255,140)" transform="translate(3,3)" />
	<line class="segment U0015716" stroke-linecap="round" style="fill: none; stroke: rgb(0,255,140)" transform="translate(3,3)" x1="429" x2="577" y1="435" y2="435" />
	<path class="segment U0015717" d="M429,435 C429,435 429,435 429,435" stroke-linecap="round" style="fill: none; stroke: rgb(0,153,255)" transform="translate(4,4)" />
	<line class="segment U0015717" stroke-linecap="round" style="fill: none; stroke: rgb(0,153,255)" transform="translate(4,4)" x1="429" x2="577" y1="435" y2="435" />
	<path class="segment RF_001" d="M429,435 C429,435 429,435 429,435" stroke-linecap="round" style="fill: none; stroke: rgb(64,0,255)" transform="translate(5,5)" />
	<line class="segment RF_001" stroke-linecap="round" style="fill: none; stroke: rgb(64,0,255)" transform="translate(5,5)" x1="429" x2="577" y1="435" y2="435" />
	<path class="segment RF_012" d="M429,435 C429,435 429,435 429,435" stroke-linecap="round" style="fill: none; stroke: rgb(255,0,230)" transform="translate(6,6)" />
	<line class="segment RF_012" stroke-linecap="round" style="fill: none; stroke: rgb(255,0,230)" transform="translate(6,6)" x1="429" x2="577" y1="435" y2="435" />
	<path class="segment RF_015" d="M577,435 C577,435 577,345 577,345" stroke-linecap="round" style="fill: none; stroke: rgb(255,0,0)" transform="translate(0,0)" />
	<line class="segment RF_015" stroke-linecap="round" style="fill: none; stroke: rgb(255,0,0)" transform="translate(0,0)" x1="577" x2="628" y1="345" y2="345" />
	<path class="segment RF_003" d="M577,435 C577,435 577,435 577,435" stroke-linecap="round" style="fill: none; stroke: rgb(255,217,0)" transform="translate(1,1)" />
	<line class="segment RF_003" stroke-linecap="round" style="fill: none; stroke: rgb(255,217,0)" transform="translate(1,1)" x1="577" x2="628" y1="435" y2="435" />
	<path class="segment RF_007" d="M577,435 C577,435 577,435 577,435" stroke-linecap="round" style="fill: none; stroke: rgb(77,255,0)" transform="translate(2,2)" />
	<line class="segment RF_007" stroke-linecap="round" style="fill: none; stroke: rgb(77,255,0)" transform="translate(2,2)" x1="577" x2="628" y1="435" y2="435" />
	<path class="segment U0015716" d="M577,435 C577,435 577,435 577,435" stroke-linecap="round" style="fill: none; stroke: rgb(0,255,140)" transform="translate(3,3)" />
	<line class="segment U0015716" stroke-linecap="round" style="fill: none; stroke: rgb(0,255,140)" transform="translate(3,3)" x1="577" x2="628" y1="435" y2="435" />
	<path class="segment U0015717" d="M577,435 C577,435 577,435 577,435" stroke-linecap="round" style="fill: none; stroke: rgb(0,153,255)" transform="translate(4,4)" />
	<line class="segment U0015717" stroke-linecap="round" style="fill: none; stroke: rgb(0,153,255)" transform="translate(4,4)" x1="577" x2="628" y1="435" y2="435" />
	<path class="segment RF_001" d="M577,435 C577,435 577,435 577,435" stroke-linecap="round" style="fill: none; stroke: rgb(64,0,255)" transform="translate(5,5)" />
	<line class="segment RF_001" stroke-linecap="round" style="fill: none; stroke: rgb(64,0,255)" transform="translate(5,5)" x1="577" x2="628" y1="435" y2="435" />
	<path class="segment RF_012" d="M577,435 C577,435 577,435 577,435" stroke-linecap="round" style="fill: none; stroke: rgb(255,0,230)" transform="translate(6,6)" />
	<line class="segment RF_012" stroke-linecap="round" style="fill: none; stroke: rgb(255,0,230)" transform="translate(6,6)" x1="577" x2="628" y1="435" y2="435" />
	<path class="segment RF_015" d="M628,345 C628,345 628,435 628,435" stroke-linecap="round" style="fill: none; stroke: rgb(255,0,0)" transform="translate(0,0)" />
	<line class="segment RF_015" stroke-linecap="round" style="fill: none; stroke: rgb(255,0,0)" transform="translate(0,0)" x1="628" x2="739" y1="435" y2="435" />
	<path class="segment RF_003" d="M628,435 C628,435 628,435 628,435" stroke-linecap="round" style="fill: none; stroke: rgb(255,217,0)" transform="translate(1,1)" />
	<line class="segment RF_003" stroke-linecap="round" style="fill: none; stroke: rgb(255,217,0)" transform="translate(1,1)" x1="628" x2="739" y1="435" y2="435" />
	<path class="segment RF_007" d="M628,435 C628,435 628,435 628,435" stroke-linecap="round" style="fill: none; stroke: rgb(77,255,0)" transform="translate(2,2)" />
	<line class="segment RF_007" stroke-linecap="round" style="fill: none; stroke: rgb(77,255,0)" transform="translate(2,2)" x1="628" x2="739" y1="435" y2="435" />
	<path class="segment U0015716" d="M628,435 C628,435 628,435 628,435" stroke-linecap="round" style="fill: none; stroke: rgb(0,255,140)" transform="translate(3,3)" />
	<line class="segment U0015716" stroke-linecap="round" style="fill: none; stroke: rgb(0,255,140)" transform="translate(3,3)" x1="628" x2="739" y1="435" y2="435" />
	<path class="segment U0015717" d="M628,435 C628,435 628,435 628,435" stroke-linecap="round" style="fill: none; stroke: rgb(0,153,255)" transform="translate(4,4)" />
	<line class="segment U0015717" stroke-linecap="round" style="fill: none; stroke: rgb(0,153,255)" transform="translate(4,4)" x1="628" x2="739" y1="435" y2="435" />
	<path class="segment RF_001" d="M628,435 C628,435 628,435 628,435" stroke-linecap="round" style="fill: none; stroke: rgb(64,0,255)" transform="translate(5,5)" />
	<line class="segment RF_001" stroke-linecap="round" style="fill: none; stroke: rgb(64,0,255)" transform="translate(5,5)" x1="628" x2="739" y1="435" y2="435" />
	<path class="segment RF_012" d="M628,435 C628,435 628,435 628,435" stroke-linecap="round" style="fill: none; stroke: rgb(255,0,230)" transform="translate(6,6)" />
	<line class="segment RF_012" stroke-linecap="round" style="fill: none; stroke: rgb(255,0,230)" transform="translate(6,6)" x1="628" x2="739" y1="435" y2="435" />
	<path class="segment RF_015" d="M739,435 C739,435 739,435 739,435" stroke-linecap="round" style="fill: none; stroke: rgb(255,0,0)" transform="translate(0,0)" />
	<line class="segment RF_015" stroke-linecap="round" style="fill: none; stroke: rgb(255,0,0)" transform="translate(0,0)" x1="739" x2="800" y1="435" y2="435" />
	<path class="segment RF_003" d="M739,435 C739,435 739,435 739,435" stroke-linecap="round" style="fill: none; stroke: rgb(255,217,0)" transform="translate(1,1)" />
	<line class="segment RF_003" stroke-linecap="round" style="fill: none; stroke: rgb(255,217,0)" transform="translate(1,1)" x1="739" x2="800" y1="435" y2="435" />
	<path class="segment RF_007" d="M739,435 C739,435 739,435 739,435" stroke-linecap="round" style="fill: none; stroke: rgb(77,255,0)" transform="translate(2,2)" />
	<line class="segment RF_007" stroke-linecap="round" style="fill: none; stroke: rgb(77,255,0)" transform="translate(2,2)" x1="739" x2="800" y1="435" y2="435" />
	<path class="segment U0015716" d="M739,435 C739,435 739,435 739,435" stroke-linecap="round" style="fill: none; stroke: rgb(0,255,140)" transform="translate(3,3)" />
	<line class="segment U0015716" stroke-linecap="round" style="fill: none; stroke: rgb(0,255,140)" transform="translate(3,3)" x1="739" x2="800" y1="435" y2="435" />
	<path class="segment U0015717" d="M739,435 C739,435 739,435 739,435" stroke-linecap="round" style="fill: none; stroke: rgb(0,153,255)" transform="translate(4,4)" />
	<line class="segment U0015717" stroke-linecap="round" style="fill: none; stroke: rgb(0,153,255)" transform="translate(4,4)" x1="739" x2="800" y1="435" y2="435" />
	<path class="segment RF_001" d="M739,435 C739,435 739,435 739,435" stroke-linecap="round" style="fill: none; stroke: rgb(64,0,255)" transform="translate(5,5)" />
	<line class="segment RF_001" stroke-linecap="round" style="fill: none; stroke: rgb(64,0,255)" transform="translate(5,5)" x1="739" x2="800" y1="435" y2="435" />
	<path class="segment RF_012" d="M739,435 C739,435 739,435 739,435" stroke-linecap="round" style="fill: none; stroke: rgb(255,0,230)" transform="translate(6,6)" />
	<line class="segment RF_012" stroke-linecap="round" style="fill: none; stroke: rgb(255,0,230)" transform="translate(6,6)" x1="739" x2="800" y1="435" y2="435" />
	<polygon class="arrow" points="352,337.5 352,340 342,335 352,330 352,332.5 458,332.5 458,337.5 352,337.5 " style="fill: white; stroke: black" />
	<!-- 
	Generated using the Perl SVG Module V2.59
	by Ronan Oger
	Info: http://www.roitsystems.com/
 -->
</svg>