<?xml version="1.0" encoding="UTF-8" standalone="yes"?>
<!DOCTYPE svg PUBLIC "-//W3C//DTD SVG 1.0//EN" "http://www.w3.org/TR/2001/REC-SVG-20010904/DTD/svg10.dtd">
<svg height="600" width="800" xmlns="http://www.w3.org/2000/svg" xmlns:svg="http://www.w3.org/2000/svg" xmlns:xlink="http://www.w3.org/1999/xlink">
	<line class="breakpoint" style="fill: white; stroke: black; stroke-width: 0.1" x1="193" x2="193" y1="100" y2="300" />
	<text class="breakpoint" style="font: 10px Verdana" transform="rotate(-90,4,90)" x="4" y="90">31,537,114</text>
	<line class="breakpoint" style="fill: white; stroke: black; stroke-width: 0.1" x1="230" x2="230" y1="100" y2="300" />
	<text class="breakpoint" style="font: 10px Verdana" transform="rotate(-90,197,90)" x="197" y="90">31,542,410</text>
	<line class="breakpoint" style="fill: white; stroke: black; stroke-width: 0.1" x1="377" x2="377" y1="100" y2="300" />
	<text class="breakpoint" style="font: 10px Verdana" transform="rotate(-90,234,90)" x="234" y="90">31,543,407</text>
	<line class="breakpoint" style="fill: white; stroke: black; stroke-width: 0.1" x1="450" x2="450" y1="100" y2="300" />
	<text class="breakpoint" style="font: 10px Verdana" transform="rotate(-90,381,90)" x="381" y="90">31,547,449</text>
	<line class="breakpoint" style="fill: white; stroke: black; stroke-width: 0.1" x1="565" x2="565" y1="100" y2="300" />
	<text class="breakpoint" style="font: 10px Verdana" transform="rotate(-90,454,90)" x="454" y="90">31,549,442</text>
	<line class="breakpoint" style="fill: white; stroke: black; stroke-width: 0.1" x1="800" x2="800" y1="100" y2="300" />
	<text class="breakpoint" style="font: 10px Verdana" transform="rotate(-90,569,90)" x="569" y="90">31,552,599</text>
	<polyline class="scale" points="0,294 0,306 0,300 4,300 4,298 4,302 4,300 7,300 7,298 7,302 7,300 11,300 11,298 11,302 11,300 15,300 15,298 15,302 15,300 18,300 18,298 18,302 18,300 22,300 22,298 22,302 22,300 26,300 26,298 26,302 26,300 29,300 29,298 29,302 29,300 33,300 33,298 33,302 33,300 37,300 37,294 37,306 37,300 40,300 40,298 40,302 40,300 44,300 44,298 44,302 44,300 47,300 47,298 47,302 47,300 51,300 51,298 51,302 51,300 55,300 55,298 55,302 55,300 58,300 58,298 58,302 58,300 62,300 62,298 62,302 62,300 66,300 66,298 66,302 66,300 69,300 69,298 69,302 69,300 73,300 73,294 73,306 73,300 77,300 77,298 77,302 77,300 80,300 80,298 80,302 80,300 84,300 84,298 84,302 84,300 88,300 88,298 88,302 88,300 91,300 91,298 91,302 91,300 95,300 95,298 95,302 95,300 99,300 99,298 99,302 99,300 102,300 102,298 102,302 102,300 106,300 106,298 106,302 106,300 110,300 110,294 110,306 110,300 113,300 113,298 113,302 113,300 117,300 117,298 117,302 117,300 120,300 120,298 120,302 120,300 124,300 124,298 124,302 124,300 128,300 128,298 128,302 128,300 131,300 131,298 131,302 131,300 135,300 135,298 135,302 135,300 139,300 139,298 139,302 139,300 142,300 142,298 142,302 142,300 146,300 146,294 146,306 146,300 150,300 150,298 150,302 150,300 153,300 153,298 153,302 153,300 157,300 157,298 157,302 157,300 161,300 161,298 161,302 161,300 164,300 164,298 164,302 164,300 168,300 168,298 168,302 168,300 172,300 172,298 172,302 172,300 175,300 175,298 175,302 175,300 179,300 179,298 179,302 179,300 183,300 183,294 183,306 183,300 186,300 186,298 186,302 186,300 190,300 190,298 190,302 190,300 193,300 193,298 193,302 193,300 197,300 197,298 197,302 197,300 201,300 201,298 201,302 201,300 204,300 204,298 204,302 204,300 208,300 208,298 208,302 208,300 212,300 212,298 212,302 212,300 215,300 215,298 215,302 215,300 219,300 219,294 219,306 219,300 223,300 223,298 223,302 223,300 226,300 226,298 226,302 226,300 230,300 230,298 230,302 230,300 234,300 234,298 234,302 234,300 237,300 237,298 237,302 237,300 241,300 241,298 241,302 241,300 245,300 245,298 245,302 245,300 248,300 248,298 248,302 248,300 252,300 252,298 252,302 252,300 256,300 256,294 256,306 256,300 259,300 259,298 259,302 259,300 263,300 263,298 263,302 263,300 267,300 267,298 267,302 267,300 270,300 270,298 270,302 270,300 274,300 274,298 274,302 274,300 277,300 277,298 277,302 277,300 281,300 281,298 281,302 281,300 285,300 285,298 285,302 285,300 288,300 288,298 288,302 288,300 292,300 292,294 292,306 292,300 296,300 296,298 296,302 296,300 299,300 299,298 299,302 299,300 303,300 303,298 303,302 303,300 307,300 307,298 307,302 307,300 310,300 310,298 310,302 310,300 314,300 314,298 314,302 314,300 318,300 318,298 318,302 318,300 321,300 321,298 321,302 321,300 325,300 325,298 325,302 325,300 329,300 329,294 329,306 329,300 332,300 332,298 332,302 332,300 336,300 336,298 336,302 336,300 340,300 340,298 340,302 340,300 343,300 343,298 343,302 343,300 347,300 347,298 347,302 347,300 350,300 350,298 350,302 350,300 354,300 354,298 354,302 354,300 358,300 358,298 358,302 358,300 361,300 361,298 361,302 361,300 365,300 365,294 365,306 365,300 369,300 369,298 369,302 369,300 372,300 372,298 372,302 372,300 376,300 376,298 376,302 376,300 380,300 380,298 380,302 380,300 383,300 383,298 383,302 383,300 387,300 387,298 387,302 387,300 391,300 391,298 391,302 391,300 394,300 394,298 394,302 394,300 398,300 398,298 398,302 398,300 402,300 402,294 402,306 402,300 405,300 405,298 405,302 405,300 409,300 409,298 409,302 409,300 413,300 413,298 413,302 413,300 416,300 416,298 416,302 416,300 420,300 420,298 420,302 420,300 423,300 423,298 423,302 423,300 427,300 427,298 427,302 427,300 431,300 431,298 431,302 431,300 434,300 434,298 434,302 434,300 438,300 438,294 438,306 438,300 442,300 442,298 442,302 442,300 445,300 445,298 445,302 445,300 449,300 449,298 449,302 449,300 453,300 453,298 453,302 453,300 456,300 456,298 456,302 456,300 460,300 460,298 460,302 460,300 464,300 464,298 464,302 464,300 467,300 467,298 467,302 467,300 471,300 471,298 471,302 471,300 475,300 475,294 475,306 475,300 478,300 478,298 478,302 478,300 482,300 482,298 482,302 482,300 486,300 486,298 486,302 486,300 489,300 489,298 489,302 489,300 493,300 493,298 493,302 493,300 497,300 497,298 497,302 497,300 500,300 500,298 500,302 500,300 504,300 504,298 504,302 504,300 507,300 507,298 507,302 507,300 511,300 511,294 511,306 511,300 515,300 515,298 515,302 515,300 518,300 518,298 518,302 518,300 522,300 522,298 522,302 522,300 526,300 526,298 526,302 526,300 529,300 529,298 529,302 529,300 533,300 533,298 533,302 533,300 537,300 537,298 537,302 537,300 540,300 540,298 540,302 540,300 544,300 544,298 544,302 544,300 548,300 548,294 548,306 548,300 551,300 551,298 551,302 551,300 555,300 555,298 555,302 555,300 559,300 559,298 559,302 559,300 562,300 562,298 562,302 562,300 566,300 566,298 566,302 566,300 570,300 570,298 570,302 570,300 573,300 573,298 573,302 573,300 577,300 577,298 577,302 577,300 580,300 580,298 580,302 580,300 584,300 584,294 584,306 584,300 588,300 588,298 588,302 588,300 591,300 591,298 591,302 591,300 595,300 595,298 595,302 595,300 599,300 599,298 599,302 599,300 602,300 602,298 602,302 602,300 606,300 606,298 606,302 606,300 610,300 610,298 610,302 610,300 613,300 613,298 613,302 613,300 617,300 617,298 617,302 617,300 621,300 621,294 621,306 621,300 624,300 624,298 624,302 624,300 628,300 628,298 628,302 628,300 632,300 632,298 632,302 632,300 635,300 635,298 635,302 635,300 639,300 639,298 639,302 639,300 643,300 643,298 643,302 643,300 646,300 646,298 646,302 646,300 650,300 650,298 650,302 650,300 653,300 653,298 653,302 653,300 657,300 657,294 657,306 657,300 661,300 661,298 661,302 661,300 664,300 664,298 664,302 664,300 668,300 668,298 668,302 668,300 672,300 672,298 672,302 672,300 675,300 675,298 675,302 675,300 679,300 679,298 679,302 679,300 683,300 683,298 683,302 683,300 686,300 686,298 686,302 686,300 690,300 690,298 690,302 690,300 694,300 694,294 694,306 694,300 697,300 697,298 697,302 697,300 701,300 701,298 701,302 701,300 705,300 705,298 705,302 705,300 708,300 708,298 708,302 708,300 712,300 712,298 712,302 712,300 716,300 716,298 716,302 716,300 719,300 719,298 719,302 719,300 723,300 723,298 723,302 723,300 727,300 727,298 727,302 727,300 730,300 730,294 730,306 730,300 734,300 734,298 734,302 734,300 737,300 737,298 737,302 737,300 741,300 741,298 741,302 741,300 745,300 745,298 745,302 745,300 748,300 748,298 748,302 748,300 752,300 752,298 752,302 752,300 756,300 756,298 756,302 756,300 759,300 759,298 759,302 759,300 763,300 763,298 763,302 763,300 767,300 767,294 767,306 767,300 770,300 770,298 770,302 770,300 774,300 774,298 774,302 774,300 778,300 778,298 778,302 778,300 781,300 781,298 781,302 781,300 785,300 785,298 785,302 785,300 789,300 789,298 789,302 789,300 792,300 792,298 792,302 792,300 796,300 796,298 796,302 796,300 800,300 800,298 800,302 800,300 800,300 " style="fill: none; stroke: black; stroke-width: 0.1" />
	<rect class="exon" height="50" style="fill: white; stroke: black" width="4" x="374" y="275" />
	<text class="exon" style="font: 10px Verdana" transform="rotate(-90,378,265)" x="378" y="265">31,547,360 .. 31,547,468</text>
	<line class="intron" style="fill: white; stroke: black" x1="378" x2="389" y1="300" y2="300" />
	<rect class="exon" height="50" style="fill: white; stroke: black" width="6" x="389" y="275" />
	<text class="exon" style="font: 10px Verdana" transform="rotate(-90,393,265)" x="393" y="265">31,547,763 .. 31,547,936</text>
	<line class="intron" style="fill: white; stroke: black" x1="395" x2="398" y1="300" y2="300" />
	<rect class="exon" height="50" style="fill: white; stroke: black" width="6" x="398" y="275" />
	<text class="exon" style="font: 10px Verdana" transform="rotate(-90,402,265)" x="402" y="265">31,548,015 .. 31,548,188</text>
	<line class="intron" style="fill: white; stroke: black" x1="404" x2="418" y1="300" y2="300" />
	<rect class="exon" height="50" style="fill: white; stroke: black" width="16" x="418" y="275" />
	<text class="exon" style="font: 10px Verdana" transform="rotate(-90,422,265)" x="422" y="265">31,548,552 .. 31,549,011</text>
	<line class="breakpoint" style="fill: white; stroke: black; stroke-width: 0.1" x1="193" x2="193" y1="100" y2="300" />
	<text class="breakpoint" style="font: 10px Verdana" transform="rotate(-90,4,90)" x="4" y="90">31,537,114</text>
	<line class="breakpoint" style="fill: white; stroke: black; stroke-width: 0.1" x1="230" x2="230" y1="100" y2="300" />
	<text class="breakpoint" style="font: 10px Verdana" transform="rotate(-90,197,90)" x="197" y="90">31,542,410</text>
	<line class="breakpoint" style="fill: white; stroke: black; stroke-width: 0.1" x1="377" x2="377" y1="100" y2="300" />
	<text class="breakpoint" style="font: 10px Verdana" transform="rotate(-90,234,90)" x="234" y="90">31,543,407</text>
	<line class="breakpoint" style="fill: white; stroke: black; stroke-width: 0.1" x1="450" x2="450" y1="100" y2="300" />
	<text class="breakpoint" style="font: 10px Verdana" transform="rotate(-90,381,90)" x="381" y="90">31,547,449</text>
	<line class="breakpoint" style="fill: white; stroke: black; stroke-width: 0.1" x1="565" x2="565" y1="100" y2="300" />
	<text class="breakpoint" style="font: 10px Verdana" transform="rotate(-90,454,90)" x="454" y="90">31,549,442</text>
	<line class="breakpoint" style="fill: white; stroke: black; stroke-width: 0.1" x1="800" x2="800" y1="100" y2="300" />
	<text class="breakpoint" style="font: 10px Verdana" transform="rotate(-90,569,90)" x="569" y="90">31,552,599</text>
	<line style="fill: none; stroke: gray; stroke-width: 0.1" x1="0" x2="800" y1="345" y2="345" />
	<text class="crossover ITAG2_3" style="font: 10px Verdana" x="4" y="339">S. l. Heinz 1706</text>
	<line style="fill: none; stroke: rgb(255,0,0)" x1="5" x2="10" y1="480" y2="480" />
	<text class="crossover" style="font: 10px Verdana" x="15" y="485">S. l. var Momatero</text>
	<line style="fill: none; stroke: rgb(255,217,0)" x1="5" x2="10" y1="495" y2="495" />
	<text class="crossover" style="font: 10px Verdana" x="15" y="500">S. l. var Gardener&apos;s Delight	</text>
	<line style="fill: none; stroke: rgb(77,255,0)" x1="5" x2="10" y1="510" y2="510" />
	<text class="crossover" style="font: 10px Verdana" x="15" y="515">S. l. var Katinka Cherry</text>
	<line style="fill: none; stroke: rgb(0,255,140)" x1="5" x2="10" y1="525" y2="525" />
	<text class="crossover" style="font: 10px Verdana" x="15" y="530">S. l. (1891)</text>
	<line style="fill: none; stroke: rgb(0,153,255)" x1="5" x2="10" y1="540" y2="540" />
	<text class="crossover" style="font: 10px Verdana" x="15" y="545">S. l. (1830)</text>
	<line style="fill: none; stroke: rgb(64,0,255)" x1="5" x2="10" y1="555" y2="555" />
	<text class="crossover" style="font: 10px Verdana" x="15" y="560">S. l. var Moneymaker</text>
	<line style="fill: none; stroke: rgb(255,0,230)" x1="5" x2="10" y1="570" y2="570" />
	<text class="crossover" style="font: 10px Verdana" x="15" y="575">S. l. var Sonato</text>
	<line class="segment RF_015" stroke-linecap="round" style="fill: none; stroke: rgb(255,0,0)" transform="translate(0,0)" x1="0" x2="193" y1="345" y2="345" />
	<line class="segment RF_003" stroke-linecap="round" style="fill: none; stroke: rgb(255,217,0)" transform="translate(1,1)" x1="0" x2="193" y1="345" y2="345" />
	<line class="segment RF_007" stroke-linecap="round" style="fill: none; stroke: rgb(77,255,0)" transform="translate(2,2)" x1="0" x2="193" y1="345" y2="345" />
	<line class="segment U0015716" stroke-linecap="round" style="fill: none; stroke: rgb(0,255,140)" transform="translate(3,3)" x1="0" x2="193" y1="345" y2="345" />
	<line class="segment U0015717" stroke-linecap="round" style="fill: none; stroke: rgb(0,153,255)" transform="translate(4,4)" x1="0" x2="193" y1="345" y2="345" />
	<line class="segment RF_001" stroke-linecap="round" style="fill: none; stroke: rgb(64,0,255)" transform="translate(5,5)" x1="0" x2="193" y1="345" y2="345" />
	<line class="segment RF_012" stroke-linecap="round" style="fill: none; stroke: rgb(255,0,230)" transform="translate(6,6)" x1="0" x2="193" y1="345" y2="345" />
	<path class="segment RF_015" d="M193,345 C193,345 193,345 193,345" stroke-linecap="round" style="fill: none; stroke: rgb(255,0,0)" transform="translate(0,0)" />
	<line class="segment RF_015" stroke-linecap="round" style="fill: none; stroke: rgb(255,0,0)" transform="translate(0,0)" x1="193" x2="230" y1="345" y2="345" />
	<path class="segment RF_003" d="M193,345 C193,345 193,345 193,345" stroke-linecap="round" style="fill: none; stroke: rgb(255,217,0)" transform="translate(1,1)" />
	<line class="segment RF_003" stroke-linecap="round" style="fill: none; stroke: rgb(255,217,0)" transform="translate(1,1)" x1="193" x2="230" y1="345" y2="345" />
	<path class="segment RF_007" d="M193,345 C193,345 193,345 193,345" stroke-linecap="round" style="fill: none; stroke: rgb(77,255,0)" transform="translate(2,2)" />
	<line class="segment RF_007" stroke-linecap="round" style="fill: none; stroke: rgb(77,255,0)" transform="translate(2,2)" x1="193" x2="230" y1="345" y2="345" />
	<path class="segment U0015716" d="M193,345 C193,345 193,345 193,345" stroke-linecap="round" style="fill: none; stroke: rgb(0,255,140)" transform="translate(3,3)" />
	<line class="segment U0015716" stroke-linecap="round" style="fill: none; stroke: rgb(0,255,140)" transform="translate(3,3)" x1="193" x2="230" y1="345" y2="345" />
	<path class="segment U0015717" d="M193,345 C193,345 193,345 193,345" stroke-linecap="round" style="fill: none; stroke: rgb(0,153,255)" transform="translate(4,4)" />
	<line class="segment U0015717" stroke-linecap="round" style="fill: none; stroke: rgb(0,153,255)" transform="translate(4,4)" x1="193" x2="230" y1="345" y2="345" />
	<path class="segment RF_001" d="M193,345 C193,345 193,345 193,345" stroke-linecap="round" style="fill: none; stroke: rgb(64,0,255)" transform="translate(5,5)" />
	<line class="segment RF_001" stroke-linecap="round" style="fill: none; stroke: rgb(64,0,255)" transform="translate(5,5)" x1="193" x2="230" y1="345" y2="345" />
	<path class="segment RF_012" d="M193,345 C193,345 193,345 193,345" stroke-linecap="round" style="fill: none; stroke: rgb(255,0,230)" transform="translate(6,6)" />
	<line class="segment RF_012" stroke-linecap="round" style="fill: none; stroke: rgb(255,0,230)" transform="translate(6,6)" x1="193" x2="230" y1="345" y2="345" />
	<path class="segment RF_015" d="M230,345 C230,345 230,345 230,345" stroke-linecap="round" style="fill: none; stroke: rgb(255,0,0)" transform="translate(0,0)" />
	<line class="segment RF_015" stroke-linecap="round" style="fill: none; stroke: rgb(255,0,0)" transform="translate(0,0)" x1="230" x2="377" y1="345" y2="345" />
	<path class="segment RF_003" d="M230,345 C230,345 230,345 230,345" stroke-linecap="round" style="fill: none; stroke: rgb(255,217,0)" transform="translate(1,1)" />
	<line class="segment RF_003" stroke-linecap="round" style="fill: none; stroke: rgb(255,217,0)" transform="translate(1,1)" x1="230" x2="377" y1="345" y2="345" />
	<path class="segment RF_007" d="M230,345 C230,345 230,345 230,345" stroke-linecap="round" style="fill: none; stroke: rgb(77,255,0)" transform="translate(2,2)" />
	<line class="segment RF_007" stroke-linecap="round" style="fill: none; stroke: rgb(77,255,0)" transform="translate(2,2)" x1="230" x2="377" y1="345" y2="345" />
	<path class="segment U0015716" d="M230,345 C230,345 230,345 230,345" stroke-linecap="round" style="fill: none; stroke: rgb(0,255,140)" transform="translate(3,3)" />
	<line class="segment U0015716" stroke-linecap="round" style="fill: none; stroke: rgb(0,255,140)" transform="translate(3,3)" x1="230" x2="377" y1="345" y2="345" />
	<path class="segment U0015717" d="M230,345 C230,345 230,345 230,345" stroke-linecap="round" style="fill: none; stroke: rgb(0,153,255)" transform="translate(4,4)" />
	<line class="segment U0015717" stroke-linecap="round" style="fill: none; stroke: rgb(0,153,255)" transform="translate(4,4)" x1="230" x2="377" y1="345" y2="345" />
	<path class="segment RF_001" d="M230,345 C230,345 230,345 230,345" stroke-linecap="round" style="fill: none; stroke: rgb(64,0,255)" transform="translate(5,5)" />
	<line class="segment RF_001" stroke-linecap="round" style="fill: none; stroke: rgb(64,0,255)" transform="translate(5,5)" x1="230" x2="377" y1="345" y2="345" />
	<path class="segment RF_012" d="M230,345 C230,345 230,345 230,345" stroke-linecap="round" style="fill: none; stroke: rgb(255,0,230)" transform="translate(6,6)" />
	<line class="segment RF_012" stroke-linecap="round" style="fill: none; stroke: rgb(255,0,230)" transform="translate(6,6)" x1="230" x2="377" y1="345" y2="345" />
	<path class="segment RF_015" d="M377,345 C377,345 377,345 377,345" stroke-linecap="round" style="fill: none; stroke: rgb(255,0,0)" transform="translate(0,0)" />
	<line class="segment RF_015" stroke-linecap="round" style="fill: none; stroke: rgb(255,0,0)" transform="translate(0,0)" x1="377" x2="450" y1="345" y2="345" />
	<path class="segment RF_003" d="M377,345 C377,345 377,345 377,345" stroke-linecap="round" style="fill: none; stroke: rgb(255,217,0)" transform="translate(1,1)" />
	<line class="segment RF_003" stroke-linecap="round" style="fill: none; stroke: rgb(255,217,0)" transform="translate(1,1)" x1="377" x2="450" y1="345" y2="345" />
	<path class="segment RF_007" d="M377,345 C377,345 377,345 377,345" stroke-linecap="round" style="fill: none; stroke: rgb(77,255,0)" transform="translate(2,2)" />
	<line class="segment RF_007" stroke-linecap="round" style="fill: none; stroke: rgb(77,255,0)" transform="translate(2,2)" x1="377" x2="450" y1="345" y2="345" />
	<path class="segment U0015716" d="M377,345 C377,345 377,345 377,345" stroke-linecap="round" style="fill: none; stroke: rgb(0,255,140)" transform="translate(3,3)" />
	<line class="segment U0015716" stroke-linecap="round" style="fill: none; stroke: rgb(0,255,140)" transform="translate(3,3)" x1="377" x2="450" y1="345" y2="345" />
	<path class="segment U0015717" d="M377,345 C377,345 377,345 377,345" stroke-linecap="round" style="fill: none; stroke: rgb(0,153,255)" transform="translate(4,4)" />
	<line class="segment U0015717" stroke-linecap="round" style="fill: none; stroke: rgb(0,153,255)" transform="translate(4,4)" x1="377" x2="450" y1="345" y2="345" />
	<path class="segment RF_001" d="M377,345 C377,345 377,345 377,345" stroke-linecap="round" style="fill: none; stroke: rgb(64,0,255)" transform="translate(5,5)" />
	<line class="segment RF_001" stroke-linecap="round" style="fill: none; stroke: rgb(64,0,255)" transform="translate(5,5)" x1="377" x2="450" y1="345" y2="345" />
	<path class="segment RF_012" d="M377,345 C377,345 377,345 377,345" stroke-linecap="round" style="fill: none; stroke: rgb(255,0,230)" transform="translate(6,6)" />
	<line class="segment RF_012" stroke-linecap="round" style="fill: none; stroke: rgb(255,0,230)" transform="translate(6,6)" x1="377" x2="450" y1="345" y2="345" />
	<path class="segment RF_015" d="M450,345 C450,345 450,345 450,345" stroke-linecap="round" style="fill: none; stroke: rgb(255,0,0)" transform="translate(0,0)" />
	<line class="segment RF_015" stroke-linecap="round" style="fill: none; stroke: rgb(255,0,0)" transform="translate(0,0)" x1="450" x2="565" y1="345" y2="345" />
	<path class="segment RF_003" d="M450,345 C450,345 450,345 450,345" stroke-linecap="round" style="fill: none; stroke: rgb(255,217,0)" transform="translate(1,1)" />
	<line class="segment RF_003" stroke-linecap="round" style="fill: none; stroke: rgb(255,217,0)" transform="translate(1,1)" x1="450" x2="565" y1="345" y2="345" />
	<path class="segment RF_007" d="M450,345 C450,345 450,345 450,345" stroke-linecap="round" style="fill: none; stroke: rgb(77,255,0)" transform="translate(2,2)" />
	<line class="segment RF_007" stroke-linecap="round" style="fill: none; stroke: rgb(77,255,0)" transform="translate(2,2)" x1="450" x2="565" y1="345" y2="345" />
	<path class="segment U0015716" d="M450,345 C450,345 450,345 450,345" stroke-linecap="round" style="fill: none; stroke: rgb(0,255,140)" transform="translate(3,3)" />
	<line class="segment U0015716" stroke-linecap="round" style="fill: none; stroke: rgb(0,255,140)" transform="translate(3,3)" x1="450" x2="565" y1="345" y2="345" />
	<path class="segment U0015717" d="M450,345 C450,345 450,345 450,345" stroke-linecap="round" style="fill: none; stroke: rgb(0,153,255)" transform="translate(4,4)" />
	<line class="segment U0015717" stroke-linecap="round" style="fill: none; stroke: rgb(0,153,255)" transform="translate(4,4)" x1="450" x2="565" y1="345" y2="345" />
	<path class="segment RF_001" d="M450,345 C450,345 450,345 450,345" stroke-linecap="round" style="fill: none; stroke: rgb(64,0,255)" transform="translate(5,5)" />
	<line class="segment RF_001" stroke-linecap="round" style="fill: none; stroke: rgb(64,0,255)" transform="translate(5,5)" x1="450" x2="565" y1="345" y2="345" />
	<path class="segment RF_012" d="M450,345 C450,345 450,345 450,345" stroke-linecap="round" style="fill: none; stroke: rgb(255,0,230)" transform="translate(6,6)" />
	<line class="segment RF_012" stroke-linecap="round" style="fill: none; stroke: rgb(255,0,230)" transform="translate(6,6)" x1="450" x2="565" y1="345" y2="345" />
	<path class="segment RF_015" d="M565,345 C565,345 565,345 565,345" stroke-linecap="round" style="fill: none; stroke: rgb(255,0,0)" transform="translate(0,0)" />
	<line class="segment RF_015" stroke-linecap="round" style="fill: none; stroke: rgb(255,0,0)" transform="translate(0,0)" x1="565" x2="800" y1="345" y2="345" />
	<path class="segment RF_003" d="M565,345 C565,345 565,345 565,345" stroke-linecap="round" style="fill: none; stroke: rgb(255,217,0)" transform="translate(1,1)" />
	<line class="segment RF_003" stroke-linecap="round" style="fill: none; stroke: rgb(255,217,0)" transform="translate(1,1)" x1="565" x2="800" y1="345" y2="345" />
	<path class="segment RF_007" d="M565,345 C565,345 565,345 565,345" stroke-linecap="round" style="fill: none; stroke: rgb(77,255,0)" transform="translate(2,2)" />
	<line class="segment RF_007" stroke-linecap="round" style="fill: none; stroke: rgb(77,255,0)" transform="translate(2,2)" x1="565" x2="800" y1="345" y2="345" />
	<path class="segment U0015716" d="M565,345 C565,345 565,345 565,345" stroke-linecap="round" style="fill: none; stroke: rgb(0,255,140)" transform="translate(3,3)" />
	<line class="segment U0015716" stroke-linecap="round" style="fill: none; stroke: rgb(0,255,140)" transform="translate(3,3)" x1="565" x2="800" y1="345" y2="345" />
	<path class="segment U0015717" d="M565,345 C565,345 565,345 565,345" stroke-linecap="round" style="fill: none; stroke: rgb(0,153,255)" transform="translate(4,4)" />
	<line class="segment U0015717" stroke-linecap="round" style="fill: none; stroke: rgb(0,153,255)" transform="translate(4,4)" x1="565" x2="800" y1="345" y2="345" />
	<path class="segment RF_001" d="M565,345 C565,345 565,345 565,345" stroke-linecap="round" style="fill: none; stroke: rgb(64,0,255)" transform="translate(5,5)" />
	<line class="segment RF_001" stroke-linecap="round" style="fill: none; stroke: rgb(64,0,255)" transform="translate(5,5)" x1="565" x2="800" y1="345" y2="345" />
	<path class="segment RF_012" d="M565,345 C565,345 565,345 565,345" stroke-linecap="round" style="fill: none; stroke: rgb(255,0,230)" transform="translate(6,6)" />
	<line class="segment RF_012" stroke-linecap="round" style="fill: none; stroke: rgb(255,0,230)" transform="translate(6,6)" x1="565" x2="800" y1="345" y2="345" />
	<polygon class="arrow" points="375,337.5 375,340 365,335 375,330 375,332.5 435,332.5 435,337.5 375,337.5 " style="fill: white; stroke: black" />
	<rect class="three_prime_UTR" height="50" style="fill: silver; stroke: black" width="9" x="365" y="275" />
	<text class="three_prime_UTR" style="font: 10px Verdana" transform="rotate(-90,369,265)" x="369" y="265">31,547,113 .. 31,547,360</text>
	<rect class="five_prime_UTR" height="50" style="fill: silver; stroke: black" width="1" x="434" y="275" />
	<text class="five_prime_UTR" style="font: 10px Verdana" transform="rotate(-90,438,265)" x="438" y="265">31,549,011 .. 31,549,026</text>
	<!-- 
	Generated using the Perl SVG Module V2.59
	by Ronan Oger
	Info: http://www.roitsystems.com/
 -->
</svg>